<svg width="369" height="470" viewBox="0 0 369 470" fill="none" xmlns="http://www.w3.org/2000/svg">
<path fill-rule="evenodd" clip-rule="evenodd" d="M292.007 159.463C291.794 160.649 291.154 161.611 290.085 162.347C293.309 178.128 297.154 193.829 301.621 209.452C302.586 211.415 303.867 211.736 305.466 210.414C312.336 185.461 323.551 162.708 339.113 142.159C340.984 127.591 345.469 114.132 352.572 101.783C354.858 105.115 357.101 108.32 359.301 111.396C366.376 123.001 369.579 135.82 368.914 149.85C369.162 176.356 360.51 199.428 342.958 219.066C331.803 230.192 319.946 240.127 307.389 248.867C312.505 270.278 317.312 291.748 321.809 313.276C327.064 353.183 317.129 388.432 292.007 419.023C291.304 416.726 289.702 415.445 287.201 415.178C248.738 422.105 214.449 412.811 184.338 387.299C178.57 386.017 172.802 386.017 167.034 387.299C129.78 414.755 97.7366 409.627 70.9006 371.918C69.0779 370.989 67.1552 370.67 65.1326 370.956C64.3095 364.641 62.3868 358.872 59.3646 353.652C54.2186 335.627 50.6935 317.043 48.7899 297.895C39.7478 307.983 33.0184 319.519 28.6019 332.503C25.5746 334.678 22.3701 334.999 18.9885 333.464C-5.32861 303.603 -6.28994 273.162 16.1045 242.138C37.958 222.419 54.3007 199.026 65.1326 171.96C50.3229 131.577 57.0522 95.367 85.3206 63.3296C105.245 41.0324 129.919 27.5737 159.343 22.9535C160.072 10.6888 166.48 4.28055 178.57 3.72682C178.268 6.36665 178.589 8.93149 179.531 11.4175C185.744 1.73879 194.396 -1.78739 205.487 0.842822C208.777 3.02121 209.738 5.90521 208.371 9.49483C205.157 14.9494 200.99 19.435 195.874 22.9535C239.621 31.1287 270.702 55.4812 289.123 96.0149C291.965 117.458 292.927 138.608 292.007 159.463Z" fill="#322F2F"/>
<path fill-rule="evenodd" clip-rule="evenodd" d="M199.721 370.957C190.725 371.276 181.754 370.955 172.804 369.995C176.797 369.626 180.642 368.665 184.34 367.111C175.28 361.807 165.667 357 155.5 352.691C148.77 343.399 140.759 335.387 131.466 328.658C114.397 305.259 110.551 279.624 119.93 251.751C120.57 253.034 121.213 254.314 121.853 255.597C129.457 232.959 143.235 215.334 163.19 202.723C175.234 196.669 187.412 190.901 199.721 185.419C177.783 187.548 155.994 186.265 134.35 181.574C127.19 175.448 118.857 171.284 109.356 169.076C105.82 162.67 100.693 158.185 93.9742 155.618C83.9215 122.654 92.2532 95.4171 118.969 73.9044C132.074 67.7038 141.366 71.228 146.848 84.4791C150.679 96.6053 154.204 108.782 157.422 121.01C156.615 124.074 155.334 126.958 153.577 129.662C154.054 133.025 155.976 134.626 159.345 134.468C162.715 137.781 166.561 140.665 170.881 143.12C180.137 141.021 188.148 136.214 194.914 128.7C193.978 125.732 193.017 122.529 192.03 119.087C195.547 105.023 199.071 90.9239 202.605 76.7884C205.008 70.5224 209.494 67.3192 216.064 67.175C227.848 68.2594 237.461 73.3872 244.904 82.5564C263.419 102.867 267.906 125.939 258.362 151.772C254.732 162.241 249.605 171.855 242.981 180.612C239.034 199.489 240.316 218.076 246.826 236.37C252.587 253.653 258.355 270.957 264.13 288.282C267.57 335.16 246.1 362.718 199.721 370.957Z" fill="#FCFBFB"/>
<path fill-rule="evenodd" clip-rule="evenodd" d="M118.967 97.9377C129.527 96.2496 132.089 99.4527 126.658 107.551C126.866 109.362 127.506 110.964 128.581 112.358C133.116 112.758 137.283 113.077 141.078 113.319C142.487 122.861 138.323 128.95 128.581 131.584C112.905 132.55 106.816 125.18 110.315 109.474C112.876 105.321 115.76 101.475 118.967 97.9377Z" fill="#302E2F"/>
<path fill-rule="evenodd" clip-rule="evenodd" d="M217.023 94.0925C221.555 93.7791 226.041 94.0982 230.482 95.0538C226.837 98.53 225.875 102.696 227.598 107.551C230.803 110.114 234.006 110.114 237.211 107.551C239.246 124.075 231.876 130.164 215.101 125.816C204.711 114.817 205.351 104.242 217.023 94.0925Z" fill="#302F30"/>
<path fill-rule="evenodd" clip-rule="evenodd" d="M192.029 119.087C193.015 122.529 193.976 125.732 194.913 128.7C188.147 136.214 180.135 141.021 170.879 143.12C166.559 140.665 162.714 137.781 159.343 134.468C155.975 134.626 154.052 133.025 153.575 129.662C155.333 126.959 156.613 124.074 157.421 121.01C162.183 117.262 167.63 114.7 173.763 113.319C179.074 115.334 184.201 117.897 189.145 121.01C189.881 119.941 190.842 119.301 192.029 119.087Z" fill="#EDA158"/>
<path fill-rule="evenodd" clip-rule="evenodd" d="M159.342 134.468C158.471 132.627 157.191 131.023 155.497 129.662C166.449 128.066 177.344 128.387 188.182 130.623C179.14 136.407 169.527 137.689 159.342 134.468Z" fill="#D4621F"/>
<path fill-rule="evenodd" clip-rule="evenodd" d="M359.301 111.397C357.101 108.32 354.858 105.115 352.572 101.783C345.469 114.133 340.984 127.591 339.113 142.159C323.551 162.709 312.336 185.462 305.466 210.414C303.867 211.737 302.586 211.416 301.621 209.453C297.155 193.829 293.309 178.129 290.085 162.347C291.154 161.611 291.794 160.65 292.008 159.463C316.252 147.066 332.595 127.839 341.036 101.783C345.937 94.5637 351.064 94.5637 356.417 101.783C358.357 104.715 359.318 107.921 359.301 111.397Z" fill="#252223"/>
<path fill-rule="evenodd" clip-rule="evenodd" d="M93.9717 155.618C100.69 158.185 105.817 162.67 109.353 169.077C118.855 171.284 127.188 175.448 134.348 181.574C155.991 186.265 177.781 187.548 199.718 185.419C187.41 190.901 175.231 196.669 163.188 202.723C143.232 215.334 129.455 232.959 121.85 255.597C121.21 254.314 120.568 253.034 119.928 251.751C110.549 279.624 114.394 305.259 131.464 328.658C140.756 335.387 148.768 343.399 155.497 352.691C165.664 357 175.277 361.807 184.337 367.111C180.64 368.665 176.794 369.626 172.801 369.995C181.751 370.955 190.722 371.276 199.718 370.957C168.923 376.807 143.609 367.194 123.773 342.117C100.337 310.475 92.6462 275.227 100.701 236.37C105.713 220.373 110.52 204.35 115.121 188.303C114.8 186.381 114.481 184.458 114.16 182.535C106.273 174.343 99.5445 165.37 93.9717 155.618Z" fill="#F1EEEF"/>
<path fill-rule="evenodd" clip-rule="evenodd" d="M59.3643 353.653C62.3865 358.873 64.3092 364.641 65.1323 370.957C67.1549 370.67 69.0776 370.99 70.9003 371.918C97.7363 409.627 129.78 414.755 167.034 387.3C172.802 386.017 178.57 386.017 184.338 387.3C214.449 412.811 248.737 422.106 287.2 415.178C289.702 415.445 291.303 416.726 292.007 419.024C289.444 420.306 287.522 422.229 286.239 424.792C272.442 431.611 257.701 434.174 242.018 432.482C218.811 419.633 193.816 415.469 167.034 419.985C158.682 422.882 150.349 425.766 142.039 428.637C131.32 430.467 120.426 431.109 109.354 430.56C103.276 427.843 97.5077 424.638 92.0496 420.946C92.0496 419.664 91.4088 419.024 90.127 419.024C74.756 399.81 64.5016 378.019 59.3643 353.653Z" fill="#252121"/>
<path fill-rule="evenodd" clip-rule="evenodd" d="M90.3648 419.142C91.3261 420.103 91.3261 420.103 92.0494 420.946C80.8787 422.85 69.3427 423.49 57.4414 422.869C68.3366 421.586 79.4696 420.424 90.3648 419.142Z" fill="#BE5138"/>
<path fill-rule="evenodd" clip-rule="evenodd" d="M74.7457 455.554C71.6613 454.041 70.3795 451.478 70.9003 447.864C66.369 448.177 61.8826 447.858 57.4417 446.902C56.3225 441.184 53.7588 436.377 49.751 432.482C51.5329 428.491 54.7374 426.247 59.3643 425.753C69.6185 424.47 79.8728 424.47 90.127 425.753C98.9865 436.781 97.0638 445.433 84.359 451.709C80.9147 452.997 77.7102 454.279 74.7457 455.554Z" fill="#D96043"/>
<path fill-rule="evenodd" clip-rule="evenodd" d="M92.0507 420.946C97.5088 424.638 103.277 427.843 109.355 430.559C119.881 432.461 130.777 433.101 142.04 432.482C145.336 439.531 142.771 443.376 134.349 444.018C125.353 443.699 116.382 444.02 107.432 444.979C105.054 445.425 103.131 446.387 101.664 447.863C96.3532 449.555 91.2261 451.797 86.2827 454.593C82.4898 455.544 78.6445 455.866 74.7467 455.554C77.7112 454.279 80.9157 452.997 84.36 451.709C97.0648 445.433 98.9875 436.781 90.128 425.753C79.8738 424.47 69.6195 424.47 59.3653 425.753C54.7384 426.247 51.5339 428.491 49.752 432.482C48.8681 427.493 51.4318 424.288 57.4427 422.869C69.2166 422.987 80.88 422.849 92.0507 420.946Z" fill="#BE5138"/>
<path fill-rule="evenodd" clip-rule="evenodd" d="M142.039 428.637C142.039 429.919 142.039 431.2 142.039 432.482C130.776 433.101 119.88 432.461 109.354 430.559C120.426 431.109 131.32 430.467 142.039 428.637Z" fill="#603329"/>
<path fill-rule="evenodd" clip-rule="evenodd" d="M134.348 444.018C123.766 445.681 112.87 446.964 101.663 447.864C103.13 446.387 105.053 445.426 107.431 444.98C116.381 444.02 125.352 443.699 134.348 444.018Z" fill="#BE5138"/>
<path fill-rule="evenodd" clip-rule="evenodd" d="M286.239 424.792C293.232 430.187 299.321 436.595 304.504 444.018C307.519 452.511 304.635 456.356 295.852 455.554C297.289 466.258 292.801 469.782 282.394 466.129C277.764 459.742 273.918 460.382 270.858 468.052C267.012 469.334 263.167 469.334 259.322 468.052C251.741 457.058 245.973 445.201 242.018 432.482C257.701 434.174 272.442 431.611 286.239 424.792Z" fill="#D3634A"/>
</svg>
