<svg width="333" height="582" viewBox="0 0 333 582" fill="none" xmlns="http://www.w3.org/2000/svg">
<path d="M1.22021 580.025L11.3737 532.335L33.9643 417.004C33.9643 417.004 26.0774 375.366 19.7259 358.985C13.3766 342.602 4.61984 316.272 11.3815 295.949C18.1429 275.624 88.4367 228.994 109.123 211.992C129.81 194.992 160.383 185.608 177.944 192.57C195.502 199.529 198.192 223.559 203.417 229.882C208.642 236.205 233.734 247.036 235.526 245.753C237.321 244.473 247.401 224.993 251.295 202.092C255.184 179.193 256.151 176.291 261.732 168.478C267.31 160.667 280.672 158.96 280.672 158.96C280.672 158.96 296.468 155.919 299.622 172.573C302.776 189.228 298.636 209.894 290.191 238.258C281.749 266.624 265.934 304.082 262.66 309.44C259.388 314.797 238.68 366.215 226.242 381.946C213.805 397.678 177.136 416.044 174.377 420.229C171.618 424.416 154.824 470.421 150.883 487.117C146.943 503.815 147.102 568.68 147.102 568.68" fill="white"/>
<path d="M2.42112 580.221L12.5739 532.53L12.5765 532.515L35.1679 417.184L35.1689 416.83C35.1679 416.823 33.1948 406.407 30.4255 393.933C27.6531 381.453 24.1006 366.95 20.8831 358.642C16.1661 346.489 10.1542 328.861 10.1601 312.444C10.1601 306.807 10.8656 301.321 12.5536 296.248C14.1053 291.51 19.6775 284.801 27.4968 277.368C39.223 266.192 55.9531 253.229 71.6829 241.481C87.4184 229.727 102.139 219.195 109.959 212.769C125.733 199.785 147.483 191.3 164.265 191.32C169.179 191.32 173.657 192.041 177.439 193.541C181.594 195.189 184.897 197.854 187.614 201.079C191.686 205.912 194.387 211.99 196.535 217.479C197.612 220.224 198.554 222.819 199.484 225.053C200.419 227.287 201.318 229.155 202.426 230.508C203.827 232.187 206.237 233.952 209.174 235.77C213.576 238.485 219.152 241.242 224.035 243.338C226.476 244.386 228.742 245.265 230.614 245.892C231.549 246.206 232.387 246.458 233.112 246.635C233.844 246.81 234.442 246.921 235.026 246.925C235.387 246.914 235.797 246.912 236.3 246.582C236.583 246.37 236.75 246.172 236.959 245.911C237.707 244.964 238.756 243.184 240.053 240.619C243.92 232.949 249.74 218.478 252.501 202.25C254.445 190.807 255.66 184.375 257.057 179.909C258.456 175.446 259.991 172.934 262.767 169.044C265.331 165.437 269.833 163.137 273.746 161.784C275.697 161.105 277.489 160.661 278.785 160.388C279.432 160.252 279.955 160.158 280.314 160.098L280.721 160.036L280.851 160.017L280.936 160.004L280.963 159.998C281.144 159.968 282.123 159.81 283.522 159.81C285.716 159.81 288.905 160.196 291.766 161.959C294.625 163.722 297.291 166.859 298.419 172.749C299.122 176.46 299.456 180.382 299.456 184.563C299.461 198.823 295.533 216.088 289.01 237.99C284.803 252.128 278.746 268.567 273.336 282.127C270.631 288.907 268.087 294.97 266.017 299.665C263.956 304.349 262.338 307.71 261.583 308.939C261.122 309.699 260.448 311.084 259.535 313.047C256.361 319.896 250.482 333.565 244.035 347.246C237.602 360.915 230.556 374.627 225.238 381.338C219.211 388.984 206.991 397.508 195.959 404.557C190.439 408.089 185.214 411.264 181.179 413.831C179.157 415.116 177.436 416.247 176.11 417.206C174.777 418.183 173.857 418.913 173.32 419.698C172.888 420.36 172.341 421.527 171.594 423.245C166.443 435.175 153.174 472.156 149.688 486.903C148.752 490.878 148.065 497.327 147.536 504.967C145.957 527.866 145.882 561.311 145.881 567.633C145.881 568.315 145.882 568.681 145.882 568.682C145.884 569.272 146.431 569.748 147.105 569.748C147.78 569.745 148.325 569.267 148.323 568.678C148.323 568.676 148.322 568.314 148.322 567.633C148.322 563.433 148.357 547.171 148.846 530.039C149.091 521.475 149.45 512.691 149.973 505.096C150.495 497.507 151.192 491.081 152.079 487.334C154.026 479.073 159.209 463.389 164.238 449.3C166.753 442.253 169.231 435.595 171.25 430.445C172.26 427.872 173.154 425.674 173.879 423.998C174.594 422.334 175.175 421.147 175.434 420.763C175.586 420.5 176.416 419.741 177.666 418.851C182.077 415.656 191.733 410.05 201.608 403.552C211.493 397.036 221.637 389.633 227.248 382.552C230.436 378.515 234.071 372.323 237.829 365.179C243.461 354.468 249.337 341.638 254.115 330.978C256.505 325.649 258.619 320.862 260.287 317.164C261.945 313.479 263.195 310.826 263.737 309.945C264.62 308.493 266.207 305.164 268.295 300.431C274.537 286.267 285.021 259.868 291.373 238.528C297.909 216.561 301.895 199.167 301.898 184.563C301.898 180.282 301.554 176.242 300.826 172.401C299.644 166.09 296.61 162.313 293.17 160.211C289.735 158.107 286.026 157.678 283.522 157.676C281.686 157.678 280.475 157.908 280.411 157.919L280.672 158.96L280.497 157.906C280.436 157.915 277.018 158.35 272.843 159.799C268.68 161.252 263.712 163.711 260.695 167.915C257.889 171.835 256.151 174.682 254.701 179.347C253.248 184.01 252.035 190.479 250.087 201.937C248.156 213.298 244.684 223.834 241.474 231.671C239.87 235.589 238.331 238.835 237.094 241.161C236.474 242.324 235.929 243.259 235.497 243.922C235.282 244.253 235.097 244.516 234.953 244.697L234.782 244.898L234.74 244.938L234.738 244.94L234.96 245.147L234.755 244.928L234.738 244.94L234.96 245.147L234.755 244.928L235.216 245.423L235.045 244.795L234.755 244.928L235.216 245.423L235.045 244.795L235.089 244.951L235.07 244.791L235.045 244.795L235.089 244.951L235.07 244.791H235.026C234.799 244.8 234.047 244.676 233.1 244.403C229.718 243.453 223.478 240.888 217.646 237.939C214.726 236.464 211.894 234.889 209.548 233.376C207.204 231.869 205.341 230.399 204.406 229.257C203.266 227.896 202.101 225.249 200.859 222.02C198.972 217.168 196.813 210.966 193.425 205.274C190.038 199.589 185.39 194.354 178.447 191.597C174.27 189.943 169.45 189.188 164.265 189.185C146.582 189.207 124.509 197.907 108.287 211.216C98.0213 219.656 75.2486 235.587 54.2195 251.927C43.7005 260.103 33.6098 268.385 25.698 275.927C17.7894 283.484 12.0397 290.226 10.2096 295.65C8.44157 300.966 7.71868 306.654 7.71868 312.444C7.72429 329.305 13.8326 347.092 18.5704 359.327C21.7041 367.403 25.2708 381.908 28.0288 394.341C29.4096 400.562 30.5932 406.273 31.4316 410.428C32.2687 414.582 32.759 417.172 32.7599 417.177L33.9645 417.005L32.7619 416.823L10.1715 532.147L0.0207503 579.831C-0.102295 580.41 0.334468 580.967 0.997304 581.075C1.6599 581.182 2.2971 580.8 2.42112 580.221Z" fill="#17282F"/>
<path d="M75.4733 342.903C75.4733 342.903 91.1697 344.773 96.165 344.15C101.158 343.526 104.013 341.655 112.574 346.644C121.137 351.634 131.838 360.364 141.827 358.495C151.816 356.623 162.516 354.754 172.507 344.15C172.507 344.15 173.219 352.882 182.494 353.505C191.772 354.128 218.17 316.707 211.034 302.364C203.9 288.019 203.9 288.019 203.9 288.019C203.9 288.019 218.883 301.116 228.158 301.116C237.433 301.116 226.732 260.579 226.017 254.964C225.304 249.352 196.051 233.76 186.776 226.899C177.502 220.04 149.675 218.794 138.974 225.027C128.271 231.265 89.743 303.611 84.0353 314.215C78.3278 324.815 65.4856 337.288 75.4733 342.903Z" fill="#17282F"/>
<path d="M75.3093 343.96C75.3379 343.962 86.8458 345.34 93.4461 345.342C94.5542 345.342 95.5271 345.306 96.3377 345.206C98.8296 344.886 100.649 344.344 102.618 344.352C104.82 344.357 107.465 344.956 111.897 347.532C115.71 349.751 120.041 352.788 124.61 355.296C129.182 357.797 134.017 359.809 138.986 359.82C140.018 359.82 141.053 359.73 142.083 359.536C147.07 358.602 152.343 357.654 157.665 355.569C162.99 353.486 168.344 350.251 173.449 344.828C176.779 341.294 177.887 340.116 177.887 340.116C178.317 339.662 178.244 338.989 177.721 338.614C177.201 338.238 176.432 338.304 176.005 338.759L171.564 343.471C171.367 343.682 171.266 343.953 171.288 344.224C171.301 344.307 171.481 346.606 172.939 349.083C173.671 350.319 174.736 351.606 176.286 352.63C177.834 353.657 179.867 354.402 182.402 354.568L182.729 354.579C184.179 354.568 185.592 354.003 187.082 353.128C189.679 351.58 192.545 348.955 195.473 345.637C199.855 340.66 204.325 334.128 207.726 327.438C211.117 320.743 213.454 313.912 213.463 308.231C213.463 305.92 213.073 303.79 212.152 301.937C208.585 294.767 206.803 291.179 205.91 289.387C205.019 287.596 205.019 287.596 205.019 287.594L203.9 288.019L203.036 288.774C203.061 288.794 206.832 292.093 211.81 295.416C214.301 297.076 217.091 298.745 219.894 300.017C222.699 301.282 225.512 302.174 228.158 302.183C229.161 302.193 230.116 301.816 230.78 301.22C231.786 300.322 232.306 299.069 232.66 297.56C233.002 296.047 233.141 294.253 233.141 292.242C233.138 285.981 231.776 277.622 230.36 270.3C229.652 266.642 228.927 263.249 228.351 260.528C227.775 257.815 227.343 255.743 227.23 254.847C227.076 253.775 226.407 252.822 225.463 251.765C223.798 249.934 221.129 247.838 217.902 245.568C213.063 242.168 206.981 238.412 201.349 234.94C195.722 231.472 190.526 228.277 187.565 226.086C184.728 223.996 180.541 222.496 175.717 221.468C170.893 220.443 165.427 219.918 160.063 219.916C151.592 219.931 143.402 221.192 138.297 224.139C136.681 225.1 134.915 226.961 132.776 229.603C125.371 238.811 114.2 257.485 104.201 275.076C94.211 292.656 85.4269 309.123 82.931 313.76C80.8854 317.563 77.8366 321.701 75.2712 325.711C72.7192 329.73 70.5886 333.596 70.565 337.163C70.563 338.447 70.8623 339.7 71.5625 340.837C72.2605 341.977 73.3476 342.978 74.8134 343.8C75.3808 344.12 76.1362 343.977 76.5004 343.479C76.8657 342.984 76.7006 342.325 76.1342 342.005C74.9555 341.341 74.1992 340.615 73.7138 339.828C73.2304 339.038 73.0073 338.166 73.0063 337.163C72.9814 334.382 74.8784 330.671 77.4025 326.752C79.9137 322.822 82.9891 318.66 85.1398 314.667C87.995 309.364 99.0481 288.638 110.721 268.464C116.556 258.381 122.547 248.434 127.732 240.64C130.324 236.743 132.716 233.386 134.773 230.83C136.811 228.28 138.592 226.515 139.651 225.917C143.984 223.365 151.892 222.035 160.063 222.05C165.244 222.05 170.541 222.565 175.141 223.54C179.74 224.511 183.639 225.968 185.988 227.714C190.739 231.225 200.346 236.816 208.888 242.262C213.153 244.979 217.142 247.657 220.072 249.968C221.535 251.123 222.731 252.188 223.551 253.09C224.379 253.987 224.782 254.749 224.804 255.082C224.943 256.151 225.372 258.189 225.951 260.918C227.682 269.068 230.707 283.222 230.699 292.242C230.704 294.801 230.446 296.944 229.923 298.307C229.664 298.99 229.344 299.462 229.054 299.712C228.754 299.959 228.544 300.038 228.158 300.049C226.168 300.057 223.629 299.312 221.017 298.122C217.091 296.344 212.997 293.621 209.916 291.348C208.373 290.211 207.081 289.186 206.176 288.448C205.724 288.079 205.368 287.78 205.126 287.577C204.884 287.372 204.762 287.266 204.762 287.266C204.347 286.903 203.698 286.849 203.212 287.138C202.729 287.426 202.545 287.974 202.78 288.444C202.78 288.446 202.78 288.446 203.671 290.238C204.564 292.031 206.347 295.616 209.914 302.789C210.661 304.285 211.022 306.131 211.022 308.231C211.046 316.123 205.846 327.388 199.574 336.524C196.444 341.098 193.051 345.159 189.975 348.034C188.439 349.47 186.982 350.609 185.712 351.363C184.445 352.122 183.368 352.457 182.729 352.445L182.59 352.44C180.485 352.295 178.952 351.715 177.758 350.929C175.971 349.754 174.941 348.044 174.377 346.599C174.094 345.88 173.93 345.231 173.835 344.773C173.788 344.544 173.761 344.361 173.744 344.239L173.727 344.105L173.725 344.073L172.507 344.15L173.449 344.828C173.449 344.828 174.56 343.65 175.668 342.472C176.779 341.294 177.887 340.116 177.887 340.116C178.092 339.898 178.193 339.615 178.161 339.335C178.129 339.055 177.97 338.793 177.721 338.614C177.475 338.434 177.148 338.349 176.828 338.375C176.508 338.402 176.208 338.541 176.005 338.759C176 338.763 174.894 339.937 171.564 343.471C166.681 348.65 161.689 351.651 156.667 353.623C151.646 355.59 146.574 356.514 141.572 357.451C140.718 357.609 139.858 357.686 138.986 357.686C134.808 357.695 130.316 355.915 125.907 353.488C121.496 351.072 117.194 348.057 113.251 345.756C108.625 343.053 105.407 342.214 102.618 342.218C100.14 342.227 98.2041 342.826 95.9924 343.093C95.3755 343.17 94.4846 343.211 93.4461 343.208C90.3182 343.211 85.8397 342.871 82.1737 342.528C80.34 342.357 78.7035 342.186 77.5275 342.058C76.3518 341.93 75.6403 341.847 75.6384 341.845C74.9709 341.766 74.3557 342.175 74.2641 342.758C74.1736 343.343 74.6408 343.881 75.3093 343.96Z" fill="#17282F"/>
<path d="M161.554 430.548C165.014 426.868 169.052 422.573 169.052 422.573C169.481 422.118 169.406 421.445 168.883 421.07C168.363 420.697 167.594 420.763 167.167 421.217C167.165 421.22 166.156 422.291 164.713 423.826C163.273 425.359 161.398 427.353 159.667 429.192C159.24 429.649 159.315 430.321 159.835 430.695C160.355 431.068 161.127 431.005 161.554 430.548Z" fill="#17282F"/>
<path d="M79.8577 452.35C79.8912 452.362 83.6238 454.016 89.0398 455.674C94.4594 457.331 101.555 459.001 108.393 459.005C111.568 459.005 114.695 458.643 117.569 457.719C127.322 454.565 141.666 445.445 151.431 438.506C151.954 438.132 152.032 437.46 151.607 437.003C151.181 436.546 150.412 436.478 149.889 436.849C140.269 443.715 125.862 452.793 116.726 455.717C114.201 456.53 111.356 456.871 108.393 456.871C102.01 456.875 95.1135 455.275 89.8464 453.66C87.2114 452.855 84.9817 452.046 83.4148 451.443C82.6319 451.142 82.014 450.89 81.5943 450.715C81.1749 450.54 80.9622 450.446 80.9612 450.446C80.3604 450.179 79.6261 450.388 79.3209 450.915C79.0157 451.44 79.2559 452.083 79.8577 452.35Z" fill="#17282F"/>
<path d="M161.32 402.788C161.635 404.39 161.811 405.984 161.811 407.553C161.811 408.317 161.77 409.073 161.684 409.822C161.616 410.409 162.104 410.931 162.775 410.991C163.447 411.049 164.045 410.622 164.113 410.035C164.206 409.211 164.252 408.384 164.252 407.553C164.252 405.848 164.062 404.132 163.725 402.423C163.61 401.842 162.978 401.454 162.314 401.554C161.65 401.655 161.206 402.205 161.32 402.788Z" fill="#17282F"/>
<path d="M143.6 373.278C143.601 373.278 143.765 373.442 144.078 373.768C146.27 376.047 155.407 386.041 159.621 397.025C159.836 397.585 160.529 397.885 161.166 397.698C161.806 397.509 162.15 396.903 161.935 396.347C156.882 383.245 145.48 371.926 145.436 371.869C144.991 371.427 144.219 371.382 143.713 371.771C143.206 372.159 143.156 372.833 143.6 373.278Z" fill="#17282F"/>
<path d="M302.615 293.057C295.716 293.648 288.711 290.87 284.805 285.379L100.41 18.5611C96.4949 13.0551 100.11 6.91324 106.408 3.49017C112.705 0.0671082 119.301 0.6604 123.218 6.16632L316.736 268.027C322.214 275.733 319.514 285.863 310.696 290.659C308.162 292.037 305.398 292.82 302.615 293.057Z" fill="url(#paint0_linear_79_872)"/>
<path d="M302.615 293.057L302.496 291.997C301.927 292.046 301.356 292.069 300.787 292.069C294.908 292.067 289.173 289.498 285.841 284.816L284.805 285.379L285.85 284.826L101.455 18.0085L101.447 17.9978C100.44 16.5786 100.008 15.1595 100.006 13.7531C99.9853 10.2703 102.808 6.69781 107.053 4.39725C109.468 3.08481 111.87 2.43393 114.057 2.43393C117.227 2.45312 120.02 3.72934 122.181 6.72986L122.192 6.74475L315.711 268.605L316.736 268.027L315.699 268.59C317.496 271.119 318.35 273.917 318.35 276.687C318.35 281.824 315.411 286.839 310.052 289.754C307.679 291.043 305.098 291.775 302.496 291.997L302.615 293.057L302.732 294.12C305.696 293.868 308.643 293.032 311.341 291.566C317.439 288.249 320.794 282.53 320.791 276.687C320.794 273.533 319.815 270.336 317.771 267.463L317.762 267.448L124.244 5.5881L123.218 6.16641L124.254 5.60306C121.776 2.07968 118.049 0.282776 114.057 0.299835C111.314 0.301971 108.483 1.10651 105.764 2.58542C101.02 5.1698 97.585 9.25232 97.565 13.7531C97.5623 15.5521 98.1382 17.3917 99.3733 19.1246L100.41 18.5612L99.3647 19.1118L283.76 285.93L283.768 285.942C287.562 291.271 294.1 294.206 300.787 294.203C301.434 294.203 302.083 294.176 302.732 294.12L302.615 293.057Z" fill="#17282F"/>
<path d="M330.858 318.837L318.411 270.739L318.24 270.842C318.067 270.513 317.884 270.187 317.664 269.869C313.594 263.959 303.153 262.924 294.347 267.559C285.541 272.195 281.703 280.746 285.772 286.655C286.805 288.153 288.246 289.333 289.964 290.194L330.858 318.837Z" fill="white"/>
<path d="M330.857 318.837L332.049 318.6L319.603 270.504C319.512 270.161 319.234 269.877 318.858 269.747C318.482 269.619 318.057 269.659 317.725 269.858L317.552 269.96L318.24 270.841L319.349 270.398C319.168 270.052 318.963 269.687 318.712 269.318C316.082 265.506 311.129 263.588 305.748 263.594C301.817 263.594 297.611 264.597 293.717 266.646C286.993 270.195 282.945 275.925 282.926 281.399C282.926 283.433 283.502 285.43 284.727 287.206C285.873 288.868 287.479 290.181 289.359 291.12L289.964 290.193L289.203 291.026L330.096 319.669C330.501 319.953 331.065 319.981 331.507 319.74C331.946 319.501 332.164 319.044 332.049 318.6L330.857 318.837L331.622 318.003L290.728 289.359L290.572 289.267C289.015 288.488 287.738 287.436 286.817 286.104C285.838 284.679 285.37 283.085 285.367 281.399C285.35 276.872 288.863 271.682 294.976 268.475C298.502 266.616 302.293 265.726 305.748 265.728C310.509 265.735 314.534 267.389 316.619 270.419C316.802 270.684 316.966 270.974 317.13 271.288C317.278 271.571 317.567 271.787 317.911 271.87C318.257 271.953 318.631 271.9 318.926 271.725L319.097 271.623L318.411 270.739L317.22 270.976L329.668 319.072L330.857 318.837Z" fill="#17282F"/>
<path d="M330.857 318.837L323.169 289.995C319.737 288.715 316.263 288.873 312.132 291.049C307.923 293.264 305.42 296.773 305.181 300.074L330.857 318.837Z" fill="#00A3FF"/>
<path d="M330.858 318.837L332.047 318.594L324.359 289.752C324.271 289.423 324.005 289.146 323.648 289.013C322.113 288.439 320.523 288.117 318.875 288.119C316.507 288.117 314.071 288.781 311.502 290.136C306.996 292.513 304.244 296.282 303.963 300.006C303.939 300.345 304.102 300.674 304.4 300.892L330.076 319.655C330.477 319.949 331.053 319.985 331.5 319.744C331.944 319.505 332.166 319.04 332.047 318.594L330.858 318.837L331.641 318.018L305.965 299.255L305.182 300.074L306.4 300.141C306.595 297.262 308.853 294.016 312.762 291.963C315.062 290.755 317.035 290.256 318.875 290.253C320.162 290.253 321.405 290.499 322.691 290.977L323.17 289.995L321.981 290.236L329.671 319.078L330.858 318.837Z" fill="#17282F"/>
<path d="M117.1 185.922C117.1 185.922 134.16 167.213 135.66 165.055C137.16 162.898 164.721 129.083 170.708 125.526C176.694 121.97 190.2 123.353 190.2 123.353C190.2 123.353 243.873 151.743 247.086 154.513C250.297 157.281 261.603 164.94 265.838 171.682C270.077 178.423 295.074 204.698 293.211 213.992C291.348 223.282 275.294 230.237 264.088 228.66C252.884 227.078 238.085 214.137 233.331 207.95C228.573 201.759 222.558 194.664 222.558 194.664L206.82 188.906L198.434 186.58C198.434 186.58 178.586 170.009 156.67 176.451C134.754 182.89 117.1 185.922 117.1 185.922Z" fill="white"/>
<path d="M117.1 185.922L118.055 186.588C118.056 186.586 122.322 181.908 126.777 176.957C129.005 174.481 131.28 171.94 133.095 169.876C134.003 168.845 134.795 167.934 135.412 167.206C136.032 166.474 136.461 165.954 136.704 165.61C136.846 165.403 137.452 164.62 138.352 163.493C141.521 159.526 148.548 150.968 155.424 143.029C158.862 139.06 162.263 135.244 165.119 132.239C166.547 130.737 167.839 129.437 168.92 128.43C169.994 127.425 170.893 126.701 171.393 126.409C174.291 124.646 179.926 124.134 184.208 124.156C185.876 124.156 187.345 124.22 188.395 124.286C188.92 124.318 189.34 124.35 189.626 124.373C189.911 124.399 190.055 124.414 190.058 124.414L190.199 123.353L189.567 124.267C189.574 124.271 192.919 126.04 198 128.744C205.622 132.799 217.13 138.949 227.028 144.342C231.979 147.037 236.525 149.545 239.979 151.504C241.705 152.481 243.158 153.324 244.244 153.979C245.318 154.624 246.075 155.132 246.227 155.27C247.921 156.728 251.51 159.302 255.24 162.383C258.958 165.45 262.779 169.016 264.769 172.196C265.863 173.929 268.089 176.677 270.863 180.071C275.015 185.148 280.362 191.61 284.654 197.717C286.8 200.769 288.68 203.731 290.008 206.365C291.341 208.992 292.098 211.303 292.088 212.929C292.088 213.249 292.061 213.544 292.007 213.806C291.27 217.571 287.801 221.115 283.094 223.683C278.407 226.254 272.555 227.821 267.425 227.816C266.339 227.816 265.287 227.746 264.283 227.605C259.1 226.894 252.677 223.369 247.079 219.216C241.473 215.08 236.62 210.323 234.344 207.355C229.564 201.134 223.544 194.034 223.536 194.027L223.029 193.68L207.292 187.922L207.191 187.888L198.803 185.562L198.434 186.58L199.279 185.807C199.23 185.769 195.692 182.817 189.924 179.851C184.155 176.891 176.142 173.901 167.131 173.897C163.627 173.897 159.98 174.351 156.281 175.44C145.362 178.647 135.499 181.01 128.37 182.567C124.806 183.346 121.926 183.923 119.938 184.307C117.951 184.689 116.868 184.874 116.864 184.877L117.1 185.922L117.336 186.97C117.37 186.964 135.066 183.925 157.06 177.463C160.495 176.453 163.869 176.031 167.131 176.031C175.51 176.027 183.149 178.843 188.686 181.69C191.452 183.114 193.691 184.537 195.231 185.602C196.003 186.134 196.598 186.575 196.999 186.883L197.45 187.235L197.592 187.35L198.066 187.595L206.4 189.909L222.086 195.647L222.557 194.663L221.576 195.299C221.578 195.304 223.075 197.066 225.17 199.608C227.264 202.15 229.952 205.466 232.318 208.543C234.796 211.762 239.72 216.572 245.504 220.846C251.295 225.108 257.872 228.843 263.895 229.711C265.038 229.874 266.222 229.95 267.425 229.95C273.109 229.944 279.31 228.267 284.39 225.492C289.451 222.714 293.465 218.813 294.412 214.175C294.493 213.772 294.529 213.356 294.529 212.929C294.51 210.059 292.962 206.559 290.677 202.653C287.237 196.815 282.042 190.146 277.323 184.313C274.964 181.398 272.723 178.694 270.887 176.421C269.056 174.155 267.618 172.3 266.908 171.169C264.662 167.605 260.711 163.973 256.915 160.832C253.131 157.705 249.462 155.066 247.943 153.753C247.635 153.491 247.225 153.217 246.632 152.842C244.437 151.455 239.894 148.887 234.257 145.782C217.37 136.476 190.834 122.442 190.832 122.44L190.341 122.292C190.309 122.29 187.687 122.021 184.208 122.021C179.723 122.043 173.859 122.408 170.021 124.644C169.101 125.199 168.007 126.14 166.642 127.438C161.916 131.953 154.279 140.703 147.622 148.597C144.296 152.541 141.22 156.265 138.892 159.125C137.729 160.554 136.752 161.767 136.023 162.684C135.289 163.606 134.823 164.206 134.617 164.5C134.483 164.695 134.051 165.23 133.452 165.934C131.337 168.425 127.002 173.265 123.206 177.471C121.307 179.575 119.542 181.522 118.252 182.943C116.962 184.362 116.148 185.256 116.145 185.259C115.826 185.609 115.792 186.095 116.057 186.477C116.323 186.859 116.833 187.055 117.336 186.97L117.1 185.922Z" fill="#17282F"/>
<path d="M275.375 183.656C275.255 183.605 274.071 183.11 272.138 183.11C269.804 183.101 266.415 183.863 262.736 186.817C256.229 192.022 253.168 196.418 253.124 196.482C253.007 196.65 252.946 196.84 252.946 197.039C252.948 197.131 252.963 199.924 254.662 203.52C256.354 207.112 259.779 211.508 266.483 214.632C273.556 217.932 278.741 219.039 282.494 219.041C285.677 219.041 287.831 218.232 289.086 217.232C289.584 216.835 289.618 216.16 289.164 215.725C288.71 215.29 287.936 215.26 287.438 215.657C286.737 216.22 285.209 216.907 282.494 216.907C279.303 216.911 274.469 215.943 267.633 212.75C261.476 209.869 258.456 205.94 256.918 202.703C256.151 201.087 255.768 199.647 255.578 198.622C255.48 198.108 255.434 197.7 255.409 197.425L255.39 197.118L255.387 197.032L254.166 197.035L255.209 197.589L255.333 197.419C255.951 196.58 258.886 192.788 264.384 188.392C267.694 185.756 270.389 185.252 272.138 185.244C272.863 185.244 273.429 185.338 273.803 185.425L274.208 185.538L274.291 185.568L274.313 185.526L274.288 185.568H274.291L274.313 185.526L274.288 185.568C274.894 185.831 275.626 185.615 275.927 185.086C276.224 184.559 275.98 183.919 275.375 183.656Z" fill="#17282F"/>
<path d="M249.437 162.917C249.393 162.934 246.82 163.801 243.978 165.363C241.151 166.936 237.965 169.155 236.9 172.237C236.712 172.802 237.086 173.396 237.733 173.56C238.38 173.724 239.058 173.4 239.246 172.832C239.92 170.694 242.635 168.6 245.277 167.168C246.588 166.447 247.86 165.877 248.797 165.491C249.266 165.299 249.652 165.149 249.918 165.051L250.22 164.942L250.318 164.908C250.945 164.697 251.258 164.078 251.016 163.53C250.772 162.979 250.067 162.706 249.437 162.917Z" fill="#17282F"/>
<path d="M255.663 166.961L248.414 169.609C247.792 169.838 247.499 170.463 247.76 171.005C248.019 171.549 248.734 171.805 249.357 171.579L256.605 168.931C257.228 168.702 257.521 168.077 257.26 167.535C257.001 166.991 256.285 166.735 255.663 166.961Z" fill="#17282F"/>
<path d="M187.909 126.575C187.856 126.595 185.27 127.467 182.162 129.243C179.062 131.021 175.407 133.697 173.315 137.427C173.019 137.957 173.271 138.597 173.876 138.855C174.482 139.113 175.214 138.893 175.509 138.364C177.284 135.167 180.6 132.681 183.5 131.029C184.945 130.201 186.281 129.58 187.248 129.171C187.731 128.963 188.124 128.812 188.39 128.71L188.695 128.599L188.788 128.567C189.418 128.355 189.731 127.736 189.486 127.186C189.245 126.637 188.539 126.364 187.909 126.575Z" fill="#17282F"/>
<path d="M185.602 136.45C185.629 136.442 187.201 135.917 189.196 135.029C191.191 134.135 193.603 132.897 195.36 131.348C195.834 130.927 195.829 130.251 195.348 129.839C194.87 129.425 194.096 129.429 193.622 129.847C192.211 131.107 189.96 132.295 188.085 133.127C187.148 133.546 186.303 133.881 185.695 134.109C185.392 134.224 185.148 134.312 184.982 134.37L184.733 134.457C184.103 134.666 183.786 135.283 184.025 135.834C184.267 136.384 184.972 136.659 185.602 136.45Z" fill="#17282F"/>
<path d="M58.9317 231.487C58.9317 231.487 55.1696 218.617 59.3314 209.126C63.4942 199.638 109.108 187.113 109.108 187.113C109.108 187.113 152.547 170.715 169.627 167.732C186.706 164.748 206.821 188.906 206.821 188.906C206.821 188.906 245.297 226.713 251.359 239.385C257.421 252.06 255.097 262.406 254.972 266.475C254.845 270.547 259.184 283.365 259.284 289.447C259.384 295.527 250.578 299.831 240.805 300.668C231.03 301.502 223.806 294.003 219.108 288.316C214.406 282.628 205.495 260.052 205.495 260.052L185.254 239.966L172.8 232.405L162.8 231.231L58.9317 231.487Z" fill="white"/>
<path d="M58.9311 231.487L60.1147 231.223L60.0527 231.001C59.7656 229.942 58.5908 225.226 58.5928 219.818C58.5908 216.399 59.0647 212.707 60.4704 209.508C60.8652 208.589 61.8991 207.445 63.466 206.262C66.2011 204.18 70.4811 201.958 75.3258 199.852C82.5964 196.687 91.1469 193.75 97.8675 191.612C101.228 190.543 104.133 189.67 106.196 189.068C108.259 188.464 109.47 188.131 109.474 188.131L109.591 188.093C109.598 188.091 112.298 187.071 116.632 185.489C123.132 183.116 133.285 179.486 143.4 176.174C153.505 172.864 163.613 169.868 169.865 168.777C170.776 168.619 171.696 168.543 172.631 168.543C180.182 168.504 188.617 173.664 195.019 178.968C198.224 181.607 200.937 184.258 202.843 186.243C203.796 187.235 204.547 188.063 205.058 188.639C205.314 188.927 205.509 189.151 205.641 189.305L205.834 189.533L205.91 189.614C205.91 189.617 206.508 190.201 207.57 191.26C211.286 194.956 220.67 204.384 229.777 214.261C234.327 219.197 238.812 224.246 242.474 228.739C246.139 233.224 248.988 237.183 250.233 239.797C253.536 246.71 254.291 252.896 254.291 257.734C254.291 261.582 253.815 264.533 253.751 266.448L253.746 266.655C253.751 267.863 254.027 269.467 254.427 271.363C255.03 274.197 255.926 277.643 256.678 280.932C257.43 284.214 258.031 287.36 258.063 289.462V289.549C258.06 290.828 257.608 292.001 256.752 293.115C255.47 294.78 253.236 296.274 250.414 297.403C247.594 298.534 244.205 299.306 240.685 299.605C240.219 299.646 239.76 299.665 239.308 299.665C235.175 299.665 231.513 298.058 228.273 295.723C225.043 293.393 222.299 290.358 220.097 287.69C219.025 286.401 217.587 283.947 216.11 281.062C213.886 276.728 211.515 271.38 209.706 267.122C208.803 264.994 208.039 263.138 207.499 261.815C206.96 260.492 206.649 259.706 206.649 259.704L206.413 259.346L186.171 239.26L185.951 239.089L173.495 231.528L172.961 231.346L162.963 230.173L162.797 230.164L58.9284 230.42L58.9311 231.487L58.935 232.554L162.719 232.298L172.346 233.427L184.435 240.768L204.579 260.756L205.495 260.052L204.342 260.4C204.345 260.406 206.576 266.059 209.401 272.436C210.812 275.624 212.372 278.994 213.883 281.937C215.399 284.884 216.837 287.385 218.117 288.941C220.37 291.664 223.217 294.837 226.718 297.368C230.211 299.893 234.42 301.799 239.308 301.799C239.838 301.799 240.377 301.775 240.922 301.728C245.948 301.297 250.729 299.993 254.349 297.953C256.161 296.931 257.684 295.719 258.773 294.308C259.864 292.902 260.506 291.284 260.504 289.549V289.432C260.445 286.248 259.349 281.61 258.282 277.178C257.75 274.967 257.22 272.818 256.83 270.974C256.434 269.135 256.185 267.575 256.188 266.655L256.19 266.505C256.239 264.819 256.732 261.717 256.732 257.734C256.732 252.702 255.941 246.2 252.484 238.974C250.878 235.63 247.311 230.883 242.828 225.52C229.391 209.474 207.746 188.21 207.733 188.195L206.82 188.906L207.809 188.276C207.78 188.247 203.288 182.847 196.694 177.414C190.085 172.002 181.425 166.449 172.631 166.408C171.547 166.408 170.463 166.498 169.387 166.686C160.656 168.216 145.544 173.067 132.514 177.548C119.499 182.028 108.632 186.132 108.624 186.134L109.107 187.113L108.742 186.095C108.722 186.102 97.2962 189.237 85.3134 193.575C79.3196 195.748 73.1886 198.215 68.2438 200.765C65.7709 202.041 63.5937 203.339 61.8637 204.651C60.1396 205.97 58.8379 207.293 58.1911 208.744C56.6328 212.304 56.1531 216.231 56.1514 219.818C56.1541 226.301 57.7363 231.701 57.7488 231.752C57.8879 232.226 58.3752 232.554 58.935 232.554L58.9311 231.487Z" fill="#17282F"/>
<path d="M176.24 171.692C176.091 171.728 173.491 172.392 170.402 175.008C167.311 177.62 163.759 182.179 161.657 189.881C161.501 190.453 161.904 191.029 162.56 191.165C163.217 191.302 163.874 190.95 164.03 190.376C166.047 183.013 169.36 178.865 172.099 176.541C173.473 175.38 174.709 174.673 175.583 174.261C176.02 174.054 176.367 173.922 176.596 173.843L176.847 173.762L176.899 173.747L176.882 173.702L176.896 173.747H176.899L176.882 173.702L176.896 173.747C177.546 173.589 177.927 173 177.743 172.432C177.563 171.865 176.889 171.534 176.24 171.692Z" fill="#17282F"/>
<path d="M183.469 175.519C183.469 175.519 183.224 175.848 182.809 176.385C181.577 177.988 178.784 181.462 176.955 183.012C176.472 183.424 176.462 184.1 176.933 184.52C177.402 184.943 178.176 184.952 178.659 184.54C180.097 183.31 181.772 181.375 183.134 179.714C184.492 178.056 185.51 176.693 185.514 176.684C185.883 176.189 185.724 175.527 185.158 175.207C184.594 174.885 183.837 175.024 183.469 175.519Z" fill="#17282F"/>
<path d="M173.422 231.485L173.347 231.444C172.907 231.205 170.703 229.929 168.518 227.665C166.33 225.396 164.174 222.17 163.703 217.961C163.637 217.374 163.039 216.945 162.368 217.003C161.699 217.061 161.208 217.583 161.274 218.168C161.84 223.23 164.575 227.025 167.133 229.526C169.699 232.033 172.106 233.284 172.177 233.322C172.756 233.621 173.505 233.455 173.85 232.949C174.194 232.441 174.001 231.786 173.422 231.485Z" fill="#17282F"/>
<path d="M252.142 270.054L251.925 270.306C251.42 270.882 250.075 272.376 248.4 273.97C246.732 275.564 244.708 277.261 242.968 278.212C240.832 279.386 238.515 280.462 236.737 281.239C235.851 281.629 235.097 281.943 234.567 282.16C234.04 282.378 233.739 282.493 233.739 282.495L233.256 282.833C233.195 282.924 230.954 285.502 230.934 289.128C230.924 291.19 231.728 293.586 234.054 295.797C234.508 296.233 235.282 296.262 235.778 295.865C236.276 295.466 236.31 294.792 235.856 294.357C233.935 292.511 233.385 290.735 233.376 289.128C233.373 287.724 233.837 286.448 234.308 285.53C234.545 285.071 234.779 284.704 234.953 284.457L235.155 284.181L235.207 284.117L235.214 284.107L234.235 283.469L234.733 284.444C234.76 284.431 239.792 282.474 244.267 280.02C246.647 278.705 249.052 276.552 250.924 274.71C252.787 272.871 254.088 271.345 254.1 271.33C254.503 270.856 254.391 270.188 253.851 269.836C253.309 269.484 252.545 269.582 252.142 270.054Z" fill="#17282F"/>
<path d="M86.4565 280.503L133.096 287.799L142.047 287.033L147.863 287.099C147.863 287.099 156.27 298.792 159.966 302.989C163.665 307.187 176.094 320.229 174.102 325.476C172.107 330.724 179.812 341.911 186.44 349.244C193.071 356.574 203.952 350.003 205.759 343.078C207.566 336.155 210.637 334.762 215.126 328.737C219.614 322.713 221.42 315.788 218.063 303.098C214.709 290.409 184.712 247.277 177.317 238.884C169.924 230.488 166.929 226.796 127.683 227.895C88.4372 228.994 55.3326 227.313 55.3326 227.313C55.3326 227.313 36.7944 228.896 31.0752 241.233C25.357 253.571 21.4508 282.114 21.4508 282.114C21.4508 282.114 11.301 291.892 9.88768 302.663C8.8518 310.557 9.48803 304.069 8.51904 316.505" fill="white"/>
<path d="M86.2404 281.553L132.88 288.849L133.214 288.86L142.098 288.1L147.846 288.166L147.862 287.099L146.829 287.669C146.83 287.671 148.935 290.597 151.504 294.052C154.079 297.512 157.099 301.481 158.999 303.641C160.732 305.606 164.291 309.422 167.414 313.46C168.972 315.476 170.417 317.544 171.454 319.431C172.497 321.313 173.105 323.029 173.095 324.2C173.095 324.572 173.039 324.883 172.941 325.139C172.673 325.848 172.558 326.605 172.558 327.399C172.58 330.618 174.36 334.514 176.821 338.526C179.294 342.528 182.492 346.595 185.483 349.905C187.721 352.404 190.614 353.538 193.451 353.525C196.601 353.516 199.611 352.232 202.016 350.351C204.418 348.465 206.252 345.964 206.947 343.315C207.831 339.963 208.949 338.072 210.441 336.177C211.93 334.288 213.854 332.395 216.149 329.32C219.147 325.31 221.029 320.782 221.017 314.661C221.017 311.287 220.46 307.427 219.252 302.86C218.356 299.498 215.829 294.415 212.414 288.416C207.289 279.436 200.165 268.492 193.62 258.994C187.067 249.488 181.13 241.466 178.285 238.233C176.65 236.379 175.2 234.71 173.466 233.237C170.866 231.02 167.617 229.321 162.492 228.248C157.36 227.164 150.325 226.641 139.838 226.639C136.208 226.639 132.163 226.703 127.644 226.829C117.998 227.1 108.723 227.202 100.22 227.202C87.1996 227.202 75.9912 226.963 68.0406 226.724C64.0648 226.605 60.9033 226.485 58.7365 226.395C56.5708 226.306 55.4065 226.248 55.4035 226.248L55.2139 226.25C55.1404 226.259 50.4063 226.662 44.881 228.662C39.3715 230.657 32.9829 234.289 29.9436 240.833C27.012 247.173 24.6175 257.406 22.9151 266.119C21.2186 274.826 20.2401 281.975 20.2381 281.986L21.4503 282.114L20.5462 281.397C20.5137 281.429 17.9342 283.913 15.1637 287.782C12.3981 291.654 9.41985 296.905 8.67401 302.542C8.15717 306.481 8.06073 306.803 7.96161 307.787C7.86616 308.748 7.7851 310.214 7.30073 316.432C7.25483 317.019 7.76313 317.529 8.43549 317.57C9.10785 317.608 9.6906 317.164 9.73626 316.577C10.2209 310.361 10.3056 308.852 10.3935 307.973C10.4775 307.119 10.5802 306.739 11.099 302.785C11.7677 297.65 14.5714 292.627 17.233 288.915C18.5626 287.059 19.8509 285.529 20.8028 284.468C21.2786 283.937 21.6705 283.525 21.9415 283.245L22.2523 282.929L22.3543 282.829C22.5259 282.665 22.6319 282.462 22.6624 282.24C22.6624 282.236 22.9046 280.467 23.3584 277.607C24.0403 273.317 25.1973 266.589 26.7144 259.794C28.229 253.003 30.1201 246.127 32.2065 241.635C34.8845 235.841 40.6256 232.514 45.8155 230.632C48.4026 229.695 50.8299 229.127 52.6018 228.796C53.4876 228.632 54.2087 228.525 54.7046 228.461C54.9524 228.427 55.1433 228.406 55.271 228.393L55.4512 228.374L55.332 227.313L55.2615 228.378C55.2786 228.378 74.1116 229.336 100.22 229.336C108.745 229.336 118.046 229.234 127.722 228.963C132.221 228.837 136.24 228.773 139.838 228.773C153.698 228.769 161.303 229.725 166.088 231.492C168.488 232.377 170.204 233.449 171.765 234.767C173.322 236.086 174.711 237.672 176.349 239.535C178.144 241.569 181.408 245.837 185.297 251.243C191.142 259.356 198.437 270.072 204.574 279.929C207.643 284.856 210.421 289.571 212.584 293.632C214.745 297.684 216.288 301.107 216.874 303.34C218.053 307.791 218.578 311.494 218.576 314.661C218.566 320.41 216.889 324.397 214.103 328.155C211.906 331.106 210.05 332.92 208.432 334.965C206.811 337.005 205.492 339.271 204.567 342.842C204.02 344.965 202.45 347.152 200.387 348.764C198.327 350.381 195.807 351.397 193.451 351.391C191.327 351.376 189.277 350.637 187.397 348.582C184.484 345.362 181.352 341.371 178.969 337.513C176.579 333.667 174.98 329.909 174.999 327.399C174.999 326.785 175.09 326.253 175.258 325.812C175.453 325.297 175.536 324.755 175.536 324.2C175.524 322.453 174.767 320.543 173.654 318.507C171.977 315.463 169.44 312.164 166.997 309.24C164.555 306.321 162.202 303.777 160.935 302.339C159.138 300.299 156.105 296.325 153.552 292.889C152.272 291.169 151.108 289.579 150.264 288.42C149.419 287.259 148.897 286.534 148.895 286.532C148.676 286.227 148.291 286.039 147.878 286.032L142.062 285.966L141.927 285.973L133.145 286.722L86.6703 279.451C86.0068 279.348 85.3725 279.735 85.2543 280.315C85.135 280.893 85.5766 281.448 86.2404 281.553Z" fill="#17282F"/>
<path d="M203.915 337.679L203.901 337.698C203.793 337.846 203.129 338.706 202.033 339.487C200.932 340.276 199.453 340.97 197.617 340.97C197.358 340.97 197.094 340.957 196.818 340.927C194.245 340.654 192.077 340.221 190.559 339.858C189.797 339.677 189.201 339.512 188.798 339.397L188.344 339.258L188.203 339.213C187.868 339.102 187.492 339.124 187.18 339.275C186.865 339.425 186.64 339.691 186.569 339.997C186.56 340.044 186.23 341.461 186.228 343.36C186.23 344.523 186.352 345.87 186.774 347.203C187.199 348.535 187.934 349.873 189.196 350.934C189.682 351.341 190.454 351.329 190.922 350.902C191.389 350.477 191.372 349.803 190.886 349.393C190.031 348.68 189.47 347.711 189.128 346.632C188.784 345.556 188.669 344.389 188.669 343.36C188.669 342.519 188.745 341.774 188.82 341.243C188.857 340.978 188.894 340.769 188.92 340.626L188.962 340.423L187.766 340.21L187.329 341.207C187.392 341.228 191.096 342.466 196.523 343.046C196.896 343.085 197.26 343.104 197.617 343.104C200.358 343.102 202.47 341.994 203.852 340.94C205.241 339.877 205.959 338.846 206 338.787C206.352 338.283 206.169 337.628 205.593 337.321C205.016 337.015 204.264 337.175 203.915 337.679Z" fill="#17282F"/>
<path d="M150.091 253.705C150.091 253.705 150.215 253.498 150.452 253.116C151.281 251.778 153.457 248.366 156.118 244.919C158.762 241.477 161.977 237.99 164.531 236.609C165.102 236.295 165.273 235.636 164.914 235.136C164.555 234.639 163.803 234.488 163.232 234.801C161.399 235.815 159.597 237.426 157.846 239.283C152.623 244.844 147.949 252.685 147.928 252.717C147.615 253.24 147.846 253.884 148.443 254.157C149.041 254.431 149.779 254.228 150.091 253.705Z" fill="#17282F"/>
<path d="M167.571 241.374L167.383 241.665C166.941 242.333 165.759 244.068 164.238 245.929C162.725 247.792 160.845 249.785 159.131 250.929C158.599 251.289 158.499 251.959 158.909 252.427C159.321 252.892 160.086 252.98 160.62 252.621C162.979 251.025 165.191 248.498 166.885 246.347C168.567 244.198 169.692 242.431 169.705 242.412C170.032 241.897 169.822 241.246 169.231 240.96C168.643 240.674 167.9 240.858 167.571 241.374Z" fill="#17282F"/>
<path d="M198.271 325.163C198.425 325.146 206.237 324.473 212.275 318.071C212.705 317.617 212.629 316.944 212.106 316.569C211.586 316.195 210.817 316.262 210.39 316.716C207.692 319.586 204.582 321.168 202.143 322.034C200.925 322.467 199.877 322.721 199.143 322.864C198.776 322.937 198.488 322.982 198.298 323.007L198.086 323.033L198.034 323.039C197.363 323.095 196.872 323.618 196.938 324.205C197.004 324.791 197.6 325.22 198.271 325.163Z" fill="#17282F"/>
<path d="M38.5449 348.352C38.5449 348.352 58.5357 353.973 70.571 346.175C82.6063 338.377 87.22 333.469 87.22 333.469C87.22 333.469 103.062 336.627 107.476 335.686C111.887 334.745 111.887 334.745 111.887 334.745L129.572 342.824C129.572 342.824 126.098 352.146 132.352 356.124C138.606 360.102 154.587 358.738 164.067 351.156C173.542 343.576 176.518 329.781 174.101 325.476C171.682 321.168 156.116 308.961 147.32 299.556C138.523 290.155 133.033 287.24 125.814 286.165C118.595 285.089 77.9572 279.536 75.9774 279.141C73.9975 278.746 70.676 277.904 70.676 277.904" fill="white"/>
<path d="M38.1711 349.367C38.2407 349.382 45.297 351.373 53.7024 351.377C59.5266 351.375 66.0514 350.423 71.2987 347.032C83.4102 339.183 88.0984 334.215 88.1633 334.145L87.2199 333.468L86.9482 334.507C86.9597 334.509 89.9724 335.111 93.7526 335.713C97.5426 336.315 102.061 336.925 105.241 336.927C106.196 336.925 107.032 336.876 107.765 336.723C112.177 335.779 112.173 335.781 112.177 335.779L111.887 334.744L111.322 335.69L129.007 343.769L129.572 342.824L128.412 342.493C128.393 342.555 127.394 345.212 127.39 348.432C127.39 349.881 127.594 351.454 128.224 352.961C128.851 354.463 129.933 355.906 131.634 356.986C134.231 358.625 137.978 359.361 142.185 359.369C149.604 359.359 158.54 357.005 164.89 351.943C168.764 348.84 171.555 344.802 173.393 340.767C175.229 336.725 176.118 332.693 176.123 329.509C176.115 327.719 175.854 326.195 175.195 325.006C174.465 323.724 173.007 322.153 171.042 320.22C165.173 314.473 154.783 305.853 148.265 298.881C143.827 294.139 140.187 290.987 136.668 288.859C133.155 286.732 129.756 285.665 126.019 285.112C122.39 284.572 110.434 282.916 99.1227 281.343C93.4684 280.558 87.9783 279.794 83.7793 279.2C81.6792 278.904 79.9036 278.65 78.5923 278.46C77.2933 278.27 76.4073 278.133 76.2501 278.101L76.2481 278.099C75.2955 277.911 73.9774 277.604 72.9093 277.346C71.8392 277.088 71.0192 276.879 71.0172 276.879C70.3698 276.714 69.6925 277.039 69.5038 277.604C69.3158 278.17 69.6879 278.763 70.3353 278.927C70.3478 278.929 73.6608 279.772 75.7064 280.18H75.7054C76.0421 280.246 76.8595 280.37 78.1898 280.564C87.405 281.909 119.314 286.277 125.609 287.216C129.09 287.739 132.045 288.667 135.281 290.616C138.512 292.566 142.016 295.571 146.375 300.232C150.83 304.993 156.936 310.405 162.226 315.17C164.87 317.55 167.309 319.767 169.221 321.641C171.13 323.502 172.527 325.073 173.005 325.945C173.405 326.645 173.686 327.922 173.681 329.509C173.684 332.348 172.856 336.178 171.125 339.977C169.394 343.78 166.767 347.553 163.242 350.368C157.492 354.986 149.022 357.244 142.185 357.235C138.315 357.244 134.996 356.501 133.07 355.261C131.809 354.457 131.019 353.415 130.516 352.224C130.017 351.038 129.83 349.704 129.831 348.432C129.83 347.017 130.058 345.679 130.287 344.708C130.401 344.222 130.515 343.825 130.599 343.554L130.7 343.246L130.733 343.155C130.918 342.657 130.666 342.12 130.138 341.878L112.453 333.799C112.19 333.677 111.887 333.645 111.598 333.707C111.598 333.707 111.598 333.707 107.186 334.648C106.775 334.738 106.081 334.795 105.241 334.793C102.398 334.798 97.9069 334.209 94.1913 333.615C92.3288 333.319 90.6513 333.02 89.4401 332.798C88.229 332.574 87.4939 332.429 87.4919 332.427C87.0398 332.337 86.5705 332.478 86.2768 332.792L86.2339 332.834C85.7446 333.338 81.0555 338.052 69.8444 345.316C65.2343 348.313 59.2339 349.247 53.7024 349.243C49.7201 349.245 46.0045 348.765 43.296 348.285C41.9418 348.044 40.8395 347.805 40.0795 347.626C39.6989 347.536 39.4052 347.463 39.2077 347.412L38.9189 347.335C38.2771 347.154 37.5893 347.463 37.3825 348.022C37.1765 348.584 37.5292 349.186 38.1711 349.367Z" fill="#17282F"/>
<path d="M87.0672 332.41C87.0672 332.41 86.9471 332.423 86.6984 332.444C85.9515 332.51 84.1244 332.647 81.7067 332.645C78.1381 332.647 73.2822 332.348 68.7483 331.13C64.2032 329.911 60.0453 327.8 57.6076 324.256C57.2597 323.752 56.5099 323.59 55.932 323.893C55.3542 324.196 55.1681 324.853 55.5163 325.357C58.3878 329.52 63.1571 331.864 68.0332 333.17C72.9216 334.478 77.9836 334.779 81.7067 334.779C85.0675 334.779 87.3353 334.531 87.3724 334.527C88.0411 334.454 88.515 333.919 88.431 333.336C88.3473 332.751 87.7359 332.335 87.0672 332.41Z" fill="#17282F"/>
<path d="M52.0932 337.346C52.1884 337.382 60.1534 341.39 69.6091 341.405C73.8186 341.407 78.3503 340.589 82.5101 338.206C83.0748 337.883 83.232 337.222 82.8632 336.729C82.493 336.236 81.7367 336.097 81.1732 336.421C77.4836 338.532 73.4685 339.27 69.6091 339.27C65.2823 339.273 61.1786 338.327 58.1737 337.375C56.6698 336.899 55.4413 336.424 54.5946 336.069C54.171 335.892 53.8432 335.745 53.6237 335.643L53.3776 335.527L53.3044 335.493C52.7187 335.201 51.9728 335.378 51.6381 335.89C51.3044 336.402 51.5075 337.053 52.0932 337.346Z" fill="#17282F"/>
<path d="M128.516 343.357C128.571 343.441 129.366 344.625 131.142 345.816C132.911 347.009 135.696 348.187 139.55 348.183C140.856 348.183 142.281 348.05 143.829 347.745C144.487 347.615 144.899 347.043 144.751 346.469C144.602 345.895 143.949 345.534 143.292 345.662C141.909 345.935 140.665 346.049 139.55 346.049C136.266 346.044 134.062 345.078 132.627 344.124C131.913 343.646 131.4 343.168 131.072 342.818L130.717 342.406L130.641 342.305L130.626 342.286L130.389 342.41L130.629 342.288L130.626 342.286L130.389 342.41L130.629 342.288C130.292 341.778 129.545 341.605 128.961 341.9C128.377 342.194 128.178 342.847 128.516 343.357Z" fill="#17282F"/>
<path d="M131.964 296.271C131.797 296.333 130.77 296.781 129.678 298.107C128.583 299.43 127.435 301.609 126.919 305.089C125.916 311.837 125.903 316.95 125.902 316.98C125.901 317.569 126.447 318.05 127.121 318.05C127.795 318.052 128.343 317.576 128.344 316.985C128.344 316.985 128.345 316.684 128.361 316.112C128.41 314.4 128.601 310.326 129.34 305.365C129.817 302.166 130.834 300.352 131.657 299.355C132.07 298.856 132.436 298.559 132.679 298.39L132.94 298.23L132.983 298.209L132.756 297.827L132.957 298.22L132.983 298.209L132.756 297.827L132.957 298.22C133.573 297.981 133.849 297.349 133.575 296.811C133.301 296.273 132.579 296.03 131.964 296.271Z" fill="#17282F"/>
<path d="M133.108 302.893L130.965 309.673C130.786 310.241 131.166 310.83 131.816 310.986C132.466 311.144 133.138 310.811 133.317 310.243L135.461 303.463C135.64 302.895 135.26 302.306 134.61 302.151C133.96 301.993 133.288 302.326 133.108 302.893Z" fill="#17282F"/>
<defs>
<linearGradient id="paint0_linear_79_872" x1="294.179" y1="269.54" x2="115.242" y2="-19.389" gradientUnits="userSpaceOnUse">
<stop stop-color="#00A3FF"/>
<stop offset="0.335598" stop-color="#221FDE"/>
<stop offset="0.681272" stop-color="#671FDE"/>
<stop offset="1" stop-color="#DE1F1F"/>
</linearGradient>
</defs>
</svg>
