<svg width="408" height="241" viewBox="0 0 408 241" fill="none" xmlns="http://www.w3.org/2000/svg">
<path d="M88.1349 82.6173C88.1349 82.6173 52.4686 22.3874 48.9889 22.3874C45.5106 22.3874 0.563965 10.0405 0.563965 10.0405L0.563965 240.118C0.563965 240.118 59.1386 213.316 62.908 208.196C66.6779 203.077 95.3851 142.245 97.4134 137.125C99.4444 132.005 88.1349 82.6173 88.1349 82.6173Z" fill="url(#paint0_linear_299_1695)"/>
<path d="M88.1348 82.6173L88.6137 82.3115C88.6124 82.3091 79.6946 67.2502 70.3392 52.1863C65.6606 44.6538 60.8739 37.1212 57.0325 31.4619C55.1119 28.6319 53.4282 26.2719 52.1028 24.6041C51.4399 23.7693 50.8692 23.1092 50.3867 22.6387C50.1452 22.4029 49.9262 22.2141 49.7124 22.0705C49.4969 21.9319 49.2931 21.8124 48.9889 21.8038C48.844 21.8056 48.4695 21.7623 47.9651 21.6734C44.1202 21.0063 32.272 17.951 21.4313 15.0709C16.0059 13.6297 10.8251 12.2313 7.00033 11.1926C5.08885 10.6738 3.51541 10.2447 2.4205 9.94524C1.32471 9.64562 0.710089 9.47696 0.707894 9.47649C0.539311 9.43004 0.359314 9.46785 0.221023 9.57816C0.0827324 9.68892 0.00195312 9.85945 0.00195312 10.0405L0.00195312 240.118C0.00195312 240.314 0.098537 240.499 0.257022 240.606C0.416825 240.715 0.617895 240.731 0.790868 240.652C0.793063 240.651 15.4387 233.95 30.5602 226.605C38.1219 222.933 45.8016 219.101 51.8345 215.862C54.8519 214.242 57.4562 212.772 59.4362 211.538C60.4266 210.921 61.2594 210.364 61.9158 209.871C62.5729 209.375 63.0484 208.96 63.3544 208.551C63.8725 207.844 64.7242 206.34 65.8819 204.165C69.9168 196.572 77.4772 181.005 84.2574 166.764C87.647 159.644 90.8413 152.858 93.2989 147.57C95.7583 142.277 97.4732 138.507 97.9341 137.348C98.1545 136.772 98.215 136.017 98.2194 135.011C98.2181 132.23 97.618 127.602 96.7238 122.167C94.0396 105.88 88.6831 82.4889 88.6822 82.4819L88.6137 82.3115L88.1348 82.6173L87.5886 82.7527C87.5886 82.7538 87.7371 83.4005 87.9978 84.5583C88.9079 88.6086 91.185 98.887 93.234 109.329C94.2591 114.55 95.2254 119.812 95.9357 124.351C96.646 128.888 97.0978 132.719 97.0955 135.011C97.1013 135.945 97.0091 136.635 96.8945 136.903C96.4046 138.141 94.2231 142.921 91.1908 149.416C86.639 159.166 80.1495 172.837 74.4458 184.545C71.5948 190.4 68.9387 195.764 66.8213 199.901C65.7637 201.969 64.84 203.731 64.095 205.09C63.3531 206.447 62.7776 207.415 62.4619 207.841C62.2955 208.073 61.8718 208.467 61.2572 208.926C58.9383 210.67 53.9291 213.491 47.7749 216.698C38.5346 221.516 26.6728 227.239 17.1232 231.755C12.3488 234.014 8.15231 235.971 5.14944 237.364C3.64799 238.061 2.44421 238.615 1.6171 238.997C0.78999 239.377 0.339119 239.584 0.337802 239.584L0.563896 240.118H1.12584L1.12584 10.0405H0.563896L0.421215 10.605C0.421215 10.605 11.6588 13.6921 23.334 16.7797C29.1712 18.3236 35.1167 19.8673 39.8257 21.0259C42.1801 21.6059 44.2246 22.0888 45.7946 22.4284C46.5804 22.598 47.2477 22.732 47.7793 22.8246C48.3154 22.9162 48.7 22.9697 48.9889 22.971V22.8L48.9529 22.9678L48.9889 22.971V22.8L48.9529 22.9678L49.0192 22.9989C49.2079 23.0973 49.6158 23.4529 50.107 24.0009C51.983 26.0682 55.3063 30.8245 59.1846 36.745C65.0109 45.6322 72.1308 57.1793 77.7915 66.5019C80.6227 71.1636 83.0887 75.2689 84.8474 78.2092C85.7263 79.6792 86.4287 80.8578 86.9121 81.6683C87.3942 82.4795 87.6562 82.9219 87.6562 82.9231L88.1348 82.6173Z" fill="#17282F"/>
<path d="M0.929391 39.2281L33.1165 34.7112L32.9659 33.5544L0.778809 38.0714" fill="#17282F"/>
<path d="M51.7913 125.71C51.79 125.71 44.033 127.141 36.0556 128.684C32.0671 129.456 28.0246 130.256 24.8651 130.921C23.2863 131.253 21.9285 131.552 20.9046 131.797C20.3923 131.919 19.9652 132.028 19.6302 132.122C19.2895 132.222 19.066 132.289 18.8724 132.387C18.6476 132.503 18.4747 132.685 18.3514 132.882C17.9905 133.482 17.9228 134.235 17.9141 135.115C17.915 136.672 18.2298 138.621 18.5388 140.205C18.8491 141.787 19.1582 142.99 19.1605 142.998L19.2895 143.503L38.925 140.413L38.7564 139.259L19.6188 142.27L19.7031 142.848L20.2461 142.697C20.2461 142.696 20.1706 142.407 20.0573 141.918C19.7145 140.457 19.0345 137.218 19.0379 135.115C19.0366 134.593 19.0819 134.145 19.1626 133.845C19.203 133.696 19.2514 133.586 19.2917 133.522L19.3751 133.431C19.3984 133.416 19.6201 133.334 19.9257 133.249C21.0992 132.916 23.7166 132.342 26.9464 131.679C31.7984 130.683 38.0597 129.477 43.1071 128.522C45.6301 128.044 47.8507 127.629 49.4399 127.332C51.0292 127.036 51.9858 126.859 51.988 126.859L51.7913 125.71Z" fill="#17282F"/>
<path d="M106.984 82.9185C106.984 82.9185 100.313 75.0889 90.4554 73.8839C80.596 72.6797 48.1187 78.7027 48.9888 84.1231C49.8598 89.5436 62.0382 97.6756 63.4879 102.493C64.9379 107.312 69.8673 133.511 71.0271 136.523C72.187 139.534 69.5771 149.472 67.5474 152.484C65.5166 155.496 63.4879 160.314 66.6778 160.916C69.8673 161.518 92.4854 155.797 105.824 148.871C119.162 141.943 120.032 127.187 118.292 114.539C116.552 101.89 106.984 82.9185 106.984 82.9185Z" fill="white"/>
<path d="M106.984 82.9185L107.404 82.5322C107.36 82.4937 100.635 74.5563 90.5211 73.3044C89.6278 73.1953 88.5737 73.1453 87.3879 73.1453C81.2952 73.1465 71.6803 74.4743 63.5391 76.4166C59.4681 77.3891 55.7737 78.513 53.0611 79.7195C51.7024 80.324 50.5894 80.946 49.7803 81.6101C49.3756 81.9428 49.0454 82.2883 48.8035 82.6664C48.562 83.0423 48.4102 83.4636 48.4102 83.9083L48.4351 84.2188C48.6924 85.7677 49.6767 87.3388 50.9871 88.9775C52.9575 91.4252 55.7123 93.9989 58.1014 96.4115C59.2951 97.6161 60.3966 98.7786 61.2554 99.8466C62.1149 100.913 62.7229 101.894 62.9513 102.668C63.3016 103.827 63.8837 106.374 64.566 109.547C65.5911 114.313 66.852 120.524 67.9649 125.828C68.5224 128.479 69.0413 130.904 69.4777 132.812C69.9181 134.728 70.2587 136.092 70.5046 136.74C70.6608 137.137 70.7531 137.795 70.7509 138.601C70.7531 140.566 70.2438 143.387 69.5212 145.991C68.8064 148.593 67.8582 151.016 67.0868 152.149C66.4362 153.116 65.7869 154.257 65.2934 155.408C64.8021 156.56 64.4571 157.716 64.4536 158.765C64.4536 159.396 64.5861 160.012 64.9449 160.516C65.3023 161.021 65.8742 161.361 66.5766 161.49C66.7834 161.529 67.0117 161.543 67.2769 161.543C68.5593 161.541 70.7732 161.189 73.6405 160.568C82.226 158.701 96.4777 154.373 106.075 149.392C111.306 146.679 114.694 142.75 116.742 138.235C118.792 133.721 119.521 128.636 119.521 123.55C119.521 120.481 119.256 117.41 118.849 114.457C117.962 108.03 115.12 100.105 112.502 93.7561C109.884 87.41 107.486 82.6559 107.482 82.6478L107.45 82.5847L107.404 82.5322L106.984 82.9185L106.486 83.1893C106.486 83.1905 106.633 83.4811 106.897 84.0216C107.82 85.9148 110.158 90.8322 112.45 96.6461C114.743 102.458 116.99 109.178 117.736 114.621C118.137 117.532 118.397 120.551 118.397 123.55C118.398 128.523 117.681 133.437 115.725 137.738C113.768 142.039 110.587 145.74 105.572 148.349C99.2809 151.616 90.8562 154.634 83.4249 156.825C79.7095 157.92 76.2399 158.811 73.4113 159.426C70.5867 160.042 68.3771 160.378 67.2769 160.376C67.0543 160.376 66.8813 160.362 66.7777 160.342C66.2799 160.244 66.0218 160.058 65.8484 159.82C65.6767 159.581 65.5775 159.234 65.5775 158.765C65.5744 157.992 65.862 156.945 66.3203 155.882C66.7769 154.818 67.3937 153.73 68.0088 152.818C68.9211 151.455 69.8552 148.998 70.6016 146.313C71.3423 143.631 71.8725 140.76 71.8747 138.601C71.8734 137.71 71.7891 136.938 71.549 136.306C71.4265 135.99 71.2184 135.252 70.9743 134.25C70.109 130.724 68.6897 123.8 67.3309 117.24C66.6509 113.959 65.9866 110.767 65.4111 108.129C64.8346 105.489 64.3526 103.414 64.0242 102.319C63.6019 100.944 62.5241 99.5093 61.146 97.9557C59.077 95.6365 56.3032 93.0966 53.9782 90.6385C52.8161 89.4106 51.7673 88.2049 50.9819 87.0762C50.1939 85.9498 49.6803 84.8981 49.5442 84.0274L49.534 83.9083C49.534 83.7414 49.588 83.55 49.7399 83.3107C50.0196 82.8637 50.6526 82.3151 51.5693 81.7735C53.1757 80.8187 55.6245 79.8558 58.5264 78.9713C67.2352 76.3095 80.0676 74.3087 87.3879 74.3125C88.543 74.312 89.5593 74.3621 90.3894 74.4637C95.1919 75.0492 99.2448 77.2587 102.094 79.331C103.519 80.3664 104.642 81.3662 105.405 82.1038C105.787 82.4727 106.079 82.7761 106.274 82.9851L106.494 83.2267L106.562 83.3049L106.984 82.9185Z" fill="#17282F"/>
<path d="M126.121 73.5828C126.121 73.5828 81.4659 89.8446 75.3767 96.4697C69.2875 103.096 50.4388 118.755 51.8888 126.284C53.3384 133.812 81.1762 138.028 91.9057 137.426C102.634 136.825 139.749 128.994 139.749 128.994C139.749 128.994 133.081 126.886 125.831 111.829C118.582 96.772 126.121 73.5828 126.121 73.5828Z" fill="white"/>
<path d="M126.121 73.5828L125.935 73.032C125.931 73.0338 114.763 77.1008 102.826 81.9987C96.8562 84.4486 90.6959 87.1052 85.6353 89.5704C83.1044 90.8029 80.8496 91.9876 79.0246 93.079C77.1983 94.1738 75.8079 95.1601 74.9694 96.067C72.0754 99.2185 66.1693 104.519 60.992 110.002C58.4013 112.748 55.988 115.541 54.2079 118.165C52.4334 120.793 51.2589 123.239 51.2476 125.42C51.2476 125.754 51.2769 126.081 51.3376 126.398C51.5408 127.445 52.1545 128.379 53.0334 129.219C54.5757 130.69 56.9626 131.934 59.8554 133.026C68.5294 136.281 81.7839 138.062 89.6792 138.067C90.4905 138.067 91.2455 138.048 91.9357 138.008C97.3743 137.701 109.319 135.592 119.952 133.558C130.578 131.525 139.859 129.566 139.862 129.566L142.036 129.107L139.913 128.436L139.862 128.611L139.915 128.436H139.913L139.862 128.611L139.915 128.436C139.867 128.415 133.425 126.284 126.334 111.568C124.035 106.797 123.244 101.137 123.245 95.6632C123.245 89.9707 124.097 84.4872 124.951 80.4333C125.378 78.4062 125.805 76.7365 126.124 75.5757C126.284 74.9948 126.416 74.5416 126.51 74.2344C126.602 73.9271 126.654 73.7702 126.654 73.7697L127.022 72.6362L125.935 73.032L126.121 73.5828L125.588 73.3963C125.58 73.4291 122.124 84.0413 122.121 95.6632C122.122 101.251 122.92 107.082 125.329 112.091C132.624 127.255 139.428 129.508 139.586 129.552L139.749 128.994L139.638 128.422C139.636 128.422 139.059 128.545 138.023 128.759C134.401 129.512 125.193 131.404 115.722 133.173C106.256 134.94 96.501 136.586 91.8751 136.844C91.2095 136.881 90.4733 136.9 89.6792 136.9C83.7818 136.901 74.6919 135.868 66.9551 133.961C63.0878 133.009 59.5542 131.836 56.9412 130.487C55.6355 129.813 54.5608 129.096 53.7943 128.361C53.0255 127.625 52.576 126.887 52.4403 126.169C52.3943 125.934 52.3714 125.684 52.3714 125.42C52.3604 123.698 53.3987 121.371 55.1262 118.837C57.709 115.027 61.7695 110.728 65.7298 106.798C69.6942 102.864 73.5523 99.2979 75.7833 96.8724C76.4664 96.1242 77.8042 95.1531 79.5852 94.0898C85.8329 90.3512 97.5371 85.3462 107.65 81.296C112.708 79.2702 117.374 77.4787 120.773 76.1948C122.474 75.5525 123.857 75.0372 124.816 74.6825C125.775 74.3273 126.305 74.134 126.307 74.1335L126.121 73.5828Z" fill="#17282F"/>
<path d="M112.202 110.926C123.852 119.939 132.956 125.014 136.307 126.769C133.683 124.533 129.848 120.169 125.831 111.829C118.582 96.772 126.121 73.5828 126.121 73.5828C126.121 73.5828 108.967 79.8305 94.4727 86.1585C96.9171 92.4276 102.267 103.236 112.202 110.926Z" fill="#17282F"/>
<path d="M112.202 110.926L111.867 111.393C123.548 120.431 132.679 125.523 136.054 127.291L140.594 129.669L136.663 126.319C134.109 124.141 130.323 119.849 126.335 111.568C124.036 106.797 123.244 101.137 123.245 95.6632C123.245 89.9707 124.097 84.4872 124.951 80.4333C125.379 78.4062 125.806 76.7365 126.125 75.5757C126.284 74.9948 126.417 74.5416 126.51 74.2344C126.602 73.9271 126.654 73.7702 126.654 73.7697L127.023 72.6362L125.936 73.032C125.93 73.0342 108.772 79.2829 94.2547 85.6205L93.7437 85.8434L93.9526 86.3769C96.4203 92.7031 101.806 103.604 111.867 111.393L112.202 110.926L112.538 110.458C102.727 102.87 97.4138 92.1534 94.9944 85.9392L94.4728 86.1586L94.6911 86.6967C101.927 83.537 109.833 80.396 115.928 78.0446C118.976 76.8692 121.572 75.8912 123.405 75.2072C125.238 74.5234 126.305 74.1349 126.308 74.1335L126.121 73.5828L125.589 73.3963C125.581 73.4291 122.125 84.0413 122.122 95.6632C122.123 101.251 122.921 107.082 125.329 112.091C129.374 120.49 133.256 124.924 135.951 127.221L136.307 126.769L136.56 126.249C133.232 124.506 124.156 119.446 112.538 110.458L112.202 110.926Z" fill="#17282F"/>
<path d="M153.379 59.1282C153.379 59.1282 152.799 51.2979 145.84 52.8033C138.881 54.3094 130.761 63.6452 130.471 66.6567C130.182 69.6681 132.5 69.6681 132.5 69.6681L153.379 59.1282Z" fill="white"/>
<path d="M153.379 59.1282L153.939 59.083C153.934 59.0415 153.814 57.3545 152.967 55.6065C152.544 54.7338 151.931 53.8406 151.04 53.1595C150.15 52.4769 148.979 52.025 147.528 52.0278C146.969 52.0278 146.369 52.0925 145.725 52.2321C142.066 53.0327 138.254 55.8012 135.267 58.7425C133.775 60.2156 132.496 61.7348 131.558 63.0939C131.091 63.7742 130.708 64.4139 130.427 64.9975C130.147 65.5829 129.961 66.105 129.912 66.5988C129.893 66.7939 129.884 66.9799 129.884 67.1573C129.883 67.8668 130.031 68.4458 130.278 68.8967C130.648 69.5774 131.217 69.9249 131.663 70.0862C132.114 70.25 132.459 70.2509 132.5 70.2517H132.629L153.969 59.4792L153.939 59.083L153.379 59.1282L153.134 58.603L132.254 69.1433L132.5 69.6681V69.0845H132.499C132.443 69.085 132.028 69.0467 131.689 68.806C131.355 68.5585 131.021 68.1804 131.008 67.1573C131.008 67.021 131.014 66.8737 131.03 66.7146C131.053 66.4556 131.185 66.027 131.431 65.5195C132.291 63.7241 134.47 60.9551 137.161 58.5308C139.849 56.098 143.068 53.9933 145.954 53.3747C146.531 53.2501 147.053 53.1951 147.528 53.1951C148.761 53.1973 149.663 53.5603 150.373 54.0996C151.437 54.9067 152.064 56.1696 152.41 57.2506C152.583 57.7895 152.686 58.2779 152.746 58.6276C152.775 58.8027 152.793 58.9426 152.804 59.0369L152.816 59.1433L152.819 59.1728L153.379 59.1282Z" fill="#17282F"/>
<path d="M166.579 123.941C166.579 123.941 170.629 130.573 164.186 133.695C157.745 136.816 145.86 134.388 143.891 132.156C141.923 129.923 143.781 128.482 143.781 128.482L166.579 123.941Z" fill="white"/>
<path d="M166.579 123.941L166.105 124.254L166.114 124.269C166.23 124.457 167.282 126.347 167.273 128.361C167.272 129.217 167.095 130.087 166.605 130.905C166.112 131.724 165.298 132.511 163.949 133.166C161.865 134.179 159.097 134.598 156.292 134.596C153.588 134.597 150.848 134.213 148.645 133.651C147.544 133.372 146.576 133.047 145.822 132.712C145.068 132.38 144.526 132.02 144.305 131.762C143.693 131.062 143.552 130.537 143.548 130.148C143.548 129.78 143.688 129.482 143.839 129.263C143.915 129.154 143.991 129.069 144.046 129.015L144.108 128.957L144.12 128.946L144.034 128.833L144.117 128.949L144.12 128.946L144.034 128.833L144.117 128.949L143.781 128.482L143.887 129.055L166.685 124.514L166.579 123.941L166.473 123.368L143.548 127.933L143.445 128.014C143.414 128.038 143.175 128.225 142.928 128.579C142.683 128.93 142.425 129.466 142.424 130.148C142.422 130.872 142.726 131.704 143.476 132.549C143.904 133.027 144.547 133.411 145.379 133.784C147.866 134.885 152.08 135.759 156.292 135.763C159.203 135.762 162.106 135.344 164.424 134.223C165.929 133.496 166.94 132.555 167.558 131.522C168.178 130.49 168.398 129.384 168.397 128.361C168.387 125.785 167.075 123.675 167.054 123.628L166.849 123.293L166.473 123.368L166.579 123.941Z" fill="#17282F"/>
<path d="M189.915 54.6106C189.915 54.6106 174.256 47.6844 169.907 49.4907C165.557 51.2977 153.379 59.128 153.379 59.128C153.379 59.128 127.281 68.4629 122.352 74.4864C117.423 80.5093 110.174 93.1571 111.913 104.902C113.652 116.647 122.932 130.801 136.85 131.102C150.769 131.403 205.863 108.516 205.863 108.516C205.863 108.516 209.343 102.795 208.473 94.6628C207.603 86.532 209.633 66.9575 205.573 61.2358C201.514 55.5138 196.295 54.0082 189.915 54.6106Z" fill="white"/>
<path d="M189.915 54.6106L190.136 54.0739C190.128 54.0703 187.055 52.7111 183.242 51.3487C179.418 49.9882 174.892 48.6144 171.823 48.6067C171.017 48.6081 170.304 48.6997 169.699 48.9492C167.45 49.8856 163.33 52.2934 159.728 54.4834C156.132 56.6709 153.086 58.6301 153.083 58.6315L153.379 59.128L153.196 58.5758C153.189 58.5786 146.658 60.9148 139.498 64.0098C135.918 65.5573 132.181 67.294 129.018 69.0297C125.849 70.7727 123.266 72.4807 121.924 74.108C117.449 79.5892 111.102 90.3698 111.087 101.234C111.087 102.489 111.173 103.744 111.357 104.99C112.247 110.98 115.039 117.54 119.393 122.679C123.743 127.814 129.691 131.531 136.839 131.686L137.128 131.689C140.844 131.683 146.938 130.258 154.08 128.136C175.478 121.769 206.063 109.062 206.072 109.058L206.242 108.988L206.339 108.828C206.369 108.773 209.171 104.164 209.174 97.2797C209.174 96.4195 209.13 95.5242 209.032 94.5986C208.829 92.7159 208.785 90.1551 208.785 87.2837C208.785 85.2154 208.808 82.9837 208.808 80.7155C208.808 76.7834 208.742 72.7443 208.37 69.2385C207.99 65.731 207.339 62.76 206.026 60.8897C204.222 58.3457 202.168 56.5853 199.885 55.4746C197.603 54.3629 195.104 53.9029 192.416 53.9034C191.584 53.9034 190.734 53.9471 189.865 54.0292L189.915 54.6106L189.966 55.1919C190.805 55.1125 191.621 55.0706 192.416 55.0706C194.983 55.0711 197.305 55.5074 199.409 56.5315C201.512 57.5569 203.409 59.1704 205.121 61.5819C206.211 63.0992 206.896 65.9434 207.252 69.3666C207.617 72.7912 207.684 76.7984 207.684 80.7155C207.684 82.9755 207.661 85.2072 207.661 87.2837C207.661 90.1702 207.704 92.7533 207.914 94.7282C208.009 95.6094 208.05 96.4615 208.05 97.2797C208.051 100.555 207.379 103.298 206.71 105.218C206.375 106.177 206.041 106.931 205.791 107.441C205.668 107.696 205.564 107.891 205.494 108.019L205.413 108.163L205.389 108.205L205.863 108.516L205.655 107.974C205.653 107.975 204.808 108.326 203.294 108.944C197.996 111.103 184.55 116.506 170.867 121.365C164.026 123.794 157.125 126.089 151.16 127.772C145.202 129.457 140.155 130.525 137.128 130.522L136.861 130.518C130.091 130.371 124.44 126.861 120.237 121.908C116.036 116.958 113.318 110.568 112.468 104.813C112.293 103.629 112.211 102.434 112.211 101.234C112.196 90.8507 118.415 80.1821 122.78 74.8644C123.902 73.4806 126.429 71.7626 129.542 70.0615C134.216 67.4973 140.229 64.897 145.066 62.9428C147.484 61.9658 149.609 61.1497 151.13 60.578C152.65 60.0061 153.56 59.6806 153.562 59.6797L153.622 59.6583L153.675 59.6241C153.677 59.6227 154.433 59.1362 155.641 58.3752C157.453 57.2331 160.274 55.4777 163.044 53.8414C165.81 52.2059 168.545 50.684 170.116 50.0329C170.514 49.8651 171.105 49.7725 171.823 49.7739C174.591 49.7662 179.111 51.1025 182.875 52.4521C184.762 53.126 186.468 53.8008 187.704 54.3064C188.321 54.5595 188.82 54.7701 189.163 54.9173C189.507 55.0646 189.695 55.1472 189.695 55.1476L189.825 55.205L189.966 55.1919L189.915 54.6106Z" fill="#17282F"/>
<path d="M194.265 51.9002C194.265 51.9002 182.085 43.7699 175.996 44.6731C169.907 45.5763 153.379 59.1283 153.379 59.1283C153.379 59.1283 168.747 52.5025 174.546 54.3094C180.345 56.1167 182.956 59.1283 188.176 58.5255C193.395 57.9231 193.395 55.514 196.294 56.719C199.194 57.9231 202.964 55.514 200.354 66.3554C197.744 77.1971 195.425 88.3391 198.614 97.3733C201.804 106.408 211.083 118.153 220.941 116.949C230.801 115.744 229.351 106.108 225.582 100.385C221.811 94.6631 216.013 95.8676 220.071 90.7482C224.132 85.6288 232.251 85.93 229.351 76.8953C226.452 67.8609 216.013 48.5878 194.265 51.9002Z" fill="#17282F"/>
<path d="M194.265 51.9L194.568 51.409C194.558 51.4021 191.812 49.5688 188.259 47.7291C184.697 45.8935 180.364 44.0309 177.005 44.019C176.631 44.019 176.267 44.0432 175.916 44.0953C174.246 44.3501 172.056 45.3933 169.619 46.8031C162.337 51.0351 153.043 58.6612 153.03 58.6699L149.841 61.2851L153.595 59.667C153.595 59.6666 153.776 59.5886 154.112 59.4496C155.287 58.9626 158.333 57.7397 161.815 56.6423C165.292 55.5435 169.222 54.5768 172.088 54.5806C172.979 54.5801 173.764 54.674 174.384 54.8683C176.973 55.6743 178.917 56.7275 180.807 57.607C182.692 58.4838 184.544 59.1887 186.846 59.1873C187.292 59.1873 187.755 59.1614 188.237 59.1052C190.401 58.8581 191.746 58.2901 192.715 57.799C193.198 57.5541 193.585 57.3358 193.922 57.1912C194.261 57.0463 194.54 56.9705 194.866 56.9696C195.184 56.9696 195.564 57.0444 196.085 57.2606C197.344 57.7689 198.613 57.7028 199.409 58.0083C199.809 58.1574 200.074 58.3411 200.291 58.7036C200.506 59.0688 200.67 59.6752 200.669 60.6678C200.67 61.892 200.42 63.6788 199.809 66.2134C198.102 73.3097 196.506 80.5628 196.503 87.3293C196.505 90.9138 196.954 94.3653 198.087 97.5739C199.638 101.963 202.569 106.931 206.317 110.842C210.063 114.742 214.645 117.611 219.53 117.617C220.02 117.617 220.513 117.588 221.007 117.527C223.868 117.181 225.895 116.126 227.188 114.604C228.482 113.083 229.008 111.143 229.006 109.14C229.002 106 227.753 102.654 226.045 100.055C224.549 97.7829 222.735 96.5503 221.363 95.6457C220.677 95.1951 220.103 94.8193 219.743 94.4726C219.38 94.1155 219.255 93.868 219.25 93.5319C219.237 93.0988 219.552 92.311 220.505 91.1193C222.129 89.0615 224.531 87.8826 226.62 86.4983C227.663 85.8038 228.631 85.0497 229.353 84.0588C230.077 83.0702 230.529 81.8329 230.526 80.3056C230.525 79.2584 230.322 78.0761 229.884 76.7105C228.522 72.4735 225.555 66.0675 220.565 60.6792C215.581 55.2941 208.535 50.9348 199.132 50.938C197.549 50.938 195.9 51.0611 194.183 51.3229L194.265 51.9L194.347 52.4772C196.01 52.2242 197.605 52.1052 199.132 52.1052C208.187 52.1089 214.913 56.2697 219.755 61.4884C224.592 66.704 227.506 72.9847 228.817 77.0798C229.228 78.3565 229.402 79.4166 229.402 80.3056C229.397 81.6041 229.046 82.5391 228.457 83.355C227.575 84.577 226.082 85.5015 224.438 86.5123C222.799 87.5277 221.018 88.6413 219.637 90.3781C218.636 91.6515 218.138 92.5958 218.126 93.5319C218.121 94.2754 218.5 94.88 218.982 95.3317C219.712 96.0204 220.725 96.562 221.822 97.3568C222.919 98.1459 224.094 99.1613 225.118 100.715C226.72 103.14 227.887 106.327 227.882 109.14C227.88 110.941 227.42 112.567 226.346 113.831C225.27 115.093 223.546 116.04 220.876 116.368C220.425 116.423 219.977 116.45 219.53 116.45C215.091 116.457 210.735 113.796 207.113 110.018C203.493 106.247 200.627 101.385 199.142 97.1724C198.066 94.1248 197.627 90.8134 197.627 87.3293C197.626 80.7534 199.194 73.575 200.899 66.4966C201.522 63.9091 201.792 62.052 201.792 60.6678C201.792 59.5512 201.616 58.7251 201.252 58.0981C200.98 57.6294 200.599 57.2975 200.192 57.0863C199.578 56.7681 198.923 56.6792 198.289 56.584C197.655 56.4923 197.04 56.401 196.502 56.1768C195.891 55.9224 195.36 55.8024 194.866 55.8024C194.358 55.8016 193.907 55.9329 193.491 56.113C192.245 56.656 191.174 57.5824 188.114 57.9454C187.671 57.9964 187.25 58.0201 186.846 58.0201C184.77 58.0188 183.115 57.4001 181.266 56.5416C179.421 55.6853 177.405 54.5911 174.708 53.7502C173.937 53.5109 173.054 53.4138 172.088 53.4133C168.557 53.4184 163.862 54.7182 160.007 56.0071C156.159 57.2975 153.172 58.585 153.163 58.5887L153.379 59.1281L153.727 59.5859C153.728 59.5854 153.982 59.3766 154.444 59.0054C156.062 57.7074 160.196 54.4433 164.579 51.4131C166.771 49.8984 169.024 48.4422 171.049 47.3219C173.067 46.2008 174.875 45.4234 176.076 45.2506C176.366 45.2077 176.677 45.1863 177.005 45.1863C179.974 45.1745 184.272 46.9604 187.757 48.7737C189.504 49.6783 191.058 50.5841 192.173 51.2636C192.732 51.6028 193.179 51.8859 193.487 52.0828C193.796 52.2808 193.96 52.3906 193.961 52.3911L194.138 52.5092L194.347 52.4772L194.265 51.9Z" fill="#17282F"/>
<path d="M205.863 108.517C205.863 108.517 176.577 119.057 172.516 121.164C168.457 123.272 163.817 124.477 163.817 124.477C163.817 124.477 176.867 128.693 185.566 125.983C194.265 123.272 205.863 108.517 205.863 108.517Z" fill="#17282F"/>
<path d="M205.863 108.517L205.68 107.964C205.679 107.964 198.356 110.6 190.525 113.501C186.608 114.95 182.565 116.465 179.244 117.752C175.918 119.041 173.338 120.087 172.266 120.643C170.273 121.677 168.121 122.497 166.471 123.057C165.646 123.335 164.946 123.55 164.454 123.694C163.962 123.839 163.683 123.911 163.682 123.911L161.736 124.415L163.651 125.034C163.68 125.041 171.178 127.472 178.696 127.476C181.114 127.474 183.537 127.223 185.727 126.542C190.265 125.115 195.347 120.702 199.369 116.652C203.381 112.598 206.291 108.896 206.299 108.885L207.553 107.291L205.68 107.964L205.863 108.517L205.428 108.147C205.428 108.148 205.252 108.372 204.92 108.778C203.76 110.197 200.728 113.797 197.053 117.324C193.385 120.853 189.042 124.3 185.404 125.424C183.362 126.061 181.039 126.308 178.696 126.308C175.052 126.308 171.364 125.712 168.594 125.113C167.21 124.813 166.054 124.514 165.246 124.29C164.843 124.178 164.526 124.085 164.31 124.021C164.095 123.955 163.985 123.92 163.985 123.919L163.818 124.477L163.954 125.043C163.975 125.036 168.635 123.83 172.768 121.686C173.726 121.188 176.33 120.126 179.636 118.845C184.605 116.922 191.209 114.476 196.57 112.513C199.25 111.531 201.62 110.67 203.319 110.054C205.019 109.438 206.045 109.069 206.048 109.068L205.863 108.517Z" fill="#17282F"/>
<path d="M188.286 94.3503L182.39 91.6213L172.601 95.626L173.013 96.7127L182.363 92.8878L187.828 95.4159L188.286 94.3503Z" fill="#17282F"/>
<path d="M165.3 101.413L165.241 101.369C164.938 101.142 163.504 100.037 161.993 98.412C160.48 96.7896 158.9 94.6408 158.268 92.3904L157.19 92.7195C157.964 95.4391 159.836 97.8226 161.5 99.5559C163.166 101.286 164.638 102.356 164.656 102.369L165.3 101.413Z" fill="#17282F"/>
<path d="M152.41 77.679C152.398 77.6909 150.781 79.3003 149.15 81.4618C148.334 82.5438 147.515 83.7635 146.89 85.0054C146.267 86.2473 145.828 87.5114 145.823 88.7253C145.823 88.9272 145.837 89.1268 145.864 89.3253C146.16 91.4788 147.033 95.7811 148.351 99.9282C149.009 102.001 149.779 104.031 150.654 105.736C151.533 107.44 152.499 108.829 153.654 109.609C155.785 111.028 158.378 111.789 160.447 112.213C162.516 112.636 164.063 112.711 164.081 112.713L164.135 111.547C164.135 111.547 164.049 111.543 163.88 111.53C162.701 111.446 157.642 110.898 154.263 108.627C153.389 108.052 152.471 106.807 151.646 105.188C149.148 100.332 147.397 92.255 146.976 89.1607C146.957 89.0206 146.947 88.8759 146.947 88.7253C146.944 87.8184 147.306 86.6932 147.886 85.5458C148.752 83.8219 150.083 82.0512 151.193 80.7265C151.749 80.0636 152.25 79.5101 152.61 79.1234C152.79 78.9301 152.936 78.7787 153.035 78.6761L153.188 78.5216L152.41 77.679Z" fill="#17282F"/>
<path d="M146.42 89.2424C146.42 89.2424 138.3 98.5778 139.171 101.89C140.041 105.204 150.769 106.107 150.769 106.107L146.42 89.2424Z" fill="#17282F"/>
<path d="M146.42 89.2425L146.003 88.8515C145.995 88.8596 144.159 90.9723 142.311 93.5611C141.387 94.8567 140.46 96.2714 139.754 97.6149C139.053 98.9653 138.553 100.224 138.542 101.341C138.544 101.581 138.568 101.817 138.628 102.044C138.776 102.606 139.118 103.072 139.548 103.463C140.308 104.147 141.368 104.65 142.546 105.068C146.07 106.302 150.702 106.684 150.723 106.689L151.518 106.755L146.695 88.0554L146.003 88.8515L146.42 89.2425L145.877 89.3942L150.226 106.258L150.769 106.107L150.814 105.525C150.814 105.525 150.653 105.512 150.364 105.481C149.346 105.374 146.772 105.057 144.39 104.416C143.201 104.098 142.06 103.695 141.206 103.22C140.779 102.984 140.426 102.73 140.174 102.475C139.92 102.218 139.773 101.972 139.712 101.737C139.683 101.628 139.666 101.496 139.666 101.341C139.657 100.613 140.071 99.438 140.741 98.174C141.74 96.2679 143.27 94.1202 144.544 92.4628C145.182 91.6329 145.757 90.9244 146.17 90.4237C146.585 89.9229 146.836 89.6346 146.837 89.6346L146.42 89.2425Z" fill="#17282F"/>
<path d="M168.193 72.6598H168.204L168.259 72.6589C168.539 72.6558 169.624 72.7091 170.565 73.2508C171.037 73.5207 171.473 73.9009 171.8 74.4594C172.126 75.0189 172.352 75.7685 172.353 76.8199C172.353 77.5485 172.242 78.4198 171.975 79.4543L173.059 79.7575C173.348 78.6432 173.477 77.6716 173.477 76.8199C173.478 75.5934 173.205 74.6113 172.761 73.8535C172.095 72.7127 171.079 72.1205 170.199 71.821C169.315 71.5201 168.546 71.4926 168.259 71.4917L168.142 71.494L168.193 72.6598Z" fill="#17282F"/>
<path d="M176.896 100.301L176.931 100.321C177.125 100.43 178.09 101.007 178.976 101.928C179.87 102.852 180.653 104.088 180.649 105.517C180.646 106.383 180.374 107.359 179.6 108.476L180.512 109.16C181.398 107.888 181.774 106.649 181.773 105.517C181.766 103.502 180.635 101.943 179.569 100.898C178.494 99.849 177.443 99.2817 177.416 99.2654L176.896 100.301Z" fill="#17282F"/>
<path d="M178.742 65.9368L179.002 64.9442L178.734 65.9345L178.742 65.9368L179.002 64.9442L178.734 65.9345L178.804 65.9569C179.17 66.0744 180.874 66.7192 182.392 68.2142C183.155 68.962 183.878 69.913 184.418 71.1382C184.957 72.3651 185.321 73.8729 185.322 75.7907C185.322 76.6719 185.244 77.6394 185.065 78.7018C184.905 79.6542 185.518 80.5616 186.436 80.7284C187.353 80.8949 188.226 80.2579 188.387 79.3055C188.597 78.058 188.694 76.8876 188.694 75.7907C188.696 73.2049 188.145 71.0269 187.293 69.2675C186.014 66.6207 184.107 64.9502 182.546 63.9507C180.979 62.9485 179.737 62.5907 179.63 62.5587C178.73 62.3044 177.804 62.8542 177.559 63.7871C177.314 64.7199 177.844 65.6824 178.742 65.9368Z" fill="#17282F"/>
<path d="M190.709 99.1242L191.029 98.6328L190.703 99.1207L190.709 99.1242L191.029 98.6328L190.703 99.1207C190.727 99.1347 191.496 99.7043 192.199 100.593C192.551 101.035 192.883 101.553 193.118 102.103C193.354 102.654 193.492 103.228 193.492 103.834C193.49 104.483 193.343 105.19 192.881 106.042C192.419 106.891 191.622 107.877 190.318 108.952C189.588 109.553 189.466 110.654 190.044 111.411C190.623 112.169 191.683 112.296 192.412 111.695C193.977 110.406 195.087 109.1 195.814 107.77C196.542 106.444 196.868 105.088 196.864 103.834C196.865 102.622 196.572 101.524 196.161 100.593C195.54 99.1919 194.666 98.1356 193.95 97.4038C193.232 96.6743 192.661 96.2692 192.601 96.2261C191.83 95.6833 190.783 95.8922 190.26 96.6918C189.736 97.4925 189.938 98.5815 190.709 99.1242Z" fill="#17282F"/>
<path d="M295.392 163.56C295.392 156.935 294.429 150.617 292.696 144.834L308.701 130.227C318.636 139.324 331.1 144.753 344.645 144.753C377.077 144.753 403.37 113.704 403.37 75.404C403.37 37.1031 377.077 6.05444 344.645 6.05444C312.212 6.05444 285.92 37.1031 285.92 75.404C285.92 93.4083 291.733 109.809 301.26 122.137L289.094 135.674C282.486 122.446 271.307 113.752 258.631 113.752C242.453 113.752 228.726 127.917 223.812 147.588L202.01 139.643L221.992 159.642C221.918 160.936 221.869 162.24 221.869 163.56C221.869 191.068 238.328 213.367 258.631 213.367C278.933 213.367 295.392 191.068 295.392 163.56Z" fill="#17282F"/>
<path d="M295.392 163.56H295.954C295.954 156.875 294.983 150.5 293.233 144.66L292.696 144.834L293.067 145.272L309.072 130.664L308.701 130.227L308.33 130.664C318.354 139.846 330.954 145.337 344.645 145.336C361.037 145.337 375.874 137.487 386.591 124.826C397.312 112.166 403.931 94.6933 403.931 75.4039C403.931 56.1143 397.312 38.6413 386.591 25.9807C375.874 13.321 361.038 5.46977 344.645 5.4707C328.252 5.46977 313.416 13.321 302.699 25.9807C291.978 38.6413 285.359 56.1143 285.358 75.4039C285.359 93.5389 291.212 110.068 300.822 122.502L301.26 122.137L300.849 121.738L288.683 135.276L289.094 135.674L289.593 135.404C282.919 122.039 271.57 113.17 258.631 113.168C250.381 113.167 242.762 116.785 236.61 122.87C230.455 128.957 225.748 137.511 223.268 147.441L223.812 147.588L223.997 147.037L199.764 138.206L221.603 160.062L221.992 159.642L221.432 159.607C221.357 160.909 221.307 162.225 221.307 163.56C221.308 177.435 225.455 190.007 232.19 199.134C238.921 208.258 248.273 213.951 258.631 213.951C268.988 213.951 278.339 208.258 285.07 199.134C291.806 190.007 295.953 177.435 295.954 163.56H295.392H294.83C294.831 177.193 290.748 189.524 284.179 198.424C277.604 207.326 268.576 212.783 258.631 212.783C248.685 212.783 239.656 207.326 233.082 198.424C226.513 189.524 222.43 177.193 222.431 163.56C222.431 162.255 222.48 160.963 222.554 159.677L222.569 159.408L204.255 141.079L224.202 148.348L224.356 147.734C226.788 137.993 231.403 129.629 237.385 123.716C243.369 117.801 250.703 114.336 258.631 114.335C271.045 114.333 282.052 122.853 288.595 135.943L288.961 136.677L302.003 122.165L301.698 121.771C292.253 109.55 286.482 93.2775 286.482 75.4039C286.482 56.3925 293.008 39.1907 303.543 26.7518C314.079 14.3114 328.605 6.63838 344.645 6.63791C360.685 6.63838 375.211 14.3114 385.747 26.7518C396.281 39.1907 402.808 56.3925 402.808 75.4039C402.808 94.4143 396.281 111.617 385.747 124.056C375.211 136.496 360.685 144.169 344.645 144.169C331.246 144.169 318.918 138.802 309.073 129.789L308.702 129.449L292.051 144.645L292.16 145.007C293.876 150.733 294.83 156.993 294.83 163.56H295.392Z" fill="#17282F"/>
<path d="M299.461 158.489C299.461 151.863 298.497 145.546 296.764 139.764L312.77 125.156C322.705 134.253 335.169 139.682 348.714 139.682C381.146 139.682 407.438 108.634 407.438 70.3333C407.438 32.0323 381.146 0.983154 348.714 0.983154C316.281 0.983154 289.989 32.0323 289.989 70.3333C289.989 88.3378 295.801 104.738 305.328 117.066L293.162 130.602C286.554 117.376 275.376 108.681 262.699 108.681C246.521 108.681 232.794 122.846 227.88 142.517L206.078 134.572L226.062 154.571C225.987 155.866 225.937 157.169 225.937 158.489C225.937 185.997 242.396 208.297 262.699 208.297C283.002 208.297 299.461 185.997 299.461 158.489Z" fill="white"/>
<path d="M299.461 158.49H300.022C300.022 151.805 299.051 145.43 297.302 139.59L296.764 139.764L297.135 140.203L313.14 125.595L312.77 125.156L312.399 125.594C322.423 134.775 335.023 140.267 348.714 140.266C365.107 140.267 379.942 132.415 390.659 119.756C401.38 107.096 407.999 89.623 408 70.3334C407.999 51.0439 401.38 33.5708 390.659 20.9102C379.942 8.25055 365.107 0.399191 348.714 0.399658C332.321 0.399191 317.484 8.25055 306.767 20.9102C296.047 33.5708 289.428 51.0439 289.426 70.3334C289.428 88.4698 295.281 104.997 304.89 117.432L305.328 117.066L304.917 116.668L292.752 130.205L293.162 130.603L293.661 130.334C286.988 116.968 275.639 108.1 262.699 108.098C254.449 108.096 246.83 111.714 240.678 117.799C234.524 123.886 229.818 132.441 227.336 142.37L227.88 142.517L228.066 141.967L203.833 133.135L225.672 154.991L226.062 154.571L225.5 154.536C225.426 155.839 225.375 157.154 225.375 158.49C225.376 172.364 229.523 184.936 236.259 194.064C242.99 203.188 252.342 208.88 262.699 208.88C273.056 208.88 282.408 203.188 289.14 194.064C295.875 184.936 300.021 172.364 300.022 158.49H299.461H298.899C298.9 172.123 294.817 184.454 288.248 193.353C281.674 202.255 272.645 207.713 262.699 207.713C252.753 207.713 243.725 202.255 237.15 193.353C230.581 184.454 226.498 172.123 226.499 158.49C226.499 157.185 226.548 155.892 226.623 154.606L226.637 154.338L208.324 136.009L228.27 143.278L228.424 142.665C230.856 132.923 235.471 124.559 241.453 118.646C247.437 112.73 254.771 109.266 262.699 109.265C275.114 109.261 286.12 117.783 292.663 130.872L293.03 131.605L306.071 117.094L305.767 116.701C296.322 104.48 290.55 88.2071 290.55 70.3334C290.55 51.322 297.077 34.1202 307.611 21.6808C318.147 9.24081 332.674 1.5678 348.714 1.56687C364.754 1.5678 379.28 9.24081 389.816 21.6808C400.349 34.1202 406.876 51.322 406.876 70.3334C406.876 89.344 400.349 106.546 389.816 118.985C379.28 131.425 364.754 139.099 348.714 139.099C335.316 139.099 322.987 133.732 313.142 124.719L312.771 124.379L296.119 139.576L296.228 139.938C297.944 145.663 298.899 151.923 298.899 158.49H299.461Z" fill="#17282F"/>
<path d="M347.368 52.0396C349.733 52.0396 351.649 50.0491 351.649 47.5932C351.649 45.138 349.733 43.1475 347.368 43.1475C345.003 43.1475 343.086 45.138 343.086 47.5932C343.086 50.0491 345.003 52.0396 347.368 52.0396Z" fill="#17282F"/>
<path d="M347.368 73.3818C349.733 73.3818 351.649 71.3915 351.649 68.9359C351.649 66.4802 349.733 64.489 347.368 64.489C345.003 64.489 343.086 66.4802 343.086 68.9359C343.086 71.3915 345.003 73.3818 347.368 73.3818Z" fill="#17282F"/>
<path d="M347.368 94.7248C349.733 94.7248 351.649 92.7335 351.649 90.2777C351.649 87.823 349.733 85.8318 347.368 85.8318C345.003 85.8318 343.086 87.823 343.086 90.2777C343.086 92.7335 345.003 94.7248 347.368 94.7248Z" fill="#17282F"/>
<path d="M260.887 142.745C263.251 142.745 265.167 140.754 265.167 138.298C265.167 135.843 263.251 133.852 260.887 133.852C258.522 133.852 256.604 135.843 256.604 138.298C256.604 140.754 258.522 142.745 260.887 142.745Z" fill="#17282F"/>
<path d="M260.887 164.088C263.251 164.088 265.167 162.096 265.167 159.64C265.167 157.185 263.251 155.195 260.887 155.195C258.522 155.195 256.604 157.185 256.604 159.64C256.604 162.096 258.522 164.088 260.887 164.088Z" fill="#17282F"/>
<path d="M260.887 185.43C263.251 185.43 265.167 183.439 265.167 180.983C265.167 178.528 263.251 176.537 260.887 176.537C258.522 176.537 256.604 178.528 256.604 180.983C256.604 183.439 258.522 185.43 260.887 185.43Z" fill="#17282F"/>
<defs>
<linearGradient id="paint0_linear_299_1695" x1="0.844618" y1="10.029" x2="104.095" y2="237.393" gradientUnits="userSpaceOnUse">
<stop stop-color="#DE1F1F" stop-opacity="0.3"/>
<stop offset="0.370645" stop-color="#671FDE" stop-opacity="0.3"/>
<stop offset="0.687204" stop-color="#0072FD" stop-opacity="0.3"/>
<stop offset="1" stop-color="#00A3FF" stop-opacity="0.3"/>
</linearGradient>
</defs>
</svg>
