<svg width="30" height="30" viewBox="0 0 30 30" fill="none" xmlns="http://www.w3.org/2000/svg">
<path d="M0 15C0 17.04 0.4 18.98 1.2 20.82C2 22.66 3.06 24.26 4.38 25.62C5.7 26.98 7.3 28.05 9.18 28.83C11.06 29.61 13 30 15 30C17 30 18.94 29.61 20.82 28.83C22.7 28.05 24.3 26.98 25.62 25.62C26.94 24.26 28 22.66 28.8 20.82C29.6 18.98 30 17.04 30 15C30 12.96 29.6 11.02 28.8 9.18C28 7.34 26.94 5.74 25.62 4.38C24.3 3.02 22.71 1.96 20.85 1.2C18.99 0.44 17.04 0.04 15 0C12.96 0 11.02 0.4 9.18 1.2C7.34 2 5.74 3.06 4.38 4.38C3.02 5.7 1.96 7.3 1.2 9.18C0.44 11.06 0.04 13 0 15ZM3.75 15C3.75 12.96 4.25 11.08 5.25 9.36C6.25 7.64 7.62 6.28 9.36 5.28C11.1 4.28 12.98 3.77 15 3.75C17.02 3.73 18.9 4.24 20.64 5.28C22.38 6.32 23.75 7.68 24.75 9.36C25.75 11.04 26.25 12.92 26.25 15C26.25 17.08 25.75 18.97 24.75 20.67C23.75 22.37 22.38 23.73 20.64 24.75C18.9 25.77 17.02 26.27 15 26.25C12.98 26.23 11.1 25.73 9.36 24.75C7.62 23.77 6.25 22.41 5.25 20.67C4.25 18.93 3.75 17.04 3.75 15ZM9.15 18.99C9.15 19.51 9.33 19.95 9.69 20.31C10.05 20.67 10.5 20.86 11.04 20.88C11.58 20.9 12.02 20.71 12.36 20.31L15 17.67L17.64 20.31C18 20.69 18.44 20.88 18.96 20.88C19.48 20.88 19.93 20.69 20.31 20.31C20.69 19.93 20.87 19.49 20.85 18.99C20.83 18.49 20.65 18.05 20.31 17.67L17.64 15L20.31 12.36C20.67 12 20.85 11.56 20.85 11.04C20.85 10.52 20.67 10.08 20.31 9.72C19.95 9.36 19.5 9.17 18.96 9.15C18.42 9.13 17.98 9.32 17.64 9.72L15 12.36L12.36 9.72C12 9.34 11.56 9.15 11.04 9.15C10.52 9.15 10.07 9.34 9.69 9.72C9.31 10.1 9.13 10.54 9.15 11.04C9.17 11.54 9.35 11.98 9.69 12.36L12.36 15L9.69 17.67C9.33 18.03 9.15 18.47 9.15 18.99Z" fill="url(#paint0_linear_203_1715)"/>
<defs>
<linearGradient id="paint0_linear_203_1715" x1="3.07336e-07" y1="0.5" x2="30" y2="30.5" gradientUnits="userSpaceOnUse">
<stop stop-color="#DE1F1F" stop-opacity="0.5"/>
<stop offset="0.340222" stop-color="#671FDE" stop-opacity="0.5"/>
<stop offset="0.694231" stop-color="#0072FD" stop-opacity="0.5"/>
<stop offset="1" stop-color="#00A3FF" stop-opacity="0.5"/>
</linearGradient>
</defs>
</svg>
