<svg width="89" height="122" viewBox="0 0 89 122" fill="none" xmlns="http://www.w3.org/2000/svg">
<path fill-rule="evenodd" clip-rule="evenodd" d="M69.4571 38.069C66.9756 38.0838 65.7844 39.3602 65.883 41.8984C62.4952 43.763 59.0911 45.6353 55.6712 47.5148C53.6697 48.1852 51.6274 48.6958 49.5442 49.0466C45.4595 49.2166 41.3748 49.3871 37.2901 49.5571C41.6996 51.5985 46.2948 53.1302 51.076 54.1524C56.8384 58.1008 59.7319 63.6325 59.7559 70.7465C59.0738 72.4508 58.3932 74.1526 57.7136 75.8523C57.1826 78.0376 57.0978 80.25 57.4583 82.4899C57.6508 83.2262 58.0761 83.7368 58.7348 84.0217C58.9482 84.3903 59.2882 84.6456 59.7559 84.7876C58.023 87.5601 56.2359 90.3683 54.3948 93.2122C52.8298 95.0345 51.0428 96.5663 49.0336 97.8075C49.7959 98.1348 50.3065 98.6454 50.5654 99.3393C38.7836 100.979 30.0184 96.554 24.2702 86.064C21.6366 78.3455 21.2965 70.5162 23.249 62.5771C25.4936 58.0896 27.4511 53.4943 29.1208 48.7913C27.9929 46.3716 26.7164 43.9887 25.2914 41.6431C25.0412 40.9829 24.9559 40.3018 25.0361 39.6007C24.9692 39.2234 25.0545 38.8828 25.2914 38.5795C28.1379 40.097 30.7761 39.8417 33.2055 37.8137C32.9757 37.1576 32.6351 36.5617 32.1843 36.0266C30.5157 35.5227 28.8134 35.3526 27.0784 35.516C26.9416 34.6996 27.1121 34.019 27.589 33.4737C30.0802 34.8742 32.4626 34.7042 34.7372 32.9631C35.425 32.6205 36.0208 32.6205 36.5243 32.9631C36.7745 32.3029 36.8597 31.6218 36.7796 30.9208C37.4602 30.9208 38.1413 30.9208 38.8219 30.9208C38.0943 31.6468 37.5837 32.498 37.2901 33.4737C36.9496 33.4737 36.7796 33.6437 36.7796 33.9843C37.4602 34.6649 38.1413 35.346 38.8219 36.0266C38.1444 39.179 39.3356 40.2854 42.396 39.3454C44.108 38.4892 45.6398 37.3832 46.9913 36.0266C47.8445 35.0003 48.185 33.8091 48.0124 32.4525C48.5603 27.6504 50.4321 23.4805 53.6289 19.9432C58.3978 17.6501 62.5672 18.416 66.1383 22.2408C69.9406 27.0531 71.0465 32.3289 69.4571 38.069Z" fill="#FCFBFB"/>
<path fill-rule="evenodd" clip-rule="evenodd" d="M87.8375 69.2146C86.0908 70.2225 84.3885 71.3289 82.7316 72.5334C77.6217 72.6463 72.5158 72.6463 67.4141 72.5334C65.0562 74.0396 62.8433 75.742 60.7764 77.6393C59.9421 77.8915 59.091 77.9763 58.2235 77.8946C58.3603 77.0782 58.1898 76.3975 57.7129 75.8522C58.3925 74.1525 59.0731 72.4507 59.7553 70.7464C61.8512 68.3967 64.3189 66.5243 67.1588 65.1299C67.4993 64.4493 67.4993 63.7682 67.1588 63.0876C64.9622 59.0381 63.3457 54.7834 62.3082 50.3229C62.8351 48.1632 63.9416 46.2908 65.627 44.7065C67.1736 42.6325 68.45 40.4201 69.4564 38.0689C71.0459 32.3289 69.9399 27.053 66.1376 22.2407C62.5665 18.4159 58.3971 17.65 53.6282 19.9431C50.4315 23.4804 48.5596 27.6504 48.0118 32.4524C47.6212 32.6684 47.1959 32.8389 46.7353 32.963C45.5804 32.3437 44.4739 31.6631 43.4165 30.9207C42.1666 30.4239 40.8049 30.2538 39.3318 30.4101C39.1439 26.0114 37.6122 22.182 34.7366 18.9219C30.9368 18.3965 28.1285 19.8435 26.3119 23.2619C24.1363 28.141 23.4552 33.2469 24.2695 38.5795C24.4115 39.0471 24.6668 39.3872 25.0354 39.6006C24.9553 40.3017 25.0405 40.9828 25.2907 41.643C26.7158 43.9886 27.9922 46.3715 29.1201 48.7912C27.4505 53.4942 25.4929 58.0895 23.2484 62.577C21.2959 70.5161 21.6359 78.3454 24.2695 86.064C30.0177 96.5539 38.7829 100.979 50.5647 99.3392C53.2029 99.2325 55.7558 98.7219 58.2235 97.8074C58.5416 102.206 59.4775 106.461 61.0317 110.572C61.2865 112.949 61.3718 115.331 61.287 117.72C60.9317 115.815 60.5916 113.858 60.2658 111.849C58.5773 111.193 56.875 110.512 55.16 109.806C52.0704 109.673 49.0069 109.333 45.9694 108.785C44.8579 108.179 44.3473 107.244 44.4377 105.977C43.0657 105.893 41.704 105.978 40.353 106.232C36.8361 107.689 33.262 109.051 29.6307 110.317C25.6721 111.11 21.7575 111.706 17.8872 112.104C16.3447 110.398 15.4088 108.356 15.079 105.977C14.5214 102.769 14.1814 99.5353 14.0578 96.2757C13.3787 94.4851 12.1023 93.6344 10.2284 93.7227C11.2664 88.9237 13.3941 84.6685 16.6107 80.9581C17.1867 80.0161 17.442 78.9949 17.3766 77.8946C17.1632 77.5259 16.8232 77.2706 16.3555 77.1287C17.1351 75.721 17.4752 74.1893 17.3766 72.5334C17.2914 71.427 17.2066 70.3211 17.1213 69.2146C15.612 70.9802 13.995 72.6825 12.2708 74.3205C10.3122 78.1545 8.7804 82.1544 7.67549 86.3192C7.05768 87.2603 6.37707 87.6861 5.63315 87.5957C1.23445 80.9785 0.979159 74.1709 4.86727 67.1723C9.10973 63.0993 13.1944 58.8446 17.1213 54.4076C18.7818 51.9394 20.3135 49.3865 21.7166 46.7488C20.8226 42.3129 20.2267 37.8023 19.9296 33.2183C19.7274 28.0364 21.3444 23.5264 24.7801 19.6878C29.8426 13.4596 36.2249 9.37495 43.9271 7.4337C43.7157 3.40926 45.588 1.36692 49.5435 1.30667C49.3827 2.18794 49.298 3.03909 49.2882 3.8596C50.4141 2.56271 51.6906 1.45627 53.1176 0.540788C54.5488 0.155295 55.9105 0.32532 57.2023 1.05137C57.7405 1.76007 57.8252 2.52595 57.4576 3.34901C56.5013 4.4769 55.3949 5.4128 54.1388 6.15723C67.219 7.28512 76.3248 13.8375 81.4552 25.8148C81.9515 27.6514 82.2067 29.5237 82.221 31.4312C81.7023 37.3352 80.7664 43.1216 79.4128 48.7912C84.4207 53.3599 87.5689 58.9763 88.8587 65.6405C88.8893 66.9961 88.5487 68.1878 87.8375 69.2146Z" fill="#332F2F"/>
<path fill-rule="evenodd" clip-rule="evenodd" d="M69.4579 38.0689C68.4516 40.4202 67.1751 42.6326 65.6285 44.7066C63.9431 46.2909 62.8367 48.1632 62.3097 50.323C63.3472 54.7835 64.9638 59.0382 67.1603 63.0877C67.5009 63.7683 67.5009 64.4494 67.1603 65.13C64.3204 66.5244 61.8528 68.3967 59.7568 70.7464C59.7328 63.6325 56.8393 58.1008 51.0768 54.1524C46.2957 53.1302 41.7004 51.5984 37.291 49.5571C41.3757 49.3871 45.4604 49.2166 49.5451 49.0465C51.6283 48.6958 53.6706 48.1852 55.6721 47.5148C59.092 45.6353 62.4961 43.763 65.8838 41.8983C65.7853 39.3602 66.9765 38.0837 69.4579 38.0689Z" fill="#F1EFF1"/>
<path fill-rule="evenodd" clip-rule="evenodd" d="M43.4179 30.9207C44.4753 31.6631 45.5818 32.3437 46.7367 32.9631C47.1972 32.839 47.6226 32.6685 48.0132 32.4525C48.1857 33.8091 47.8452 35.0003 46.992 36.0266C45.6405 37.3832 44.1087 38.4892 42.3967 39.3454C39.3363 40.2854 38.1451 39.179 38.8226 36.0266C39.951 36.0338 41.1427 36.2038 42.3967 36.5372C41.7478 37.7263 40.7266 38.3217 39.3332 38.3242C39.7585 38.4095 40.1844 38.4943 40.6097 38.5795C42.3875 37.4879 44.1746 36.3815 45.9708 35.2607C42.9824 34.3657 39.9188 33.9403 36.7803 33.9843C36.7803 33.6437 36.9503 33.4737 37.2909 33.4737C38.2079 32.8135 39.059 32.0476 39.8438 31.176C41.0232 30.9223 42.2144 30.8375 43.4179 30.9207Z" fill="#EC9454"/>
<path fill-rule="evenodd" clip-rule="evenodd" d="M36.7803 33.9844C39.9188 33.9404 42.9824 34.3658 45.9708 35.2608C44.1746 36.3816 42.3875 37.488 40.6097 38.5796C40.1844 38.4944 39.7585 38.4096 39.3332 38.3243C40.7266 38.3218 41.7478 37.7264 42.3967 36.5373C41.1427 36.2039 39.951 36.0338 38.8226 36.0267C38.142 35.3461 37.4609 34.665 36.7803 33.9844Z" fill="#CE5A24"/>
<path fill-rule="evenodd" clip-rule="evenodd" d="M39.3334 30.4102C40.8064 30.254 42.1681 30.424 43.418 30.9208C42.2146 30.8376 41.0234 30.9223 39.8439 31.1761C39.0592 32.0476 38.208 32.8135 37.291 33.4737C37.5846 32.498 38.0952 31.6468 38.8228 30.9208C39.1633 30.9208 39.3334 30.7508 39.3334 30.4102Z" fill="#D6A978"/>
<path fill-rule="evenodd" clip-rule="evenodd" d="M56.1811 25.8149C61.1338 26.1815 62.7503 28.7344 61.0317 33.4737C58.5043 34.9835 56.1214 34.813 53.8835 32.9631C53.6308 31.9557 53.5455 30.9345 53.6282 29.8996C56.7157 30.1513 57.3963 29.0449 55.6706 26.5808C55.9544 26.3852 56.1245 26.1299 56.1811 25.8149Z" fill="#302D2E"/>
<path fill-rule="evenodd" clip-rule="evenodd" d="M34.7373 32.963C32.4626 34.7041 30.0803 34.8741 27.5891 33.4736C27.1454 32.3416 26.9754 31.1504 27.0785 29.8995C29.584 29.8826 30.2646 28.6914 29.1209 26.3254C30.2773 25.7397 31.4685 25.6545 32.695 26.0701C35.1259 27.8699 35.8065 30.1675 34.7373 32.963Z" fill="#2D2D2D"/>
<path fill-rule="evenodd" clip-rule="evenodd" d="M39.3305 30.4102C39.3305 30.7507 39.1604 30.9208 38.8199 30.9208C38.1393 30.9208 37.4581 30.9208 36.7775 30.9208C36.8577 31.6218 36.7724 32.3029 36.5222 32.9631C36.0188 32.6205 35.4229 32.6205 34.7352 32.9631C35.8044 30.1676 35.1237 27.87 32.6928 26.0702C31.4664 25.6546 30.2752 25.7398 29.1187 26.3255C30.2625 28.6915 29.5818 29.8827 27.0764 29.8996C26.9733 31.1505 27.1433 32.3417 27.587 33.4737C27.1101 34.019 26.9396 34.6996 27.0764 35.516C28.8114 35.3526 30.5137 35.5227 32.1823 36.0266C32.6331 36.5617 32.9737 37.1576 33.2034 37.8137C30.7741 39.8417 28.1359 40.097 25.2893 38.5795C25.0524 38.8828 24.9672 39.2234 25.0341 39.6007C24.6654 39.3873 24.4101 39.0472 24.2682 38.5795C23.4538 33.247 24.1349 28.1411 26.3105 23.262C28.1272 19.8436 30.9354 18.3966 34.7352 18.922C37.6108 22.1821 39.1426 26.0115 39.3305 30.4102Z" fill="#F2F0F0"/>
<path fill-rule="evenodd" clip-rule="evenodd" d="M17.3773 77.8947C16.0497 78.6192 14.7733 79.4698 13.5479 80.4476C11.8246 83.2992 10.0376 86.1074 8.18672 88.8723C7.07977 88.9994 6.22862 88.5741 5.63379 87.5958C6.37771 87.6862 7.05832 87.2603 7.67613 86.3193C8.78104 82.1545 10.3128 78.1545 12.2714 74.3206C13.9957 72.6826 15.6127 70.9803 17.122 69.2147C17.2072 70.3211 17.292 71.4271 17.3773 72.5335C17.4758 74.1893 17.1358 75.7211 16.3561 77.1288C16.8238 77.2707 17.1638 77.526 17.3773 77.8947Z" fill="#242223"/>
<path fill-rule="evenodd" clip-rule="evenodd" d="M87.8389 69.2147C87.1057 71.5225 86.2546 73.7349 85.286 75.8523C84.9174 75.6389 84.6621 75.2988 84.5201 74.8311C80.3374 77.8421 75.6569 79.3738 70.479 79.4264C68.8926 79.3503 67.3608 79.6056 65.8837 80.1923C63.534 81.624 61.1516 82.9004 58.7355 84.0217C58.0769 83.7368 57.6515 83.2262 57.4591 82.4899C57.0986 80.25 57.1833 78.0376 57.7143 75.8523C58.1912 76.3976 58.3618 77.0782 58.2249 77.8947C59.0924 77.9763 59.9436 77.8916 60.7779 77.6394C62.8447 75.742 65.0576 74.0397 67.4155 72.5335C72.5173 72.6463 77.6231 72.6463 82.7331 72.5335C84.3899 71.329 86.0922 70.2226 87.8389 69.2147Z" fill="#242122"/>
<path fill-rule="evenodd" clip-rule="evenodd" d="M70.4778 79.4266C70.5942 82.9353 69.7431 86.1694 67.9249 89.1277C66.027 92.2167 63.4741 94.5996 60.2661 96.2759C59.5656 96.7926 58.885 97.3032 58.2238 97.8076C55.7561 98.7221 53.2032 99.2327 50.565 99.3394C50.3061 98.6455 49.7955 98.1349 49.0332 97.8076C51.0424 96.5664 52.8294 95.0347 54.3944 93.2124C56.2355 90.3684 58.0226 87.5602 59.7555 84.7877C59.2878 84.6458 58.9478 84.3905 58.7343 84.0218C61.1504 82.9006 63.5328 81.6241 65.8825 80.1924C67.3597 79.6058 68.8914 79.3505 70.4778 79.4266Z" fill="#F0EEF0"/>
<path fill-rule="evenodd" clip-rule="evenodd" d="M85.2847 75.8523C88.1925 82.4047 89.2137 89.2123 88.3482 96.2758C88.4284 95.5747 88.3431 94.8936 88.093 94.2334C87.9229 95.2546 87.7524 96.2758 87.5824 97.2969C87.4123 96.9564 87.2418 96.6163 87.0718 96.2758C86.0741 98.1925 85.1382 100.064 84.2636 101.892C84.0175 101.425 83.8474 100.914 83.753 100.36C84.5796 98.7562 84.9197 97.0544 84.7741 95.2546C83.4124 95.2546 82.0512 95.2546 80.6895 95.2546C80.6895 92.5316 80.6895 89.8082 80.6895 87.0852C79.3277 87.0852 77.9665 87.0852 76.6048 87.0852C76.9229 85.8087 77.0934 84.5323 77.1154 83.2558C76.4347 82.9153 75.7536 82.9153 75.073 83.2558C75.8251 83.6183 76.1657 84.2137 76.0942 85.0429C75.5836 85.0429 75.073 85.0429 74.5624 85.0429C74.6237 86.424 74.1131 86.7646 73.0307 86.064C72.7223 87.4748 72.0411 88.6665 70.9883 89.6381C71.3289 90.1487 71.6689 90.6593 72.0095 91.1699C71.7542 91.3399 71.4989 91.5105 71.2436 91.6805C70.0386 90.8942 68.9327 90.043 67.9248 89.1276C69.743 86.1692 70.5941 82.9352 70.4777 79.4264C75.6556 79.3738 80.3361 77.8421 84.5189 74.8311C84.6608 75.2988 84.9161 75.6389 85.2847 75.8523Z" fill="#353233"/>
<path fill-rule="evenodd" clip-rule="evenodd" d="M84.2632 101.892C81.7547 106.696 78.2658 110.27 73.7962 112.615C72.9634 113.868 72.8786 115.145 73.5409 116.444C73.0732 116.586 72.7331 116.841 72.5197 117.21C72.1577 117.671 71.6471 117.842 70.9879 117.72C73.8799 111.594 75.1564 105.126 74.8173 98.3182C73.6894 97.1919 72.413 97.0213 70.9879 97.8076C68.2737 92.2703 65.8908 92.4409 63.8397 98.3182C62.6832 97.4875 61.4915 96.8064 60.2656 96.2759C63.4736 94.5996 66.0266 92.2167 67.9244 89.1277C68.9323 90.0432 70.0382 90.8943 71.2432 91.6806C71.4985 91.5106 71.7538 91.34 72.0091 91.17C71.6685 90.6594 71.3285 90.1489 70.9879 89.6383C72.0408 88.6666 72.7219 87.4749 73.0303 86.0642C74.1127 86.7647 74.6233 86.4241 74.562 85.043C75.0726 85.043 75.5832 85.043 76.0938 85.043C76.1653 84.2138 75.8247 83.6185 75.0726 83.2559C75.7532 82.9154 76.4344 82.9154 77.115 83.2559C77.093 84.5324 76.9225 85.8089 76.6044 87.0853C77.9661 87.0853 79.3273 87.0853 80.6891 87.0853C80.6891 89.8083 80.6891 92.5318 80.6891 95.2547C82.0508 95.2547 83.412 95.2547 84.7738 95.2547C84.9193 97.0545 84.5792 98.7563 83.7526 100.361C83.847 100.914 84.0171 101.425 84.2632 101.892Z" fill="#36302D"/>
<path fill-rule="evenodd" clip-rule="evenodd" d="M10.2291 93.7228C12.103 93.6345 13.3794 94.4851 14.0585 96.2758C14.1821 99.5353 14.5221 102.769 15.0797 105.977C15.4095 108.356 16.3454 110.399 17.8879 112.104C18.2969 112.891 18.4669 113.742 18.3985 114.657C18.5879 118.236 16.8861 119.512 13.2926 118.486C8.58757 115.909 5.01347 112.25 2.57031 107.509C3.56442 108.005 4.5856 108.516 5.63383 109.04C7.33051 110.715 9.03229 112.417 10.7397 114.146C12.8842 114.367 14.8417 114.538 16.6114 114.657C15.8067 113.084 15.1256 111.382 14.5691 109.551C14.1249 107.343 13.6996 105.13 13.2926 102.913C12.8877 102.693 12.4619 102.523 12.0162 102.403C10.5176 103.267 8.90056 103.607 7.16559 103.424C6.82503 101.382 6.48498 99.3393 6.14442 97.2969C5.30501 97.4062 4.53913 97.2357 3.84678 96.7864C3.74926 97.9137 3.49396 98.9349 3.0809 99.8499C2.45849 95.7907 4.07501 94.429 7.93147 95.7652C8.62127 94.9901 9.38715 94.3095 10.2291 93.7228Z" fill="#E39DA7"/>
<path fill-rule="evenodd" clip-rule="evenodd" d="M70.9883 117.72C69.9206 118.72 68.8995 119.825 67.9248 121.039C64.4109 122.814 62.1985 121.878 61.2871 118.231C61.2871 118.061 61.2871 117.89 61.2871 117.72C61.3719 115.331 61.2866 112.949 61.0319 110.572C59.4776 106.461 58.5417 102.206 58.2236 97.8074C58.8848 97.303 59.5655 96.7924 60.266 96.2757C61.4919 96.8062 62.6836 97.4873 63.8401 98.318C65.8911 92.4407 68.274 92.2701 70.9883 97.8074C72.4133 97.0211 73.6898 97.1917 74.8177 98.318C75.1567 105.126 73.8802 111.594 70.9883 117.72Z" fill="#E39DA7"/>
<path fill-rule="evenodd" clip-rule="evenodd" d="M2.57089 107.509C0.713382 105.483 -0.137254 103.1 0.0179639 100.36C1.15912 100.511 2.1803 100.341 3.08148 99.8499C3.49454 98.9349 3.74984 97.9137 3.84736 96.7863C4.53971 97.2357 5.30559 97.4062 6.145 97.2969C6.48556 99.3393 6.82561 101.382 7.16617 103.424C8.90114 103.607 10.5182 103.267 12.0167 102.403C12.4625 102.523 12.8883 102.693 13.2932 102.913C13.7001 105.13 14.1255 107.343 14.5697 109.551C15.1262 111.382 15.8073 113.084 16.612 114.657C14.8423 114.538 12.8847 114.367 10.7403 114.146C9.03287 112.417 7.33109 110.715 5.63441 109.04C4.58618 108.516 3.56501 108.005 2.57089 107.509Z" fill="#E39DA7"/>
<path fill-rule="evenodd" clip-rule="evenodd" d="M61.2875 117.72C61.2875 117.89 61.2875 118.061 61.2875 118.231C57.5388 117.719 53.7947 117.208 50.0546 116.699C46.9467 115.908 43.7131 115.568 40.3535 115.678C37.8792 115.678 35.4968 115.848 33.2053 116.189C29.287 116.273 25.3724 116.189 21.4618 115.933C20.4881 115.36 19.4669 114.935 18.3983 114.657C18.4667 113.742 18.2967 112.891 17.8877 112.104C21.7579 111.706 25.6726 111.11 29.6312 110.317C33.2625 109.051 36.8366 107.689 40.3535 106.232C41.7045 105.978 43.0662 105.893 44.4382 105.977C44.3478 107.244 44.8584 108.179 45.9699 108.785C49.0074 109.333 52.0709 109.673 55.1605 109.806C56.8755 110.512 58.5778 111.193 60.2663 111.849C60.5921 113.858 60.9321 115.815 61.2875 117.72Z" fill="#252121"/>
<path fill-rule="evenodd" clip-rule="evenodd" d="M88.3472 96.2757C87.324 103.513 84.0905 109.555 78.6461 114.402C76.7855 115.758 74.7432 116.694 72.519 117.21C72.7325 116.841 73.0725 116.586 73.5402 116.444C72.878 115.144 72.9627 113.868 73.7955 112.614C78.2652 110.27 81.754 106.696 84.2625 101.892C85.1372 100.064 86.0731 98.1925 87.0707 96.2757C87.2408 96.6163 87.4113 96.9564 87.5813 97.2969C87.7514 96.2757 87.9219 95.2546 88.0919 94.2334C88.3421 94.8936 88.4274 95.5747 88.3472 96.2757Z" fill="#23211F"/>
</svg>
