<svg width="108" height="203" viewBox="0 0 108 203" fill="none" xmlns="http://www.w3.org/2000/svg">
<path d="M61.276 182.335L50.2049 200.84C49.5958 201.859 47.8376 201.742 47.7012 200.675L44.8969 181.361L82.8682 6.20256C83.1407 4.9452 84.575 3.99815 86.0718 4.08713L97.029 4.73802C98.5258 4.82698 99.5181 5.91841 99.2459 7.17694L61.276 182.335Z" fill="url(#paint0_linear_416_1311)"/>
<path d="M61.2765 182.335L60.6166 182.112L49.5456 200.617C49.4411 200.785 49.3196 200.855 49.1635 200.901C49.0184 200.941 48.842 200.934 48.7125 200.881C48.5809 200.826 48.4947 200.749 48.4533 200.606L48.4413 200.544L48.4406 200.536L45.6496 181.313L83.6004 6.24583C83.7498 5.55283 84.3844 4.9893 85.1552 4.78277C85.4053 4.71575 85.6684 4.68535 85.9393 4.70174L96.8965 5.35261C97.7215 5.401 98.3346 5.86836 98.5025 6.48889C98.5564 6.69001 98.5629 6.90632 98.5147 7.13356L98.5144 7.13239L60.5448 182.292L61.2765 182.335L62.0082 182.379L99.9781 7.2202C100.062 6.83043 100.051 6.45001 99.9567 6.09923C99.669 5.01955 98.5979 4.20993 97.1625 4.12331L86.2053 3.47242C85.7413 3.44511 85.2781 3.49654 84.8418 3.61344C83.4992 3.97193 82.3985 4.95368 82.137 6.1592L44.1656 181.318L44.1599 181.5L46.9627 200.814L47.7017 200.675L46.962 200.805L46.999 200.996C47.1239 201.474 47.5012 201.829 47.9586 202.006C48.4165 202.185 48.9544 202.209 49.4768 202.07C50.0292 201.927 50.5664 201.57 50.8653 201.063L61.9363 182.558L62.0082 182.379L61.2765 182.335Z" fill="#17282F"/>
<path d="M94.8851 27.2912L99.2465 7.17683C99.5187 5.91829 98.5264 4.82689 97.0296 4.73792L86.0721 4.08585C84.5756 3.99805 83.1414 4.94508 82.8688 6.20245L78.5078 26.3179L94.8851 27.2912Z" fill="#CDCECC"/>
<path d="M94.8854 27.2911L95.6174 27.3356L99.9785 7.22012C100.063 6.83036 100.051 6.44995 99.9571 6.09915C99.6694 5.01948 98.5983 4.20987 97.1629 4.12324L86.2054 3.47121C85.7414 3.44389 85.2797 3.49492 84.8434 3.61182C83.5011 3.97148 82.3989 4.95361 82.1374 6.15914L77.7763 26.2746C77.7419 26.4368 77.7854 26.5993 77.8963 26.7225C78.0084 26.8441 78.182 26.9217 78.3751 26.9326L94.7524 27.9058C95.1564 27.9304 95.5432 27.6751 95.6174 27.3356L94.8854 27.2911L95.0184 26.6765L79.3728 25.7466L83.6008 6.24575C83.7499 5.55159 84.3848 4.98921 85.1567 4.78113C85.4068 4.71411 85.6702 4.6849 85.9397 4.70167L85.9394 4.7005L96.8969 5.35254C97.7219 5.40093 98.3351 5.8683 98.5029 6.48882C98.5568 6.68994 98.5633 6.90625 98.5151 7.13348L98.5148 7.13231L94.1537 27.2478L94.8854 27.2911Z" fill="#17282F"/>
<path d="M80.436 17.4244L78.5078 26.3179L94.8851 27.2912L96.8137 18.3988L80.436 17.4244Z" fill="#F1F1F1"/>
<path d="M80.4363 17.4244L79.7046 17.3811L77.7763 26.2746C77.7419 26.4368 77.7854 26.5993 77.8963 26.7225C78.0084 26.8441 78.182 26.9217 78.3751 26.9326L94.7524 27.9058C95.1564 27.9304 95.5432 27.6751 95.6174 27.3356L97.5457 18.4421C97.5805 18.2811 97.5366 18.1174 97.426 17.9954C97.3136 17.8726 97.1404 17.7962 96.947 17.7841L80.5693 16.8097C80.3762 16.7988 80.1741 16.853 80.0127 16.9602C79.8524 17.0658 79.7394 17.2201 79.7046 17.3811L80.4363 17.4244L80.3033 18.0391L95.9478 18.9705L94.2867 26.6332L79.3728 25.7466L81.1683 17.4689L80.4363 17.4244Z" fill="#17282F"/>
<path d="M44.9038 181.405L47.7012 200.675C47.8376 201.742 49.5958 201.859 50.2049 200.84L61.2524 182.375L44.9038 181.405Z" fill="#F1F1F1"/>
<path d="M44.9043 181.405L44.165 181.542L46.9627 200.814L47.7017 200.675L46.962 200.805L46.999 200.996C47.1239 201.474 47.5012 201.829 47.9586 202.006C48.4165 202.185 48.9544 202.209 49.4768 202.07C50.0292 201.927 50.5664 201.57 50.8653 201.063L61.9128 182.598C62.0214 182.416 62.0242 182.211 61.9207 182.046C61.8171 181.881 61.6188 181.775 61.3859 181.761L45.0373 180.79C44.8044 180.776 44.5667 180.855 44.3947 181.003C44.2226 181.152 44.1373 181.352 44.165 181.542L44.9043 181.405L44.7698 182.02L60.127 182.932L49.5456 200.617C49.4411 200.785 49.3196 200.855 49.1635 200.901C49.0184 200.941 48.842 200.934 48.7125 200.881C48.5809 200.826 48.4947 200.749 48.4533 200.606L48.4413 200.544L48.4406 200.536L45.6418 181.266L44.9043 181.405Z" fill="#17282F"/>
<path d="M46.4689 192.184L47.7012 200.675C47.8376 201.742 49.5958 201.859 50.2049 200.84L55.0774 192.696L46.4689 192.184Z" fill="#17282F"/>
<path d="M46.4694 192.184L45.7305 192.324L46.9627 200.814L47.7017 200.675L46.962 200.805L46.999 200.996C47.1239 201.474 47.5012 201.829 47.9586 202.006C48.4165 202.185 48.9544 202.209 49.4768 202.07C50.0292 201.927 50.5664 201.57 50.8653 201.063L55.7378 192.919C55.8479 192.737 55.8506 192.532 55.7471 192.367C55.6436 192.201 55.4438 192.096 55.2124 192.081L46.6024 191.57C46.3695 191.556 46.1322 191.636 45.9601 191.784C45.788 191.933 45.7028 192.133 45.7305 192.324L46.4694 192.184L46.3364 192.799L53.9534 193.252L49.5456 200.617C49.4411 200.785 49.3196 200.855 49.1635 200.901C49.0184 200.941 48.842 200.934 48.7125 200.881C48.5809 200.826 48.4947 200.749 48.4533 200.606L48.4413 200.544L48.4406 200.536L47.2084 192.045L46.4694 192.184Z" fill="#17282F"/>
<defs>
<linearGradient id="paint0_linear_416_1311" x1="48.0039" y1="201.839" x2="152.078" y2="168.034" gradientUnits="userSpaceOnUse">
<stop stop-color="#DE1F1F" stop-opacity="0.3"/>
<stop offset="0.320089" stop-color="#671FDE" stop-opacity="0.3"/>
<stop offset="0.615065" stop-color="#0072FD" stop-opacity="0.3"/>
<stop offset="1" stop-color="#00A3FF" stop-opacity="0.3"/>
</linearGradient>
</defs>
</svg>
