<svg width="244" height="498" viewBox="0 0 244 498" fill="none" xmlns="http://www.w3.org/2000/svg">
<path d="M184.906 497C184.906 497 170.683 395.936 171.944 388.609C173.208 381.282 185.782 338.475 191.051 329.025C196.318 319.573 205.108 298.748 208.351 282.083C211.592 265.417 210.527 260.819 211.245 258.808C211.963 256.799 212.623 222.34 209.601 211.848C206.579 201.357 198.995 182.411 198.995 182.411C198.995 182.411 198.023 163.902 179.404 138.709C160.786 113.516 160.753 112.855 149.718 106.608C138.686 100.361 127.753 96.0957 116.996 95.1365C106.24 94.179 96.4803 96.4971 100.395 108.283C104.307 120.07 120.516 130.776 120.516 130.776C120.516 130.776 131.25 146.967 135.672 152.775C140.095 158.586 143.765 165.744 143.765 165.744L144.703 183.592L137.862 194.419C137.862 194.419 127.545 186.161 122.913 176.386C118.28 166.609 100.611 175.157 94.8345 190.582C89.0576 206.011 4.99347 251.909 8.67609 274.96C12.3565 298.011 14.4883 354.225 28.207 380.248C41.9279 406.269 45.4582 410.784 45.4582 410.784L43.3378 497" fill="white"/>
<path d="M186.206 496.239C186.206 496.236 184.803 485.624 184.48 483.37C183.354 475.477 180.539 455.557 178.005 436.088C176.739 426.355 175.542 416.734 174.663 408.79C173.784 400.852 173.222 394.566 173.225 391.592C173.225 390.935 173.256 390.436 173.302 390.175C173.605 388.409 174.625 384.352 176.061 379.175C178.217 371.401 181.308 361.051 184.352 351.77C185.874 347.13 187.385 342.755 188.759 339.107C190.129 335.461 191.373 332.529 192.32 330.832C197.636 321.287 206.43 300.458 209.704 283.665C211.33 275.307 211.878 269.955 212.11 266.442C212.326 262.946 212.282 261.225 212.569 260.5C212.647 260.273 212.678 260.063 212.72 259.752C212.993 257.656 213.217 251.524 213.219 244.181C213.219 238.612 213.086 232.376 212.739 226.77C212.388 221.159 211.831 216.203 210.939 213.092C207.895 202.531 200.313 183.597 200.309 183.585L199.257 183.856L200.362 183.819C200.355 183.709 199.348 165.047 180.616 139.701C171.307 127.106 166.65 120.643 162.873 116.474C159.093 112.298 156.13 110.442 150.616 107.327C139.498 101.033 128.417 96.6884 117.38 95.6989C115.944 95.571 114.521 95.5 113.134 95.5C109.33 95.5035 105.782 96.0275 103.071 97.5072C100.348 98.9815 98.6444 101.49 98.6709 104.93C98.6709 106.415 98.9669 108.081 99.5876 109.957C101.631 116.078 106.758 121.775 111.356 125.983C115.955 130.186 120.046 132.887 120.077 132.909L120.778 132.221L119.803 132.641C119.81 132.649 130.531 148.821 134.993 154.684C137.172 157.544 139.182 160.765 140.64 163.262C141.369 164.511 141.963 165.58 142.372 166.335C142.783 167.09 143.006 167.527 143.006 167.527L144.027 167.189L142.924 167.227L143.85 184.842L137.138 195.463L138.124 195.864L138.901 195.235C138.901 195.235 138.753 195.116 138.468 194.877C136.476 193.21 128.147 185.855 124.206 177.515C123.468 175.955 122.386 174.755 121.018 173.955C119.655 173.154 118.036 172.778 116.351 172.781C112.288 172.799 107.823 174.817 103.776 178.144C99.7379 181.482 96.1326 186.185 94.0383 191.772C93.422 193.445 91.6171 195.743 88.9109 198.397C79.4316 207.735 59.176 221.606 41.3129 235.676C32.377 242.717 24.0265 249.817 17.8785 256.487C11.7437 263.164 7.74077 269.394 7.71647 274.893C7.71647 275.444 7.75619 275.986 7.84235 276.519C9.67593 287.985 11.1318 307.819 13.8424 328.029C16.5596 348.252 20.5051 368.842 27.4528 382.04C41.187 408.082 44.715 412.606 44.7857 412.702L45.7202 412.229L44.6156 412.212L42.486 497.043C42.4727 497.534 42.9566 497.939 43.5663 497.95C44.1782 497.959 44.6819 497.569 44.6929 497.08L46.8247 412.247C46.8292 412.075 46.7717 411.904 46.6569 411.757L46.6259 411.718C46.2437 411.204 42.338 405.723 29.4874 381.346C22.7142 368.522 18.7356 347.993 16.0383 327.839C13.3321 307.675 11.8829 287.876 10.0338 276.293C9.96094 275.838 9.9256 275.371 9.9256 274.893C9.89025 269.431 14.7658 262.333 22.3696 254.713C33.7489 243.265 51.0618 230.571 66.0663 219.338C73.5707 213.718 80.4985 208.46 85.8402 203.875C91.1819 199.273 94.9529 195.42 96.1546 192.283C98.1407 186.976 101.583 182.499 105.36 179.382C109.129 176.254 113.251 174.538 116.351 174.558C117.643 174.559 118.754 174.829 119.719 175.391C120.68 175.955 121.52 176.837 122.143 178.147C126.904 188.162 137.298 196.447 137.344 196.495C137.594 196.695 137.947 196.788 138.298 196.742C138.647 196.697 138.948 196.521 139.107 196.267L145.951 185.439L146.07 185L145.131 167.152L145.049 166.85C145.036 166.829 141.362 159.653 136.878 153.757C134.691 150.887 130.9 145.385 127.668 140.618C126.051 138.232 124.571 136.03 123.497 134.422C122.421 132.815 121.754 131.807 121.752 131.804L121.478 131.536L121.308 131.42C120.44 130.832 116.412 128.029 112.169 124.024C107.923 120.023 103.478 114.81 101.724 109.499C101.138 107.742 100.878 106.225 100.88 104.93C100.904 101.921 102.201 100.157 104.317 98.9744C106.449 97.7949 109.58 97.2728 113.134 97.2763C114.426 97.2763 115.772 97.3438 117.137 97.4646C127.615 98.3954 138.398 102.577 149.344 108.78C154.862 111.909 157.436 113.508 161.088 117.522C164.739 121.544 169.409 128.01 178.717 140.609C187.971 153.128 192.829 163.974 195.376 171.68C196.65 175.533 197.346 178.6 197.722 180.696C197.91 181.746 198.018 182.551 198.08 183.093C198.111 183.363 198.128 183.567 198.139 183.7L198.155 183.894L198.206 184.128C198.208 184.132 198.678 185.309 199.436 187.246C201.707 193.056 206.538 205.682 208.787 213.494C209.62 216.371 210.19 221.302 210.532 226.859C210.877 232.422 211.01 238.636 211.01 244.181C211.01 248.354 210.935 252.148 210.822 255.002C210.767 256.427 210.7 257.619 210.63 258.498C210.594 258.937 210.559 259.297 210.524 259.566L210.473 259.887L210.453 259.981L210.446 260.008C210.013 261.294 210.144 262.877 209.903 266.349C209.675 269.804 209.136 275.083 207.521 283.391C204.309 299.928 195.526 320.752 190.303 330.106C188.936 332.564 187.169 337.015 185.22 342.492C182.304 350.698 179.019 361.16 176.342 370.268C173.664 379.386 171.603 387.098 171.113 389.932C171.042 390.353 171.016 390.89 171.016 391.592C171.018 395.154 171.756 402.845 172.86 412.456C176.172 441.267 184.01 496.442 184.013 496.445C184.083 496.932 184.631 497.28 185.236 497.225C185.842 497.168 186.277 496.728 186.206 496.239Z" fill="#17282F"/>
<path d="M11.5455 284.845C11.5455 284.845 18.8356 306.869 33.1994 313.976C47.5632 321.083 64.6861 317.086 64.6861 317.086L80.7045 325.082L143.128 258.01C143.128 258.01 156.387 225.584 155.283 214.036C154.178 202.487 153.071 195.38 150.862 194.048C148.653 192.715 132.632 187.387 132.632 187.387L126.557 181.612L118.958 170.203C118.958 170.203 111.089 191.827 90.0978 208.706C69.1044 225.584 27.6743 250.459 19.3879 264.227C11.1036 277.997 8.78404 275.073 11.5455 284.845Z" fill="#17282F"/>
<path d="M11.5451 284.845L10.4781 285.072C10.4869 285.102 12.3227 290.646 15.981 297.114C19.6526 303.576 25.0893 310.985 32.6202 314.733C39.6165 318.193 47.1983 319.093 53.2403 319.095C60.0422 319.093 64.9288 317.953 64.9951 317.939L64.6858 317.086L64.1048 317.841L80.1232 325.836C80.6092 326.079 81.2454 325.982 81.59 325.614L144.014 258.543L144.177 258.287C144.181 258.278 147.241 250.797 150.305 241.725C153.365 232.639 156.442 222.024 156.453 215.52C156.453 214.974 156.431 214.457 156.385 213.969C155.83 208.185 155.278 203.506 154.578 200.068C154.224 198.346 153.84 196.936 153.376 195.827C152.901 194.723 152.406 193.891 151.525 193.337C151.142 193.11 150.632 192.879 149.956 192.593C147.619 191.611 143.419 190.115 139.772 188.85C136.129 187.587 133.058 186.566 133.056 186.566L132.632 187.387L133.476 186.813L127.476 181.109L119.932 169.783C119.717 169.464 119.291 169.281 118.843 169.318C118.396 169.355 118.023 169.606 117.897 169.952L117.809 170.185C116.903 172.553 108.782 192.438 89.3176 208.079C78.8816 216.47 63.2786 226.909 49.2439 236.97C42.2233 242.002 35.5937 246.942 30.1813 251.504C24.7667 256.072 20.5672 260.239 18.3934 263.84C15.3713 268.863 13.1732 271.615 11.6798 273.647C10.9332 274.663 10.35 275.51 9.94349 276.39C9.53701 277.265 9.32935 278.168 9.33156 279.194C9.33377 280.683 9.73139 282.427 10.467 285.042L10.4781 285.072L11.5451 284.845L12.6209 284.648C11.8919 282.07 11.5385 280.415 11.5407 279.194C11.5429 278.349 11.6931 277.708 12.0156 277.006C12.9567 274.897 15.7889 272.237 20.3816 264.615C22.35 261.332 26.4368 257.227 31.7785 252.731C47.8168 239.208 75.0532 222.054 90.8795 209.334C112.096 192.261 119.983 170.522 120.018 170.451L118.958 170.203L117.983 170.622L125.585 182.031L125.715 182.184L131.79 187.959L132.21 188.207C132.212 188.207 133.209 188.538 134.742 189.058C137.041 189.838 140.545 191.039 143.671 192.165C145.235 192.73 146.704 193.275 147.873 193.737C149.033 194.19 149.936 194.595 150.199 194.758C150.422 194.872 150.895 195.43 151.282 196.392C151.887 197.833 152.419 200.117 152.885 203.1C153.354 206.086 153.769 209.78 154.182 214.106C154.224 214.541 154.244 215.013 154.244 215.52C154.255 221.621 151.222 232.25 148.173 241.26C146.649 245.772 145.125 249.893 143.983 252.884C143.41 254.379 142.933 255.593 142.602 256.431C142.268 257.271 142.081 257.731 142.078 257.733L143.128 258.01L142.244 257.479L80.428 323.898L65.269 316.331C65.0039 316.2 64.6791 316.164 64.3787 316.234L64.1865 316.276C63.241 316.477 58.9222 317.319 53.2403 317.319C47.4634 317.319 40.3014 316.449 33.7778 313.219C26.945 309.86 21.5547 302.704 17.9913 296.376C16.202 293.216 14.8544 290.268 13.9553 288.115C13.5068 287.037 13.1688 286.159 12.9457 285.552C12.7203 284.944 12.6121 284.617 12.6121 284.616L11.5451 284.845Z" fill="#17282F"/>
<path d="M123.509 130.517C123.606 130.554 127.448 132.055 133.289 132.057C138.202 132.06 144.535 130.973 151.077 127.067C151.567 126.774 151.669 126.218 151.306 125.824C150.942 125.429 150.25 125.348 149.76 125.641C143.605 129.307 137.806 130.277 133.289 130.281C130.607 130.281 128.382 129.934 126.836 129.588C126.065 129.415 125.462 129.243 125.06 129.117C124.859 129.055 124.706 129.003 124.609 128.968L124.501 128.929L124.479 128.92C123.929 128.705 123.268 128.888 123.001 129.328C122.733 129.769 122.961 130.302 123.509 130.517Z" fill="#17282F"/>
<path d="M123.247 244.359L100.529 266.382C99.2783 267.595 96.8306 266.762 97.0427 265.197L100.403 236.759L220.741 2.922C221.605 1.24341 223.997 0.445831 226.085 1.14035L241.368 6.22412C243.455 6.91864 244.447 8.84238 243.583 10.5228L123.247 244.359Z" fill="url(#paint0_linear_79_578)"/>
<path d="M123.248 244.359L122.397 243.793L99.6786 265.815C99.4666 266.014 99.2678 266.068 99.0292 266.073C98.8083 266.075 98.5608 265.998 98.3973 265.874C98.2317 265.746 98.1389 265.604 98.1345 265.385L98.1411 265.293L98.1433 265.281L101.488 236.975L221.762 3.26126C222.237 2.33582 223.35 1.77808 224.521 1.77808C224.901 1.77808 225.286 1.83493 225.663 1.96103L240.946 7.04477C242.097 7.42667 242.788 8.32193 242.791 9.26514C242.791 9.57065 242.718 9.87973 242.563 10.1835V10.1817L122.227 244.02L123.248 244.359L124.269 244.699L244.604 10.862C244.872 10.3416 245 9.79803 245 9.26514C245.002 7.62561 243.791 6.07135 241.79 5.40347L226.507 0.319702C225.86 0.104767 225.184 0.00177002 224.521 0.00177002C222.482 0 220.549 0.973419 219.721 2.58273L99.3826 236.419L99.3053 236.675L95.943 265.114L97.0432 265.197L95.9452 265.101L95.9253 265.385C95.9209 266.11 96.3207 266.757 96.9017 267.181C97.4828 267.609 98.2361 267.847 99.0292 267.849C99.8664 267.856 100.763 267.554 101.38 266.949L124.098 244.926L124.269 244.699L123.248 244.359Z" fill="#17282F"/>
<path d="M229.764 37.375L243.584 10.5228C244.448 8.8424 243.456 6.91868 241.368 6.22415L226.086 1.1386C223.998 0.445839 221.606 1.2434 220.742 2.922L206.921 29.776L229.764 37.375Z" fill="#CDCECC"/>
<path d="M229.764 37.375L230.784 37.716L244.605 10.862C244.872 10.3416 245 9.79801 245 9.26513C245.002 7.6256 243.792 6.07135 241.79 5.40346L226.508 0.317955C225.86 0.103024 225.186 -1.14441e-05 224.524 -1.14441e-05C222.485 -1.14441e-05 220.549 0.973408 219.721 2.58273L205.901 29.4367C205.79 29.6534 205.79 29.9003 205.901 30.117C206.013 30.332 206.23 30.5078 206.499 30.5967L229.342 38.1956C229.905 38.3839 230.55 38.169 230.784 37.716L229.764 37.375L230.186 36.5544L208.364 29.2946L221.762 3.26124C222.237 2.33401 223.351 1.77806 224.524 1.77628C224.904 1.77628 225.288 1.83491 225.664 1.96103V1.95925L240.946 7.04476C242.097 7.42666 242.789 8.32191 242.791 9.26513C242.791 9.57065 242.718 9.87971 242.564 10.1835V10.1817L228.743 37.0357L229.764 37.375Z" fill="#17282F"/>
<path d="M213.032 17.9033L206.921 29.776L229.764 37.375L235.874 25.504L213.032 17.9033Z" fill="white"/>
<path d="M213.032 17.9033L212.011 17.564L205.901 29.4367C205.79 29.6534 205.79 29.9003 205.901 30.117C206.013 30.332 206.23 30.5078 206.499 30.5967L229.342 38.1956C229.905 38.3839 230.55 38.169 230.784 37.716L236.895 25.8433C237.005 25.6284 237.005 25.3797 236.895 25.1647C236.782 24.948 236.566 24.774 236.296 24.6834L213.454 17.0826C213.184 16.9938 212.877 16.9938 212.608 17.0844C212.34 17.1732 212.122 17.349 212.011 17.564L213.032 17.9033L212.61 18.7239L234.429 25.9854L229.165 36.2151L208.364 29.2946L214.052 18.2443L213.032 17.9033Z" fill="#17282F"/>
<path d="M100.396 236.823L97.0427 265.197C96.8306 266.762 99.2783 267.595 100.529 266.382L123.199 244.407L100.396 236.823Z" fill="white"/>
<path d="M100.397 236.823L99.2965 236.737L95.943 265.114L97.0432 265.197L95.9452 265.101L95.9253 265.385C95.9209 266.11 96.3207 266.757 96.9017 267.181C97.4828 267.609 98.2361 267.847 99.0292 267.849C99.8664 267.856 100.763 267.554 101.38 266.949L124.05 244.974C124.273 244.757 124.355 244.468 124.271 244.194C124.187 243.921 123.946 243.695 123.621 243.587L100.819 236.002C100.494 235.894 100.127 235.915 99.8266 236.061C99.5262 236.206 99.3296 236.457 99.2965 236.737L100.397 236.823L99.9724 237.643L121.392 244.768L99.6786 265.815C99.4666 266.014 99.2678 266.068 99.0292 266.073C98.8083 266.075 98.5608 265.998 98.3973 265.874C98.2317 265.746 98.1389 265.604 98.1345 265.385L98.1411 265.293L98.1433 265.281L101.495 236.906L100.397 236.823Z" fill="#17282F"/>
<path d="M98.5206 252.696L97.0427 265.197C96.8306 266.762 99.2783 267.595 100.529 266.382L110.527 256.69L98.5206 252.696Z" fill="#17282F"/>
<path d="M98.5211 252.696L97.4209 252.612L95.943 265.114L97.0432 265.197L95.9452 265.101L95.9253 265.385C95.9209 266.11 96.3207 266.757 96.9017 267.181C97.4828 267.609 98.2361 267.847 99.0292 267.849C99.8664 267.856 100.763 267.554 101.38 266.949L111.378 257.257C111.604 257.04 111.685 256.751 111.601 256.477C111.517 256.204 111.274 255.978 110.952 255.87L98.943 251.875C98.6182 251.767 98.2515 251.79 97.9511 251.935C97.6506 252.081 97.4541 252.331 97.4209 252.612L98.5211 252.696L98.0991 253.516L108.723 257.051L99.6786 265.815C99.4666 266.014 99.2678 266.068 99.0292 266.073C98.8083 266.075 98.5608 265.998 98.3973 265.874C98.2317 265.746 98.1389 265.604 98.1345 265.385L98.1411 265.293L98.1433 265.281L99.6212 252.779L98.5211 252.696Z" fill="#17282F"/>
<path d="M67.9602 299.862C67.9602 299.862 68.0905 302.325 66.1995 305.269C64.3085 308.212 58.3946 312.527 50.2252 312.804C42.0536 313.081 28.9425 306.945 19.8077 298.618C10.6729 290.289 7.98442 278.042 3.95496 269.54C-0.0722885 261.037 -0.503065 252.825 7.1074 241.871C14.7156 230.918 31.2952 234.881 31.2952 234.881C31.2952 234.881 43.1693 266.151 48.1973 274.207C53.223 282.264 67.9602 299.862 67.9602 299.862Z" fill="white"/>
<path d="M67.9595 299.862L66.855 299.899V299.906L66.8572 299.965C66.8572 300.368 66.771 302.446 65.218 304.86C64.3874 306.162 62.5405 307.901 59.9492 309.299C57.3557 310.702 54.0287 311.786 50.176 311.915L49.6834 311.924C45.9146 311.933 40.796 310.491 35.5825 308.006C30.3623 305.526 25.0206 302.029 20.6355 298.03C11.7636 289.971 9.05078 277.857 4.98819 269.224C3.24739 265.549 2.21134 261.977 2.20914 258.222C2.21355 253.447 3.87925 248.342 8.06997 242.304C10.1686 239.292 12.9212 237.515 15.8262 236.453C18.729 235.393 21.7975 235.069 24.4197 235.071C26.3151 235.071 27.972 235.238 29.1473 235.407C29.7327 235.49 30.1988 235.574 30.5147 235.634L30.8726 235.707L30.9787 235.732L31.2946 234.881L30.2386 235.141C30.2386 235.144 33.2099 242.965 36.8108 251.8C38.6112 256.218 40.5685 260.888 42.3955 264.965C44.2246 269.046 45.908 272.517 47.2092 274.606C49.7673 278.702 54.7114 285.115 59.0324 290.534C63.3535 295.95 67.0406 300.354 67.0428 300.357L67.9595 299.862L68.8764 299.366C68.8741 299.362 67.9574 298.268 66.4993 296.496C62.1297 291.184 52.891 279.757 49.1841 273.809C47.9713 271.869 46.2857 268.411 44.4742 264.362C41.7526 258.286 38.7195 250.845 36.3689 244.93C35.1937 241.972 34.1885 239.393 33.4772 237.556C32.7658 235.718 32.3505 234.624 32.3505 234.622C32.2423 234.338 31.9617 234.114 31.6082 234.03C31.542 234.014 28.5331 233.297 24.4197 233.295C21.5788 233.295 18.1988 233.64 14.9139 234.835C11.6311 236.027 8.45873 238.096 6.14135 241.437V241.439C1.81145 247.665 -0.00220712 253.104 2.01552e-06 258.222C2.01552e-06 262.243 1.11782 266.044 2.92268 269.855C6.91458 278.225 9.58099 290.609 18.9786 299.204C23.5295 303.354 29.0258 306.953 34.4581 309.535C39.8991 312.111 45.2519 313.692 49.6834 313.701L50.271 313.69C54.5876 313.544 58.3034 312.331 61.1819 310.772C64.0626 309.208 66.1193 307.317 67.1797 305.675C68.9514 302.913 69.0641 300.556 69.0663 299.965L69.0619 299.824C69.0553 299.659 68.989 299.501 68.8764 299.366L67.9595 299.862Z" fill="#17282F"/>
<path d="M43.3422 309.707C43.3422 309.706 43.1257 309.439 42.7965 309.004C42.3017 308.354 41.555 307.338 40.9475 306.368C40.6448 305.883 40.3753 305.409 40.192 305.011C40.0064 304.62 39.9225 304.284 39.9313 304.201V304.187L39.4055 304.141L39.7634 304.428L39.9313 304.187L39.4055 304.141L39.7634 304.428L39.3481 304.094V304.583L39.7634 304.428L39.3481 304.094V304.583V304.56L39.3436 304.585L39.3481 304.583V304.56L39.3436 304.585C39.8319 304.645 40.404 304.67 41.0712 304.672C42.8849 304.67 45.3613 304.471 47.8157 304.032C50.2678 303.586 52.678 302.929 54.3856 301.869C55.3245 301.281 56.0005 300.86 56.4755 300.616C56.9593 300.368 57.1758 300.336 57.2597 300.339C57.3348 300.339 57.4674 300.354 57.7899 300.503C58.1036 300.647 58.5565 300.909 59.1595 301.267C60.3989 301.995 61.9806 303.16 63.2288 304.132C63.854 304.617 64.3997 305.055 64.7863 305.373C65.1729 305.689 65.4003 305.88 65.4003 305.881C65.8223 306.237 66.5204 306.249 66.9622 305.912C67.404 305.572 67.4218 305.011 66.9998 304.656C66.9755 304.638 63.2465 301.478 60.4652 299.833C59.8599 299.478 59.3783 299.19 58.8923 298.963C58.4129 298.741 57.8739 298.563 57.2597 298.563C56.5285 298.565 55.9078 298.803 55.2892 299.119C54.6618 299.441 53.9681 299.879 53.027 300.469C51.8054 301.247 49.6095 301.897 47.3341 302.299C45.0587 302.707 42.6839 302.895 41.0712 302.895C40.4836 302.895 39.9953 302.869 39.6861 302.83L39.3481 302.808C38.9416 302.794 38.3849 302.95 38.0778 303.284C37.7729 303.608 37.7244 303.935 37.7222 304.201C37.7376 304.846 38.0182 305.441 38.3716 306.13C39.4453 308.144 41.4732 310.649 41.4865 310.672C41.8179 311.084 42.5027 311.201 43.013 310.935C43.5255 310.668 43.6736 310.12 43.3422 309.707Z" fill="#17282F"/>
<path d="M32.4217 285.879L25.5115 291.461C25.1426 291.76 25.0829 292.225 25.3723 292.577C25.6595 292.929 26.2162 293.069 26.7022 292.913C26.7089 292.911 29.4416 292.037 32.6536 290.92C35.8768 289.797 39.5417 288.456 41.5587 287.44C42.0756 287.179 42.2302 286.63 41.9055 286.216C41.5808 285.8 40.9003 285.676 40.3834 285.937C38.6227 286.831 34.9489 288.189 31.7766 289.289C30.1882 289.841 28.7125 290.335 27.6367 290.692C26.5609 291.048 25.8871 291.262 25.8849 291.262L26.2936 292.088L27.0756 292.715L33.988 287.133C34.4187 286.784 34.4165 286.223 33.9835 285.877C33.5528 285.53 32.8525 285.532 32.4217 285.88" fill="#17282F"/>
<path d="M64.1426 197.977C64.1426 197.977 50.499 191.449 38.2936 202.56C26.0881 213.667 27.6478 223.898 34.2575 242.596C40.8672 261.293 48.3694 277.491 53.2229 282.264C58.0786 287.033 67.558 301.933 78.2833 301.569C78.2833 301.569 96.449 296.838 99.5926 288.502C102.736 280.17 96.9461 277.077 96.9461 277.077L89.192 265.822L86.1655 256.875C86.1655 256.875 75.9372 237.478 72.8467 227.298C69.7517 217.122 64.1426 197.977 64.1426 197.977Z" fill="white"/>
<path d="M64.1425 197.977L64.708 197.215C64.6108 197.172 60.4754 195.19 54.5726 195.183C49.5534 195.172 43.2574 196.68 37.465 201.972C30.8089 208.006 28.0674 213.976 28.085 221.003C28.0873 227.151 30.1064 234.092 33.1948 242.837C36.5085 252.207 40.0431 260.95 43.3656 267.968C45.0291 271.476 46.6374 274.553 48.1462 277.066C49.6594 279.583 51.0556 281.53 52.3678 282.825C53.5055 283.942 54.9879 285.733 56.7022 287.767C59.278 290.822 62.3929 294.437 65.9231 297.329C67.6904 298.776 69.5637 300.045 71.5564 300.966C73.5468 301.887 75.672 302.462 77.8943 302.462L78.3273 302.455L78.6234 302.412C78.6653 302.402 83.2604 301.206 88.2994 298.936C93.3207 296.654 98.8855 293.341 100.651 288.76C101.349 286.907 101.634 285.278 101.631 283.861C101.636 281.25 100.659 279.363 99.6587 278.152C98.6558 276.937 97.6462 276.384 97.5578 276.336L96.9459 277.077L97.9113 276.645L90.2235 265.485L87.2324 256.641L87.1816 256.527C87.1816 256.525 86.5453 255.321 85.5424 253.347C82.5269 247.438 76.1977 234.606 73.9201 227.089C72.3737 222.003 70.1977 214.674 68.4083 208.617C67.5159 205.588 66.7162 202.878 66.144 200.924C65.5696 198.97 65.2184 197.778 65.2184 197.774C65.1499 197.54 64.9665 197.337 64.708 197.215L64.1425 197.977L63.0689 198.181C63.0689 198.183 68.6779 217.324 71.7729 227.51C74.9142 237.832 85.1403 257.197 85.1492 257.222L86.1653 256.875L85.1006 257.108L88.1271 266.055L88.2265 266.252L95.9805 277.507L96.334 277.816L96.577 277.521L96.3273 277.812L96.334 277.816L96.577 277.521L96.3273 277.812C96.345 277.821 97.1249 278.26 97.8892 279.225C98.6536 280.191 99.4201 281.672 99.4223 283.861C99.4223 285.088 99.1793 286.539 98.5365 288.245C97.158 292 92.0659 295.22 87.2191 297.387C84.8045 298.474 82.4739 299.313 80.753 299.876C79.8936 300.158 79.1845 300.371 78.6941 300.513C78.4511 300.584 78.2589 300.638 78.1307 300.672L77.9429 300.723L78.2832 301.569L78.2368 300.68L77.8943 300.686C75.5814 300.689 73.2331 299.881 70.9135 298.504C67.4363 296.449 64.116 293.154 61.2508 289.929C58.3723 286.696 55.9599 283.555 54.0777 281.701C52.9643 280.61 51.6013 278.743 50.1366 276.295C45.7206 268.942 40.264 256.342 35.32 242.352C32.2404 233.65 30.2898 226.831 30.2942 221.003C30.3119 214.344 32.7551 208.961 39.1197 203.148C44.5497 198.222 50.0836 196.971 54.5726 196.959C57.2103 196.959 59.4835 197.41 61.0895 197.863C61.8914 198.089 62.5254 198.314 62.954 198.48C63.1683 198.563 63.3295 198.631 63.4356 198.677L63.5505 198.728L63.5792 198.741L64.1425 197.977Z" fill="#17282F"/>
<path d="M74.9961 268.697C74.9961 268.697 74.4637 268.935 73.6066 269.302C72.3209 269.853 70.3127 270.695 68.3333 271.444C66.3672 272.194 64.3746 272.853 63.3452 273.02C62.7487 273.121 62.3643 273.592 62.4902 274.073C62.6161 274.553 63.2015 274.86 63.798 274.759C64.77 274.592 65.9564 274.231 67.2664 273.78C71.1743 272.432 76.0499 270.258 76.0675 270.251C76.6021 270.013 76.7944 269.473 76.4983 269.043C76.2023 268.615 75.5307 268.459 74.9961 268.697Z" fill="#17282F"/>
<path d="M67.9738 266.629C67.9451 266.634 65.7139 267.05 63.1822 267.824C61.9141 268.213 60.571 268.691 59.3736 269.27C58.1785 269.853 57.1071 270.524 56.4289 271.411C56.1107 271.83 56.2764 272.377 56.7978 272.631C57.3191 272.887 57.9996 272.753 58.3155 272.334C58.6733 271.849 59.4775 271.286 60.5113 270.792C62.0577 270.043 64.0724 269.419 65.6785 269C66.4826 268.791 67.1873 268.629 67.6866 268.521C67.9362 268.467 68.1372 268.426 68.272 268.398L68.473 268.359C69.0673 268.249 69.4362 267.771 69.2993 267.293C69.1623 266.815 68.568 266.519 67.9738 266.629Z" fill="#17282F"/>
<path d="M88.2313 287.179C88.1916 287.182 84.5797 287.406 80.8529 288.222C78.9861 288.634 77.0885 289.186 75.5509 289.989C74.7844 290.392 74.0995 290.863 73.5781 291.437C73.0568 292.007 72.7056 292.696 72.6614 293.453L72.6525 293.787C72.6238 295.433 73.5163 296.647 74.7137 297.256C75.8956 297.874 77.1989 297.982 78.1776 297.988C79.0966 297.986 79.7549 297.876 79.8035 297.869C80.4022 297.767 80.7843 297.297 80.6584 296.817C80.5325 296.336 79.9471 296.028 79.3506 296.13L79.3418 296.131C79.2667 296.144 78.7851 296.211 78.1776 296.211C77.4331 296.215 76.5252 296.098 75.9287 295.773C75.3455 295.44 74.8882 294.996 74.8617 293.787L74.8683 293.538C74.8948 293.16 75.0494 292.831 75.3609 292.485C75.9 291.881 76.9736 291.286 78.3146 290.808C80.3205 290.085 82.8698 289.607 84.8934 289.325C85.9074 289.184 86.791 289.09 87.4162 289.03C88.0436 288.971 88.4014 288.95 88.4037 288.95C89.0112 288.911 89.4663 288.484 89.4177 287.994C89.3713 287.506 88.8388 287.14 88.2313 287.179Z" fill="#17282F"/>
<path d="M118.973 189.946C118.973 189.946 122.583 180.774 118.958 170.203C115.332 159.63 107.903 154.534 99.2212 154.829C90.5415 155.124 76.7101 154.77 70.7587 168.137C64.8117 181.502 64.5687 196.318 64.149 207.85C63.7337 219.381 66.8684 230.382 70.1468 234.384C73.4296 238.384 92.638 263.236 94.8316 266.041C97.0253 268.846 104.729 269.407 113.26 266.238C121.79 263.069 127.041 255.898 126.76 250.561C126.48 245.221 115.907 219.255 115.907 219.255C115.907 219.255 117.31 216.74 118.452 209.295C119.596 201.853 118.973 189.946 118.973 189.946Z" fill="white"/>
<path d="M118.974 189.946L120.025 190.214C120.048 190.156 121.676 186.012 121.678 180.043C121.678 177.047 121.265 173.59 120.023 169.966C118.223 164.716 115.486 160.723 112.035 158.017C108.591 155.31 104.403 153.923 99.9312 153.93C99.6816 153.93 99.4298 153.934 99.1757 153.942C94.8723 154.093 89.1065 154.061 83.5748 155.751C78.0321 157.431 72.7699 160.941 69.7213 167.837C63.6948 181.391 63.4695 196.3 63.0476 207.823C63.0211 208.528 63.0078 209.231 63.0078 209.931C63.01 215.374 63.7545 220.6 64.8944 224.962C66.0432 229.33 67.5476 232.808 69.2265 234.872C72.4828 238.842 91.7022 263.709 93.8981 266.513C94.6403 267.46 95.8267 268.151 97.2582 268.6C98.6964 269.052 100.4 269.275 102.297 269.277C105.642 269.275 109.598 268.576 113.723 267.044C118.086 265.423 121.605 262.82 124.048 259.929C126.487 257.035 127.87 253.85 127.877 250.972L127.866 250.523C127.777 249.017 127.053 246.409 126.017 243.192C122.908 233.59 116.961 218.987 116.957 218.978L115.908 219.255L116.915 219.617C116.975 219.509 118.395 216.912 119.551 209.405C120.107 205.775 120.246 201.174 120.246 197.343C120.246 193.167 120.076 189.916 120.076 189.909L118.974 189.946L117.869 189.983C117.869 189.985 117.911 190.785 117.953 192.108C117.995 193.431 118.039 195.273 118.039 197.343C118.039 201.135 117.894 205.697 117.357 209.187C116.791 212.878 116.162 215.331 115.682 216.848C115.442 217.607 115.238 218.131 115.099 218.459C115.031 218.623 114.975 218.738 114.942 218.809L114.905 218.882L114.898 218.894L115.163 218.987L114.9 218.891L114.898 218.894L115.163 218.987L114.9 218.891C114.788 219.092 114.772 219.322 114.858 219.53C114.861 219.536 115.517 221.15 116.511 223.664C118.004 227.437 120.246 233.22 122.142 238.553C123.09 241.219 123.949 243.771 124.581 245.896C125.215 248.011 125.617 249.734 125.659 250.598L125.668 250.972C125.674 253.383 124.457 256.287 122.219 258.932C119.986 261.579 116.749 263.966 112.797 265.432C108.931 266.87 105.257 267.501 102.297 267.501C100.62 267.501 99.1735 267.297 98.0645 266.947C96.9489 266.595 96.1912 266.11 95.767 265.568C93.5734 262.764 74.376 237.927 71.0711 233.893C69.6683 232.197 68.1551 228.826 67.0571 224.596C65.9481 220.362 65.2169 215.242 65.2169 209.931C65.2169 209.249 65.2302 208.563 65.2545 207.876C65.6676 196.335 65.9305 181.612 71.8002 168.435C74.703 161.966 79.3289 158.969 84.3613 157.412C89.4003 155.863 94.8922 155.861 99.2685 155.717C99.4916 155.71 99.7125 155.706 99.9312 155.706C103.837 155.712 107.4 156.875 110.493 159.289C113.579 161.705 116.168 165.405 117.894 170.439C119.073 173.88 119.469 177.178 119.469 180.043C119.469 182.896 119.078 185.321 118.687 187.022C118.492 187.873 118.298 188.545 118.152 188.999C118.081 189.227 118.022 189.401 117.98 189.514L117.92 189.678L117.869 189.983L118.974 189.946Z" fill="#17282F"/>
<path d="M90.7643 255.703L90.7599 255.689C90.7245 255.575 90.5412 254.911 90.5412 253.957C90.5412 252.832 90.7952 251.315 91.807 249.777C92.8254 248.239 94.5905 246.653 97.7805 245.363C98.6155 245.027 99.4462 244.88 100.312 244.878C102.278 244.871 104.496 245.695 106.681 247.043C109.959 249.056 113.094 252.172 115.37 254.772C116.51 256.074 117.44 257.247 118.082 258.092C118.405 258.515 118.655 258.856 118.822 259.089C118.993 259.323 119.077 259.446 119.077 259.446C119.373 259.875 120.044 260.03 120.577 259.792C121.111 259.554 121.303 259.014 121.007 258.584C120.99 258.559 118.383 254.772 114.554 250.946C112.639 249.033 110.419 247.109 108.024 245.633C105.63 244.164 103.034 243.111 100.312 243.102C99.1259 243.102 97.9285 243.313 96.7886 243.775C93.2319 245.205 91.0758 247.084 89.8542 248.946C88.6303 250.806 88.332 252.623 88.332 253.957C88.3342 255.255 88.6126 256.108 88.6303 256.161C88.7871 256.635 89.3924 256.918 89.9822 256.79C90.5721 256.664 90.9211 256.177 90.7643 255.703Z" fill="#17282F"/>
<path d="M85.4915 216.676C81.2721 218.003 76.7765 220.083 74.2735 223.477C73.9643 223.9 74.1388 224.444 74.6645 224.694C75.1903 224.943 75.8685 224.801 76.1778 224.38C78.2455 221.536 82.2993 219.575 86.2934 218.331C86.8611 218.152 87.1417 217.637 86.9208 217.18C86.6999 216.724 86.0593 216.497 85.4915 216.676Z" fill="#17282F"/>
<path d="M96.146 214.514C96.1129 214.518 94.1357 214.688 91.3301 215.225C90.7381 215.338 90.3714 215.818 90.5127 216.296C90.6541 216.772 91.2506 217.067 91.8426 216.953C93.1836 216.695 94.3257 216.527 95.1298 216.422C95.5319 216.37 95.85 216.335 96.0643 216.312C96.2785 216.289 96.3802 216.28 96.3824 216.28C96.9877 216.228 97.4273 215.79 97.3633 215.303C97.297 214.814 96.7535 214.461 96.146 214.514Z" fill="#17282F"/>
<path d="M82.2437 224.953C82.257 224.95 84.4153 224.358 87.0862 223.488C89.7614 222.612 92.9271 221.477 95.0611 220.305C95.5648 220.028 95.6929 219.475 95.3483 219.07C95.0015 218.665 94.3144 218.562 93.8107 218.839C91.9683 219.861 88.8601 220.996 86.2555 221.841C84.9521 222.266 83.7658 222.625 82.9109 222.877C82.0537 223.129 81.5324 223.271 81.5302 223.271C80.9536 223.429 80.6443 223.934 80.8409 224.397C81.0375 224.863 81.6649 225.111 82.2437 224.953Z" fill="#17282F"/>
<path d="M67.8516 356.218C67.8516 356.218 72.6343 320.682 85.1292 295.577C97.624 270.471 114.937 259.188 120.846 254.875C126.76 250.56 133.564 243.747 133.564 243.747L143.49 228.19C143.49 228.19 144.683 202.235 144.274 194.433C143.863 186.632 146.066 170.103 159.374 150.729C172.677 131.357 182.318 129.796 188.358 127.945C194.4 126.094 207.36 129.357 211.151 133.341C214.942 137.325 198.003 165.46 198.5 174.905C198.994 184.349 195.433 204.213 194.32 221.939C193.204 239.665 194.587 248.598 190.794 276.1C187.003 303.601 183.016 327.424 183.016 327.424" fill="white"/>
<path d="M68.95 356.314C68.95 356.313 69.0252 355.767 69.1776 354.751C70.2534 347.642 75.2947 317.712 86.157 295.908C92.358 283.443 99.7454 274.429 106.311 267.991C112.883 261.552 118.607 257.71 121.589 255.532C127.605 251.141 134.407 244.32 134.427 244.303L134.548 244.152L144.474 228.595L144.595 228.224C144.595 228.217 145.466 209.319 145.466 198.897C145.466 197.103 145.439 195.561 145.377 194.396C145.351 193.859 145.335 193.28 145.335 192.659C145.333 184.44 148.068 169.025 160.34 151.157C166.945 141.54 172.596 136.411 177.27 133.465C181.956 130.519 185.647 129.725 188.751 128.774C189.768 128.46 191.113 128.298 192.631 128.3C195.712 128.296 199.483 128.955 202.799 130.005C206.117 131.041 208.987 132.504 210.275 133.881C210.414 134.004 210.611 134.48 210.602 135.236C210.611 136.903 209.815 139.713 208.583 143.017C206.738 147.985 203.952 154.133 201.622 159.875C199.293 165.632 197.4 170.931 197.385 174.484L197.396 174.942C197.427 175.537 197.442 176.176 197.442 176.859C197.446 186.777 194.265 205.267 193.218 221.893C192.1 239.693 193.483 248.55 189.697 276.002C187.801 289.747 185.857 302.574 184.388 311.965C183.653 316.66 183.036 320.495 182.603 323.158C182.17 325.821 181.923 327.302 181.921 327.307C181.841 327.792 182.265 328.239 182.868 328.305C183.474 328.371 184.03 328.03 184.11 327.544C184.112 327.54 188.1 303.711 191.893 276.198C195.692 248.647 194.312 239.636 195.423 221.984C196.461 205.446 199.647 187.024 199.651 176.859C199.651 176.155 199.636 175.491 199.603 174.867L199.594 174.484C199.587 172.446 200.387 169.391 201.617 165.917C203.46 160.696 206.243 154.49 208.572 148.882C209.736 146.075 210.787 143.42 211.554 141.095C212.318 138.766 212.807 136.785 212.811 135.236C212.8 134.299 212.654 133.481 212.029 132.801C210.277 130.98 207.153 129.479 203.606 128.351C200.055 127.234 196.088 126.527 192.631 126.524C190.925 126.525 189.337 126.696 187.965 127.113C185.027 128.016 180.88 128.927 175.907 132.068C170.928 135.208 165.107 140.546 158.407 150.299C145.941 168.455 143.126 184.141 143.126 192.659C143.126 193.303 143.142 193.909 143.17 194.471C143.23 195.593 143.256 197.119 143.256 198.897C143.256 204.073 143.038 211.393 142.821 217.415C142.713 220.424 142.605 223.111 142.523 225.044C142.441 226.978 142.388 228.154 142.388 228.158L143.491 228.19L142.508 227.785L132.582 243.342L133.565 243.747L132.703 243.191C132.703 243.192 132.286 243.61 131.561 244.312C129.388 246.413 124.461 251.042 120.105 254.216C117.178 256.353 111.288 260.309 104.603 266.865C97.9118 273.425 90.3963 282.605 84.1047 295.247C71.5303 320.531 66.7652 356.085 66.7542 356.124C66.6879 356.611 67.1275 357.049 67.7328 357.101C68.3403 357.154 68.8838 356.802 68.95 356.314Z" fill="#17282F"/>
<path d="M205.788 130.06C205.762 130.058 204.147 129.927 201.933 129.927C200.033 129.929 197.696 130.021 195.516 130.389C193.342 130.767 191.267 131.38 189.966 132.68C189.202 133.467 188.314 134.767 187.324 136.442C185.851 138.945 184.22 142.244 182.946 145.537C181.675 148.836 180.754 152.102 180.748 154.641C180.756 155.992 180.986 157.17 181.799 158.088C183.396 159.84 185.842 161.069 188.367 161.895C190.899 162.717 193.516 163.131 195.597 163.133C196.644 163.13 197.555 163.037 198.339 162.76C198.893 162.559 199.143 162.034 198.891 161.586C198.642 161.138 197.988 160.939 197.431 161.14C197.126 161.257 196.45 161.362 195.597 161.357C193.883 161.36 191.46 160.989 189.195 160.248C186.922 159.513 184.812 158.403 183.584 157.042C183.224 156.666 182.946 155.809 182.957 154.641C182.946 151.706 184.496 147.049 186.394 142.882C187.342 140.793 188.371 138.812 189.321 137.201C190.262 135.595 191.153 134.336 191.703 133.778C192.396 133.041 194.018 132.448 195.968 132.128C197.912 131.797 200.128 131.703 201.933 131.703C202.987 131.703 203.901 131.735 204.549 131.765C204.873 131.781 205.132 131.797 205.306 131.808L205.567 131.828C206.175 131.876 206.716 131.52 206.776 131.032C206.837 130.543 206.393 130.108 205.788 130.06Z" fill="#17282F"/>
<path d="M193.925 188.387C193.898 188.385 190.673 188.039 187.163 188.037C184.613 188.047 181.956 188.191 180.025 188.918C179.475 189.129 179.243 189.66 179.506 190.103C179.771 190.545 180.429 190.731 180.979 190.52C182.241 190.017 184.766 189.804 187.163 189.813C188.828 189.813 190.454 189.898 191.658 189.982C192.261 190.024 192.758 190.065 193.103 190.097C193.448 190.127 193.633 190.149 193.633 190.149C194.239 190.213 194.793 189.872 194.875 189.385C194.954 188.898 194.53 188.452 193.925 188.387Z" fill="#17282F"/>
<path d="M175.214 193.367C175.293 193.391 180.22 195.177 186.264 195.185C187.956 195.185 189.739 195.042 191.524 194.671C192.114 194.549 192.469 194.064 192.317 193.589C192.162 193.113 191.561 192.827 190.969 192.952C189.399 193.279 187.801 193.408 186.264 193.408C183.516 193.408 180.958 192.991 179.1 192.572C178.17 192.362 177.414 192.152 176.897 191.996C176.639 191.92 176.44 191.854 176.307 191.811L176.117 191.746C175.561 191.545 174.909 191.746 174.659 192.193C174.41 192.641 174.657 193.167 175.214 193.367Z" fill="#17282F"/>
<path d="M171.851 202.41C171.909 202.499 172.55 203.483 174.195 204.455C175.839 205.427 178.49 206.359 182.396 206.356C183.787 206.356 185.336 206.238 187.061 205.97C187.66 205.878 188.053 205.411 187.936 204.929C187.821 204.448 187.24 204.133 186.642 204.226C185.042 204.474 183.633 204.579 182.396 204.579C178.918 204.574 176.793 203.778 175.501 203.021C174.858 202.641 174.425 202.268 174.16 201.998L173.882 201.684L173.826 201.611L173.818 201.6L173.407 201.776L173.824 201.608L173.818 201.6L173.407 201.776L173.824 201.608C173.548 201.171 172.883 200.995 172.34 201.217C171.794 201.439 171.578 201.972 171.851 202.41Z" fill="#17282F"/>
<defs>
<linearGradient id="paint0_linear_79_578" x1="116.143" y1="229.855" x2="201.087" y2="12.1143" gradientUnits="userSpaceOnUse">
<stop stop-color="#DE1F1F"/>
<stop offset="0.382402" stop-color="#671FDE"/>
<stop offset="0.713003" stop-color="#221FDE"/>
<stop offset="1" stop-color="#00A3FF"/>
</linearGradient>
</defs>
</svg>
