<svg width="360" height="549" viewBox="0 0 360 549" fill="none" xmlns="http://www.w3.org/2000/svg">
<rect x="0.827148" width="315.129" height="548" rx="16" fill="url(#paint0_linear_79_578)" fill-opacity="0.8"/>
<path d="M300.906 548C300.906 548 286.683 446.936 287.944 439.609C289.208 432.282 301.782 389.475 307.051 380.025C312.318 370.573 321.108 349.748 324.351 333.083C327.592 316.417 326.527 311.819 327.245 309.808C327.963 307.799 328.623 273.34 325.601 262.848C322.579 252.357 314.995 233.411 314.995 233.411C314.995 233.411 314.023 214.902 295.404 189.709C276.786 164.516 276.753 163.855 265.718 157.608C254.686 151.361 243.753 147.096 232.996 146.136C222.24 145.179 212.48 147.497 216.395 159.283C220.307 171.07 236.516 181.776 236.516 181.776C236.516 181.776 247.25 197.967 251.672 203.775C256.095 209.586 259.765 216.744 259.765 216.744L260.703 234.592L253.862 245.419C253.862 245.419 243.545 237.161 238.913 227.386C234.28 217.609 216.611 226.157 210.834 241.582C205.058 257.011 120.993 302.909 124.676 325.96C128.357 349.011 130.488 405.225 144.207 431.248C157.928 457.269 161.458 461.784 161.458 461.784L159.338 548" fill="white"/>
<path d="M302.206 547.239C302.206 547.236 300.803 536.624 300.48 534.37C299.354 526.477 296.539 506.557 294.005 487.088C292.739 477.355 291.542 467.734 290.663 459.79C289.784 451.852 289.222 445.566 289.225 442.592C289.225 441.935 289.256 441.436 289.302 441.175C289.605 439.409 290.625 435.352 292.061 430.175C294.217 422.401 297.308 412.051 300.352 402.77C301.874 398.13 303.385 393.755 304.759 390.107C306.129 386.461 307.373 383.529 308.32 381.832C313.636 372.287 322.43 351.458 325.704 334.665C327.33 326.307 327.878 320.955 328.11 317.442C328.326 313.946 328.282 312.225 328.569 311.5C328.647 311.273 328.678 311.063 328.72 310.752C328.993 308.656 329.217 302.524 329.219 295.181C329.219 289.612 329.086 283.376 328.739 277.77C328.388 272.159 327.831 267.203 326.939 264.092C323.895 253.531 316.313 234.597 316.309 234.585L315.257 234.856L316.362 234.819C316.355 234.709 315.348 216.047 296.616 190.701C287.307 178.106 282.65 171.643 278.873 167.474C275.093 163.298 272.13 161.442 266.616 158.327C255.498 152.033 244.417 147.688 233.38 146.699C231.944 146.571 230.521 146.5 229.134 146.5C225.33 146.504 221.782 147.028 219.071 148.507C216.348 149.982 214.644 152.49 214.671 155.93C214.671 157.415 214.967 159.081 215.588 160.957C217.631 167.078 222.758 172.775 227.356 176.983C231.955 181.186 236.046 183.887 236.077 183.909L236.778 183.221L235.803 183.641C235.81 183.649 246.531 199.821 250.993 205.684C253.172 208.544 255.182 211.765 256.64 214.262C257.369 215.511 257.963 216.58 258.372 217.335C258.783 218.09 259.006 218.527 259.006 218.527L260.027 218.189L258.924 218.227L259.85 235.842L253.138 246.463L254.124 246.864L254.901 246.235C254.901 246.235 254.753 246.116 254.468 245.877C252.476 244.21 244.147 236.855 240.206 228.515C239.468 226.955 238.386 225.755 237.018 224.955C235.655 224.154 234.036 223.778 232.351 223.781C228.288 223.799 223.823 225.817 219.776 229.144C215.738 232.482 212.133 237.185 210.038 242.772C209.422 244.445 207.617 246.743 204.911 249.397C195.432 258.735 175.176 272.606 157.313 286.676C148.377 293.717 140.026 300.817 133.878 307.487C127.744 314.164 123.741 320.394 123.716 325.893C123.716 326.444 123.756 326.986 123.842 327.519C125.676 338.985 127.132 358.819 129.842 379.029C132.56 399.252 136.505 419.842 143.453 433.04C157.187 459.082 160.715 463.606 160.786 463.702L161.72 463.229L160.616 463.212L158.486 548.043C158.473 548.534 158.957 548.939 159.566 548.95C160.178 548.959 160.682 548.569 160.693 548.08L162.825 463.247C162.829 463.075 162.772 462.904 162.657 462.757L162.626 462.718C162.244 462.204 158.338 456.723 145.487 432.346C138.714 419.522 134.736 398.993 132.038 378.839C129.332 358.675 127.883 338.876 126.034 327.293C125.961 326.838 125.926 326.371 125.926 325.893C125.89 320.431 130.766 313.333 138.37 305.713C149.749 294.265 167.062 281.571 182.066 270.338C189.571 264.718 196.499 259.46 201.84 254.875C207.182 250.273 210.953 246.42 212.155 243.283C214.141 237.976 217.583 233.499 221.36 230.382C225.129 227.254 229.251 225.538 232.351 225.558C233.643 225.559 234.754 225.829 235.719 226.391C236.68 226.955 237.52 227.837 238.143 229.147C242.904 239.162 253.298 247.447 253.344 247.495C253.594 247.695 253.947 247.788 254.298 247.742C254.647 247.697 254.948 247.521 255.107 247.267L261.951 236.439L262.07 236L261.131 218.152L261.049 217.85C261.036 217.829 257.362 210.653 252.878 204.757C250.691 201.887 246.9 196.385 243.668 191.618C242.051 189.232 240.571 187.03 239.497 185.422C238.421 183.815 237.754 182.807 237.752 182.804L237.478 182.536L237.308 182.42C236.44 181.832 232.412 179.029 228.169 175.024C223.923 171.023 219.478 165.81 217.724 160.499C217.138 158.742 216.878 157.225 216.88 155.93C216.904 152.921 218.201 151.157 220.317 149.974C222.449 148.795 225.58 148.273 229.134 148.276C230.426 148.276 231.772 148.344 233.137 148.465C243.615 149.395 254.398 153.577 265.344 159.78C270.862 162.909 273.436 164.508 277.088 168.522C280.739 172.544 285.409 179.01 294.717 191.609C303.971 204.128 308.829 214.974 311.376 222.68C312.65 226.533 313.346 229.6 313.722 231.696C313.91 232.746 314.018 233.551 314.08 234.093C314.111 234.363 314.128 234.567 314.139 234.7L314.155 234.894L314.206 235.128C314.208 235.132 314.678 236.309 315.436 238.246C317.707 244.056 322.538 256.682 324.787 264.494C325.62 267.371 326.19 272.302 326.532 277.859C326.877 283.422 327.01 289.636 327.01 295.181C327.01 299.354 326.935 303.148 326.822 306.002C326.767 307.427 326.7 308.619 326.63 309.498C326.594 309.937 326.559 310.297 326.524 310.566L326.473 310.887L326.453 310.981L326.446 311.008C326.013 312.294 326.144 313.877 325.903 317.349C325.675 320.804 325.136 326.083 323.521 334.391C320.309 350.928 311.526 371.752 306.303 381.106C304.936 383.564 303.169 388.015 301.22 393.492C298.304 401.698 295.019 412.16 292.342 421.268C289.664 430.386 287.603 438.098 287.113 440.932C287.042 441.353 287.016 441.89 287.016 442.592C287.018 446.154 287.756 453.845 288.86 463.456C292.172 492.267 300.01 547.442 300.013 547.445C300.083 547.932 300.631 548.28 301.236 548.225C301.842 548.168 302.277 547.728 302.206 547.239Z" fill="#17282F"/>
<path d="M127.545 335.845C127.545 335.845 134.836 357.869 149.199 364.976C163.563 372.083 180.686 368.086 180.686 368.086L196.705 376.082L259.128 309.01C259.128 309.01 272.387 276.584 271.283 265.036C270.178 253.487 269.071 246.38 266.862 245.048C264.653 243.715 248.632 238.387 248.632 238.387L242.557 232.612L234.958 221.203C234.958 221.203 227.089 242.827 206.098 259.706C185.104 276.584 143.674 301.459 135.388 315.227C127.104 328.997 124.784 326.073 127.545 335.845Z" fill="#17282F"/>
<path d="M127.545 335.845L126.478 336.072C126.487 336.102 128.323 341.646 131.981 348.114C135.653 354.576 141.089 361.985 148.62 365.733C155.617 369.193 163.198 370.093 169.24 370.095C176.042 370.093 180.929 368.953 180.995 368.939L180.686 368.086L180.105 368.841L196.123 376.836C196.609 377.079 197.245 376.982 197.59 376.614L260.014 309.543L260.177 309.287C260.181 309.278 263.241 301.797 266.305 292.725C269.365 283.639 272.442 273.024 272.453 266.52C272.453 265.974 272.431 265.457 272.385 264.969C271.83 259.185 271.278 254.506 270.578 251.068C270.224 249.346 269.84 247.936 269.376 246.827C268.901 245.723 268.406 244.891 267.525 244.337C267.142 244.11 266.632 243.879 265.956 243.593C263.619 242.611 259.419 241.115 255.772 239.85C252.129 238.587 249.058 237.566 249.056 237.566L248.632 238.387L249.476 237.813L243.476 232.109L235.932 220.783C235.717 220.464 235.291 220.281 234.843 220.318C234.396 220.355 234.023 220.606 233.897 220.952L233.809 221.185C232.903 223.553 224.782 243.438 205.318 259.079C194.882 267.47 179.279 277.909 165.244 287.97C158.223 293.002 151.594 297.942 146.181 302.504C140.767 307.072 136.567 311.239 134.393 314.84C131.371 319.863 129.173 322.615 127.68 324.647C126.933 325.663 126.35 326.51 125.943 327.39C125.537 328.265 125.329 329.168 125.332 330.194C125.334 331.683 125.731 333.427 126.467 336.042L126.478 336.072L127.545 335.845L128.621 335.648C127.892 333.07 127.538 331.415 127.541 330.194C127.543 329.349 127.693 328.708 128.016 328.006C128.957 325.897 131.789 323.237 136.382 315.615C138.35 312.332 142.437 308.227 147.779 303.731C163.817 290.208 191.053 273.054 206.879 260.334C228.096 243.261 235.983 221.522 236.018 221.451L234.958 221.203L233.983 221.622L241.585 233.031L241.715 233.184L247.79 238.959L248.21 239.207C248.212 239.207 249.209 239.538 250.742 240.058C253.041 240.838 256.545 242.039 259.671 243.165C261.235 243.73 262.704 244.275 263.873 244.737C265.033 245.19 265.936 245.595 266.199 245.758C266.422 245.872 266.895 246.43 267.282 247.392C267.887 248.833 268.419 251.117 268.885 254.1C269.354 257.086 269.769 260.78 270.182 265.106C270.224 265.541 270.244 266.013 270.244 266.52C270.255 272.621 267.222 283.25 264.173 292.26C262.649 296.772 261.125 300.893 259.983 303.884C259.41 305.379 258.933 306.593 258.602 307.431C258.268 308.271 258.081 308.731 258.078 308.733L259.128 309.01L258.244 308.479L196.428 374.898L181.269 367.331C181.004 367.2 180.679 367.164 180.379 367.234L180.186 367.276C179.241 367.477 174.922 368.319 169.24 368.319C163.463 368.319 156.301 367.449 149.778 364.219C142.945 360.86 137.555 353.704 133.991 347.376C132.202 344.216 130.854 341.268 129.955 339.115C129.507 338.037 129.169 337.159 128.946 336.552C128.72 335.944 128.612 335.617 128.612 335.616L127.545 335.845Z" fill="#17282F"/>
<path d="M239.509 181.517C239.606 181.554 243.448 183.055 249.289 183.057C254.202 183.06 260.535 181.973 267.077 178.067C267.567 177.774 267.669 177.218 267.306 176.824C266.942 176.429 266.25 176.348 265.76 176.641C259.605 180.307 253.806 181.277 249.289 181.281C246.607 181.281 244.382 180.934 242.836 180.588C242.065 180.415 241.462 180.243 241.06 180.117C240.859 180.055 240.706 180.003 240.609 179.968L240.501 179.929L240.479 179.92C239.929 179.705 239.268 179.888 239.001 180.328C238.733 180.769 238.961 181.302 239.509 181.517Z" fill="#17282F"/>
<path d="M239.247 295.359L216.529 317.382C215.278 318.595 212.831 317.762 213.043 316.197L216.403 287.759L336.741 53.922C337.605 52.2434 339.997 51.4458 342.085 52.1404L357.368 57.2241C359.455 57.9186 360.447 59.8424 359.583 61.5228L239.247 295.359Z" fill="url(#paint1_linear_79_578)"/>
<path d="M239.248 295.359L238.397 294.793L215.679 316.815C215.467 317.014 215.268 317.068 215.029 317.073C214.808 317.075 214.561 316.998 214.397 316.874C214.232 316.746 214.139 316.604 214.134 316.385L214.141 316.293L214.143 316.281L217.488 287.975L337.762 54.2613C338.237 53.3358 339.35 52.7781 340.521 52.7781C340.901 52.7781 341.286 52.8349 341.663 52.961L356.946 58.0448C358.097 58.4267 358.788 59.3219 358.791 60.2651C358.791 60.5706 358.718 60.8797 358.563 61.1835V61.1817L238.227 295.02L239.248 295.359L240.269 295.699L360.604 61.862C360.872 61.3416 361 60.798 361 60.2651C361.002 58.6256 359.791 57.0714 357.79 56.4035L342.507 51.3197C341.86 51.1048 341.184 51.0018 340.521 51.0018C338.482 51 336.549 51.9734 335.721 53.5827L215.383 287.419L215.305 287.675L211.943 316.114L213.043 316.197L211.945 316.101L211.925 316.385C211.921 317.11 212.321 317.757 212.902 318.181C213.483 318.609 214.236 318.847 215.029 318.849C215.866 318.856 216.763 318.554 217.38 317.949L240.098 295.926L240.269 295.699L239.248 295.359Z" fill="#17282F"/>
<path d="M345.764 88.375L359.584 61.5228C360.448 59.8424 359.456 57.9187 357.368 57.2241L342.086 52.1386C339.998 51.4458 337.606 52.2434 336.742 53.922L322.921 80.776L345.764 88.375Z" fill="#CDCECC"/>
<path d="M345.764 88.375L346.784 88.716L360.605 61.862C360.872 61.3416 361 60.798 361 60.2651C361.002 58.6256 359.792 57.0714 357.79 56.4035L342.508 51.318C341.86 51.103 341.186 51 340.524 51C338.485 51 336.549 51.9734 335.721 53.5827L321.901 80.4367C321.79 80.6534 321.79 80.9003 321.901 81.117C322.013 81.332 322.23 81.5078 322.499 81.5967L345.342 89.1956C345.905 89.3839 346.55 89.169 346.784 88.716L345.764 88.375L346.186 87.5544L324.364 80.2946L337.762 54.2612C338.237 53.334 339.351 52.7781 340.524 52.7763C340.904 52.7763 341.288 52.8349 341.664 52.961V52.9592L356.946 58.0448C358.097 58.4267 358.789 59.3219 358.791 60.2651C358.791 60.5706 358.718 60.8797 358.564 61.1835V61.1817L344.743 88.0357L345.764 88.375Z" fill="#17282F"/>
<path d="M329.032 68.9033L322.921 80.776L345.764 88.375L351.874 76.504L329.032 68.9033Z" fill="white"/>
<path d="M329.032 68.9033L328.011 68.564L321.901 80.4367C321.79 80.6534 321.79 80.9003 321.901 81.117C322.013 81.332 322.23 81.5078 322.499 81.5967L345.342 89.1956C345.905 89.3839 346.55 89.169 346.784 88.716L352.895 76.8433C353.005 76.6284 353.005 76.3797 352.895 76.1647C352.782 75.948 352.566 75.774 352.296 75.6834L329.454 68.0826C329.184 67.9938 328.877 67.9938 328.608 68.0844C328.34 68.1732 328.122 68.349 328.011 68.564L329.032 68.9033L328.61 69.7239L350.429 76.9854L345.165 87.2151L324.364 80.2946L330.052 69.2443L329.032 68.9033Z" fill="#17282F"/>
<path d="M216.396 287.823L213.043 316.197C212.831 317.762 215.278 318.595 216.529 317.382L239.199 295.407L216.396 287.823Z" fill="white"/>
<path d="M216.397 287.823L215.296 287.737L211.943 316.114L213.043 316.197L211.945 316.101L211.925 316.385C211.921 317.11 212.321 317.757 212.902 318.181C213.483 318.609 214.236 318.847 215.029 318.849C215.866 318.856 216.763 318.554 217.38 317.949L240.05 295.974C240.273 295.757 240.355 295.468 240.271 295.194C240.187 294.921 239.946 294.695 239.621 294.587L216.819 287.002C216.494 286.894 216.127 286.915 215.827 287.061C215.526 287.206 215.33 287.457 215.296 287.737L216.397 287.823L215.972 288.643L237.392 295.768L215.679 316.815C215.467 317.014 215.268 317.068 215.029 317.073C214.808 317.075 214.561 316.998 214.397 316.874C214.232 316.746 214.139 316.604 214.134 316.385L214.141 316.293L214.143 316.281L217.495 287.906L216.397 287.823Z" fill="#17282F"/>
<path d="M214.521 303.696L213.043 316.197C212.831 317.762 215.278 318.595 216.529 317.382L226.527 307.69L214.521 303.696Z" fill="#17282F"/>
<path d="M214.521 303.696L213.421 303.612L211.943 316.114L213.043 316.197L211.945 316.101L211.925 316.385C211.921 317.11 212.321 317.757 212.902 318.181C213.483 318.609 214.236 318.847 215.029 318.849C215.866 318.856 216.763 318.554 217.38 317.949L227.378 308.257C227.604 308.04 227.685 307.751 227.601 307.477C227.517 307.204 227.274 306.978 226.952 306.87L214.943 302.875C214.618 302.767 214.252 302.79 213.951 302.935C213.651 303.081 213.454 303.331 213.421 303.612L214.521 303.696L214.099 304.516L224.723 308.051L215.679 316.815C215.467 317.014 215.268 317.068 215.029 317.073C214.808 317.075 214.561 316.998 214.397 316.874C214.232 316.746 214.139 316.604 214.134 316.385L214.141 316.293L214.143 316.281L215.621 303.779L214.521 303.696Z" fill="#17282F"/>
<path d="M183.96 350.862C183.96 350.862 184.09 353.325 182.199 356.269C180.308 359.212 174.395 363.527 166.225 363.804C158.054 364.081 144.942 357.945 135.808 349.618C126.673 341.289 123.984 329.042 119.955 320.54C115.928 312.037 115.497 303.825 123.107 292.871C130.716 281.918 147.295 285.881 147.295 285.881C147.295 285.881 159.169 317.151 164.197 325.207C169.223 333.264 183.96 350.862 183.96 350.862Z" fill="white"/>
<path d="M183.96 350.862L182.855 350.899V350.906L182.857 350.965C182.857 351.368 182.771 353.446 181.218 355.86C180.387 357.162 178.541 358.901 175.949 360.299C173.356 361.702 170.029 362.786 166.176 362.915L165.683 362.924C161.915 362.933 156.796 361.491 151.582 359.006C146.362 356.526 141.021 353.029 136.635 349.03C127.764 340.971 125.051 328.857 120.988 320.224C119.247 316.549 118.211 312.977 118.209 309.222C118.214 304.447 119.879 299.342 124.07 293.304C126.169 290.292 128.921 288.515 131.826 287.453C134.729 286.393 137.797 286.069 140.42 286.071C142.315 286.071 143.972 286.238 145.147 286.407C145.733 286.49 146.199 286.574 146.515 286.634L146.873 286.707L146.979 286.732L147.295 285.881L146.239 286.141C146.239 286.144 149.21 293.965 152.811 302.8C154.611 307.218 156.569 311.888 158.395 315.965C160.225 320.046 161.908 323.517 163.209 325.606C165.767 329.702 170.711 336.115 175.032 341.534C179.354 346.95 183.041 351.354 183.043 351.357L183.96 350.862L184.876 350.366C184.874 350.362 183.957 349.268 182.499 347.496C178.13 342.184 168.891 330.757 165.184 324.809C163.971 322.869 162.286 319.411 160.474 315.362C157.753 309.286 154.719 301.845 152.369 295.93C151.194 292.972 150.188 290.393 149.477 288.556C148.766 286.718 148.351 285.624 148.351 285.622C148.242 285.338 147.962 285.114 147.608 285.03C147.542 285.014 144.533 284.297 140.42 284.295C137.579 284.295 134.199 284.64 130.914 285.835C127.631 287.027 124.459 289.096 122.141 292.437V292.439C117.811 298.665 115.998 304.104 116 309.222C116 313.243 117.118 317.044 118.923 320.855C122.915 329.225 125.581 341.609 134.979 350.204C139.529 354.354 145.026 357.953 150.458 360.535C155.899 363.111 161.252 364.692 165.683 364.701L166.271 364.69C170.588 364.544 174.303 363.331 177.182 361.772C180.063 360.208 182.119 358.317 183.18 356.675C184.951 353.913 185.064 351.556 185.066 350.965L185.062 350.824C185.055 350.659 184.989 350.501 184.876 350.366L183.96 350.862Z" fill="#17282F"/>
<path d="M159.342 360.707C159.342 360.706 159.126 360.439 158.797 360.004C158.302 359.354 157.555 358.338 156.947 357.368C156.645 356.883 156.375 356.409 156.192 356.011C156.006 355.62 155.922 355.284 155.931 355.201V355.187L155.405 355.141L155.763 355.428L155.931 355.187L155.405 355.141L155.763 355.428L155.348 355.094V355.583L155.763 355.428L155.348 355.094V355.583V355.56L155.344 355.585L155.348 355.583V355.56L155.344 355.585C155.832 355.645 156.404 355.67 157.071 355.672C158.885 355.67 161.361 355.471 163.816 355.032C166.268 354.586 168.678 353.929 170.386 352.869C171.325 352.281 172.001 351.86 172.475 351.616C172.959 351.368 173.176 351.336 173.26 351.339C173.335 351.339 173.467 351.354 173.79 351.503C174.104 351.647 174.556 351.909 175.16 352.267C176.399 352.995 177.981 354.16 179.229 355.132C179.854 355.617 180.4 356.055 180.786 356.373C181.173 356.689 181.4 356.88 181.4 356.881C181.822 357.237 182.52 357.249 182.962 356.912C183.404 356.572 183.422 356.011 183 355.656C182.976 355.638 179.246 352.478 176.465 350.833C175.86 350.478 175.378 350.19 174.892 349.963C174.413 349.741 173.874 349.563 173.26 349.563C172.529 349.565 171.908 349.803 171.289 350.119C170.662 350.441 169.968 350.879 169.027 351.469C167.805 352.247 165.61 352.897 163.334 353.299C161.059 353.707 158.684 353.895 157.071 353.895C156.484 353.895 155.995 353.869 155.686 353.83L155.348 353.808C154.942 353.794 154.385 353.95 154.078 354.284C153.773 354.608 153.724 354.935 153.722 355.201C153.738 355.846 154.018 356.441 154.372 357.13C155.445 359.144 157.473 361.649 157.486 361.672C157.818 362.084 158.503 362.201 159.013 361.935C159.526 361.668 159.674 361.12 159.342 360.707Z" fill="#17282F"/>
<path d="M148.422 336.879L141.512 342.461C141.143 342.76 141.083 343.225 141.372 343.577C141.66 343.929 142.216 344.069 142.702 343.913C142.709 343.911 145.442 343.037 148.654 341.92C151.877 340.797 155.542 339.456 157.559 338.44C158.076 338.179 158.23 337.63 157.906 337.216C157.581 336.8 156.9 336.676 156.383 336.937C154.623 337.831 150.949 339.189 147.777 340.289C146.188 340.841 144.713 341.335 143.637 341.692C142.561 342.048 141.887 342.262 141.885 342.262L142.294 343.088L143.076 343.715L149.988 338.133C150.419 337.784 150.417 337.223 149.984 336.877C149.553 336.53 148.852 336.532 148.422 336.88" fill="#17282F"/>
<path d="M180.143 248.977C180.143 248.977 166.499 242.449 154.294 253.56C142.088 264.667 143.648 274.898 150.257 293.596C156.867 312.293 164.369 328.491 169.223 333.264C174.079 338.033 183.558 352.933 194.283 352.569C194.283 352.569 212.449 347.838 215.593 339.502C218.736 331.17 212.946 328.077 212.946 328.077L205.192 316.822L202.165 307.875C202.165 307.875 191.937 288.478 188.847 278.298C185.752 268.122 180.143 248.977 180.143 248.977Z" fill="white"/>
<path d="M180.142 248.977L180.708 248.215C180.611 248.172 176.475 246.19 170.573 246.183C165.553 246.172 159.257 247.68 153.465 252.972C146.809 259.006 144.067 264.976 144.085 272.003C144.087 278.151 146.106 285.092 149.195 293.837C152.508 303.207 156.043 311.95 159.366 318.968C161.029 322.476 162.637 325.553 164.146 328.066C165.659 330.583 167.056 332.53 168.368 333.825C169.506 334.942 170.988 336.733 172.702 338.767C175.278 341.822 178.393 345.437 181.923 348.329C183.69 349.776 185.564 351.045 187.556 351.966C189.547 352.887 191.672 353.462 193.894 353.462L194.327 353.455L194.623 353.412C194.665 353.402 199.26 352.206 204.299 349.936C209.321 347.654 214.886 344.341 216.651 339.76C217.349 337.907 217.634 336.278 217.631 334.861C217.636 332.25 216.659 330.363 215.659 329.152C214.656 327.937 213.646 327.384 213.558 327.336L212.946 328.077L213.911 327.645L206.224 316.485L203.232 307.641L203.182 307.527C203.182 307.525 202.545 306.321 201.542 304.347C198.527 298.438 192.198 285.606 189.92 278.089C188.374 273.003 186.198 265.674 184.408 259.617C183.516 256.588 182.716 253.878 182.144 251.924C181.57 249.97 181.218 248.778 181.218 248.774C181.15 248.54 180.967 248.337 180.708 248.215L180.142 248.977L179.069 249.181C179.069 249.183 184.678 268.324 187.773 278.51C190.914 288.832 201.14 308.197 201.149 308.222L202.165 307.875L201.101 308.108L204.127 317.055L204.226 317.252L211.981 328.507L212.334 328.816L212.577 328.521L212.327 328.812L212.334 328.816L212.577 328.521L212.327 328.812C212.345 328.821 213.125 329.26 213.889 330.225C214.654 331.191 215.42 332.672 215.422 334.861C215.422 336.088 215.179 337.539 214.536 339.245C213.158 343 208.066 346.22 203.219 348.387C200.805 349.474 198.474 350.313 196.753 350.876C195.894 351.158 195.185 351.371 194.694 351.513C194.451 351.584 194.259 351.638 194.131 351.672L193.943 351.723L194.283 352.569L194.237 351.68L193.894 351.686C191.581 351.689 189.233 350.881 186.914 349.504C183.436 347.449 180.116 344.154 177.251 340.929C174.372 337.696 171.96 334.555 170.078 332.701C168.964 331.61 167.601 329.743 166.137 327.295C161.721 319.942 156.264 307.342 151.32 293.352C148.24 284.65 146.29 277.831 146.294 272.003C146.312 265.344 148.755 259.961 155.12 254.148C160.55 249.222 166.084 247.971 170.573 247.959C173.21 247.959 175.483 248.41 177.09 248.863C177.891 249.089 178.525 249.314 178.954 249.48C179.168 249.563 179.33 249.631 179.436 249.677L179.55 249.728L179.579 249.741L180.142 248.977Z" fill="#17282F"/>
<path d="M190.996 319.697C190.996 319.697 190.464 319.935 189.607 320.302C188.321 320.853 186.313 321.695 184.333 322.444C182.367 323.194 180.375 323.853 179.345 324.02C178.749 324.121 178.364 324.592 178.49 325.073C178.616 325.553 179.202 325.86 179.798 325.759C180.77 325.592 181.956 325.231 183.266 324.78C187.174 323.432 192.05 321.258 192.068 321.251C192.602 321.013 192.794 320.473 192.498 320.043C192.202 319.615 191.531 319.459 190.996 319.697Z" fill="#17282F"/>
<path d="M183.974 317.629C183.945 317.634 181.714 318.05 179.182 318.824C177.914 319.213 176.571 319.691 175.374 320.27C174.179 320.853 173.107 321.524 172.429 322.411C172.111 322.83 172.276 323.377 172.798 323.631C173.319 323.887 174 323.753 174.315 323.334C174.673 322.849 175.477 322.286 176.511 321.792C178.058 321.043 180.072 320.419 181.678 320C182.483 319.791 183.187 319.629 183.687 319.521C183.936 319.467 184.137 319.426 184.272 319.398L184.473 319.359C185.067 319.249 185.436 318.771 185.299 318.293C185.162 317.815 184.568 317.519 183.974 317.629Z" fill="#17282F"/>
<path d="M204.231 338.179C204.192 338.182 200.58 338.406 196.853 339.222C194.986 339.634 193.088 340.186 191.551 340.989C190.784 341.392 190.099 341.863 189.578 342.437C189.057 343.007 188.706 343.696 188.661 344.453L188.653 344.787C188.624 346.433 189.516 347.647 190.714 348.256C191.896 348.874 193.199 348.982 194.178 348.988C195.097 348.986 195.755 348.876 195.804 348.869C196.402 348.767 196.784 348.297 196.658 347.817C196.533 347.336 195.947 347.028 195.351 347.13L195.342 347.131C195.267 347.144 194.785 347.211 194.178 347.211C193.433 347.215 192.525 347.098 191.929 346.773C191.345 346.44 190.888 345.996 190.862 344.787L190.868 344.538C190.895 344.16 191.049 343.831 191.361 343.485C191.9 342.881 192.974 342.286 194.315 341.808C196.32 341.085 198.87 340.607 200.893 340.325C201.907 340.184 202.791 340.09 203.416 340.03C204.044 339.971 204.401 339.95 204.404 339.95C205.011 339.911 205.466 339.484 205.418 338.994C205.371 338.506 204.839 338.14 204.231 338.179Z" fill="#17282F"/>
<path d="M234.973 240.946C234.973 240.946 238.583 231.774 234.958 221.203C231.332 210.63 223.903 205.534 215.221 205.829C206.541 206.124 192.71 205.77 186.759 219.137C180.812 232.502 180.569 247.318 180.149 258.85C179.734 270.381 182.868 281.382 186.147 285.384C189.43 289.384 208.638 314.236 210.832 317.041C213.025 319.846 220.729 320.407 229.26 317.238C237.79 314.069 243.041 306.898 242.76 301.561C242.48 296.221 231.907 270.255 231.907 270.255C231.907 270.255 233.31 267.74 234.452 260.295C235.596 252.853 234.973 240.946 234.973 240.946Z" fill="white"/>
<path d="M234.974 240.946L236.025 241.214C236.048 241.156 237.676 237.012 237.678 231.043C237.678 228.047 237.265 224.59 236.023 220.966C234.223 215.716 231.486 211.723 228.035 209.017C224.591 206.31 220.403 204.923 215.931 204.93C215.682 204.93 215.43 204.934 215.176 204.942C210.872 205.093 205.106 205.061 199.575 206.751C194.032 208.431 188.77 211.941 185.721 218.837C179.695 232.391 179.47 247.3 179.048 258.823C179.021 259.528 179.008 260.231 179.008 260.931C179.01 266.374 179.755 271.6 180.894 275.962C182.043 280.33 183.548 283.808 185.226 285.872C188.483 289.842 207.702 314.709 209.898 317.513C210.64 318.46 211.827 319.151 213.258 319.6C214.696 320.052 216.4 320.275 218.297 320.277C221.642 320.275 225.598 319.576 229.723 318.044C234.086 316.423 237.605 313.82 240.048 310.929C242.487 308.035 243.87 304.85 243.877 301.972L243.866 301.523C243.777 300.017 243.053 297.409 242.017 294.192C238.908 284.59 232.961 269.987 232.957 269.978L231.908 270.255L232.915 270.617C232.975 270.509 234.395 267.912 235.551 260.405C236.107 256.775 236.246 252.174 236.246 248.343C236.246 244.167 236.076 240.916 236.076 240.909L234.974 240.946L233.869 240.983C233.869 240.985 233.911 241.785 233.953 243.108C233.995 244.431 234.039 246.273 234.039 248.343C234.039 252.135 233.894 256.697 233.357 260.187C232.791 263.878 232.162 266.331 231.682 267.848C231.442 268.607 231.238 269.131 231.099 269.459C231.031 269.623 230.975 269.738 230.942 269.809L230.905 269.882L230.898 269.894L231.163 269.987L230.9 269.891L230.898 269.894L231.163 269.987L230.9 269.891C230.788 270.092 230.772 270.322 230.858 270.53C230.861 270.536 231.517 272.15 232.511 274.664C234.004 278.437 236.246 284.22 238.142 289.553C239.09 292.219 239.949 294.771 240.581 296.896C241.215 299.011 241.617 300.734 241.659 301.598L241.668 301.972C241.674 304.383 240.457 307.287 238.219 309.932C235.986 312.579 232.749 314.966 228.797 316.432C224.931 317.87 221.257 318.501 218.297 318.501C216.62 318.501 215.174 318.297 214.065 317.947C212.949 317.595 212.191 317.11 211.767 316.568C209.573 313.764 190.376 288.927 187.071 284.893C185.668 283.197 184.155 279.826 183.057 275.596C181.948 271.362 181.217 266.242 181.217 260.931C181.217 260.249 181.23 259.563 181.254 258.876C181.668 247.335 181.931 232.612 187.8 219.435C190.703 212.966 195.329 209.969 200.361 208.412C205.4 206.863 210.892 206.861 215.268 206.717C215.492 206.71 215.713 206.706 215.931 206.706C219.837 206.712 223.4 207.875 226.493 210.289C229.579 212.705 232.168 216.405 233.894 221.439C235.073 224.88 235.469 228.178 235.469 231.043C235.469 233.896 235.078 236.321 234.687 238.022C234.492 238.873 234.298 239.545 234.152 239.999C234.081 240.227 234.022 240.401 233.98 240.514L233.92 240.678L233.869 240.983L234.974 240.946Z" fill="#17282F"/>
<path d="M206.764 306.703L206.76 306.689C206.725 306.575 206.541 305.911 206.541 304.957C206.541 303.832 206.795 302.315 207.807 300.777C208.825 299.239 210.591 297.653 213.78 296.363C214.616 296.027 215.446 295.88 216.312 295.878C218.278 295.871 220.496 296.695 222.681 298.043C225.959 300.056 229.094 303.172 231.37 305.772C232.51 307.074 233.44 308.247 234.082 309.092C234.405 309.515 234.655 309.856 234.822 310.089C234.993 310.323 235.077 310.446 235.077 310.446C235.373 310.875 236.044 311.03 236.577 310.792C237.111 310.554 237.303 310.014 237.007 309.584C236.99 309.559 234.383 305.772 230.554 301.946C228.639 300.033 226.419 298.109 224.024 296.633C221.63 295.164 219.034 294.111 216.312 294.102C215.126 294.102 213.929 294.313 212.789 294.775C209.232 296.205 207.076 298.084 205.854 299.946C204.63 301.806 204.332 303.623 204.332 304.957C204.334 306.255 204.613 307.108 204.63 307.161C204.787 307.635 205.392 307.918 205.982 307.79C206.572 307.664 206.921 307.177 206.764 306.703Z" fill="#17282F"/>
<path d="M201.492 267.676C197.272 269.003 192.776 271.083 190.274 274.477C189.964 274.9 190.139 275.444 190.665 275.694C191.19 275.943 191.868 275.801 192.178 275.38C194.246 272.536 198.299 270.575 202.293 269.331C202.861 269.152 203.142 268.637 202.921 268.18C202.7 267.724 202.059 267.497 201.492 267.676Z" fill="#17282F"/>
<path d="M212.146 265.514C212.113 265.518 210.136 265.688 207.33 266.225C206.738 266.338 206.371 266.818 206.513 267.296C206.654 267.772 207.251 268.067 207.843 267.953C209.184 267.695 210.326 267.527 211.13 267.422C211.532 267.37 211.85 267.335 212.064 267.312C212.279 267.289 212.38 267.28 212.382 267.28C212.988 267.228 213.427 266.79 213.363 266.303C213.297 265.814 212.754 265.461 212.146 265.514Z" fill="#17282F"/>
<path d="M198.244 275.953C198.257 275.95 200.415 275.358 203.086 274.488C205.761 273.612 208.927 272.477 211.061 271.305C211.565 271.028 211.693 270.475 211.348 270.07C211.001 269.665 210.314 269.562 209.811 269.839C207.968 270.861 204.86 271.996 202.256 272.841C200.952 273.266 199.766 273.625 198.911 273.877C198.054 274.129 197.532 274.271 197.53 274.271C196.954 274.429 196.644 274.934 196.841 275.397C197.038 275.863 197.665 276.111 198.244 275.953Z" fill="#17282F"/>
<path d="M183.852 407.218C183.852 407.218 188.634 371.682 201.129 346.577C213.624 321.471 230.937 310.188 236.846 305.875C242.76 301.56 249.564 294.747 249.564 294.747L259.49 279.19C259.49 279.19 260.683 253.235 260.274 245.433C259.863 237.632 262.066 221.103 275.374 201.729C288.677 182.357 298.318 180.796 304.358 178.945C310.4 177.094 323.36 180.357 327.151 184.341C330.942 188.325 314.003 216.46 314.5 225.905C314.994 235.349 311.433 255.213 310.32 272.939C309.204 290.665 310.587 299.598 306.794 327.1C303.003 354.601 299.016 378.424 299.016 378.424" fill="white"/>
<path d="M184.95 407.314C184.95 407.313 185.025 406.767 185.178 405.751C186.253 398.642 191.295 368.712 202.157 346.908C208.358 334.443 215.745 325.429 222.311 318.991C228.883 312.552 234.607 308.71 237.589 306.532C243.605 302.141 250.407 295.32 250.427 295.303L250.548 295.152L260.474 279.595L260.595 279.224C260.595 279.217 261.466 260.319 261.466 249.897C261.466 248.103 261.439 246.561 261.377 245.396C261.351 244.859 261.335 244.28 261.335 243.659C261.333 235.44 264.068 220.025 276.34 202.157C282.945 192.54 288.596 187.411 293.27 184.465C297.956 181.519 301.647 180.725 304.751 179.774C305.768 179.46 307.113 179.298 308.631 179.3C311.712 179.296 315.483 179.955 318.799 181.005C322.117 182.041 324.987 183.504 326.275 184.881C326.414 185.004 326.611 185.48 326.602 186.236C326.611 187.903 325.815 190.713 324.583 194.017C322.738 198.985 319.952 205.133 317.622 210.875C315.293 216.632 313.4 221.931 313.385 225.484L313.396 225.942C313.427 226.537 313.442 227.176 313.442 227.859C313.446 237.777 310.265 256.267 309.218 272.893C308.1 290.693 309.483 299.55 305.697 327.002C303.801 340.747 301.857 353.574 300.388 362.965C299.653 367.66 299.036 371.495 298.603 374.158C298.17 376.821 297.923 378.302 297.921 378.307C297.841 378.792 298.265 379.239 298.868 379.305C299.474 379.371 300.03 379.03 300.11 378.544C300.112 378.54 304.1 354.711 307.893 327.198C311.692 299.647 310.312 290.636 311.423 272.984C312.461 256.446 315.647 238.024 315.651 227.859C315.651 227.155 315.636 226.491 315.603 225.867L315.594 225.484C315.587 223.446 316.387 220.391 317.617 216.917C319.46 211.696 322.243 205.49 324.572 199.882C325.736 197.075 326.787 194.42 327.554 192.095C328.318 189.766 328.807 187.785 328.811 186.236C328.8 185.299 328.654 184.481 328.029 183.801C326.277 181.98 323.153 180.479 319.606 179.351C316.055 178.234 312.088 177.527 308.631 177.524C306.925 177.525 305.337 177.696 303.965 178.113C301.027 179.016 296.88 179.927 291.907 183.068C286.928 186.208 281.107 191.546 274.407 201.299C261.941 219.455 259.126 235.141 259.126 243.659C259.126 244.303 259.142 244.909 259.17 245.471C259.23 246.593 259.256 248.119 259.256 249.897C259.256 255.073 259.038 262.393 258.821 268.415C258.713 271.424 258.605 274.111 258.523 276.044C258.441 277.978 258.388 279.154 258.388 279.158L259.491 279.19L258.508 278.785L248.582 294.342L249.565 294.747L248.703 294.191C248.703 294.192 248.286 294.61 247.561 295.312C245.388 297.413 240.461 302.042 236.105 305.216C233.178 307.353 227.288 311.309 220.603 317.865C213.912 324.425 206.396 333.605 200.105 346.247C187.53 371.531 182.765 407.085 182.754 407.124C182.688 407.611 183.127 408.049 183.733 408.101C184.34 408.154 184.884 407.802 184.95 407.314Z" fill="#17282F"/>
<path d="M321.788 181.06C321.762 181.058 320.147 180.927 317.933 180.927C316.033 180.929 313.696 181.021 311.516 181.389C309.342 181.767 307.267 182.38 305.966 183.68C305.202 184.467 304.314 185.767 303.324 187.442C301.851 189.945 300.22 193.244 298.946 196.537C297.675 199.836 296.754 203.102 296.748 205.641C296.756 206.992 296.986 208.17 297.799 209.088C299.396 210.84 301.842 212.069 304.367 212.895C306.899 213.717 309.516 214.131 311.597 214.133C312.644 214.13 313.555 214.037 314.339 213.76C314.893 213.559 315.143 213.034 314.891 212.586C314.642 212.138 313.988 211.939 313.431 212.14C313.126 212.257 312.45 212.362 311.597 212.357C309.883 212.36 307.46 211.989 305.195 211.248C302.922 210.513 300.812 209.403 299.584 208.042C299.224 207.666 298.946 206.809 298.957 205.641C298.946 202.706 300.496 198.049 302.394 193.882C303.342 191.793 304.371 189.812 305.321 188.201C306.262 186.595 307.153 185.336 307.703 184.778C308.396 184.041 310.018 183.448 311.968 183.128C313.912 182.797 316.128 182.703 317.933 182.703C318.987 182.703 319.901 182.735 320.549 182.765C320.873 182.781 321.132 182.797 321.306 182.808L321.567 182.828C322.175 182.876 322.716 182.52 322.776 182.032C322.837 181.543 322.393 181.108 321.788 181.06Z" fill="#17282F"/>
<path d="M309.925 239.387C309.898 239.385 306.673 239.039 303.163 239.037C300.613 239.047 297.956 239.191 296.025 239.918C295.475 240.129 295.243 240.66 295.506 241.103C295.771 241.545 296.429 241.731 296.979 241.52C298.241 241.017 300.766 240.804 303.163 240.813C304.828 240.813 306.454 240.898 307.658 240.982C308.261 241.024 308.758 241.065 309.103 241.097C309.448 241.127 309.633 241.149 309.633 241.149C310.239 241.213 310.793 240.872 310.875 240.385C310.954 239.898 310.53 239.452 309.925 239.387Z" fill="#17282F"/>
<path d="M291.214 244.367C291.293 244.391 296.22 246.177 302.264 246.185C303.956 246.185 305.739 246.042 307.524 245.671C308.114 245.549 308.469 245.064 308.317 244.589C308.162 244.113 307.561 243.827 306.969 243.952C305.399 244.279 303.801 244.408 302.264 244.408C299.516 244.408 296.958 243.991 295.1 243.572C294.17 243.362 293.414 243.152 292.897 242.996C292.639 242.92 292.44 242.854 292.307 242.811L292.117 242.746C291.561 242.545 290.909 242.746 290.659 243.193C290.41 243.641 290.657 244.167 291.214 244.367Z" fill="#17282F"/>
<path d="M287.851 253.41C287.909 253.499 288.55 254.483 290.195 255.455C291.839 256.427 294.49 257.359 298.396 257.356C299.787 257.356 301.336 257.238 303.061 256.97C303.66 256.878 304.053 256.411 303.936 255.929C303.821 255.448 303.24 255.133 302.642 255.226C301.042 255.474 299.633 255.579 298.396 255.579C294.918 255.574 292.793 254.778 291.501 254.021C290.858 253.641 290.425 253.268 290.16 252.998L289.882 252.684L289.826 252.611L289.818 252.6L289.407 252.776L289.824 252.608L289.818 252.6L289.407 252.776L289.824 252.608C289.548 252.171 288.883 251.995 288.34 252.217C287.794 252.439 287.578 252.972 287.851 253.41Z" fill="#17282F"/>
<defs>
<linearGradient id="paint0_linear_79_578" x1="0.827148" y1="0" x2="157.309" y2="590.072" gradientUnits="userSpaceOnUse">
<stop stop-color="#DE1F1F" stop-opacity="0.5"/>
<stop offset="0.361528" stop-color="#671FDE" stop-opacity="0.5"/>
<stop offset="0.663293" stop-color="#221FDE" stop-opacity="0.5"/>
<stop offset="1" stop-color="#00A3FF" stop-opacity="0.5"/>
</linearGradient>
<linearGradient id="paint1_linear_79_578" x1="232.143" y1="280.855" x2="317.087" y2="63.1143" gradientUnits="userSpaceOnUse">
<stop stop-color="#DE1F1F"/>
<stop offset="0.382402" stop-color="#671FDE"/>
<stop offset="0.713003" stop-color="#221FDE"/>
<stop offset="1" stop-color="#00A3FF"/>
</linearGradient>
</defs>
</svg>
