<svg width="345" height="471" viewBox="0 0 345 471" fill="none" xmlns="http://www.w3.org/2000/svg">
<path fill-rule="evenodd" clip-rule="evenodd" d="M268.912 146.071C259.304 146.129 254.693 151.071 255.074 160.897C241.958 168.117 228.779 175.365 215.538 182.642C207.789 185.238 199.882 187.214 191.817 188.572C176.002 189.231 160.188 189.891 144.374 190.549C161.445 198.452 179.236 204.383 197.747 208.34C220.057 223.627 231.26 245.044 231.353 272.586C228.712 279.185 226.076 285.773 223.445 292.354C221.389 300.815 221.061 309.38 222.457 318.052C223.202 320.903 224.849 322.88 227.399 323.983C228.225 325.41 229.542 326.398 231.353 326.948C224.643 337.682 217.725 348.554 210.596 359.565C204.537 366.62 197.619 372.551 189.84 377.356C192.791 378.623 194.768 380.6 195.77 383.287C150.156 389.636 116.22 372.503 93.9654 331.89C83.7691 302.007 82.4525 271.695 90.0118 240.957C98.7018 223.583 106.281 205.792 112.745 187.584C108.378 178.216 103.436 168.99 97.919 159.909C96.9503 157.353 96.6202 154.716 96.9306 152.002C96.6716 150.541 97.0017 149.222 97.919 148.048C108.94 153.923 119.154 152.935 128.559 145.083C127.67 142.543 126.351 140.236 124.606 138.164C118.146 136.213 111.555 135.555 104.838 136.187C104.308 133.027 104.968 130.391 106.815 128.28C116.459 133.703 125.683 133.044 134.49 126.303C137.152 124.977 139.459 124.977 141.408 126.303C142.377 123.747 142.707 121.11 142.397 118.396C145.032 118.396 147.669 118.396 150.304 118.396C147.487 121.207 145.51 124.503 144.374 128.28C143.055 128.28 142.397 128.939 142.397 130.257C145.032 132.892 147.669 135.529 150.304 138.164C147.681 150.369 152.293 154.653 164.142 151.013C170.77 147.698 176.7 143.417 181.933 138.164C185.236 134.191 186.554 129.579 185.886 124.327C188.007 105.735 195.254 89.5904 207.631 75.8952C226.094 67.0174 242.237 69.9826 256.062 84.7908C270.784 103.422 275.065 123.848 268.912 146.071Z" fill="#FCFBFB"/>
<path fill-rule="evenodd" clip-rule="evenodd" d="M340.078 266.655C333.316 270.558 326.725 274.841 320.31 279.505C300.526 279.941 280.759 279.941 261.006 279.505C251.878 285.336 243.31 291.927 235.308 299.272C232.078 300.249 228.783 300.577 225.424 300.261C225.954 297.1 225.294 294.465 223.447 292.354C226.078 285.773 228.714 279.184 231.354 272.586C239.469 263.489 249.023 256.24 260.018 250.841C261.337 248.206 261.337 245.569 260.018 242.934C251.514 227.256 245.255 210.783 241.238 193.514C243.279 185.152 247.562 177.903 254.088 171.769C260.075 163.74 265.017 155.174 268.914 146.071C275.067 123.848 270.786 103.422 256.064 84.7904C242.239 69.9822 226.096 67.0171 207.633 75.8948C195.256 89.5901 188.009 105.735 185.888 124.326C184.376 125.162 182.729 125.823 180.946 126.303C176.475 123.905 172.191 121.27 168.097 118.396C163.258 116.472 157.986 115.814 152.283 116.419C151.555 99.389 145.625 84.5631 134.492 71.9412C119.78 69.9071 108.908 75.5094 101.875 88.744C93.4514 107.634 90.8144 127.402 93.9674 148.048C94.5169 149.859 95.5053 151.175 96.9326 152.001C96.6222 154.716 96.9523 157.353 97.921 159.909C103.438 168.99 108.38 178.216 112.747 187.584C106.283 205.792 98.7038 223.583 90.0138 240.957C82.4545 271.694 83.7711 302.006 93.9674 331.89C116.222 372.503 150.158 389.636 195.772 383.286C205.986 382.873 215.87 380.896 225.424 377.356C226.656 394.384 230.279 410.859 236.296 426.776C237.283 435.978 237.613 445.201 237.285 454.451C235.909 447.075 234.592 439.496 233.331 431.718C226.794 429.179 220.203 426.544 213.563 423.81C201.602 423.296 189.741 421.978 177.981 419.857C173.678 417.512 171.701 413.889 172.051 408.985C166.739 408.66 161.467 408.99 156.236 409.973C142.62 415.613 128.783 420.885 114.724 425.787C99.3976 428.857 84.2415 431.164 69.2575 432.706C63.2856 426.104 59.6621 418.196 58.3851 408.985C56.2264 396.566 54.9099 384.045 54.4315 371.425C51.8024 364.493 46.8604 361.199 39.6055 361.541C43.6244 342.962 51.8617 326.487 64.3155 312.122C66.5453 308.474 67.5337 304.521 67.2807 300.261C66.4544 298.834 65.1378 297.845 63.3271 297.296C66.3456 291.846 67.6622 285.915 67.2807 279.505C66.9505 275.221 66.6224 270.939 66.2923 266.655C60.4489 273.491 54.1884 280.082 47.5127 286.423C39.9297 301.267 33.9994 316.753 29.7216 332.878C27.3297 336.521 24.6946 338.17 21.8144 337.82C4.78434 312.201 3.79594 285.844 18.8492 258.748C35.2744 242.979 51.0887 226.507 66.2923 209.328C72.7208 199.773 78.6512 189.889 84.0834 179.676C80.622 162.502 78.3151 145.039 77.1646 127.291C76.3818 107.229 82.6423 89.768 95.9442 74.9064C115.544 50.7935 140.254 34.9792 170.074 27.4634C169.256 11.8823 176.504 3.97513 191.819 3.74187C191.196 7.15381 190.868 10.4491 190.83 13.6258C195.189 8.60478 200.131 4.32107 205.656 0.776679C211.197 -0.7158 216.469 -0.0575283 221.471 2.75347C223.554 5.49726 223.882 8.46245 222.459 11.649C218.756 16.0158 214.473 19.6392 209.61 22.5214C260.251 26.8881 295.505 52.2563 315.368 98.628C317.29 105.738 318.278 112.987 318.333 120.373C316.325 143.23 312.702 165.633 307.461 187.584C326.849 205.272 339.038 227.017 344.032 252.818C344.15 258.066 342.832 262.68 340.078 266.655Z" fill="#332F2F"/>
<path fill-rule="evenodd" clip-rule="evenodd" d="M268.914 146.071C265.018 155.174 260.076 163.74 254.088 171.77C247.563 177.904 243.279 185.152 241.239 193.514C245.256 210.784 251.514 227.256 260.018 242.934C261.337 245.569 261.337 248.206 260.018 250.841C249.023 256.24 239.47 263.489 231.355 272.586C231.262 245.043 220.059 223.627 197.749 208.34C179.239 204.383 161.448 198.452 144.376 190.549C160.19 189.891 176.005 189.231 191.819 188.572C199.884 187.214 207.792 185.237 215.541 182.642C228.781 175.365 241.96 168.116 255.076 160.897C254.695 151.071 259.307 146.129 268.914 146.071Z" fill="#F1EFF1"/>
<path fill-rule="evenodd" clip-rule="evenodd" d="M168.097 118.396C172.191 121.27 176.474 123.906 180.946 126.303C182.729 125.823 184.376 125.163 185.888 124.327C186.556 129.579 185.238 134.191 181.934 138.164C176.702 143.416 170.771 147.698 164.143 151.013C152.294 154.653 147.682 150.369 150.306 138.164C154.674 138.192 159.288 138.85 164.143 140.141C161.631 144.745 157.677 147.05 152.282 147.06C153.929 147.39 155.578 147.718 157.224 148.048C164.108 143.822 171.026 139.538 177.981 135.199C166.411 131.734 154.55 130.087 142.398 130.257C142.398 128.938 143.057 128.28 144.375 128.28C147.926 125.724 151.221 122.759 154.259 119.385C158.826 118.402 163.437 118.074 168.097 118.396Z" fill="#EC9454"/>
<path fill-rule="evenodd" clip-rule="evenodd" d="M142.398 130.257C154.55 130.087 166.411 131.734 177.981 135.199C171.026 139.538 164.108 143.822 157.224 148.048C155.578 147.718 153.929 147.39 152.282 147.06C157.677 147.05 161.631 144.745 164.143 140.141C159.288 138.85 154.674 138.192 150.306 138.164C147.671 135.529 145.034 132.892 142.398 130.257Z" fill="#CE5A24"/>
<path fill-rule="evenodd" clip-rule="evenodd" d="M152.283 116.419C157.986 115.815 163.258 116.473 168.097 118.396C163.438 118.074 158.826 118.402 154.26 119.385C151.222 122.759 147.926 125.724 144.376 128.28C145.513 124.503 147.489 121.207 150.306 118.396C151.625 118.396 152.283 117.738 152.283 116.419Z" fill="#D6A978"/>
<path fill-rule="evenodd" clip-rule="evenodd" d="M217.516 98.6283C236.691 100.048 242.949 109.932 236.295 128.28C226.51 134.126 217.285 133.465 208.62 126.303C207.642 122.403 207.312 118.45 207.632 114.443C219.586 115.417 222.221 111.134 215.539 101.594C216.638 100.836 217.297 99.848 217.516 98.6283Z" fill="#302D2E"/>
<path fill-rule="evenodd" clip-rule="evenodd" d="M134.493 126.303C125.686 133.044 116.462 133.702 106.817 128.28C105.1 123.897 104.441 119.285 104.841 114.442C114.541 114.377 117.176 109.765 112.748 100.605C117.225 98.3373 121.837 98.0072 126.585 99.6163C135.997 106.585 138.632 115.48 134.493 126.303Z" fill="#2D2D2D"/>
<path fill-rule="evenodd" clip-rule="evenodd" d="M152.281 116.419C152.281 117.738 151.623 118.396 150.304 118.396C147.669 118.396 145.032 118.396 142.397 118.396C142.707 121.11 142.377 123.747 141.409 126.303C139.459 124.977 137.153 124.977 134.49 126.303C138.629 115.48 135.994 106.585 126.583 99.6167C121.834 98.0076 117.223 98.3377 112.745 100.605C117.173 109.766 114.538 114.377 104.838 114.443C104.439 119.286 105.097 123.898 106.815 128.28C104.968 130.391 104.308 133.026 104.838 136.187C111.555 135.555 118.146 136.213 124.606 138.164C126.351 140.236 127.67 142.543 128.559 145.083C119.154 152.935 108.94 153.923 97.9191 148.048C97.0019 149.222 96.6718 150.541 96.9307 152.002C95.5035 151.175 94.5151 149.859 93.9655 148.048C90.8126 127.403 93.4496 107.635 101.873 88.7443C108.906 75.5097 119.779 69.9075 134.49 71.9416C145.623 84.5634 151.553 99.3894 152.281 116.419Z" fill="#F2F0F0"/>
<path fill-rule="evenodd" clip-rule="evenodd" d="M67.2807 300.261C62.141 303.066 57.1991 306.36 52.4548 310.145C45.7831 321.186 38.8643 332.058 31.6984 342.762C27.4127 343.254 24.1174 341.608 21.8145 337.82C24.6946 338.17 27.3297 336.522 29.7216 332.878C33.9994 316.754 39.9298 301.267 47.5128 286.424C54.1884 280.082 60.4489 273.491 66.2923 266.656C66.6224 270.939 66.9506 275.221 67.2807 279.505C67.6622 285.916 66.3457 291.846 63.3271 297.296C65.1379 297.846 66.4544 298.834 67.2807 300.261Z" fill="#242223"/>
<path fill-rule="evenodd" clip-rule="evenodd" d="M340.08 266.656C337.241 275.591 333.946 284.156 330.196 292.354C328.768 291.528 327.78 290.211 327.231 288.4C311.037 300.058 292.915 305.988 272.869 306.192C266.727 305.897 260.796 306.885 255.078 309.157C245.98 314.7 236.757 319.642 227.402 323.983C224.852 322.88 223.206 320.903 222.46 318.052C221.065 309.38 221.393 300.815 223.449 292.354C225.295 294.465 225.955 297.1 225.426 300.261C228.784 300.577 232.08 300.249 235.31 299.273C243.312 291.927 251.879 285.336 261.008 279.505C280.76 279.942 300.528 279.942 320.312 279.505C326.726 274.842 333.317 270.558 340.08 266.656Z" fill="#242122"/>
<path fill-rule="evenodd" clip-rule="evenodd" d="M272.867 306.192C273.318 319.777 270.023 332.298 262.983 343.751C255.635 355.711 245.751 364.936 233.331 371.426C230.619 373.427 227.984 375.404 225.424 377.357C215.87 380.897 205.986 382.874 195.772 383.287C194.77 380.601 192.793 378.624 189.842 377.357C197.62 372.551 204.539 366.621 210.598 359.565C217.726 348.555 224.645 337.682 231.354 326.948C229.544 326.399 228.227 325.41 227.401 323.983C236.755 319.642 245.979 314.7 255.076 309.157C260.795 306.886 266.725 305.898 272.867 306.192Z" fill="#F0EEF0"/>
<path fill-rule="evenodd" clip-rule="evenodd" d="M330.193 292.354C341.451 317.722 345.405 344.079 342.054 371.426C342.365 368.712 342.034 366.075 341.066 363.519C340.407 367.472 339.747 371.426 339.089 375.379C338.431 374.061 337.77 372.744 337.112 371.426C333.25 378.847 329.626 386.094 326.24 393.171C325.287 391.36 324.629 389.383 324.263 387.24C327.463 381.029 328.78 374.44 328.217 367.472C322.944 367.472 317.674 367.472 312.402 367.472C312.402 356.93 312.402 346.386 312.402 335.843C307.13 335.843 301.86 335.843 296.588 335.843C297.819 330.902 298.48 325.96 298.565 321.018C295.93 319.699 293.293 319.699 290.658 321.018C293.569 322.421 294.888 324.726 294.611 327.936C292.634 327.936 290.658 327.936 288.681 327.936C288.918 333.284 286.941 334.602 282.75 331.89C281.556 337.352 278.919 341.966 274.843 345.727C276.162 347.704 277.478 349.681 278.797 351.658C277.808 352.316 276.82 352.976 275.832 353.635C271.166 350.59 266.885 347.295 262.982 343.751C270.022 332.297 273.317 319.776 272.866 306.192C292.913 305.988 311.034 300.058 327.228 288.4C327.778 290.211 328.766 291.528 330.193 292.354Z" fill="#353233"/>
<path fill-rule="evenodd" clip-rule="evenodd" d="M326.24 393.171C316.528 411.769 303.021 425.606 285.716 434.684C282.492 439.537 282.164 444.479 284.728 449.51C282.917 450.059 281.6 451.048 280.774 452.475C279.373 454.262 277.396 454.92 274.844 454.452C286.04 430.732 290.982 405.692 289.67 379.333C285.303 374.973 280.361 374.312 274.844 377.357C264.335 355.918 255.109 356.579 247.169 379.333C242.691 376.117 238.077 373.48 233.331 371.426C245.751 364.936 255.635 355.711 262.983 343.751C266.885 347.296 271.167 350.591 275.832 353.635C276.821 352.977 277.809 352.317 278.797 351.658C277.479 349.682 276.162 347.705 274.844 345.728C278.92 341.966 281.557 337.352 282.751 331.89C286.942 334.603 288.918 333.284 288.681 327.937C290.658 327.937 292.635 327.937 294.612 327.937C294.888 324.727 293.57 322.422 290.658 321.018C293.293 319.7 295.93 319.7 298.565 321.018C298.48 325.96 297.82 330.902 296.588 335.844C301.861 335.844 307.131 335.844 312.403 335.844C312.403 346.386 312.403 356.93 312.403 367.473C317.675 367.473 322.945 367.473 328.217 367.473C328.781 374.441 327.464 381.03 324.264 387.241C324.629 389.383 325.288 391.36 326.24 393.171Z" fill="#36302D"/>
<path fill-rule="evenodd" clip-rule="evenodd" d="M39.606 361.542C46.8608 361.2 51.8028 364.493 54.432 371.426C54.9103 384.046 56.2269 396.567 58.3855 408.985C59.6625 418.197 63.286 426.104 69.2579 432.706C70.8413 435.755 71.4996 439.048 71.2347 442.59C71.9681 456.446 65.3794 461.388 51.4668 457.416C33.2506 447.437 19.4131 433.272 9.9541 414.915C13.8029 416.839 17.7565 418.815 21.8149 420.846C28.3837 427.328 34.9724 433.918 41.5828 440.614C49.8853 441.47 57.4644 442.13 64.3159 442.59C61.2005 436.5 58.5634 429.911 56.4087 422.822C54.6889 414.275 53.0423 405.707 51.4668 397.124C49.8992 396.272 48.2505 395.612 46.5248 395.147C40.7229 398.492 34.4624 399.809 27.7452 399.101C26.4267 391.194 25.1102 383.287 23.7917 375.379C20.5418 375.802 17.5766 375.142 14.8961 373.403C14.5185 377.767 13.5301 381.721 11.9309 385.263C9.52118 369.548 15.7797 364.276 30.7104 369.449C33.3811 366.448 36.3463 363.813 39.606 361.542Z" fill="#E39DA7"/>
<path fill-rule="evenodd" clip-rule="evenodd" d="M274.844 454.451C270.71 458.319 266.757 462.601 262.983 467.3C249.379 474.171 240.813 470.548 237.285 456.428C237.285 455.769 237.285 455.109 237.285 454.451C237.613 445.201 237.283 435.978 236.296 426.776C230.279 410.859 226.655 394.384 225.424 377.356C227.984 375.403 230.619 373.426 233.331 371.426C238.077 373.479 242.691 376.116 247.169 379.333C255.109 356.578 264.335 355.918 274.844 377.356C280.361 374.312 285.303 374.972 289.67 379.333C290.982 405.691 286.04 430.731 274.844 454.451Z" fill="#E39DA7"/>
<path fill-rule="evenodd" clip-rule="evenodd" d="M9.95352 414.915C2.76194 407.071 -0.531396 397.846 0.0695492 387.24C4.48768 387.823 8.44127 387.163 11.9303 385.263C13.5295 381.721 14.5179 377.767 14.8955 373.403C17.576 375.142 20.5412 375.802 23.7911 375.379C25.1096 383.287 26.4261 391.194 27.7447 399.101C34.4618 399.809 40.7223 398.492 46.5242 395.147C48.2499 395.612 49.8986 396.272 51.4662 397.124C53.0417 405.707 54.6884 414.275 56.4082 422.822C58.5629 429.911 61.1999 436.5 64.3153 442.59C57.4638 442.13 49.8847 441.47 41.5822 440.614C34.9718 433.918 28.3832 427.328 21.8143 420.846C17.7559 418.815 13.8023 416.839 9.95352 414.915Z" fill="#E39DA7"/>
<path fill-rule="evenodd" clip-rule="evenodd" d="M237.285 454.451C237.285 455.109 237.285 455.769 237.285 456.428C222.772 454.445 208.276 452.468 193.796 450.497C181.763 447.435 169.244 446.117 156.237 446.544C146.657 446.546 137.433 447.204 128.562 448.52C113.392 448.849 98.2356 448.52 83.0954 447.532C79.3256 445.314 75.372 443.667 71.2346 442.59C71.4995 439.048 70.8412 435.754 69.2578 432.706C84.2419 431.164 99.398 428.857 114.724 425.787C128.783 420.885 142.621 415.613 156.237 409.973C161.467 408.991 166.739 408.66 172.051 408.985C171.701 413.889 173.678 417.512 177.981 419.857C189.741 421.978 201.602 423.297 213.564 423.811C220.204 426.544 226.794 429.179 233.332 431.718C234.593 439.496 235.909 447.075 237.285 454.451Z" fill="#252121"/>
<path fill-rule="evenodd" clip-rule="evenodd" d="M342.054 371.426C338.093 399.447 325.574 422.838 304.495 441.602C297.292 446.852 289.384 450.476 280.773 452.474C281.6 451.047 282.916 450.059 284.727 449.509C282.163 444.478 282.491 439.536 285.715 434.683C303.02 425.606 316.528 411.768 326.24 393.17C329.626 386.094 333.249 378.847 337.112 371.426C337.77 372.744 338.431 374.061 339.089 375.379C339.747 371.426 340.407 367.472 341.066 363.519C342.034 366.075 342.364 368.712 342.054 371.426Z" fill="#23211F"/>
</svg>
