<svg width="78" height="24" viewBox="0 0 78 24" fill="none" xmlns="http://www.w3.org/2000/svg">
<path d="M20.2575 16.6983L20.2574 16.6976C20.1044 15.8061 20.4013 14.8969 21.0541 14.2665L24.4675 10.9656C25.5073 9.95964 24.9393 8.19948 23.4901 7.99011C23.4901 7.9901 23.49 7.99009 23.49 7.99009L18.7728 7.31038C17.8739 7.18123 17.0947 6.62078 16.6922 5.80898L14.5825 1.56914L14.5825 1.56903C14.26 0.920469 13.6365 0.595215 13.0002 0.595215C12.3653 0.595215 11.7417 0.920338 11.4191 1.56903L11.4191 1.56914L9.30939 5.80898C9.30931 5.80915 9.30923 5.80931 9.30915 5.80947C8.9066 6.621 8.12752 7.18126 7.22877 7.31038L2.51163 7.99009C2.51158 7.99009 2.51153 7.9901 2.51148 7.99011C1.06229 8.19948 0.49428 9.95955 1.53399 10.9655L20.2575 16.6983ZM20.2575 16.6983L21.0637 21.3602L21.0638 21.3603C21.2572 22.4775 20.3643 23.4047 19.3264 23.4047C19.0592 23.4047 18.7797 23.3419 18.5038 23.1983C18.5038 23.1983 18.5037 23.1982 18.5036 23.1982L14.2852 20.9972L14.2844 20.9967C13.8821 20.7877 13.4416 20.6833 13.0002 20.6833C12.5598 20.6833 12.1194 20.7878 11.7172 20.9967L11.7164 20.9972L7.49799 23.1982C7.22201 23.3419 6.9425 23.4047 6.67517 23.4047C5.6373 23.4047 4.74441 22.4775 4.93784 21.3603L4.93786 21.3602L5.74411 16.6983L5.74422 16.6976C5.89716 15.8062 5.60033 14.8971 4.94775 14.2667C4.94767 14.2667 4.94759 14.2666 4.94751 14.2665L1.53407 10.9656L20.2575 16.6983Z" fill="#F1F1F1" stroke="#671FDE"/>
<path d="M33.257 16.6983L33.2569 16.6976C33.1039 15.8061 33.4009 14.8969 34.0536 14.2665L37.467 10.9656C38.5069 9.95964 37.9389 8.19948 36.4896 7.99011C36.4896 7.9901 36.4895 7.99009 36.4895 7.99009L31.7723 7.31038C30.8734 7.18123 30.0942 6.62078 29.6917 5.80898L27.582 1.56914L27.582 1.56903C27.2595 0.920469 26.636 0.595215 25.9997 0.595215C25.3648 0.595215 24.7412 0.920338 24.4186 1.56903L24.4186 1.56914L22.3089 5.80898C22.3088 5.80915 22.3087 5.80931 22.3087 5.80947C21.9061 6.621 21.127 7.18126 20.2283 7.31038L15.5111 7.99009C15.5111 7.99009 15.511 7.9901 15.511 7.99011C14.0618 8.19948 13.4938 9.95955 14.5335 10.9655L33.257 16.6983ZM33.257 16.6983L34.0633 21.3602L34.0633 21.3603C34.2567 22.4775 33.3638 23.4047 32.3259 23.4047C32.0587 23.4047 31.7793 23.3419 31.5034 23.1983C31.5033 23.1983 31.5032 23.1982 31.5031 23.1982L27.2847 20.9972L27.2839 20.9967C26.8816 20.7877 26.4411 20.6833 25.9997 20.6833C25.5593 20.6833 25.1189 20.7878 24.7167 20.9967L24.7159 20.9972L20.4975 23.1982C20.2215 23.3419 19.942 23.4047 19.6747 23.4047C18.6368 23.4047 17.7439 22.4775 17.9374 21.3603L17.9374 21.3602L18.7436 16.6983L18.7437 16.6976C18.8967 15.8062 18.5998 14.8971 17.9473 14.2667C17.9472 14.2667 17.9471 14.2666 17.947 14.2665L14.5336 10.9656L33.257 16.6983Z" fill="#F1F1F1" stroke="#DE1F1F"/>
<path d="M46.257 16.6983L46.2569 16.6976C46.1039 15.8061 46.4009 14.8969 47.0536 14.2665L50.467 10.9656C51.5069 9.95964 50.9389 8.19948 49.4896 7.99011C49.4896 7.9901 49.4895 7.99009 49.4895 7.99009L44.7723 7.31038C43.8734 7.18123 43.0942 6.62078 42.6917 5.80898L40.582 1.56914L40.582 1.56903C40.2595 0.920469 39.636 0.595215 38.9997 0.595215C38.3648 0.595215 37.7412 0.920338 37.4186 1.56903L37.4186 1.56914L35.3089 5.80898C35.3088 5.80915 35.3087 5.80931 35.3087 5.80947C34.9061 6.621 34.127 7.18126 33.2283 7.31038L28.5111 7.99009C28.5111 7.99009 28.511 7.9901 28.511 7.99011C27.0618 8.19948 26.4938 9.95955 27.5335 10.9655L46.257 16.6983ZM46.257 16.6983L47.0633 21.3602L47.0633 21.3603C47.2567 22.4775 46.3638 23.4047 45.3259 23.4047C45.0587 23.4047 44.7793 23.3419 44.5034 23.1983C44.5033 23.1983 44.5032 23.1982 44.5031 23.1982L40.2847 20.9972L40.2839 20.9967C39.8816 20.7877 39.4411 20.6833 38.9997 20.6833C38.5593 20.6833 38.1189 20.7878 37.7167 20.9967L37.7159 20.9972L33.4975 23.1982C33.2215 23.3419 32.942 23.4047 32.6747 23.4047C31.6368 23.4047 30.7439 22.4775 30.9374 21.3603L30.9374 21.3602L31.7436 16.6983L31.7437 16.6976C31.8967 15.8062 31.5998 14.8971 30.9473 14.2667C30.9472 14.2667 30.9471 14.2666 30.947 14.2665L27.5336 10.9656L46.257 16.6983Z" fill="#F1F1F1" stroke="#221FDE"/>
<path d="M59.2565 16.6983L59.2564 16.6976C59.1034 15.8061 59.4004 14.8969 60.0531 14.2665L63.4665 10.9656C64.5064 9.95964 63.9384 8.19948 62.4891 7.99011C62.4891 7.9901 62.489 7.99009 62.489 7.99009L57.7719 7.31038C56.8729 7.18123 56.0937 6.62078 55.6912 5.80898L53.5816 1.56914L53.5815 1.56903C53.259 0.920469 52.6355 0.595215 51.9992 0.595215C51.3643 0.595215 50.7407 0.920338 50.4181 1.56903L50.4181 1.56914L48.3084 5.80898C48.3083 5.80915 48.3083 5.80931 48.3082 5.80947C47.9056 6.621 47.1265 7.18126 46.2278 7.31038L41.5107 7.99009C41.5106 7.99009 41.5106 7.9901 41.5105 7.99011C40.0613 8.19948 39.4933 9.95955 40.533 10.9655L59.2565 16.6983ZM59.2565 16.6983L60.0628 21.3602L60.0628 21.3603C60.2562 22.4775 59.3633 23.4047 58.3255 23.4047C58.0582 23.4047 57.7788 23.3419 57.5029 23.1983C57.5028 23.1983 57.5027 23.1982 57.5026 23.1982L53.2842 20.9972L53.2834 20.9967C52.8811 20.7877 52.4407 20.6833 51.9992 20.6833C51.5588 20.6833 51.1184 20.7878 50.7162 20.9967L50.7154 20.9972L46.497 23.1982C46.221 23.3419 45.9415 23.4047 45.6742 23.4047C44.6363 23.4047 43.7434 22.4775 43.9369 21.3603L43.9369 21.3602L44.7431 16.6983L44.7432 16.6976C44.8962 15.8062 44.5994 14.8971 43.9468 14.2667C43.9467 14.2667 43.9466 14.2666 43.9465 14.2665L40.5331 10.9656L59.2565 16.6983Z" fill="#F1F1F1" stroke="#0072FD"/>
<path d="M72.256 16.6983L72.2559 16.6976C72.103 15.8061 72.3999 14.8969 73.0526 14.2665L76.4661 10.9656C77.5059 9.95964 76.9379 8.19948 75.4887 7.99011C75.4886 7.9901 75.4886 7.99009 75.4885 7.99009L70.7714 7.31038C69.8724 7.18123 69.0932 6.62078 68.6907 5.80898L66.5811 1.56914L66.581 1.56903C66.2585 0.920469 65.635 0.595215 64.9987 0.595215C64.3638 0.595215 63.7402 0.920338 63.4177 1.56903L63.4176 1.56914L61.3079 5.80898C61.3078 5.80915 61.3078 5.80931 61.3077 5.80947C60.9051 6.621 60.1261 7.18126 59.2273 7.31038L54.5102 7.99009C54.5101 7.99009 54.5101 7.9901 54.51 7.99011C53.0608 8.19948 52.4928 9.95955 53.5325 10.9655L72.256 16.6983ZM72.256 16.6983L73.0623 21.3602L73.0623 21.3603C73.2557 22.4775 72.3628 23.4047 71.325 23.4047C71.0577 23.4047 70.7783 23.3419 70.5024 23.1983C70.5023 23.1983 70.5022 23.1982 70.5021 23.1982L66.2838 20.9972L66.283 20.9967C65.8806 20.7877 65.4402 20.6833 64.9987 20.6833C64.5584 20.6833 64.1179 20.7878 63.7157 20.9967L63.7149 20.9972L59.4965 23.1982C59.2205 23.3419 58.941 23.4047 58.6737 23.4047C57.6358 23.4047 56.7429 22.4775 56.9364 21.3603L56.9364 21.3602L57.7426 16.6983L57.7428 16.6976C57.8957 15.8062 57.5989 14.8971 56.9463 14.2667C56.9462 14.2667 56.9461 14.2666 56.946 14.2665L53.5326 10.9656L72.256 16.6983Z" fill="#F1F1F1" stroke="#00A3FF"/>
</svg>
