<svg width="26" height="24" viewBox="0 0 26 24" fill="none" xmlns="http://www.w3.org/2000/svg">
<path fill-rule="evenodd" clip-rule="evenodd" d="M21.5679 14.5309C21.0342 15.0464 20.7917 15.7893 20.9167 16.5179L21.7229 21.1798C21.9742 22.631 20.8117 23.8095 19.4929 23.8095C19.1454 23.8095 18.7867 23.7274 18.4392 23.5464L14.2204 21.3452C13.8904 21.1738 13.5292 21.0881 13.1667 21.0881C12.8054 21.0881 12.4442 21.1738 12.1142 21.3452L7.89542 23.5464C7.54792 23.7274 7.18917 23.8095 6.84167 23.8095C5.52292 23.8095 4.36042 22.631 4.61167 21.1798L5.41792 16.5179C5.54292 15.7893 5.30042 15.0464 4.76667 14.5309L1.35292 11.2298C0.0104177 9.93095 0.751672 7.66786 2.60667 7.4L7.32417 6.72024C8.06167 6.61429 8.69918 6.15477 9.02793 5.49167L11.1379 1.25118C11.5529 0.416661 12.3604 0 13.1667 0C13.9742 0 14.7817 0.416661 15.1967 1.25118L17.3067 5.49167C17.6354 6.15477 18.2729 6.61429 19.0104 6.72024L23.7279 7.4C25.5829 7.66786 26.3242 9.93095 24.9817 11.2298L21.5679 14.5309Z" fill="#F1F1F1"/>
</svg>
