<svg width="30" height="30" viewBox="0 0 30 30" fill="none" xmlns="http://www.w3.org/2000/svg">
<circle cx="15" cy="15" r="15" fill="url(#paint0_linear_416_1495)"/>
<path fill-rule="evenodd" clip-rule="evenodd" d="M10.8 11.8536C10.8 11.373 10.4304 10.983 9.975 10.983H8.325C7.8696 10.983 7.5 11.373 7.5 11.8536C7.5 12.3341 7.8696 12.7242 8.325 12.7242H9.975C10.4304 12.7242 10.8 12.3341 10.8 11.8536ZM16.292 10.983C15.8358 10.983 15.467 11.373 15.467 11.8536C15.467 12.3341 15.8358 12.7242 16.292 12.7242H20.5293C20.8972 12.7242 21.0811 13.3066 20.8213 13.5808L19.4328 15.1026C19.1111 15.4421 19.1111 16.0445 19.4328 16.384C19.7554 16.7244 20.2776 16.727 20.5994 16.3867L23.5174 13.3083C24.1609 12.6293 24.1609 11.5271 23.5174 10.8472L23.2237 10.5355L20.6002 7.76103C20.2776 7.42064 19.7546 7.40931 19.4328 7.7497C19.1102 8.09009 19.1102 8.61853 19.4328 8.95893L20.8197 10.3536C21.0795 10.6278 20.8956 10.983 20.5276 10.983H16.292ZM12.1728 22.983L10.3933 19.5721C10.1689 19.2308 10.2126 18.7685 10.4914 18.4743C10.8495 18.0965 11.4518 18.1513 11.743 18.5883L12.45 19.6261V12.2305C12.45 11.75 12.8023 11.3573 13.2585 11.3573C13.8442 11.3573 14.0662 11.9171 14.0662 12.2244L14.0728 16.6095L17.6343 16.9438C18.4238 17.2215 18.8941 18.0059 18.7307 18.8669L18.4568 21.96C18.3026 22.774 17.6252 23.171 16.839 23.171H12.8501C12.5787 23.171 12.3271 23.2189 12.1728 22.983Z" fill="#020202"/>
<defs>
<linearGradient id="paint0_linear_416_1495" x1="0" y1="0" x2="32.5507" y2="3.08483" gradientUnits="userSpaceOnUse">
<stop stop-color="#DE1F1F" stop-opacity="0.3"/>
<stop offset="0.320089" stop-color="#671FDE" stop-opacity="0.3"/>
<stop offset="0.615065" stop-color="#0072FD" stop-opacity="0.3"/>
<stop offset="1" stop-color="#00A3FF" stop-opacity="0.3"/>
</linearGradient>
</defs>
</svg>
