<svg width="642" height="706" viewBox="0 0 642 706" fill="none" xmlns="http://www.w3.org/2000/svg">
<path d="M69 2.00001C69 -6.83655 76.1634 -14 85 -14H625C633.837 -14 641 -6.83656 641 2V622C641 630.837 633.837 638 625 638H85C76.1635 638 69 630.837 69 622V2.00001Z" fill="url(#paint0_linear_1887_696)" fill-opacity="0.8"/>
<path d="M753.5 476.962C753.5 476.962 502.728 446.868 480.932 438.647C459.138 430.427 262.033 330.887 249.714 326.32C237.394 321.752 218.44 326.32 211.806 329.97C205.172 333.623 173.899 343.666 158.736 350.97C143.574 358.273 67.7591 387.49 52.5967 395.708C37.4343 403.926 30.8002 419.45 29.8516 428.578C28.903 437.71 8.05208 509.846 11.8404 524.456C15.6318 539.066 22.2598 586.55 27.9453 599.334C33.6308 612.119 40.265 609.38 46.8991 608.466C53.5332 607.555 75.3297 596.598 75.3297 596.598C75.3297 596.598 83.8579 627.643 93.3318 642.253C102.806 656.866 114.177 681.519 125.551 681.522C136.922 681.522 146.399 671.477 146.399 671.477C146.399 671.477 206.1 691.571 221.262 694.31C236.424 697.049 246.847 694.313 250.638 687.92C254.429 681.528 249.693 666.004 249.693 666.004C249.693 666.004 295.18 666.007 293.286 645.004C291.391 624.002 280.969 616.695 274.335 613.956C267.701 611.217 247.801 608.478 247.801 608.478L291.394 608.481C291.394 608.481 328.35 619.438 373.837 636.79C419.322 654.142 458.178 659.623 510.299 651.409C562.417 643.194 570.948 635.887 580.425 635.89C589.902 635.89 902.969 703.961 902.969 703.961" fill="white"/>
<path d="M717.179 471.188C717.173 471.188 671.348 465.061 666.626 464.498C650.106 462.532 608.504 457.507 568.657 452.075C548.733 449.359 529.249 446.541 513.572 443.957C505.731 442.663 498.846 441.428 493.339 440.298C487.841 439.17 483.693 438.125 481.483 437.29C478.862 436.303 473.388 433.847 465.909 430.337C439.69 418.039 388.496 392.703 342.527 369.952C319.54 358.574 297.856 347.839 281.241 339.701C272.934 335.63 265.894 332.207 260.588 329.675C255.266 327.138 251.747 325.514 250.256 324.956C246.328 323.505 241.873 322.947 237.376 322.944C232.108 322.947 226.774 323.715 222.138 324.81C217.498 325.911 213.582 327.319 211.054 328.703C209.56 329.532 206.363 330.852 202.287 332.409C190.016 337.107 169.586 344.116 158.057 349.664C150.599 353.259 127.811 362.414 105.078 371.651C93.7043 376.274 82.3272 380.929 72.8352 384.941C63.3371 388.962 55.7635 392.321 51.8539 394.435C43.9954 398.696 38.3675 404.834 34.5853 411.063C30.803 417.303 28.8482 423.623 28.3451 428.435C28.1572 430.302 26.8934 435.774 25.1235 443.005C22.4687 453.888 18.6591 468.974 15.5133 483.363C12.3705 497.768 9.87325 511.406 9.86719 519.688C9.86719 521.7 10.0096 523.405 10.3703 524.81C12.2341 531.985 14.8496 547.538 17.6923 562.837C19.1137 570.494 20.5957 578.099 22.0838 584.611C23.5779 591.132 25.0508 596.522 26.554 599.91C28.4421 604.153 30.4848 606.884 32.7608 608.58C35.0338 610.28 37.5159 610.823 39.8252 610.814C42.4043 610.805 44.838 610.218 47.114 609.912C49.0476 609.637 51.6721 608.753 54.7058 607.581C63.7493 604.068 76.0083 597.901 76.0295 597.892L75.3294 596.598L73.8656 596.972C73.8687 596.99 76.0083 604.775 79.339 614.409C82.6787 624.052 87.1793 635.508 92.0465 643.028C96.7319 650.252 101.951 660.082 107.464 668.168C110.224 672.215 113.055 675.831 116.016 678.506C118.965 681.163 122.111 682.965 125.55 682.982C131.709 682.971 137.164 680.302 141.098 677.703C145.032 675.095 147.465 672.513 147.52 672.461L146.398 671.477L145.898 672.855C145.901 672.858 160.833 677.884 177.669 683.251C186.085 685.938 194.977 688.709 202.726 690.984C210.482 693.259 217.058 695.034 220.983 695.747C225.026 696.477 228.757 696.827 232.148 696.827C236.936 696.827 241.055 696.129 244.413 694.76C247.765 693.393 250.368 691.323 251.953 688.645C253.25 686.425 253.614 683.651 253.623 680.778C253.614 673.617 251.159 665.66 251.147 665.592L249.692 666.004V667.464C249.768 667.461 260.751 667.47 271.874 664.959C277.438 663.694 283.048 661.817 287.4 658.87C291.74 655.956 294.876 651.756 294.858 646.263C294.858 645.811 294.837 645.349 294.795 644.879C293.831 634.165 290.667 626.8 286.806 621.765C282.951 616.728 278.432 614.059 274.932 612.616C273.113 611.868 270.583 611.179 267.74 610.525C259.239 608.574 248.038 607.035 248.013 607.033L247.801 608.478V609.938H291.394V608.481L290.946 609.874C290.955 609.877 293.243 610.557 297.413 611.854C309.918 615.741 339.206 625.15 373.28 638.148C404.953 650.235 433.553 656.618 465.587 656.616C479.722 656.616 494.518 655.374 510.544 652.851C536.653 648.734 551.901 644.835 561.786 641.967C566.727 640.534 570.321 639.36 573.212 638.562C576.109 637.765 578.261 637.351 580.422 637.351V635.905L580.286 637.345L580.422 637.351V635.905L580.286 637.345L580.425 637.351C580.519 637.345 581.122 637.403 581.953 637.529C588.581 638.507 612.05 643.255 643.366 649.803C690.368 659.626 755.188 673.524 808.255 684.962C834.788 690.683 858.382 695.788 875.345 699.464C883.827 701.304 890.649 702.785 895.353 703.804C900.053 704.826 902.636 705.387 902.636 705.387C903.454 705.565 904.263 705.071 904.448 704.283C904.633 703.497 904.121 702.715 903.302 702.539C903.302 702.537 825.036 685.52 745.581 668.501C705.852 659.991 665.829 651.482 635.141 645.098C619.796 641.906 606.786 639.249 597.306 637.383C592.569 636.451 588.714 635.721 585.883 635.219C584.465 634.968 583.307 634.775 582.413 634.641C581.504 634.509 580.922 634.433 580.425 634.43V635.89L580.561 634.436L580.422 634.43C577.843 634.43 575.376 634.93 572.379 635.756C567.878 637 562.084 639.003 552.498 641.477C542.915 643.953 529.555 646.894 510.053 649.969C494.166 652.472 479.537 653.695 465.587 653.695C433.978 653.692 405.841 647.425 374.395 635.432C328.85 618.059 291.864 607.091 291.84 607.085L291.394 607.021L247.801 607.018C247.004 607.018 246.346 607.611 246.289 608.376C246.231 609.138 246.798 609.815 247.586 609.924C247.589 609.924 248.816 610.093 250.777 610.391C253.717 610.838 258.287 611.574 262.721 612.45C267.14 613.32 271.48 614.359 273.738 615.3C276.871 616.596 280.878 618.95 284.369 623.5C287.851 628.052 290.846 634.842 291.776 645.133C291.809 645.519 291.828 645.895 291.828 646.263C291.809 650.641 289.494 653.844 285.654 656.481C279.911 660.403 270.861 662.506 263.303 663.516C259.524 664.03 256.111 664.287 253.647 664.416C252.417 664.48 251.423 664.512 250.741 664.529C250.059 664.544 249.695 664.544 249.692 664.544C249.216 664.544 248.765 664.763 248.48 665.131C248.195 665.496 248.104 665.978 248.241 666.416L248.338 666.749C248.786 668.291 250.602 675.054 250.592 680.778C250.605 683.388 250.192 685.76 249.323 687.194C248.11 689.238 246.104 690.891 243.228 692.07C240.358 693.244 236.63 693.91 232.148 693.907C228.975 693.907 225.426 693.577 221.541 692.876C217.886 692.216 211.312 690.453 203.608 688.189C192.043 684.793 177.857 680.27 166.573 676.596C160.927 674.759 156.009 673.135 152.502 671.97C148.993 670.805 146.901 670.101 146.898 670.098C146.323 669.906 145.686 670.06 145.277 670.496L145.186 670.586C144.701 671.085 142.252 673.498 138.679 675.749C135.109 678.006 130.436 680.071 125.55 680.062C123.305 680.077 120.762 678.798 118.086 676.374C114.076 672.765 109.949 666.787 105.994 660.353C102.03 653.917 98.2109 647.025 94.6165 641.48C90.0099 634.392 85.5064 623.021 82.2151 613.486C80.5634 608.715 79.2087 604.396 78.2661 601.268C77.3206 598.143 76.7962 596.228 76.7932 596.225C76.678 595.795 76.3629 595.442 75.9416 595.261C75.5203 595.083 75.0355 595.097 74.6293 595.302C74.6263 595.305 73.2777 595.982 71.138 597.019C67.9316 598.575 62.9613 600.932 58.1941 602.976C55.812 603.998 53.4784 604.942 51.4599 605.663C49.4476 606.387 47.7141 606.884 46.6867 607.021C44.2136 607.368 41.9012 607.9 39.8252 607.894C37.9523 607.882 36.3188 607.52 34.6125 606.267C32.9063 605.006 31.103 602.728 29.3392 598.759C27.9966 595.754 26.5116 590.419 25.0447 583.983C22.8354 574.314 20.6169 562.107 18.5955 550.949C16.574 539.779 14.7587 529.69 13.31 524.103C13.0433 523.078 12.8948 521.557 12.8978 519.688C12.8918 514.519 13.9768 506.707 15.6376 497.859C18.1227 484.577 21.8807 468.907 25.0993 455.778C26.7116 449.213 28.1845 443.282 29.3028 438.589C30.4181 433.879 31.1727 430.483 31.3606 428.725C31.8031 424.406 33.6397 418.399 37.2007 412.541C40.7648 406.671 46.0351 400.938 53.339 396.981C57.0121 394.987 64.6009 391.614 74.0535 387.616C88.2522 381.609 106.727 374.154 123.077 367.516C139.437 360.87 153.623 355.064 159.415 352.278C166.88 348.677 178.478 344.341 189.009 340.466C194.28 338.527 199.286 336.699 203.405 335.122C207.536 333.542 210.733 332.236 212.558 331.241C214.679 330.067 218.434 328.688 222.859 327.646C227.29 326.597 232.418 325.864 237.376 325.864C241.613 325.864 245.722 326.405 249.168 327.684C250.55 328.192 255.032 330.265 261.615 333.428C284.733 344.528 334.63 369.367 381.123 392.321C404.371 403.8 426.768 414.807 444.552 423.401C462.354 431.998 475.464 438.148 480.38 440.008C483.298 441.104 488.369 442.304 495.176 443.65C542.675 453.001 716.788 474.082 716.815 474.088C717.645 474.184 718.4 473.615 718.5 472.815C718.6 472.014 718.009 471.287 717.179 471.188Z" fill="#17282F"/>
<path d="M203.305 629.215L203.806 629.431C204.169 629.591 204.593 629.603 204.966 629.469C205.339 629.331 205.648 629.054 205.812 628.704C205.975 628.353 205.991 627.947 205.851 627.585C205.709 627.226 205.421 626.931 205.057 626.77L204.557 626.554C203.793 626.221 202.896 626.546 202.551 627.281C202.205 628.014 202.545 628.882 203.305 629.215L203.806 629.431C204.169 629.591 204.593 629.603 204.966 629.469C205.339 629.331 205.648 629.054 205.812 628.704C205.975 628.353 205.991 627.947 205.851 627.585C205.709 627.226 205.421 626.931 205.057 626.77L204.557 626.554C203.793 626.221 202.896 626.546 202.551 627.281C202.205 628.014 202.545 628.882 203.305 629.215Z" fill="#17282F"/>
<path d="M203.187 629.159L203.302 629.212C203.666 629.372 204.087 629.384 204.463 629.25C204.836 629.115 205.145 628.838 205.312 628.488C205.475 628.14 205.491 627.731 205.351 627.372C205.212 627.013 204.924 626.715 204.56 626.554L204.442 626.502C203.681 626.169 202.784 626.493 202.436 627.226C202.09 627.959 202.423 628.826 203.187 629.159L203.302 629.212C203.666 629.372 204.087 629.384 204.463 629.25C204.836 629.115 205.145 628.838 205.312 628.488C205.475 628.14 205.491 627.731 205.351 627.372C205.212 627.013 204.924 626.715 204.56 626.554L204.442 626.502C203.681 626.169 202.784 626.493 202.436 627.226C202.09 627.959 202.423 628.826 203.187 629.159Z" fill="#17282F"/>
<path d="M202.888 629.028L202.948 629.054C203.315 629.209 203.736 629.218 204.109 629.077C204.479 628.937 204.785 628.657 204.945 628.304C205.106 627.953 205.115 627.544 204.97 627.188C204.824 626.829 204.533 626.534 204.166 626.382L204.106 626.356C203.339 626.032 202.445 626.367 202.109 627.106C201.772 627.842 202.121 628.704 202.888 629.028L202.948 629.054C203.315 629.209 203.736 629.218 204.109 629.077C204.479 628.937 204.785 628.657 204.945 628.304C205.106 627.953 205.115 627.544 204.97 627.188C204.824 626.829 204.533 626.534 204.166 626.382L204.106 626.356C203.339 626.032 202.445 626.367 202.109 627.106C201.772 627.842 202.121 628.704 202.888 629.028Z" fill="#17282F"/>
<path d="M204.433 628.102C204.711 628.225 205.039 628.368 205.402 628.528C205.096 628.391 204.769 628.251 204.433 628.102Z" fill="#17282F"/>
<path d="M204.433 628.102L203.802 629.428C204.087 629.556 204.414 629.696 204.775 629.857C205.539 630.19 206.436 629.866 206.781 629.133C207.13 628.4 206.793 627.536 206.033 627.2C205.724 627.062 205.396 626.919 205.06 626.773C204.299 626.437 203.402 626.762 203.054 627.495C202.705 628.228 203.038 629.092 203.802 629.428L204.433 628.102L203.802 629.431C204.142 629.58 204.469 629.723 204.775 629.857C205.142 630.018 205.554 630.032 205.933 629.895C206.312 629.758 206.615 629.489 206.781 629.133C206.951 628.78 206.966 628.382 206.824 628.017C206.681 627.649 206.399 627.36 206.033 627.2C205.666 627.039 205.339 626.896 205.063 626.773C204.693 626.613 204.281 626.598 203.902 626.732C203.523 626.87 203.22 627.138 203.054 627.495C202.884 627.848 202.872 628.245 203.011 628.613C203.154 628.978 203.436 629.267 203.802 629.431L204.433 628.102Z" fill="#17282F"/>
<path d="M202.924 629.045L203.181 629.159C203.545 629.32 203.966 629.334 204.342 629.2C204.715 629.069 205.024 628.791 205.19 628.441C205.357 628.093 205.375 627.685 205.236 627.325C205.097 626.963 204.812 626.665 204.448 626.505L204.19 626.391C203.43 626.055 202.53 626.376 202.181 627.109C201.829 627.839 202.163 628.707 202.924 629.045L203.181 629.159C203.545 629.32 203.966 629.334 204.342 629.2C204.715 629.069 205.024 628.791 205.19 628.441C205.357 628.093 205.375 627.685 205.236 627.325C205.097 626.963 204.812 626.665 204.448 626.505L204.19 626.391C203.43 626.055 202.53 626.376 202.181 627.109C201.829 627.839 202.163 628.707 202.924 629.045Z" fill="#17282F"/>
<path d="M205.402 628.529C206.06 628.815 206.651 629.075 207.178 629.305C206.56 629.034 205.948 628.765 205.402 628.529Z" fill="#17282F"/>
<path d="M204.778 629.857C205.433 630.143 206.024 630.403 206.554 630.634C207.315 630.967 208.212 630.643 208.56 629.91C208.906 629.174 208.569 628.309 207.806 627.977C207.187 627.705 206.575 627.436 206.03 627.197C205.666 627.039 205.245 627.025 204.872 627.162C204.496 627.296 204.19 627.574 204.023 627.924C203.86 628.274 203.845 628.68 203.984 629.042C204.126 629.402 204.414 629.699 204.778 629.857C205.321 630.097 205.936 630.362 206.554 630.634C206.921 630.795 207.333 630.809 207.712 630.672C208.091 630.535 208.391 630.263 208.56 629.91C208.727 629.553 208.739 629.156 208.6 628.791C208.457 628.426 208.175 628.137 207.806 627.977C207.278 627.746 206.687 627.486 206.03 627.197C205.269 626.864 204.369 627.191 204.023 627.924C203.678 628.66 204.014 629.524 204.778 629.857Z" fill="#17282F"/>
<path d="M210.767 630.876C211.212 631.072 211.3 631.11 210.767 630.876V630.876Z" fill="#17282F"/>
<path d="M210.139 632.205L210.412 632.325L210.485 632.357L210.503 632.366L210.509 632.369H210.515L210.521 632.372L210.536 632.377L210.56 632.389L210.606 632.407L210.679 632.43L210.779 632.456L211.133 632.497C211.748 632.497 212.3 632.141 212.533 631.595C212.77 631.052 212.639 630.424 212.206 630.006L211.133 631.037L212.394 630.228L212.206 630.006L211.133 631.037H212.648C212.63 630.543 212.47 630.354 212.394 630.228L211.133 631.037H212.648C212.648 630.465 212.303 629.945 211.764 629.708L211.394 629.548C210.63 629.215 209.733 629.539 209.388 630.272C209.042 631.005 209.378 631.872 210.139 632.205L210.506 632.366L211.133 631.037H209.618C209.636 631.531 209.8 631.72 209.872 631.846L210.063 632.071L211.133 631.037L211.491 629.618L211.133 629.577V631.037L211.491 629.618L211.682 629.676L211.136 631.037L211.748 629.702L211.682 629.676L211.136 631.037L211.748 629.702L211.588 630.053L211.751 629.705L211.748 629.702L211.588 630.053L211.751 629.705L211.394 629.548C211.024 629.387 210.615 629.372 210.236 629.51C209.854 629.647 209.554 629.916 209.388 630.272C209.221 630.628 209.206 631.025 209.348 631.39C209.491 631.755 209.772 632.045 210.139 632.205Z" fill="#17282F"/>
<path d="M209.509 631.928L210.139 632.205C210.503 632.366 210.924 632.377 211.3 632.243C211.673 632.109 211.982 631.831 212.146 631.481C212.312 631.13 212.325 630.724 212.185 630.362C212.046 630.003 211.758 629.705 211.394 629.548L210.761 629.27C210 628.937 209.103 629.261 208.754 629.994C208.409 630.73 208.745 631.595 209.509 631.928L210.139 632.205C210.503 632.366 210.924 632.377 211.3 632.243C211.673 632.109 211.982 631.831 212.146 631.481C212.312 631.13 212.325 630.724 212.185 630.362C212.046 630.003 211.758 629.705 211.394 629.548L210.761 629.27C210 628.937 209.103 629.261 208.754 629.994C208.409 630.73 208.745 631.595 209.509 631.928Z" fill="#17282F"/>
<path d="M208.997 631.703L209.506 631.928C209.869 632.088 210.291 632.103 210.663 631.968C211.039 631.834 211.348 631.557 211.512 631.206C211.679 630.856 211.694 630.45 211.554 630.088C211.415 629.729 211.127 629.431 210.763 629.27L210.254 629.048C209.494 628.712 208.593 629.037 208.248 629.769C207.899 630.502 208.236 631.37 208.997 631.703L209.506 631.928C209.869 632.088 210.291 632.103 210.663 631.968C211.039 631.834 211.348 631.557 211.512 631.206C211.679 630.856 211.694 630.45 211.554 630.088C211.415 629.729 211.127 629.431 210.763 629.27L210.254 629.048C209.494 628.712 208.593 629.037 208.248 629.769C207.899 630.502 208.236 631.37 208.997 631.703Z" fill="#17282F"/>
<path d="M207.178 629.306C207.557 629.472 207.936 629.638 208.306 629.799C207.969 629.65 207.587 629.484 207.178 629.306Z" fill="#17282F"/>
<path d="M206.551 630.634C206.933 630.801 207.312 630.967 207.679 631.128C208.443 631.46 209.34 631.136 209.685 630.403C210.031 629.67 209.697 628.803 208.934 628.47C208.594 628.321 208.215 628.155 207.809 627.977C207.048 627.641 206.148 627.965 205.803 628.698C205.454 629.431 205.788 630.298 206.551 630.634C206.964 630.815 207.345 630.982 207.679 631.128C208.046 631.288 208.458 631.303 208.837 631.166C209.215 631.028 209.518 630.757 209.685 630.403C209.852 630.047 209.867 629.65 209.725 629.285C209.582 628.92 209.3 628.631 208.934 628.467C208.564 628.307 208.185 628.143 207.809 627.977C207.445 627.816 207.024 627.801 206.651 627.936C206.276 628.07 205.967 628.347 205.803 628.698C205.633 629.054 205.618 629.448 205.76 629.816C205.903 630.181 206.182 630.471 206.551 630.634Z" fill="#17282F"/>
<path d="M208.306 629.799C208.827 630.027 209.26 630.216 209.627 630.377C209.227 630.202 208.778 630.006 208.306 629.799Z" fill="#17282F"/>
<path d="M207.679 631.128C208.203 631.358 208.636 631.545 209 631.706C209.764 632.039 210.661 631.715 211.006 630.979C211.352 630.246 211.015 629.378 210.252 629.045C209.855 628.873 209.406 628.675 208.933 628.47C208.173 628.134 207.273 628.458 206.927 629.194C206.582 629.927 206.915 630.792 207.679 631.128C208.151 631.335 208.603 631.531 209 631.706C209.364 631.863 209.785 631.878 210.161 631.744C210.534 631.606 210.843 631.329 211.006 630.979C211.17 630.628 211.185 630.222 211.046 629.863C210.903 629.501 210.615 629.206 210.252 629.045C209.885 628.885 209.455 628.698 208.933 628.47C208.567 628.307 208.154 628.295 207.776 628.429C207.397 628.567 207.094 628.838 206.927 629.194C206.76 629.548 206.745 629.945 206.888 630.31C207.03 630.675 207.312 630.967 207.679 631.128Z" fill="#17282F"/>
<path d="M306.372 592.986C296.343 590.837 287.151 590.597 279.178 591.286C277.456 585.446 268.443 579.416 265.258 577.222C259.785 573.455 169.88 585.507 157.373 594.548C144.865 603.587 133.136 612.625 137.828 627.693L155.027 637.485C155.027 637.485 186.297 620.159 203.496 627.693C203.496 627.693 219.131 611.121 236.33 608.107L291.394 608.481C291.394 608.481 330.229 618.845 348.119 626.747C366.012 634.649 403.286 618.126 408.508 613.819C413.727 609.509 333.211 598.733 306.372 592.986Z" fill="#17282F"/>
<path d="M306.372 592.986L306.7 591.561C299.744 590.072 293.18 589.482 287.137 589.485C284.321 589.482 281.621 589.61 279.045 589.832L279.178 591.286L280.636 590.889C279.596 587.464 276.732 584.412 273.787 581.807C270.832 579.22 267.725 577.129 266.137 576.034C265.301 575.5 264.489 575.389 263.367 575.237C262.261 575.108 260.897 575.053 259.273 575.053C248.378 575.059 225.645 577.605 204.133 581.139C193.383 582.905 182.964 584.917 174.508 586.994C170.281 588.03 166.547 589.082 163.492 590.136C160.431 591.199 158.067 592.23 156.464 593.377C151.163 597.212 145.935 601.078 141.959 605.52C137.986 609.944 135.252 615.049 135.258 621.132C135.258 623.342 135.616 625.667 136.377 628.111C136.486 628.464 136.728 628.762 137.059 628.949L154.258 638.744C154.727 639.009 155.309 639.012 155.782 638.752C155.782 638.749 156.091 638.58 156.691 638.265C158.785 637.17 164.307 634.398 171.12 631.916C177.927 629.428 186.04 627.247 193.195 627.255C196.753 627.252 200.057 627.787 202.869 629.022C203.469 629.285 204.175 629.145 204.618 628.675L204.782 628.502C205.63 627.629 209.713 623.538 215.531 619.347C221.35 615.151 228.915 610.881 236.604 609.544L236.331 608.107L236.322 609.567L291.383 609.938L291.395 608.481L290.989 609.886C290.995 609.889 293.407 610.531 297.32 611.626C309.045 614.897 334.26 622.227 347.489 628.076C351.138 629.682 355.402 630.316 359.951 630.319C369.746 630.31 380.939 627.372 390.282 624.017C394.956 622.338 399.156 620.547 402.478 618.95C405.814 617.335 408.209 615.974 409.494 614.926C409.857 614.643 410.269 614.082 410.266 613.396C410.257 612.739 409.936 612.269 409.648 611.968C409.069 611.381 408.403 611.054 407.53 610.668C404.314 609.31 398.053 607.838 389.87 606.197C365.41 601.318 324.302 595.331 306.7 591.561L306.372 592.986L306.042 594.411C319.134 597.212 344.71 601.172 367.046 605.006C378.205 606.924 388.552 608.808 396.068 610.49C399.82 611.328 402.875 612.12 404.911 612.815C405.927 613.159 406.696 613.489 407.105 613.729L407.412 613.936L408.027 613.396H407.236C407.242 613.767 407.412 613.936 407.412 613.936L408.027 613.396H407.236H408.133L407.521 612.709C407.481 612.727 407.23 613.004 407.236 613.396H408.133L407.521 612.709C406.687 613.41 404.326 614.803 401.123 616.336C391.482 620.997 373.72 627.422 359.951 627.398C355.696 627.401 351.844 626.791 348.753 625.421C339.67 621.412 325.475 616.848 313.497 613.256C301.529 609.67 291.807 607.076 291.798 607.073L291.404 607.021L236.343 606.647L236.061 606.67C227.06 608.259 218.704 613.285 212.537 617.875C206.376 622.472 202.415 626.668 202.375 626.709L203.497 627.693L204.124 626.362C200.796 624.907 197.06 624.335 193.195 624.335C184.31 624.344 174.645 627.334 167.138 630.289C159.634 633.248 154.312 636.197 154.273 636.22L155.027 637.485L155.797 636.229L138.601 626.435L137.828 627.693L139.28 627.273C138.595 625.071 138.289 623.038 138.289 621.132C138.292 615.922 140.568 611.556 144.253 607.424C147.933 603.309 153.003 599.527 158.282 595.714C159.401 594.896 161.598 593.886 164.513 592.887C174.76 589.345 193.892 585.583 212.698 582.748C231.503 579.906 250.099 577.97 259.273 577.973C260.819 577.973 262.094 578.029 263.01 578.137C263.464 578.186 263.831 578.253 264.08 578.318L264.346 578.399L264.395 578.423L264.473 578.28L264.377 578.411L264.395 578.423L264.473 578.28L264.377 578.411C265.977 579.512 268.968 581.53 271.747 583.968C274.535 586.386 277.039 589.269 277.721 591.687C277.921 592.361 278.59 592.805 279.315 592.741C281.806 592.528 284.415 592.405 287.137 592.402C292.977 592.405 299.317 592.972 306.042 594.411L306.372 592.986Z" fill="#17282F"/>
<path d="M150.481 625.535C150.481 625.535 150.527 625.693 150.615 626.014C151.221 628.257 153.672 638.063 153.666 648.147C153.669 652.591 153.191 657.086 151.918 660.976C150.642 664.874 148.602 668.13 145.511 670.312C144.838 670.791 144.693 671.705 145.187 672.353C145.681 673.004 146.629 673.144 147.305 672.668C151.06 670.014 153.406 666.144 154.806 661.852C156.209 657.553 156.697 652.793 156.697 648.147C156.691 636.121 153.418 624.82 153.403 624.753C153.178 623.973 152.342 623.52 151.536 623.736C150.73 623.953 150.257 624.758 150.481 625.535Z" fill="#17282F"/>
<path d="M119.174 675.106C119.174 675.104 119.141 674.89 119.086 674.47C118.92 673.211 118.583 670.203 118.583 666.62C118.583 664.234 118.735 661.594 119.171 659.06C119.28 658.444 119.326 657.819 119.326 657.188C119.301 652.784 117.089 648.123 114.952 644.447C112.804 640.782 110.676 638.151 110.649 638.113C110.134 637.476 109.182 637.362 108.521 637.856C107.861 638.352 107.743 639.269 108.258 639.906C108.258 639.906 108.373 640.049 108.594 640.338C109.364 641.343 111.325 644.012 113.07 647.221C114.822 650.424 116.313 654.197 116.295 657.188C116.295 657.676 116.259 658.14 116.183 658.581C115.707 661.329 115.552 664.118 115.552 666.62C115.552 671.629 116.174 675.501 116.18 675.55C116.307 676.348 117.08 676.894 117.907 676.771C118.735 676.648 119.301 675.901 119.174 675.106Z" fill="#17282F"/>
<path d="M179.348 678.657L179.242 678.436C178.73 677.381 176.657 672.572 176.678 668.676C176.678 667.102 177.008 665.744 177.709 664.804C178.418 663.872 179.478 663.165 181.585 662.911C182.406 662.818 183.355 662.771 184.403 662.771C190.713 662.765 200.393 664.433 208.403 666.115C212.413 666.953 216.019 667.794 218.622 668.425C221.223 669.056 222.808 669.47 222.811 669.473L223.211 668.063L221.714 667.847C221.705 667.902 221.368 670.084 221.365 673.471C221.371 678.555 222.114 686.37 225.969 693.811C226.342 694.532 227.254 694.824 228.002 694.462C228.748 694.103 229.054 693.224 228.678 692.502C225.129 685.678 224.393 678.278 224.396 673.471C224.396 671.871 224.478 670.56 224.556 669.654C224.596 669.202 224.635 668.851 224.666 668.618L224.708 668.279C224.823 667.549 224.35 666.851 223.611 666.655C223.593 666.649 217.15 664.959 209.046 663.262C200.929 661.565 191.207 659.86 184.403 659.851C183.264 659.851 182.206 659.901 181.233 660.012C178.509 660.301 176.448 661.448 175.242 663.11C174.026 664.766 173.65 666.743 173.647 668.676C173.654 671.418 174.405 674.184 175.135 676.304C175.869 678.421 176.596 679.884 176.614 679.922C176.978 680.649 177.884 680.956 178.636 680.605C179.391 680.258 179.709 679.385 179.348 678.657Z" fill="#17282F"/>
<path d="M197.62 623.923C189.468 621.058 183.255 619.134 183.243 619.131L182.779 620.521L184.285 620.361C184.27 620.29 183.603 614.295 181.43 609.38C179.094 604.223 173.875 600.967 173.784 600.879C173.087 600.43 172.148 600.611 171.684 601.283C171.217 601.954 171.405 602.859 172.102 603.306L172.138 603.332C172.611 603.619 176.981 606.702 178.645 610.531C179.609 612.689 180.279 615.256 180.694 617.259C180.903 618.261 181.049 619.125 181.143 619.733C181.233 620.343 181.273 620.682 181.273 620.682C181.339 621.257 181.746 621.736 182.315 621.911C182.321 621.911 183.852 622.387 186.407 623.219C188.965 624.055 192.535 625.243 196.584 626.665C197.369 626.943 198.238 626.551 198.526 625.795C198.814 625.036 198.408 624.198 197.62 623.923Z" fill="white"/>
<path d="M251.114 665.484C251.048 665.391 244.483 648.842 233.076 639.859C229.566 637.12 223.784 634.258 217.304 631.475C210.831 628.704 203.691 626.052 197.62 623.923C196.835 623.646 195.965 624.037 195.677 624.794C195.393 625.553 195.799 626.391 196.584 626.665C202.609 628.783 209.7 631.414 216.071 634.144C222.438 636.863 228.118 639.728 231.166 642.125C236.403 646.216 240.734 652.343 243.701 657.436C245.189 659.983 246.341 662.269 247.117 663.916C247.508 664.737 247.802 665.4 247.999 665.852C248.196 666.305 248.29 666.539 248.29 666.541C248.593 667.292 249.472 667.666 250.251 667.374C251.029 667.082 251.417 666.235 251.114 665.484Z" fill="#17282F"/>
<path d="M165.416 619.984L174.326 621.304C175.154 621.426 175.926 620.88 176.054 620.083C176.181 619.286 175.614 618.541 174.787 618.418L165.877 617.096C165.049 616.973 164.276 617.519 164.149 618.316C164.022 619.113 164.589 619.858 165.416 619.984Z" fill="white"/>
<path d="M233.636 640.992V640.986C233.651 640.761 233.797 639.17 235.379 637.564C236.961 635.96 240.091 634.17 246.583 633.864C255.517 633.449 265.134 631.811 271.638 631.819C273.689 631.817 275.417 631.986 276.626 632.342C277.859 632.707 278.457 633.18 278.735 633.721C280.542 637.164 282.775 644.403 282.754 649.648C282.766 651.887 282.327 653.718 281.596 654.67C281.469 654.872 280.878 655.319 279.908 655.698C278.214 656.385 275.505 656.966 272.477 657.389C267.925 658.029 262.612 658.356 258.457 658.516C256.378 658.598 254.587 658.639 253.317 658.66C252.047 658.68 251.311 658.68 251.308 658.68C250.471 658.68 249.793 659.334 249.793 660.14C249.793 660.946 250.471 661.6 251.308 661.6C251.332 661.6 258.381 661.6 265.907 661.019C269.671 660.724 273.553 660.289 276.781 659.617C278.396 659.279 279.851 658.884 281.078 658.391C282.299 657.886 283.336 657.322 284.063 656.367C285.385 654.551 285.77 652.197 285.785 649.648C285.76 643.67 283.478 636.372 281.445 632.412C280.663 630.905 279.166 630.023 277.502 629.547C275.82 629.063 273.853 628.902 271.638 628.899C264.676 628.908 255.123 630.555 246.438 630.946C238.973 631.276 234.873 633.569 232.76 636.007C230.645 638.44 230.605 640.793 230.605 640.992C230.605 641.798 231.284 642.452 232.121 642.452C232.957 642.452 233.636 641.798 233.636 640.992Z" fill="#17282F"/>
<path d="M227.277 605.946C227.208 605.838 223.695 599.729 216.54 594.893C209.566 590.188 205.32 588.804 205.187 588.76C204.393 588.506 203.535 588.921 203.271 589.686C203.005 590.451 203.435 591.278 204.229 591.532L204.25 591.54C204.605 591.66 208.493 593.03 214.803 597.285C218.076 599.492 220.552 602.033 222.198 604.016C223.022 605.009 223.637 605.858 224.044 606.454C224.247 606.752 224.395 606.986 224.492 607.143L224.601 607.316L224.628 607.362C225.035 608.069 225.956 608.323 226.689 607.932C227.42 607.538 227.683 606.65 227.277 605.946Z" fill="white"/>
<path d="M74.6208 560.717C74.6299 560.662 76.1694 553.253 76.1725 544.291C76.1694 539.808 75.7876 534.931 74.6056 530.364C71.1749 517.147 69.1171 509.873 69.114 509.864L67.6503 510.246L68.7565 511.245C68.7989 511.19 79.1274 500.61 84.7674 489.77C90.2681 479.169 99.1752 460.684 99.1782 460.678L97.8053 460.062L98.1478 461.484C98.1569 461.481 127.615 454.881 142.747 450.907C158.164 446.839 175.305 436.23 175.372 436.2L174.557 434.971L173.111 435.406C173.12 435.435 173.987 438.11 175.469 441.556C176.957 445.002 179.033 449.21 181.582 452.376C182.097 453.012 183.049 453.126 183.709 452.63C184.37 452.136 184.488 451.219 183.976 450.583C181.727 447.805 179.694 443.758 178.269 440.438C177.554 438.776 176.984 437.293 176.596 436.23C176.402 435.698 176.251 435.269 176.151 434.977C176.051 434.685 176.002 434.536 176.002 434.536C175.863 434.101 175.517 433.753 175.075 433.598C174.632 433.444 174.135 433.496 173.738 433.741C173.738 433.741 173.484 433.899 172.993 434.191C169.574 436.238 154.836 444.713 141.95 448.089C134.443 450.06 123.311 452.703 114.068 454.846C109.446 455.918 105.294 456.867 102.297 457.547C99.2994 458.228 97.4659 458.64 97.4598 458.64C97.0082 458.742 96.6264 459.04 96.4294 459.449C96.4233 459.457 94.2049 464.065 91.2955 470.005C88.383 475.942 84.7886 483.202 82.058 488.464C79.3971 493.598 75.5057 498.822 72.2871 502.738C70.6779 504.695 69.2383 506.33 68.2018 507.469C67.6836 508.042 67.2684 508.488 66.9805 508.792C66.6956 509.096 66.5471 509.248 66.5471 509.248C66.1864 509.619 66.05 510.141 66.1895 510.632C66.1895 510.638 66.7016 512.439 67.6412 515.9C68.5837 519.36 69.9505 524.474 71.6628 531.071C72.763 535.308 73.1418 539.969 73.1418 544.291C73.1418 548.613 72.766 552.593 72.3902 555.481C72.2053 556.927 72.0174 558.101 71.878 558.907C71.7386 559.716 71.6477 560.145 71.6477 560.145C71.484 560.936 72.0174 561.707 72.8357 561.865C73.657 562.022 74.4571 561.509 74.6208 560.717Z" fill="#17282F"/>
<path d="M118.344 510.068C121.962 512.404 126.184 514.419 131.003 515.623C131.812 515.824 132.639 515.354 132.849 514.574C133.058 513.794 132.573 512.997 131.764 512.796C127.327 511.689 123.414 509.826 120.032 507.641C119.335 507.192 118.395 507.373 117.929 508.042C117.462 508.71 117.65 509.619 118.344 510.068Z" fill="#17282F"/>
<path d="M101.952 493.11C102.003 493.192 105.1 498.738 111.213 504.473C111.813 505.034 112.774 505.022 113.356 504.444C113.941 503.865 113.929 502.943 113.329 502.379C110.437 499.669 108.246 496.985 106.788 494.991C106.058 493.992 105.51 493.166 105.149 492.593C104.967 492.307 104.834 492.085 104.746 491.936L104.622 491.726C104.225 491.016 103.306 490.751 102.57 491.13C101.833 491.516 101.558 492.401 101.952 493.11Z" fill="#17282F"/>
<path d="M175.838 409.495C175.784 408.21 175.75 406.899 175.75 405.573C175.744 398.538 176.644 391.08 179.36 385.394C179.708 384.661 179.372 383.796 178.611 383.458C177.851 383.122 176.954 383.446 176.605 384.176C173.602 390.51 172.726 398.304 172.72 405.573C172.72 406.942 172.753 408.294 172.811 409.614C172.844 410.42 173.55 411.048 174.387 411.013C175.223 410.981 175.872 410.301 175.838 409.495Z" fill="#17282F"/>
<path d="M178.091 427.396C178.091 427.393 178.054 427.235 177.988 426.911C177.785 425.938 177.312 423.57 176.857 420.352C176.742 419.552 175.978 418.994 175.151 419.102C174.32 419.213 173.742 419.949 173.854 420.746C174.478 425.141 175.124 427.991 175.133 428.021C175.312 428.809 176.118 429.306 176.936 429.133C177.754 428.961 178.272 428.181 178.091 427.396Z" fill="#17282F"/>
<path d="M71.4686 427.498C71.4686 427.498 71.8505 427.813 72.5384 428.398C74.9478 430.448 81.003 435.765 86.4128 441.772C89.1161 444.777 91.6558 447.952 93.4863 450.942C95.329 453.923 96.414 456.727 96.3988 458.803C96.3988 459.159 96.3685 459.492 96.3109 459.808C96.1654 460.602 96.717 461.361 97.5414 461.502C98.3657 461.642 99.1506 461.11 99.2961 460.316C99.387 459.819 99.4295 459.314 99.4295 458.803C99.4052 455.398 97.6595 451.771 95.2108 448.071C87.8341 437.039 73.4779 425.325 73.4294 425.273C72.793 424.75 71.8353 424.826 71.2928 425.439C70.7534 426.055 70.8291 426.975 71.4686 427.498Z" fill="#17282F"/>
<path d="M45.823 495.195L45.7897 494.699L45.8139 495.198L45.823 495.195L45.7897 494.699L45.8139 495.198L45.9654 495.193C46.5867 495.193 48.9779 495.304 51.8419 496.793C54.7059 498.288 58.0972 501.144 60.7854 506.885C61.1309 507.618 62.0279 507.948 62.7886 507.615C63.5523 507.285 63.8948 506.421 63.5493 505.685C60.6338 499.421 56.7182 496.001 53.2814 494.223C49.8447 492.439 46.9383 492.275 45.9654 492.272L45.6199 492.284C44.7865 492.337 44.1531 493.034 44.2107 493.838C44.2652 494.641 44.9865 495.251 45.823 495.195Z" fill="#17282F"/>
<path d="M316.755 418.708L296.389 399.087L276.023 379.463L145.583 504.216L31.6455 626.178L46.1775 640.18L60.7095 654.183L187.285 544.399L316.755 418.708Z" fill="url(#paint1_linear_1887_696)"/>
<path d="M316.755 418.708L317.825 417.677L297.462 398.053L277.093 378.429C276.502 377.859 275.551 377.859 274.957 378.426L144.517 503.179L144.459 503.238L30.5188 625.202C29.9824 625.778 30.0066 626.662 30.5733 627.211L45.1084 641.214L59.6404 655.217C60.2101 655.766 61.1254 655.789 61.7255 655.269L188.298 545.482L188.362 545.427L317.831 419.739C318.419 419.166 318.416 418.247 317.825 417.677L316.755 418.708L315.68 417.68L186.24 543.339L60.7648 652.171L47.251 639.149L33.7343 626.125L146.681 505.223L276.017 381.524L295.317 400.118L315.683 419.742L316.755 418.708Z" fill="#17282F"/>
<path d="M383.981 355.385C438.448 300.762 482.165 255.063 482.165 255.063L464.011 237.57L445.855 220.075C445.855 220.075 398.431 262.203 341.742 314.686C285.054 367.166 263.194 388.945 263.194 388.945L285.054 410.009L306.914 431.072C306.914 431.072 329.517 410.009 383.981 355.385Z" fill="url(#paint2_linear_1887_696)"/>
<path d="M383.981 355.385L385.072 356.399C439.551 301.763 483.274 256.056 483.28 256.053C483.832 255.477 483.814 254.584 483.238 254.032L465.084 236.537L446.928 219.041C446.352 218.49 445.427 218.469 444.827 219.001C444.824 219.006 397.391 261.14 340.691 313.631C283.993 366.123 262.121 387.914 262.103 387.929C261.53 388.501 261.536 389.412 262.121 389.976L283.981 411.039L305.844 432.106C306.429 432.67 307.372 432.676 307.969 432.121C307.984 432.106 330.599 411.031 385.072 356.399L383.981 355.385L382.887 354.375C355.659 381.679 336.399 400.597 323.946 412.684C317.721 418.728 313.197 423.065 310.233 425.889C307.266 428.716 305.866 430.018 305.859 430.024L306.914 431.072L307.987 430.039L286.124 408.975L264.264 387.911L263.194 388.945L264.282 389.958C264.288 389.955 265.64 388.606 268.573 385.747C277.368 377.173 300.283 355.09 342.791 315.737C371.131 289.501 397.155 265.853 416.094 248.764C425.561 240.222 433.259 233.316 438.59 228.547C443.921 223.781 446.873 221.156 446.882 221.15L445.855 220.075L444.785 221.109L462.939 238.601L481.095 256.096L482.165 255.063L481.053 254.073C481.044 254.082 478.322 256.926 473.373 262.063C458.529 277.473 423.728 313.415 382.887 354.375L383.981 355.385Z" fill="#17282F"/>
<path d="M322.656 397.729L311.03 409.191C310.445 409.766 310.454 410.689 311.054 411.255C311.651 411.819 312.612 411.807 313.197 411.229L324.823 399.77C325.407 399.192 325.398 398.266 324.798 397.702C324.201 397.139 323.24 397.151 322.656 397.729Z" fill="#17282F"/>
<path d="M468.457 254.009L332.483 388.04C331.899 388.618 331.911 389.541 332.508 390.104C333.108 390.668 334.065 390.659 334.65 390.081L470.624 256.05C471.209 255.472 471.2 254.549 470.6 253.985C470.003 253.422 469.042 253.43 468.457 254.009Z" fill="#17282F"/>
<path d="M291.122 426.631L230.502 486.782C229.921 487.363 229.933 488.286 230.533 488.847C231.133 489.41 232.094 489.396 232.675 488.818L293.295 428.663C293.88 428.085 293.864 427.159 293.264 426.599C292.664 426.038 291.704 426.05 291.122 426.631Z" fill="#17282F"/>
<path d="M269.443 382.827C265.173 386.974 263.194 388.945 263.194 388.945L306.914 431.072C306.914 431.072 308.96 429.165 313.263 425.051L269.443 382.827Z" fill="#17282F"/>
<path d="M269.443 382.827L268.367 381.799C264.091 385.949 262.109 387.926 262.103 387.929C261.53 388.501 261.536 389.412 262.121 389.976L305.844 432.106C306.429 432.67 307.375 432.676 307.969 432.121C307.972 432.118 310.024 430.205 314.33 426.088C314.618 425.813 314.779 425.445 314.779 425.054C314.779 424.662 314.621 424.295 314.333 424.017L270.513 381.793C270.228 381.519 269.843 381.367 269.44 381.367C269.034 381.367 268.652 381.522 268.367 381.799L269.443 382.827L268.37 383.858L312.191 426.082L313.263 425.051L312.197 424.014C310.045 426.07 308.46 427.574 307.414 428.561C306.366 429.551 305.863 430.021 305.859 430.024L306.914 431.072L307.987 430.039L264.264 387.911L263.194 388.945L264.282 389.958C264.285 389.958 264.773 389.47 265.797 388.463C266.825 387.453 268.385 385.928 270.519 383.855L269.443 382.827Z" fill="#17282F"/>
<path d="M44.7901 663.037L20.751 639.874L33.4585 627.629L57.4977 650.792L44.7901 663.037Z" fill="#CDCECC"/>
<path d="M44.7899 663.037L45.8627 662.003L22.8933 639.874L33.4582 629.694L55.3547 650.792L43.72 662.003L44.7899 663.037L45.8627 664.068L58.5673 651.823C59.1613 651.254 59.1613 650.328 58.5673 649.759L34.5311 626.595C34.2492 626.324 33.8583 626.169 33.4582 626.169C33.0582 626.169 32.6703 626.324 32.3884 626.595L19.6808 638.84C19.399 639.111 19.2354 639.488 19.2354 639.874C19.2354 640.256 19.399 640.633 19.6808 640.905L43.72 664.068C44.0019 664.34 44.3928 664.497 44.7899 664.497C45.1899 664.497 45.5809 664.34 45.8627 664.068L44.7899 663.037Z" fill="#17282F"/>
<path d="M20.7504 639.874L4.2666 669.654L11.822 676.934L44.7895 663.037L20.7504 639.874Z" fill="#CDCECC"/>
<path d="M20.7501 639.874L19.4136 639.184L2.92982 668.965C2.61463 669.535 2.72373 670.23 3.19652 670.685L10.7489 677.965C11.1914 678.392 11.8581 678.512 12.4279 678.272L45.3984 664.375C45.8561 664.179 46.1864 663.782 46.2804 663.306C46.3713 662.833 46.2167 662.345 45.8621 662.003L21.8229 638.84C21.4835 638.513 21.0047 638.361 20.5289 638.428C20.0531 638.495 19.6409 638.776 19.4136 639.184L20.7501 639.874L19.6803 640.904L42.1496 662.555L12.1612 675.197L6.13325 669.386L22.0866 640.56L20.7501 639.874Z" fill="#17282F"/>
<path d="M5.80956 671.722L1.51514 679.992L9.79488 675.562L5.80956 671.722Z" fill="white"/>
<path d="M5.80925 671.722L4.45152 671.071L0.160099 679.341C-0.136906 679.91 -0.012646 680.605 0.466198 681.046C0.945042 681.49 1.66937 681.581 2.25126 681.268L10.528 676.838C10.9462 676.616 11.2281 676.219 11.2947 675.767C11.3584 675.311 11.2008 674.855 10.8644 674.531L6.87908 670.691C6.53662 670.358 6.04566 670.206 5.56682 670.282C5.08495 670.355 4.66973 670.65 4.45152 671.071L5.80925 671.722L4.73639 672.756L7.30035 675.226L5.06069 676.424L7.16395 672.376L5.80925 671.722Z" fill="#17282F"/>
<path d="M481.702 235.03L467.87 221.699C463.669 217.654 456.859 217.654 452.659 221.699L449.971 224.292L479.014 252.274L481.702 249.683C485.902 245.636 485.902 239.077 481.702 235.03Z" fill="white"/>
<path d="M481.701 235.03L482.774 233.996L468.942 220.668H468.939C466.548 218.361 463.399 217.202 460.266 217.205C457.129 217.202 453.98 218.361 451.589 220.668L448.901 223.258C448.307 223.828 448.307 224.753 448.901 225.323L477.94 253.308C478.222 253.579 478.613 253.734 479.013 253.734C479.41 253.734 479.801 253.579 480.083 253.308L482.774 250.717H482.771C485.165 248.413 486.369 245.376 486.369 242.357C486.369 239.337 485.165 236.3 482.771 233.996H482.774L481.701 235.03L480.629 236.061C482.438 237.804 483.335 240.073 483.338 242.357C483.335 244.64 482.438 246.909 480.629 248.65V248.653L479.013 250.209L452.113 224.292L453.731 222.732C455.538 220.992 457.896 220.125 460.266 220.125C462.632 220.125 464.99 220.992 466.797 222.732L480.629 236.061L481.701 235.03Z" fill="#17282F"/>
<path d="M442.988 223.229L434.9 219.687L280.497 355.003C280.497 355.003 283.806 358.191 285.643 357.835C287.482 357.482 301.817 351.46 308.436 343.669C315.052 335.875 313.949 331.27 319.465 326.661C324.981 322.059 442.988 223.229 442.988 223.229Z" fill="white"/>
<path d="M442.988 223.229L443.613 221.897L435.524 218.358C434.975 218.116 434.324 218.215 433.878 218.606L279.475 353.922C279.169 354.194 278.99 354.568 278.981 354.968C278.972 355.371 279.13 355.753 279.424 356.036C279.454 356.063 280.233 356.813 281.3 357.596C281.836 357.987 282.442 358.39 283.1 358.717C283.764 359.036 284.473 359.313 285.343 359.325L285.94 359.269C286.361 359.182 286.791 359.036 287.419 358.811C291.68 357.213 303.424 351.808 309.609 344.592C313.04 340.562 314.516 337.25 315.749 334.561C316.998 331.854 317.943 329.877 320.456 327.766C325.975 323.16 443.98 224.33 443.983 224.33C444.37 224.003 444.561 223.509 444.486 223.019C444.413 222.525 444.086 222.105 443.613 221.897L442.988 223.229L441.994 222.125C441.994 222.125 434.618 228.302 423.468 237.641C390.022 265.652 322.605 322.109 318.471 325.561C315.47 328.055 314.21 330.683 312.979 333.378C311.731 336.091 310.452 338.979 307.263 342.743C304.175 346.394 299.053 349.802 294.501 352.269C292.228 353.508 290.092 354.521 288.431 355.236C287.598 355.596 286.885 355.882 286.337 356.08C285.803 356.282 285.385 356.402 285.346 356.404H285.343C285.273 356.413 284.906 356.334 284.485 356.118C283.846 355.803 283.079 355.254 282.509 354.792C282.224 354.559 281.982 354.349 281.815 354.2L281.624 354.024L281.566 353.972L280.497 355.003L281.515 356.083L435.178 221.413L442.361 224.558L442.988 223.229Z" fill="#17282F"/>
<path d="M283.818 476.079C283.818 476.079 217.483 504.388 171.047 514.431C124.611 524.477 105.657 528.13 99.0264 533.609C92.3923 539.087 63.016 569.221 48.7992 584.742C34.5854 600.266 25.1086 619.441 49.7478 636.79C74.3871 654.142 88.6009 645.01 124.611 633.14C160.624 621.269 172.944 602.091 172.944 602.091C172.944 602.091 195.686 582.003 237.382 585.656C279.081 589.309 294.24 598.441 356.787 613.962C419.331 629.486 465.766 604.831 485.669 590.223" fill="white"/>
<path d="M283.205 474.745C283.202 474.748 282.175 475.186 280.275 475.977C266.988 481.52 211.121 504.274 170.716 513.009C147.501 518.029 131.154 521.451 119.728 524.319C108.3 527.207 101.79 529.444 98.038 532.499C96.2954 533.941 93.2223 536.85 89.2975 540.705C77.5416 552.245 58.3545 572.103 47.6624 583.775C39.7251 592.469 33.0455 602.386 33.0152 612.908C32.997 621.432 37.5794 630.064 48.8534 637.97C58.8303 645.013 67.398 647.89 76.3021 647.881C89.7218 647.846 103.523 641.611 125.102 634.521C161.497 622.527 174.104 603.07 174.232 602.862L172.944 602.091L173.965 603.169L174.004 603.134C174.999 602.284 193.661 586.669 227.353 586.672C230.517 586.672 233.815 586.81 237.245 587.11C257.996 588.93 272.064 592.092 288.845 596.762C305.623 601.428 325.095 607.605 356.408 615.378C370.588 618.897 383.962 620.372 396.397 620.372C439.305 620.366 470.973 602.842 486.587 591.383C487.25 590.895 487.381 589.978 486.872 589.338C486.365 588.696 485.414 588.57 484.75 589.061C469.503 600.254 438.42 617.458 396.397 617.452C384.211 617.452 371.097 616.006 357.162 612.549C325.931 604.798 306.55 598.648 289.688 593.955C272.828 589.263 258.463 586.033 237.521 584.202C233.999 583.892 230.608 583.752 227.353 583.752C191.528 583.758 172.077 600.876 171.919 601.017L171.653 601.323L171.631 601.358C171.004 602.29 158.636 620.375 124.12 631.758C102.408 638.936 88.6702 644.993 76.3021 644.961C68.0951 644.949 60.3184 642.411 50.6415 635.613C39.8766 628 36.0671 620.381 36.0458 612.908C36.0155 603.654 42.1587 594.177 49.9353 585.709C57.0241 577.967 67.9162 566.558 77.8568 556.41C82.8271 551.337 87.561 546.577 91.4584 542.749C95.3528 538.926 98.438 536.015 100.011 534.715C102.896 532.294 109.179 529.964 120.492 527.146C131.809 524.304 148.159 520.879 171.38 515.856C218.064 505.749 284.384 477.431 284.43 477.417C285.196 477.09 285.542 476.225 285.202 475.489C284.863 474.753 283.969 474.421 283.205 474.745Z" fill="#17282F"/>
<path d="M75.1901 565.054C75.1901 565.054 77.9298 596.087 84.0972 604.673C90.2646 613.258 97.12 615.898 97.12 615.898C97.12 615.898 88.2098 631.746 75.1901 635.709C62.1674 639.669 47.0929 631.746 42.9803 623.161C38.8677 614.578 40.2375 604.013 41.6104 600.71C42.9803 597.41 75.1901 565.054 75.1901 565.054Z" fill="white"/>
<path d="M75.19 565.054L73.6777 565.176C73.6807 565.2 74.3687 572.982 75.8325 581.874C76.5659 586.319 77.4933 591.044 78.6389 595.232C79.7936 599.428 81.1149 603.067 82.8515 605.505C89.2431 614.397 96.3713 617.183 96.5562 617.253L97.1199 615.898L95.7864 615.203L95.6954 615.361C95.2166 616.181 92.8527 620.089 89.1492 624.201C85.4518 628.321 80.4058 632.602 74.7324 634.316C72.517 634.991 70.2318 635.297 67.9407 635.297C62.8067 635.3 57.6425 633.738 53.3996 631.332C49.1506 628.937 45.8472 625.687 44.3561 622.551C42.4225 618.523 41.7527 613.93 41.7558 609.955C41.7436 606.001 42.4437 602.602 43.0165 601.253C43.0408 601.195 43.2438 600.876 43.5499 600.479C44.7167 598.94 47.3958 595.95 50.6962 592.422C55.6513 587.116 62.0521 580.522 67.2103 575.26C69.7893 572.629 72.0563 570.328 73.6807 568.686C75.3052 567.045 76.281 566.067 76.2841 566.064L75.19 565.054L74.0959 564.043C74.0929 564.046 66.0374 572.138 57.8062 580.648C53.6875 584.905 49.5294 589.265 46.3017 592.779C44.6864 594.537 43.3044 596.081 42.271 597.311C41.7527 597.927 41.3224 598.461 40.983 598.917C40.6405 599.384 40.398 599.72 40.2041 600.17C39.404 602.123 38.7342 605.657 38.7251 609.955C38.7251 614.237 39.4252 619.216 41.6042 623.774C43.4741 627.655 47.1988 631.203 51.863 633.852C56.5332 636.489 62.1703 638.215 67.9407 638.218C70.5137 638.218 73.111 637.873 75.6446 637.102C82.6151 634.965 88.2431 629.813 92.2011 625.252C96.1531 620.682 98.42 616.649 98.4503 616.593C98.6564 616.228 98.6897 615.793 98.5442 615.402C98.3957 615.01 98.0836 614.698 97.6805 614.543L97.6381 614.526C97.0441 614.277 90.9191 611.602 85.3427 603.843C83.9941 601.986 82.6636 598.526 81.5695 594.49C79.9118 588.422 78.6844 581.01 77.8843 575.134C77.4812 572.197 77.1872 569.641 76.9902 567.822C76.7932 566.006 76.6993 564.931 76.6993 564.931C76.6477 564.359 76.2537 563.868 75.6931 563.675C75.1354 563.485 74.5081 563.629 74.0959 564.043L75.19 565.054Z" fill="#17282F"/>
<path d="M109.706 570.804C103.869 556.214 102.033 542.507 102.033 542.507L109.706 570.804Z" fill="white"/>
<path d="M111.122 570.278C108.239 563.08 106.336 556.071 105.16 550.873C104.572 548.274 104.166 546.128 103.906 544.635C103.775 543.888 103.681 543.304 103.624 542.909C103.563 542.515 103.536 542.32 103.536 542.32C103.43 541.519 102.669 540.953 101.839 541.058C101.008 541.16 100.423 541.893 100.53 542.693C100.542 542.761 102.381 556.553 108.294 571.329C108.594 572.083 109.473 572.457 110.252 572.167C111.034 571.875 111.422 571.031 111.122 570.278Z" fill="#17282F"/>
<path d="M121.189 591.082C118.38 587.651 115.952 583.819 113.861 579.854L121.189 591.082Z" fill="white"/>
<path d="M122.378 590.177C119.644 586.842 117.268 583.089 115.213 579.191C114.834 578.472 113.922 578.186 113.177 578.551C112.431 578.916 112.134 579.795 112.513 580.513C114.637 584.549 117.113 588.462 119.999 591.987C120.517 592.621 121.471 592.729 122.129 592.227C122.784 591.727 122.896 590.81 122.378 590.177Z" fill="#17282F"/>
<path d="M117.156 560.965C117.156 560.965 123.205 570.681 125.224 580.394L117.156 560.965Z" fill="white"/>
<path d="M115.859 561.716C115.859 561.716 115.943 561.85 116.107 562.128C117.256 564.046 122.047 572.486 123.738 580.68C123.902 581.472 124.699 581.985 125.52 581.828C126.342 581.667 126.872 580.899 126.708 580.108C124.605 570.05 118.492 560.288 118.456 560.212C118.026 559.52 117.095 559.298 116.377 559.713C115.659 560.127 115.425 561.024 115.859 561.716Z" fill="#17282F"/>
<defs>
<linearGradient id="paint0_linear_1887_696" x1="69" y1="-14" x2="195.788" y2="715.39" gradientUnits="userSpaceOnUse">
<stop stop-color="#DE1F1F" stop-opacity="0.5"/>
<stop offset="0.361528" stop-color="#671FDE" stop-opacity="0.5"/>
<stop offset="0.663293" stop-color="#221FDE" stop-opacity="0.5"/>
<stop offset="1" stop-color="#00A3FF" stop-opacity="0.5"/>
</linearGradient>
<linearGradient id="paint1_linear_1887_696" x1="31.5985" y1="639.89" x2="316.339" y2="389.689" gradientUnits="userSpaceOnUse">
<stop offset="0.0001" stop-color="#D29DC3"/>
<stop offset="0.984627" stop-color="#BA9DE9"/>
</linearGradient>
<linearGradient id="paint2_linear_1887_696" x1="288.337" y1="401.515" x2="489.103" y2="202.372" gradientUnits="userSpaceOnUse">
<stop offset="0.0677083" stop-color="#A79DE9"/>
<stop offset="1" stop-color="#98B4EF"/>
</linearGradient>
</defs>
</svg>
