<svg width="140" height="270" viewBox="0 0 140 270" fill="none" xmlns="http://www.w3.org/2000/svg">
<path d="M16 -6C16 -14.8366 23.1634 -22 32 -22H230C238.837 -22 246 -14.8366 246 -6V234C246 242.837 238.837 250 230 250H32C23.1634 250 16 242.837 16 234V-6Z" fill="url(#paint0_linear_1941_1208)" fill-opacity="0.8"/>
<path fill-rule="evenodd" clip-rule="evenodd" d="M101.724 171.655C101.322 171.727 100.995 171.944 100.746 172.306C100.28 176.712 100.606 181.055 101.724 185.335C107.738 184.718 113.175 182.655 118.035 179.146C121.055 178.892 123.448 177.589 125.212 175.238C127.546 174.174 129.72 174.283 131.736 175.563C132.351 175.956 132.532 176.752 132.389 177.518C130.125 184.535 125.775 189.855 119.34 193.477C115.537 195.04 111.622 196.234 107.596 197.06C108.725 199.687 109.812 202.293 110.858 204.877C110.469 205.03 110.252 205.355 110.206 205.854C110.707 207.245 111.141 208.657 111.511 210.088C111.235 215.803 110.473 221.449 109.227 227.024C108.142 229.627 106.729 232.016 104.986 234.19C105.525 234.767 106.177 234.984 106.944 234.841C106.801 235.607 107.018 236.258 107.596 236.795C108.756 235.434 109.951 234.131 111.185 232.887C111.5 232.27 111.608 231.618 111.511 230.933C112.163 230.933 112.816 230.933 113.468 230.933C113.468 231.15 113.468 231.367 113.468 231.584C111.609 235.184 109 238.224 105.639 240.704C105.599 239.341 104.947 238.364 103.682 237.773C104.345 237.089 104.454 236.329 104.008 235.493C99.6834 238.666 94.7902 240.294 89.328 240.378C79.597 240.834 69.9188 240.291 60.2947 238.75C56.6372 239.221 53.7012 240.957 51.4869 243.961C42.3222 249.474 33.4053 249.041 24.7371 242.658C23.6025 240.871 22.0798 239.568 20.1701 238.75C13.4911 227.763 10.9897 215.821 12.6671 202.922C13.2928 196.625 14.4887 190.436 16.2555 184.357C13.0142 179.103 9.20855 174.218 4.8379 169.701C-0.409625 160.948 -1.38827 151.828 1.90195 142.342C3.61719 142.218 5.46554 142.435 7.44763 142.993C10.516 153.027 14.9741 162.364 20.8225 171.004C22.0152 167.752 23.2111 164.495 24.4109 161.233C24.4898 162.683 25.0333 163.877 26.042 164.815C24.882 166.206 24.4468 167.835 24.7371 169.701C25.3895 169.701 26.042 169.701 26.6944 169.701C26.4948 167.822 26.712 166.084 27.3468 164.49C25.5455 177.537 25.6544 190.565 27.6731 203.574C31.3841 219.004 41.0617 228.231 56.7064 231.259C64.1532 232.303 71.33 231.434 78.2366 228.653C85.1746 224.684 87.5671 218.93 85.4134 211.391C83.2447 205.654 81.3964 199.791 79.8677 193.803C79.4326 188.375 79.4326 182.946 79.8677 177.518C80.2011 175.969 80.6363 174.448 81.1726 172.958C84.1653 168.07 86.9923 163.075 89.6542 157.976C91.2103 149.964 89.3613 142.907 84.1085 136.805C78.418 134.046 73.3075 134.806 68.7764 139.085C66.8034 143.036 64.5199 146.727 61.9258 150.159C59.7689 148.803 57.8116 147.174 56.0539 145.273C54.9878 144.952 53.9002 144.843 52.7917 144.947C52.9705 140.563 52.6443 136.22 51.8131 131.919C50.7072 129.077 48.641 127.992 45.615 128.662C40.389 129.192 36.1482 131.581 32.8925 135.828C30.5627 138.956 29.1495 142.43 28.6517 146.25C28.4345 146.25 28.8345 146.317 28.6172 146.317C28.0764 151.63 27.1322 156.992 27.0206 162.535C26.8784 160.629 26.5522 158.783 26.042 156.998C26.9071 152.7 26.9071 148.466 26.042 144.296C26.849 138.992 28.9146 134.215 32.2401 129.965C41.2091 120.66 52.1922 116.317 65.188 116.937C65.905 112.536 68.5147 110.582 73.0172 111.074C72.8117 112.199 72.7034 113.284 72.691 114.331C76.0856 111.243 79.565 111.026 83.1299 113.68C83.5938 114.896 83.2676 115.873 82.1513 116.611C80.4471 117.028 78.9243 117.788 77.5842 118.891C96.5968 124.737 106.057 137.548 105.965 157.324C104.913 161.887 103.282 166.23 101.072 170.352C101.309 170.797 101.526 171.232 101.724 171.655Z" fill="#322F2F"/>
<path fill-rule="evenodd" clip-rule="evenodd" d="M52.791 144.947C51.2206 145.791 49.8068 146.876 48.5502 148.204C48.0987 148.815 48.2076 149.249 48.8764 149.507C49.3116 150.159 49.7461 150.81 50.1813 151.461C49.2613 156.389 51.2186 158.017 56.0532 156.347C57.6816 155.643 59.2044 154.775 60.6202 153.741C61.7 152.801 62.1351 151.606 61.9251 150.159C64.5191 146.727 66.8026 143.036 68.7756 139.085C73.3068 134.806 78.4173 134.046 84.1078 136.805C89.3605 142.907 91.2095 149.964 89.6535 157.976C86.9915 163.075 84.1646 168.07 81.1718 172.958C80.6355 174.448 80.2004 175.969 79.867 177.518C79.4318 182.946 79.4318 188.375 79.867 193.803C81.3956 199.791 83.244 205.654 85.4127 211.391C85.491 212.846 85.2737 214.258 84.7602 215.625C83.2583 217.43 81.9535 219.277 80.8456 221.162C63.4628 225.895 49.0003 221.335 37.4588 207.482C32.0971 197.823 31.8798 188.052 36.8064 178.169C38.4374 176.541 40.0685 174.912 41.6996 173.284C43.6967 171.958 45.8719 171.198 48.224 171.004C48.224 170.352 48.224 169.701 48.224 169.049C41.6363 167.552 36.0906 164.295 31.5869 159.278C30.5678 157.678 29.9154 155.941 29.6296 154.067C29.4123 157.759 29.1944 161.449 28.9772 165.141C28.6509 158.848 28.5426 152.551 28.6509 146.25C29.1488 142.43 30.5619 138.956 32.8918 135.828C36.1474 131.581 40.3882 129.192 45.6142 128.662C48.6402 127.992 50.7065 129.077 51.8123 131.919C52.6435 136.22 52.9698 140.563 52.791 144.947Z" fill="#FCFBFB"/>
<path fill-rule="evenodd" clip-rule="evenodd" d="M36.4797 138.433C40.0831 138.223 43.019 139.526 45.2875 142.342C45.7227 142.776 45.7227 143.21 45.2875 143.645C42.424 141.134 39.0529 139.831 35.1748 139.736C35.6596 139.292 36.0941 138.858 36.4797 138.433Z" fill="#232323"/>
<path fill-rule="evenodd" clip-rule="evenodd" d="M26.0424 144.296C26.9075 148.466 26.9075 152.7 26.0424 156.998C26.5526 158.783 26.8788 160.629 27.021 162.535C27.1326 156.992 27.4588 151.564 27.9997 146.25C28.7405 151.957 27.9958 158.528 27.3472 164.49C26.8147 166.206 26.4952 167.822 26.6948 169.701C26.0424 169.701 25.3899 169.701 24.7375 169.701C24.4472 167.835 24.8824 166.206 26.0424 164.815C24.4417 163.607 24.4902 162.683 24.4113 161.233C23.2115 164.495 22.0156 167.752 20.8229 171.004C14.9745 162.364 10.5164 153.027 7.44803 142.993C5.46594 142.435 3.61759 142.218 1.90234 142.342C2.65656 139.079 4.61386 137.451 7.77424 137.456C9.57431 141.503 11.4233 145.52 13.3199 149.507C16.5123 153.023 20.3186 155.629 24.7375 157.324C25.189 156.982 25.5152 156.548 25.7162 156.021C26.0417 152.119 26.1507 148.21 26.0424 144.296Z" fill="#242223"/>
<path fill-rule="evenodd" clip-rule="evenodd" d="M74.3224 143.645C77.0516 143.218 78.8999 144.304 79.8681 146.902C81.5834 153.876 79.0819 156.373 72.3651 154.393C68.2822 149.977 69.0436 147.915 74.6487 148.204C75.0114 146.651 74.9031 145.131 74.3224 143.645Z" fill="#322E2F"/>
<path fill-rule="evenodd" clip-rule="evenodd" d="M52.792 144.947C53.9004 144.843 54.9881 144.952 56.0541 145.273C57.8118 147.174 59.7691 148.803 61.926 150.159C62.1361 151.606 61.7009 152.801 60.6212 153.741C59.2054 154.775 57.6826 155.644 56.0541 156.347C51.2196 158.017 49.2623 156.389 50.1822 151.462C50.4967 153.12 51.1491 154.64 52.1395 156.021C54.5522 154.817 56.944 153.623 59.3163 152.439C56.7066 151.353 54.0968 150.267 51.4871 149.182C50.4654 148.683 49.5957 148.792 48.8774 149.507C48.2086 149.249 48.0997 148.815 48.5511 148.204C49.8077 146.876 51.2216 145.791 52.792 144.947Z" fill="#EC9853"/>
<path fill-rule="evenodd" clip-rule="evenodd" d="M50.1813 151.461C49.7462 150.81 49.3116 150.159 48.8765 149.507C49.5948 148.792 50.4645 148.683 51.4862 149.182C54.0959 150.267 56.7057 151.353 59.3154 152.439C56.9432 153.623 54.5513 154.817 52.1386 156.021C51.1482 154.64 50.4958 153.12 50.1813 151.461Z" fill="#DF6A39"/>
<path fill-rule="evenodd" clip-rule="evenodd" d="M28.2495 149.429C28.2495 149.429 28.4624 146.131 28.6796 146.131C28.5713 152.431 28.6531 158.848 28.9793 165.141C29.1966 161.449 29.4145 157.759 29.6318 154.067C29.9175 155.941 30.57 157.678 31.5891 159.278C36.0928 164.295 41.6385 167.552 48.2261 169.049C48.2261 169.701 48.2261 170.352 48.2261 171.004C45.8741 171.198 43.6989 171.958 41.7018 173.284C40.0707 174.912 38.4396 176.541 36.8085 178.169C31.882 188.052 32.0993 197.823 37.461 207.482C49.0025 221.335 63.465 225.895 80.8478 221.162C81.9556 219.277 83.2605 217.43 84.7624 215.625C85.2759 214.258 85.4931 212.846 85.4148 211.391C87.5685 218.93 85.176 224.684 78.2381 228.653C71.3314 231.434 64.1546 232.303 56.7078 231.259C41.0631 228.231 31.3855 219.004 27.6745 203.574C25.6558 190.565 25.5469 177.537 27.3483 164.49C27.9627 158.463 28.3929 155.595 28.2495 149.429Z" fill="#F0EFF1"/>
<path fill-rule="evenodd" clip-rule="evenodd" d="M132.39 177.518C132.495 176.817 132.352 176.53 132.024 175.85C130.008 174.57 127.547 174.174 125.213 175.238C123.449 177.589 121.056 178.892 118.036 179.146C113.176 182.655 107.739 184.718 101.725 185.335C100.607 181.055 100.281 176.712 100.746 172.306C100.996 171.944 101.323 171.727 101.725 171.655C108.037 175.518 114.779 176.495 121.951 174.586C124.916 172.781 127.96 171.152 131.085 169.701C132.082 169.72 132.844 170.154 133.368 171.004C133.808 173.357 133.482 175.528 132.39 177.518Z" fill="#252223"/>
<path fill-rule="evenodd" clip-rule="evenodd" d="M110.857 204.877C114.301 213.338 115.172 222.024 113.467 230.933C112.815 230.933 112.162 230.933 111.51 230.933C111.607 231.618 111.499 232.269 111.183 232.887C109.95 234.131 108.754 235.434 107.595 236.795C107.017 236.258 106.8 235.607 106.943 234.841C106.176 234.984 105.524 234.767 104.985 234.19C106.683 231.879 108.141 229.627 109.226 227.024C110.472 221.449 111.234 215.803 111.51 210.088C111.14 208.657 110.706 207.245 110.205 205.854C110.25 205.355 110.468 205.03 110.857 204.877Z" fill="#252222"/>
<path fill-rule="evenodd" clip-rule="evenodd" d="M105.639 240.704C104.987 240.921 104.552 241.355 104.334 242.007C99.2988 245.674 93.6442 247.736 87.3711 248.195C77.3516 248.301 67.3479 248.084 57.3591 247.544C55.3712 247.88 53.849 248.857 52.7921 250.475C49.5508 251.656 46.2886 252.85 43.0056 254.058C39.4198 254.611 35.9404 254.285 32.5666 253.081C27.0327 249.51 22.9008 244.733 20.1704 238.75C22.2258 239.479 23.6597 240.77 24.7374 242.658C33.4057 249.041 42.3225 249.474 51.4872 243.961C53.7016 240.957 56.6375 239.221 60.2951 238.75C69.9191 240.291 79.5973 240.833 89.3284 240.378C94.7905 240.294 99.6838 238.666 104.008 235.493C104.533 236.324 104.345 237.089 103.682 237.773C104.963 238.332 105.639 239.336 105.639 240.704Z" fill="#262222"/>
<path fill-rule="evenodd" clip-rule="evenodd" d="M113.468 231.584C113.871 231.657 114.197 231.873 114.447 232.236C115.288 240.024 119.638 244.367 127.495 245.264C127.604 245.698 127.713 246.132 127.822 246.567C127.154 247.546 126.502 248.523 125.864 249.498C126.988 252.879 125.684 254.399 121.95 254.058C122.837 255.32 122.62 256.405 121.297 257.315C110.871 257.66 105.217 252.557 104.334 242.007C104.551 241.355 104.986 240.921 105.639 240.704C109 238.224 111.609 235.184 113.468 231.584Z" fill="#E39DA7"/>
<path fill-rule="evenodd" clip-rule="evenodd" d="M52.7916 250.475C51.6244 253.284 49.7754 255.673 47.2459 257.64C45.3127 261.831 42.8113 265.631 39.7429 269.04C38.119 269.653 36.8141 269.327 35.8283 268.063C37.6101 267.72 39.3502 267.177 41.0478 266.434C42.1302 264.526 42.3474 262.572 41.7002 260.572C38.4896 259.434 35.6626 257.696 33.2186 255.36C30.1078 255.828 27.6063 257.456 25.7156 260.246C25.4005 260.864 25.2922 261.515 25.3894 262.2C24.673 261.483 24.5641 260.615 25.0632 259.595C27.3062 257.027 29.807 254.856 32.5661 253.081C35.9399 254.285 39.4193 254.611 43.0051 254.058C46.2881 252.85 49.5503 251.656 52.7916 250.475Z" fill="#E39DA7"/>
<path fill-rule="evenodd" clip-rule="evenodd" d="M35.8279 268.063C35.3712 265.253 34.2836 264.928 32.5657 267.086C28.7614 268.171 27.0214 266.759 27.3463 262.852C26.504 263.006 25.8515 262.789 25.389 262.2C25.2917 261.515 25.4001 260.864 25.7152 260.246C27.6059 257.456 30.1074 255.828 33.2182 255.361C35.6622 257.696 38.4892 259.434 41.6998 260.572C42.347 262.572 42.1298 264.526 41.0474 266.434C39.3497 267.177 37.6097 267.72 35.8279 268.063Z" fill="#DA969F"/>
<defs>
<linearGradient id="paint0_linear_1941_1208" x1="16" y1="-22" x2="70.7541" y2="281.605" gradientUnits="userSpaceOnUse">
<stop stop-color="#DE1F1F" stop-opacity="0.5"/>
<stop offset="0.361528" stop-color="#671FDE" stop-opacity="0.5"/>
<stop offset="0.663293" stop-color="#221FDE" stop-opacity="0.5"/>
<stop offset="1" stop-color="#00A3FF" stop-opacity="0.5"/>
</linearGradient>
</defs>
</svg>
