<svg width="466" height="553" viewBox="0 0 466 553" fill="none" xmlns="http://www.w3.org/2000/svg">
<path fill-rule="evenodd" clip-rule="evenodd" d="M354.707 211.501C353.304 211.753 352.166 212.51 351.295 213.773C349.671 229.134 350.808 244.278 354.707 259.201C375.678 257.052 394.636 249.859 411.583 237.622C422.113 236.737 430.456 232.194 436.608 223.994C444.745 220.285 452.328 220.664 459.358 225.13C461.5 226.5 462.131 229.275 461.633 231.944C453.738 256.414 438.571 274.962 416.133 287.594C402.872 293.043 389.222 297.206 375.182 300.086C379.118 309.247 382.908 318.333 386.557 327.343C385.199 327.877 384.442 329.013 384.283 330.75C386.03 335.602 387.545 340.524 388.832 345.515C387.87 365.444 385.215 385.13 380.87 404.571C377.087 413.648 372.159 421.977 366.082 429.557C367.959 431.569 370.234 432.326 372.907 431.828C372.409 434.497 373.167 436.769 375.182 438.643C379.225 433.895 383.395 429.352 387.695 425.014C388.794 422.861 389.171 420.589 388.832 418.2C391.107 418.2 393.383 418.2 395.658 418.2C395.658 418.956 395.658 419.715 395.658 420.471C389.176 433.023 380.076 443.624 368.357 452.271C368.219 447.519 365.944 444.112 361.532 442.05C363.846 439.667 364.226 437.016 362.67 434.1C347.591 445.164 330.529 450.842 311.482 451.135C277.551 452.723 243.803 450.831 210.245 445.457C197.491 447.099 187.254 453.155 179.532 463.628C147.575 482.853 116.483 481.341 86.2571 459.085C82.3009 452.855 76.991 448.312 70.3321 445.457C47.0429 407.147 38.3205 365.505 44.1695 320.529C46.3513 298.569 50.5214 276.991 56.6821 255.794C45.3798 237.472 32.1098 220.437 16.8695 204.687C-1.42834 174.166 -4.84084 142.366 6.632 109.287C12.613 108.856 19.0581 109.613 25.9695 111.559C36.6689 146.546 52.214 179.104 72.6071 209.23C76.7658 197.893 80.9359 186.536 85.1196 175.159C85.3949 180.217 87.2899 184.38 90.8071 187.651C86.7622 192.501 85.2447 198.179 86.2571 204.687C88.5321 204.687 90.8071 204.687 93.0821 204.687C92.386 198.134 93.1435 192.076 95.3571 186.516C89.0758 232.012 89.4558 277.44 96.4946 322.8C109.435 376.603 143.18 408.78 197.732 419.336C223.699 422.977 248.724 419.949 272.807 410.25C297 396.41 305.342 376.347 297.832 350.057C290.27 330.053 283.825 309.61 278.495 288.729C276.977 269.802 276.977 250.872 278.495 231.944C279.657 226.542 281.175 221.241 283.045 216.044C293.48 198.999 303.338 181.584 312.62 163.801C318.046 135.866 311.598 111.258 293.282 89.9805C273.44 80.359 255.62 83.0088 239.82 97.9304C232.94 111.708 224.978 124.58 215.932 136.544C208.411 131.816 201.586 126.138 195.457 119.509C191.74 118.388 187.947 118.009 184.082 118.373C184.706 103.085 183.568 87.9426 180.67 72.9449C176.814 63.0349 169.609 59.2491 159.057 61.5878C140.834 63.4349 126.047 71.7635 114.695 86.5733C106.571 97.4807 101.643 109.595 99.9071 122.916C99.1495 122.916 100.544 123.147 99.7869 123.147C97.9009 141.674 94.6086 160.372 94.2196 179.701C93.7237 173.055 92.5862 166.618 90.8071 160.394C93.8238 145.405 93.8238 130.642 90.8071 116.102C93.6213 97.6061 100.824 80.9491 112.42 66.1306C143.694 33.6839 181.992 18.5411 227.307 20.7023C229.808 5.35529 238.908 -1.45896 254.607 0.259594C253.891 4.17983 253.513 7.96537 253.47 11.6167C265.307 0.848117 277.439 0.091054 289.87 9.34525C291.487 13.5855 290.35 16.9926 286.457 19.5666C280.515 21.0192 275.205 23.6692 270.532 27.5166C336.828 47.9002 369.816 92.5715 369.495 161.53C365.828 177.439 360.14 192.583 352.432 206.958C353.258 208.51 354.016 210.025 354.707 211.501Z" fill="#322F2F"/>
<path fill-rule="evenodd" clip-rule="evenodd" d="M184.083 118.373C178.607 121.313 173.677 125.099 169.296 129.73C167.721 131.858 168.101 133.372 170.433 134.273C171.951 136.544 173.466 138.816 174.983 141.087C171.775 158.268 178.601 163.947 195.458 158.123C201.137 155.67 206.447 152.64 211.383 149.037C215.148 145.757 216.666 141.592 215.933 136.544C224.979 124.579 232.941 111.708 239.821 97.9303C255.621 83.0086 273.441 80.3588 293.283 89.9803C311.599 111.258 318.047 135.865 312.621 163.801C303.339 181.584 293.481 198.999 283.046 216.044C281.176 221.241 279.658 226.542 278.496 231.944C276.978 250.871 276.978 269.801 278.496 288.729C283.826 309.61 290.271 330.053 297.833 350.057C298.106 355.132 297.349 360.054 295.558 364.821C290.321 371.118 285.771 377.555 281.908 384.128C221.295 400.633 170.866 384.733 130.621 336.429C111.925 302.746 111.167 268.675 128.346 234.215C134.033 228.537 139.721 222.858 145.408 217.18C152.372 212.557 159.957 209.909 168.158 209.23C168.158 206.958 168.158 204.687 168.158 202.415C145.188 197.196 125.85 185.839 110.146 168.344C106.592 162.763 104.317 156.705 103.321 150.173C102.563 163.045 101.803 175.915 101.046 188.787C99.9081 166.843 99.5305 144.885 99.9081 122.916C101.644 109.595 106.572 97.4805 114.696 86.5732C126.048 71.7633 140.835 63.4347 159.058 61.5876C169.61 59.249 176.815 63.0347 180.671 72.9447C183.569 87.9424 184.707 103.085 184.083 118.373Z" fill="#FCFBFB"/>
<path fill-rule="evenodd" clip-rule="evenodd" d="M127.208 95.6586C139.773 94.9263 150.011 99.4692 157.921 109.287C159.438 110.801 159.438 112.316 157.921 113.83C147.936 105.075 136.181 100.532 122.658 100.201C124.349 98.6528 125.864 97.1385 127.208 95.6586Z" fill="#232323"/>
<path fill-rule="evenodd" clip-rule="evenodd" d="M90.8069 116.102C93.8236 130.642 93.8236 145.405 90.8069 160.394C92.586 166.618 93.7235 173.055 94.2194 179.701C94.6085 160.372 95.746 141.443 97.632 122.916C100.215 142.817 97.6183 165.728 95.3569 186.516C93.5 192.5 92.3858 198.134 93.0819 204.687C90.8069 204.687 88.5319 204.687 86.2569 204.687C85.2446 198.179 86.762 192.501 90.8069 187.651C85.2255 183.438 85.3947 180.217 85.1194 175.158C80.9357 186.536 76.7656 197.893 72.6069 209.23C52.2138 179.104 36.6687 146.545 25.9694 111.559C19.0579 109.613 12.6128 108.856 6.63184 109.287C9.26174 97.9106 16.0867 92.2321 27.1069 92.2519C33.3836 106.364 39.831 120.371 46.4444 134.273C57.576 146.532 70.8483 155.618 86.2569 161.53C87.8312 160.338 88.9687 158.822 89.6694 156.987C90.8047 143.379 91.1846 129.751 90.8069 116.102Z" fill="#242223"/>
<path fill-rule="evenodd" clip-rule="evenodd" d="M259.157 113.83C268.673 112.344 275.118 116.129 278.494 125.187C284.475 149.505 275.753 158.214 252.332 151.308C238.095 135.912 240.75 128.719 260.294 129.73C261.559 124.313 261.181 119.013 259.157 113.83Z" fill="#322E2F"/>
<path fill-rule="evenodd" clip-rule="evenodd" d="M184.083 118.373C187.948 118.009 191.74 118.388 195.458 119.509C201.586 126.138 208.411 131.817 215.933 136.545C216.665 141.592 215.148 145.757 211.383 149.037C206.446 152.64 201.136 155.67 195.458 158.123C178.6 163.947 171.775 158.268 174.983 141.087C176.079 146.87 178.354 152.17 181.808 156.987C190.221 152.787 198.561 148.624 206.833 144.494C197.733 140.709 188.633 136.923 179.533 133.137C175.97 131.4 172.937 131.778 170.433 134.273C168.101 133.372 167.721 131.858 169.295 129.73C173.677 125.099 178.607 121.314 184.083 118.373Z" fill="#EC9853"/>
<path fill-rule="evenodd" clip-rule="evenodd" d="M174.982 141.087C173.464 138.816 171.949 136.544 170.432 134.273C172.936 131.778 175.969 131.399 179.532 133.137C188.632 136.923 197.732 140.708 206.832 144.494C198.56 148.624 190.22 152.787 181.807 156.987C178.353 152.169 176.078 146.87 174.982 141.087Z" fill="#DF6A39"/>
<path fill-rule="evenodd" clip-rule="evenodd" d="M98.5 134C98.5 134 99.2424 122.5 100 122.5C99.6223 144.469 99.9076 166.843 101.045 188.787C101.803 175.915 102.562 163.045 103.32 150.173C104.317 156.705 106.592 162.763 110.145 168.344C125.849 185.839 145.187 197.196 168.158 202.415C168.158 204.687 168.158 206.958 168.158 209.23C159.956 209.909 152.371 212.557 145.408 217.18C139.72 222.858 134.033 228.537 128.345 234.215C111.167 268.675 111.924 302.746 130.62 336.429C170.865 384.733 221.295 400.633 281.908 384.129C285.771 377.555 290.321 371.118 295.558 364.822C297.348 360.054 298.106 355.132 297.833 350.057C305.343 376.347 297 396.41 272.808 410.25C248.725 419.949 223.7 422.977 197.733 419.336C143.18 408.78 109.435 376.603 96.495 322.8C89.4562 277.44 89.0763 232.012 95.3575 186.516C97.5 165.5 99 155.5 98.5 134Z" fill="#F0EFF1"/>
<path fill-rule="evenodd" clip-rule="evenodd" d="M461.632 231.944C462 229.5 461.5 228.5 460.357 226.13C453.328 221.664 444.745 220.285 436.607 223.994C430.456 232.194 422.113 236.736 411.582 237.622C394.636 249.858 375.678 257.052 354.707 259.201C350.808 244.278 349.67 229.134 351.295 213.772C352.166 212.51 353.303 211.753 354.707 211.501C376.718 224.971 400.225 228.378 425.232 221.722C435.572 215.426 446.187 209.748 457.082 204.687C460.561 204.753 463.216 206.268 465.045 209.23C466.578 217.434 465.441 225.007 461.632 231.944Z" fill="#252223"/>
<path fill-rule="evenodd" clip-rule="evenodd" d="M386.557 327.343C398.567 356.849 401.602 387.134 395.657 418.2C393.382 418.2 391.107 418.2 388.832 418.2C389.171 420.589 388.793 422.861 387.695 425.014C383.395 429.352 379.225 433.895 375.182 438.643C373.166 436.769 372.409 434.497 372.907 431.828C370.234 432.326 367.959 431.569 366.082 429.557C372 421.5 377.086 413.648 380.87 404.571C385.215 385.13 387.87 365.444 388.832 345.515C387.544 340.524 386.029 335.602 384.282 330.75C384.441 329.013 385.199 327.877 386.557 327.343Z" fill="#252222"/>
<path fill-rule="evenodd" clip-rule="evenodd" d="M368.358 452.271C366.083 453.027 364.566 454.542 363.808 456.814C346.25 469.602 326.532 476.793 304.658 478.392C269.721 478.76 234.838 478.004 200.008 476.121C193.076 477.293 187.769 480.7 184.083 486.342C172.781 490.46 161.406 494.624 149.958 498.835C137.455 500.763 125.322 499.628 113.558 495.428C94.2615 482.976 79.8539 466.32 70.333 445.457C77.5 448 82.5 452.5 86.258 459.085C116.484 481.341 147.576 482.853 179.533 463.628C187.255 453.155 197.492 447.099 210.246 445.457C243.804 450.831 277.552 452.723 311.483 451.135C330.53 450.842 347.592 445.164 362.671 434.1C364.5 437 363.847 439.667 361.533 442.05C366 444 368.358 447.5 368.358 452.271Z" fill="#262222"/>
<path fill-rule="evenodd" clip-rule="evenodd" d="M395.658 420.471C397.061 420.723 398.199 421.48 399.07 422.743C402.005 449.902 417.172 465.043 444.57 468.171C444.95 469.686 445.328 471.199 445.708 472.714C443.38 476.128 441.105 479.535 438.883 482.935C442.803 494.726 438.253 500.025 425.233 498.835C428.327 503.237 427.569 507.021 422.958 510.192C386.603 511.396 366.888 493.602 363.808 456.814C364.565 454.542 366.083 453.027 368.358 452.271C380.076 443.624 389.176 433.023 395.658 420.471Z" fill="#E39DA7"/>
<path fill-rule="evenodd" clip-rule="evenodd" d="M184.082 486.342C180.012 496.137 173.565 504.466 164.745 511.328C158.004 525.94 149.282 539.189 138.582 551.078C132.92 553.215 128.37 552.079 124.932 547.67C131.145 546.473 137.213 544.581 143.132 541.992C146.907 535.337 147.664 528.522 145.407 521.549C134.212 517.581 124.354 511.523 115.832 503.378C104.985 505.006 96.2628 510.685 89.6698 520.413C88.571 522.567 88.1933 524.838 88.5323 527.228C86.0343 524.727 85.6544 521.699 87.3948 518.142C95.2163 509.19 103.936 501.617 113.557 495.428C125.321 499.628 137.454 500.763 149.957 498.835C161.405 494.624 172.78 490.46 184.082 486.342Z" fill="#E39DA7"/>
<path fill-rule="evenodd" clip-rule="evenodd" d="M124.931 547.67C123.339 537.874 119.546 536.738 113.556 544.263C100.291 548.047 94.2234 543.125 95.3563 529.499C92.4193 530.037 90.1443 529.281 88.5313 527.228C88.1924 524.838 88.57 522.567 89.6688 520.413C96.2618 510.685 104.984 505.006 115.831 503.378C124.354 511.523 134.211 517.581 145.406 521.549C147.663 528.522 146.906 535.337 143.131 541.992C137.212 544.581 131.144 546.473 124.931 547.67Z" fill="#DA969F"/>
</svg>
