<svg width="145" height="251" viewBox="0 0 145 251" fill="none" xmlns="http://www.w3.org/2000/svg">
<path d="M20 -2.00001C20 -10.8366 27.1634 -18 36 -18H141C149.837 -18 157 -10.8366 157 -2V235C157 243.837 149.837 251 141 251H36C27.1634 251 20 243.837 20 235V-2.00001Z" fill="url(#paint0_linear_416_1064)" fill-opacity="0.8"/>
<path d="M184.513 178.608C184.513 178.608 123.106 171.239 117.768 169.226C112.432 167.213 64.1656 142.838 61.1488 141.72C58.1321 140.601 53.4908 141.72 51.8663 142.613C50.2417 143.508 42.5837 145.967 38.8708 147.756C35.1579 149.544 16.5927 156.699 12.8798 158.711C9.16694 160.723 7.54242 164.525 7.31013 166.76C7.07785 168.996 1.97197 186.661 2.89964 190.238C3.82805 193.816 5.45109 205.443 6.84333 208.574C8.23557 211.705 9.8601 211.034 11.4846 210.81C13.1092 210.587 18.4466 207.904 18.4466 207.904C18.4466 207.904 20.5349 215.506 22.8548 219.084C25.1747 222.662 27.9592 228.699 30.7444 228.7C33.5289 228.7 35.8496 226.24 35.8496 226.24C35.8496 226.24 50.4688 231.16 54.1817 231.831C57.8946 232.502 60.4468 231.832 61.3752 230.266C62.3036 228.701 61.1437 224.9 61.1437 224.9C61.1437 224.9 72.2823 224.9 71.8185 219.757C71.3547 214.614 68.8025 212.825 67.1779 212.155C65.5534 211.484 60.6806 210.813 60.6806 210.813L71.3554 210.814C71.3554 210.814 80.405 213.497 91.5436 217.746C102.682 221.995 112.196 223.337 124.96 221.326C137.722 219.314 139.811 217.525 142.132 217.526C144.452 217.526 221.115 234.195 221.115 234.195" fill="#F1F1F1"/>
<path d="M175.619 177.194C175.617 177.194 164.396 175.694 163.24 175.556C159.194 175.075 149.007 173.844 139.25 172.514C134.371 171.849 129.6 171.159 125.761 170.526C123.841 170.209 122.155 169.907 120.806 169.63C119.46 169.354 118.444 169.098 117.903 168.893C117.261 168.652 115.921 168.05 114.089 167.191C107.669 164.179 95.1328 157.975 83.8761 152.404C78.2471 149.618 72.9371 146.989 68.8688 144.996C66.8346 143.999 65.1106 143.161 63.8111 142.541C62.5079 141.92 61.6463 141.522 61.2812 141.386C60.3194 141.03 59.2285 140.894 58.1271 140.893C56.8373 140.894 55.5312 141.082 54.3957 141.35C53.2595 141.619 52.3006 141.964 51.6817 142.303C51.3158 142.506 50.5329 142.829 49.5347 143.211C46.5298 144.361 41.5271 146.077 38.704 147.436C36.8777 148.316 31.2976 150.558 25.7308 152.82C22.9456 153.952 20.1597 155.092 17.8353 156.074C15.5095 157.059 13.6549 157.882 12.6975 158.399C10.7732 159.443 9.39503 160.946 8.46885 162.471C7.54267 163.999 7.06399 165.547 6.94079 166.725C6.89478 167.182 6.58531 168.522 6.15191 170.293C5.5018 172.958 4.56894 176.652 3.79861 180.175C3.02902 183.703 2.4175 187.042 2.41602 189.07C2.41602 189.563 2.4509 189.981 2.53921 190.325C2.99562 192.082 3.63608 195.89 4.3322 199.637C4.68026 201.512 5.04317 203.374 5.40755 204.969C5.77343 206.565 6.1341 207.885 6.5022 208.715C6.96455 209.754 7.46474 210.423 8.02208 210.838C8.57868 211.254 9.18648 211.387 9.75199 211.385C10.3835 211.383 10.9795 211.239 11.5368 211.164C12.0103 211.097 12.653 210.88 13.3959 210.593C15.6104 209.733 18.6123 208.223 18.6175 208.221L18.4461 207.904L18.0876 207.996C18.0884 208 18.6123 209.906 19.4279 212.265C20.2457 214.627 21.3478 217.432 22.5397 219.273C23.687 221.042 24.965 223.449 26.3149 225.43C26.991 226.421 27.6841 227.306 28.4092 227.961C29.1313 228.612 29.9016 229.053 30.7439 229.057C32.2519 229.054 33.5878 228.401 34.5511 227.764C35.5144 227.126 36.1103 226.494 36.1236 226.481L35.8491 226.24L35.7266 226.577C35.7274 226.578 39.3838 227.809 43.5064 229.123C45.5673 229.781 47.7447 230.46 49.6423 231.017C51.5415 231.574 53.1519 232.009 54.1129 232.183C55.1029 232.362 56.0165 232.448 56.847 232.448C58.0195 232.448 59.0281 232.277 59.8504 231.941C60.6712 231.607 61.3087 231.1 61.6968 230.444C62.0144 229.9 62.1035 229.221 62.1057 228.517C62.1035 226.764 61.5023 224.815 61.4994 224.799L61.1432 224.9V225.257C61.1617 225.257 63.8512 225.259 66.5748 224.644C67.9374 224.334 69.3111 223.874 70.3768 223.153C71.4395 222.439 72.2076 221.411 72.2031 220.066C72.2031 219.955 72.198 219.842 72.1876 219.727C71.9516 217.103 71.1768 215.3 70.2313 214.067C69.2873 212.833 68.1808 212.18 67.3236 211.826C66.8783 211.643 66.2587 211.474 65.5625 211.314C63.4809 210.837 60.738 210.46 60.732 210.459L60.6801 210.813V211.171H71.3549V210.814L71.2451 211.155C71.2473 211.156 71.8076 211.322 72.8288 211.64C75.8908 212.591 83.0628 214.896 91.4066 218.078C99.1626 221.038 106.166 222.601 114.01 222.601C117.472 222.601 121.095 222.297 125.019 221.679C131.413 220.671 135.146 219.716 137.567 219.014C138.777 218.663 139.657 218.375 140.365 218.18C141.074 217.985 141.601 217.883 142.131 217.883V217.529L142.097 217.882L142.131 217.883V217.529L142.097 217.882L142.131 217.883C142.154 217.882 142.302 217.896 142.505 217.927C144.128 218.166 149.875 219.329 157.544 220.932C169.054 223.338 184.926 226.741 197.921 229.542C204.418 230.943 210.196 232.193 214.35 233.093C216.427 233.544 218.097 233.906 219.249 234.156C220.4 234.406 221.033 234.544 221.033 234.544C221.233 234.587 221.431 234.466 221.476 234.273C221.522 234.081 221.396 233.889 221.196 233.846C221.196 233.846 202.03 229.679 182.574 225.511C172.845 223.427 163.045 221.344 155.53 219.78C151.772 218.999 148.586 218.348 146.265 217.891C145.105 217.663 144.161 217.484 143.468 217.361C143.121 217.3 142.837 217.252 142.618 217.22C142.395 217.187 142.253 217.169 142.131 217.168V217.526L142.165 217.17L142.131 217.168C141.499 217.168 140.895 217.29 140.161 217.493C139.059 217.797 137.64 218.288 135.293 218.894C132.946 219.5 129.675 220.22 124.899 220.973C121.009 221.586 117.426 221.886 114.01 221.886C106.27 221.885 99.38 220.35 91.6797 217.413C80.5269 213.159 71.4699 210.473 71.464 210.472L71.3549 210.456L60.6801 210.455C60.4849 210.455 60.3238 210.601 60.3097 210.788C60.2956 210.975 60.4344 211.141 60.6274 211.167C60.6281 211.167 60.9287 211.208 61.4088 211.281C62.1287 211.391 63.2478 211.571 64.3336 211.786C65.4156 211.999 66.4783 212.253 67.0312 212.483C67.7986 212.801 68.7797 213.377 69.6346 214.491C70.4873 215.606 71.2206 217.269 71.4484 219.789C71.4566 219.883 71.461 219.976 71.461 220.066C71.4566 221.138 70.8896 221.922 69.9493 222.568C68.543 223.528 66.3269 224.043 64.4761 224.29C63.5506 224.416 62.715 224.479 62.1116 224.511C61.8103 224.526 61.5669 224.534 61.3999 224.539C61.233 224.542 61.1439 224.542 61.1432 224.542C61.0266 224.542 60.9161 224.596 60.8463 224.686C60.7765 224.775 60.7543 224.893 60.7877 225.001L60.8114 225.082C60.9213 225.46 61.3658 227.116 61.3636 228.517C61.3665 229.157 61.2656 229.737 61.0526 230.088C60.7558 230.589 60.2645 230.994 59.5602 231.283C58.8574 231.57 57.9446 231.733 56.847 231.732C56.0699 231.732 55.2009 231.652 54.2495 231.48C53.3545 231.318 51.7448 230.887 49.8583 230.332C47.0263 229.501 43.5524 228.393 40.7894 227.493C39.4068 227.044 38.2024 226.646 37.3437 226.361C36.4843 226.075 35.9723 225.903 35.9715 225.902C35.8305 225.855 35.6747 225.893 35.5745 226L35.5522 226.022C35.4335 226.144 34.8338 226.735 33.9589 227.286C33.0846 227.839 31.9403 228.344 30.7439 228.342C30.194 228.346 29.5714 228.033 28.9161 227.439C27.9342 226.555 26.9234 225.091 25.955 223.516C24.9843 221.94 24.0492 220.252 23.169 218.894C22.041 217.159 20.9381 214.374 20.1322 212.039C19.7277 210.871 19.396 209.813 19.1652 209.047C18.9337 208.282 18.8053 207.813 18.8045 207.812C18.7763 207.707 18.6991 207.621 18.596 207.576C18.4928 207.533 18.3741 207.536 18.2746 207.586C18.2739 207.587 17.9436 207.753 17.4197 208.007C16.6345 208.388 15.4174 208.965 14.2501 209.466C13.6667 209.716 13.0953 209.947 12.601 210.124C12.1083 210.301 11.6838 210.423 11.4322 210.456C10.8266 210.541 10.2603 210.671 9.75199 210.67C9.29335 210.667 8.89335 210.578 8.47553 210.272C8.05771 209.963 7.61614 209.405 7.18421 208.433C6.85545 207.697 6.4918 206.391 6.13261 204.815C5.5916 202.447 5.04836 199.458 4.55336 196.726C4.05836 193.99 3.61382 191.52 3.25908 190.152C3.19377 189.901 3.15741 189.528 3.15815 189.07C3.15666 187.805 3.42235 185.892 3.82904 183.725C4.43759 180.473 5.35783 176.636 6.14597 173.421C6.54079 171.813 6.90146 170.361 7.17531 169.212C7.44841 168.058 7.63321 167.226 7.67922 166.796C7.78757 165.738 8.2373 164.267 9.10931 162.833C9.98206 161.396 11.2726 159.992 13.0612 159.023C13.9606 158.534 15.8189 157.708 18.1336 156.729C21.6105 155.259 26.1346 153.433 30.1384 151.807C34.1444 150.18 37.6183 148.758 39.0365 148.076C40.8644 147.194 43.7045 146.132 46.2834 145.184C47.574 144.709 48.8 144.261 49.8086 143.875C50.8201 143.488 51.603 143.168 52.0498 142.925C52.5693 142.637 53.4888 142.3 54.5723 142.044C55.6573 141.788 56.913 141.608 58.1271 141.608C59.1646 141.608 60.171 141.74 61.0148 142.054C61.3532 142.178 62.4508 142.686 64.0627 143.46C69.7237 146.178 81.9422 152.261 93.3272 157.882C99.0201 160.693 104.504 163.388 108.859 165.492C113.219 167.598 116.429 169.104 117.633 169.559C118.347 169.827 119.589 170.121 121.256 170.451C132.887 172.741 175.523 177.903 175.53 177.904C175.733 177.928 175.918 177.788 175.942 177.592C175.967 177.397 175.822 177.218 175.619 177.194Z" fill="#17282F"/>
<path d="M49.7843 215.891L49.9068 215.944C49.9958 215.983 50.0997 215.986 50.191 215.953C50.2823 215.92 50.358 215.852 50.3981 215.766C50.4381 215.68 50.4419 215.581 50.4077 215.492C50.3728 215.404 50.3023 215.332 50.2133 215.292L50.0908 215.239C49.9038 215.158 49.6841 215.237 49.5995 215.418C49.5149 215.597 49.598 215.809 49.7843 215.891L49.9068 215.944C49.9958 215.983 50.0997 215.986 50.191 215.953C50.2823 215.92 50.358 215.852 50.3981 215.766C50.4381 215.68 50.4419 215.581 50.4077 215.492C50.3728 215.404 50.3023 215.332 50.2133 215.292L50.0908 215.239C49.9038 215.158 49.6841 215.237 49.5995 215.418C49.5149 215.597 49.598 215.809 49.7843 215.891Z" fill="#17282F"/>
<path d="M49.7555 215.877L49.7837 215.89C49.8728 215.93 49.9759 215.932 50.0679 215.899C50.1592 215.867 50.2349 215.799 50.2757 215.713C50.3158 215.628 50.3195 215.528 50.2854 215.44C50.2513 215.352 50.1808 215.279 50.0917 215.239L50.0628 215.227C49.8765 215.145 49.6568 215.224 49.5715 215.404C49.4869 215.583 49.5685 215.796 49.7555 215.877L49.7837 215.89C49.8728 215.93 49.9759 215.932 50.0679 215.899C50.1592 215.867 50.2349 215.799 50.2757 215.713C50.3158 215.628 50.3195 215.528 50.2854 215.44C50.2513 215.352 50.1808 215.279 50.0917 215.239L50.0628 215.227C49.8765 215.145 49.6568 215.224 49.5715 215.404C49.4869 215.583 49.5685 215.796 49.7555 215.877Z" fill="#17282F"/>
<path d="M49.6821 215.845L49.6969 215.852C49.7867 215.889 49.8899 215.892 49.9812 215.857C50.0717 215.823 50.1467 215.754 50.186 215.668C50.2253 215.582 50.2275 215.482 50.1919 215.395C50.1563 215.307 50.0851 215.234 49.9953 215.197L49.9804 215.191C49.7927 215.111 49.5737 215.194 49.4913 215.375C49.409 215.555 49.4943 215.766 49.6821 215.845L49.6969 215.852C49.7867 215.889 49.8899 215.892 49.9812 215.857C50.0717 215.823 50.1467 215.754 50.186 215.668C50.2253 215.582 50.2275 215.482 50.1919 215.395C50.1563 215.307 50.0851 215.234 49.9953 215.197L49.9804 215.191C49.7927 215.111 49.5737 215.194 49.4913 215.375C49.409 215.555 49.4943 215.766 49.6821 215.845Z" fill="#17282F"/>
<path d="M50.0605 215.619C50.1288 215.649 50.209 215.684 50.298 215.723C50.2231 215.689 50.1429 215.655 50.0605 215.619Z" fill="#17282F"/>
<path d="M50.0605 215.618L49.9061 215.943C49.9759 215.975 50.056 216.009 50.1443 216.048C50.3313 216.13 50.551 216.05 50.6356 215.871C50.721 215.691 50.6386 215.48 50.4523 215.397C50.3766 215.364 50.2965 215.329 50.2141 215.293C50.0278 215.211 49.8081 215.29 49.7228 215.47C49.6374 215.649 49.7191 215.861 49.9061 215.943L50.0605 215.618L49.9061 215.944C49.9892 215.98 50.0694 216.015 50.1443 216.048C50.2341 216.088 50.335 216.091 50.4278 216.058C50.5206 216.024 50.5948 215.958 50.6356 215.871C50.6772 215.784 50.6809 215.687 50.646 215.598C50.6111 215.508 50.5421 215.437 50.4523 215.397C50.3625 215.358 50.2823 215.323 50.2148 215.293C50.1243 215.254 50.0233 215.25 49.9306 215.283C49.8378 215.317 49.7636 215.382 49.7228 215.47C49.6812 215.556 49.6783 215.653 49.7124 215.744C49.7473 215.833 49.8163 215.904 49.9061 215.944L50.0605 215.618Z" fill="#17282F"/>
<path d="M49.6907 215.849L49.7538 215.877C49.8429 215.917 49.946 215.92 50.038 215.887C50.1293 215.855 50.205 215.787 50.2458 215.701C50.2867 215.616 50.2911 215.516 50.257 215.428C50.2228 215.34 50.1531 215.267 50.064 215.227L50.0009 215.199C49.8147 215.117 49.5942 215.196 49.5089 215.375C49.4228 215.554 49.5044 215.766 49.6907 215.849L49.7538 215.877C49.8429 215.917 49.946 215.92 50.038 215.887C50.1293 215.855 50.205 215.787 50.2458 215.701C50.2867 215.616 50.2911 215.516 50.257 215.428C50.2228 215.34 50.1531 215.267 50.064 215.227L50.0009 215.199C49.8147 215.117 49.5942 215.196 49.5089 215.375C49.4228 215.554 49.5044 215.766 49.6907 215.849Z" fill="#17282F"/>
<path d="M50.2979 215.723C50.4589 215.793 50.6036 215.857 50.7327 215.913C50.5813 215.847 50.4314 215.781 50.2979 215.723Z" fill="#17282F"/>
<path d="M50.1448 216.048C50.3051 216.118 50.4498 216.182 50.5797 216.238C50.766 216.32 50.9856 216.241 51.071 216.061C51.1556 215.881 51.0732 215.669 50.8862 215.588C50.7348 215.521 50.5849 215.455 50.4513 215.397C50.3622 215.358 50.2591 215.355 50.1678 215.388C50.0758 215.421 50.0008 215.489 49.96 215.575C49.9199 215.661 49.9162 215.76 49.9504 215.849C49.9852 215.937 50.0557 216.01 50.1448 216.048C50.2776 216.107 50.4283 216.172 50.5797 216.238C50.6695 216.278 50.7704 216.281 50.8632 216.248C50.9559 216.214 51.0294 216.148 51.071 216.061C51.1118 215.974 51.1148 215.877 51.0806 215.787C51.0457 215.698 50.9767 215.627 50.8862 215.588C50.757 215.531 50.6123 215.468 50.4513 215.397C50.265 215.315 50.0446 215.395 49.96 215.575C49.8754 215.755 49.9578 215.967 50.1448 216.048Z" fill="#17282F"/>
<path d="M51.6113 216.298C51.7204 216.346 51.7419 216.355 51.6113 216.298V216.298Z" fill="#17282F"/>
<path d="M51.4577 216.623L51.5245 216.653L51.5423 216.66L51.5468 216.663L51.5483 216.663H51.5497L51.5512 216.664L51.5549 216.665L51.5609 216.668L51.572 216.673L51.5898 216.678L51.6143 216.685L51.7011 216.695C51.8518 216.695 51.9869 216.607 52.044 216.474C52.1019 216.341 52.07 216.187 51.9639 216.085L51.7011 216.337L52.0099 216.139L51.9639 216.085L51.7011 216.337H52.0722C52.0677 216.216 52.0284 216.17 52.0099 216.139L51.7011 216.337H52.0722C52.0722 216.197 51.9876 216.07 51.8555 216.012L51.765 215.972C51.5779 215.891 51.3583 215.97 51.2737 216.15C51.1891 216.329 51.2714 216.542 51.4577 216.623L51.5475 216.663L51.7011 216.337H51.3301C51.3345 216.458 51.3746 216.504 51.3924 216.535L51.4392 216.59L51.7011 216.337L51.7887 215.99L51.7011 215.98V216.337L51.7887 215.99L51.8355 216.004L51.7019 216.337L51.8518 216.01L51.8355 216.004L51.7019 216.337L51.8518 216.01L51.8125 216.096L51.8525 216.011L51.8518 216.01L51.8125 216.096L51.8525 216.011L51.765 215.972C51.6744 215.933 51.5742 215.93 51.4815 215.963C51.388 215.997 51.3145 216.063 51.2737 216.15C51.2328 216.237 51.2291 216.334 51.264 216.424C51.2989 216.513 51.3679 216.584 51.4577 216.623Z" fill="#17282F"/>
<path d="M51.3035 216.555L51.4578 216.623C51.5469 216.663 51.6501 216.665 51.7421 216.632C51.8334 216.6 51.9091 216.532 51.9491 216.446C51.99 216.36 51.9929 216.261 51.9588 216.172C51.9246 216.084 51.8541 216.011 51.7651 215.972L51.61 215.904C51.4237 215.823 51.204 215.902 51.1187 216.082C51.0341 216.262 51.1165 216.474 51.3035 216.555L51.4578 216.623C51.5469 216.663 51.6501 216.665 51.7421 216.632C51.8334 216.6 51.9091 216.532 51.9491 216.446C51.99 216.36 51.9929 216.261 51.9588 216.172C51.9246 216.084 51.8541 216.011 51.7651 215.972L51.61 215.904C51.4237 215.823 51.204 215.902 51.1187 216.082C51.0341 216.262 51.1165 216.474 51.3035 216.555Z" fill="#17282F"/>
<path d="M51.178 216.5L51.3026 216.555C51.3917 216.595 51.4948 216.598 51.5861 216.565C51.6782 216.532 51.7538 216.464 51.7939 216.379C51.8347 216.293 51.8384 216.193 51.8043 216.105C51.7702 216.017 51.6997 215.944 51.6106 215.904L51.4859 215.85C51.2997 215.768 51.0792 215.847 50.9946 216.027C50.9093 216.206 50.9917 216.419 51.178 216.5L51.3026 216.555C51.3917 216.595 51.4948 216.598 51.5861 216.565C51.6782 216.532 51.7538 216.464 51.7939 216.379C51.8347 216.293 51.8384 216.193 51.8043 216.105C51.7702 216.017 51.6997 215.944 51.6106 215.904L51.4859 215.85C51.2997 215.768 51.0792 215.847 50.9946 216.027C50.9093 216.206 50.9917 216.419 51.178 216.5Z" fill="#17282F"/>
<path d="M50.7329 215.913C50.8257 215.954 50.9184 215.995 51.009 216.034C50.9266 215.997 50.8331 215.957 50.7329 215.913Z" fill="#17282F"/>
<path d="M50.5792 216.238C50.6727 216.279 50.7655 216.32 50.8553 216.359C51.0423 216.441 51.262 216.361 51.3466 216.182C51.4312 216.002 51.3496 215.79 51.1625 215.709C51.0794 215.672 50.9867 215.631 50.8872 215.588C50.7009 215.506 50.4805 215.585 50.3959 215.764C50.3106 215.944 50.3922 216.156 50.5792 216.238C50.6802 216.283 50.7737 216.324 50.8553 216.359C50.9451 216.399 51.046 216.402 51.1388 216.369C51.2316 216.335 51.3058 216.269 51.3466 216.182C51.3874 216.095 51.3911 215.997 51.3562 215.908C51.3214 215.819 51.2523 215.748 51.1625 215.708C51.072 215.669 50.9792 215.628 50.8872 215.588C50.7982 215.548 50.695 215.545 50.6037 215.578C50.5117 215.611 50.436 215.679 50.3959 215.764C50.3544 215.852 50.3506 215.948 50.3855 216.038C50.4204 216.128 50.4887 216.198 50.5792 216.238Z" fill="#17282F"/>
<path d="M51.0088 216.034C51.1364 216.09 51.2426 216.136 51.3324 216.176C51.2344 216.133 51.1246 216.085 51.0088 216.034Z" fill="#17282F"/>
<path d="M50.8552 216.359C50.9836 216.416 51.0897 216.462 51.1788 216.501C51.3658 216.582 51.5854 216.503 51.67 216.323C51.7546 216.143 51.6723 215.931 51.4853 215.849C51.388 215.807 51.2782 215.759 51.1624 215.709C50.9761 215.626 50.7557 215.706 50.6711 215.886C50.5865 216.065 50.6682 216.277 50.8552 216.359C50.9709 216.41 51.0815 216.458 51.1788 216.501C51.2678 216.54 51.371 216.543 51.463 216.51C51.5543 216.477 51.63 216.409 51.67 216.323C51.7101 216.237 51.7138 216.138 51.6797 216.05C51.6448 215.961 51.5743 215.889 51.4853 215.849C51.3955 215.81 51.2901 215.764 51.1624 215.709C51.0726 215.669 50.9717 215.666 50.8789 215.699C50.7862 215.732 50.7119 215.799 50.6711 215.886C50.6303 215.972 50.6266 216.07 50.6615 216.159C50.6964 216.248 50.7654 216.32 50.8552 216.359Z" fill="#17282F"/>
<path d="M75.0226 207.019C72.5669 206.493 70.316 206.434 68.3634 206.603C67.9419 205.173 65.7348 203.696 64.9548 203.159C63.6145 202.237 41.5992 205.188 38.5364 207.402C35.4736 209.615 32.6015 211.828 33.7504 215.518L37.962 217.916C37.962 217.916 45.6193 213.673 49.8309 215.518C49.8309 215.518 53.6595 211.46 57.8712 210.722L71.355 210.814C71.355 210.814 80.8646 213.352 85.2454 215.287C89.627 217.222 98.7545 213.176 100.033 212.121C101.311 211.065 81.5949 208.427 75.0226 207.019Z" fill="#17282F"/>
<path d="M75.0231 207.019L75.1033 206.67C73.4001 206.306 71.7926 206.161 70.3128 206.162C69.6234 206.161 68.9621 206.193 68.3313 206.247L68.364 206.603L68.7209 206.506C68.4664 205.667 67.7651 204.92 67.0437 204.282C66.3201 203.648 65.5594 203.136 65.1706 202.868C64.9657 202.737 64.7668 202.71 64.4923 202.673C64.2214 202.642 63.8874 202.628 63.4896 202.628C60.8217 202.629 55.2549 203.253 49.9873 204.118C47.3549 204.551 44.8035 205.044 42.7329 205.552C41.6977 205.806 40.7834 206.063 40.0353 206.322C39.2857 206.582 38.7069 206.834 38.3143 207.115C37.0163 208.054 35.7361 209.001 34.7624 210.089C33.7895 211.172 33.1201 212.422 33.1216 213.912C33.1216 214.453 33.2092 215.022 33.3954 215.621C33.4222 215.707 33.4815 215.78 33.5624 215.826L37.774 218.224C37.889 218.289 38.0315 218.29 38.1473 218.226C38.1473 218.226 38.223 218.184 38.3699 218.107C38.8828 217.839 40.2349 217.16 41.9032 216.552C43.5701 215.943 45.5568 215.409 47.3089 215.411C48.1802 215.41 48.9891 215.541 49.6778 215.844C49.8248 215.908 49.9977 215.874 50.106 215.759L50.1461 215.716C50.3539 215.503 51.3535 214.501 52.7784 213.475C54.2033 212.447 56.0557 211.402 57.9385 211.074L57.8717 210.722L57.8695 211.08L71.3525 211.171L71.3555 210.814L71.2561 211.158C71.2575 211.158 71.8483 211.316 72.8064 211.584C75.6777 212.385 81.8522 214.18 85.0916 215.612C85.9851 216.005 87.0293 216.161 88.1433 216.161C90.5418 216.159 93.2825 215.44 95.5705 214.618C96.7149 214.207 97.7435 213.769 98.5569 213.377C99.374 212.982 99.9602 212.649 100.275 212.392C100.364 212.323 100.465 212.185 100.464 212.017C100.462 211.856 100.383 211.741 100.313 211.668C100.171 211.524 100.008 211.444 99.794 211.349C99.0066 211.017 97.4734 210.656 95.4696 210.255C89.4799 209.06 79.4136 207.594 75.1033 206.67L75.0231 207.019L74.9422 207.368C78.1482 208.054 84.4111 209.024 89.8806 209.963C92.6131 210.433 95.1468 210.894 96.9873 211.306C97.906 211.511 98.6541 211.705 99.1528 211.875C99.4014 211.959 99.5899 212.04 99.6901 212.099L99.7651 212.15L99.9157 212.017H99.722C99.7235 212.108 99.7651 212.15 99.7651 212.15L99.9157 212.017H99.722H99.9417L99.7918 211.849C99.7821 211.854 99.7205 211.921 99.722 212.017H99.9417L99.7918 211.849C99.5877 212.021 99.0096 212.362 98.2251 212.737C95.8644 213.879 91.5148 215.452 88.1433 215.446C87.1013 215.447 86.1581 215.297 85.4011 214.962C83.1769 213.98 79.7008 212.863 76.7679 211.983C73.8372 211.105 71.4564 210.47 71.4542 210.469L71.3577 210.456L57.8747 210.365L57.8056 210.37C55.6015 210.759 53.5555 211.99 52.0452 213.114C50.5365 214.24 49.5665 215.267 49.5568 215.277L49.8314 215.518L49.9851 215.192C49.1702 214.836 48.2551 214.696 47.3089 214.696C45.133 214.698 42.7663 215.43 40.9281 216.154C39.0906 216.878 37.7874 217.601 37.7777 217.606L37.9625 217.916L38.151 217.609L33.9402 215.21L33.7509 215.518L34.1064 215.415C33.9387 214.876 33.8637 214.379 33.8637 213.912C33.8645 212.636 34.4218 211.567 35.3242 210.555C36.2252 209.547 37.4668 208.621 38.7596 207.687C39.0334 207.487 39.5715 207.24 40.2854 206.995C42.7945 206.128 47.4796 205.207 52.0845 204.512C56.6895 203.817 61.2432 203.342 63.4896 203.343C63.8681 203.343 64.1806 203.357 64.4047 203.383C64.516 203.395 64.6058 203.412 64.6667 203.428L64.732 203.448L64.7438 203.453L64.7631 203.418L64.7394 203.45L64.7438 203.453L64.7631 203.418L64.7394 203.45C65.1312 203.72 65.8637 204.214 66.5443 204.811C67.227 205.403 67.84 206.109 68.007 206.701C68.056 206.866 68.22 206.975 68.3974 206.959C69.0074 206.907 69.6464 206.877 70.3128 206.876C71.7429 206.877 73.2954 207.016 74.9422 207.368L75.0231 207.019Z" fill="#17282F"/>
<path d="M36.8492 214.99C36.8492 214.99 36.8604 215.029 36.8819 215.107C37.0303 215.656 37.6307 218.058 37.6292 220.527C37.6299 221.615 37.5127 222.716 37.201 223.668C36.8885 224.623 36.3891 225.42 35.6321 225.954C35.4674 226.072 35.4317 226.296 35.5527 226.454C35.6737 226.614 35.906 226.648 36.0715 226.532C36.991 225.882 37.5654 224.934 37.9082 223.883C38.2518 222.83 38.3713 221.665 38.3713 220.527C38.3698 217.582 37.5683 214.815 37.5646 214.798C37.5097 214.607 37.3049 214.496 37.1075 214.549C36.9101 214.602 36.7943 214.8 36.8492 214.99Z" fill="#17282F"/>
<path d="M29.1828 227.129C29.1828 227.128 29.1747 227.076 29.1613 226.973C29.1205 226.665 29.0381 225.928 29.0381 225.051C29.0381 224.466 29.0752 223.82 29.1821 223.199C29.2088 223.048 29.22 222.895 29.22 222.741C29.214 221.662 28.6723 220.521 28.1491 219.621C27.6229 218.723 27.1019 218.079 27.0952 218.07C26.9691 217.914 26.736 217.886 26.5743 218.007C26.4125 218.128 26.3835 218.353 26.5097 218.509C26.5097 218.509 26.5379 218.544 26.5921 218.615C26.7806 218.861 27.2607 219.514 27.6882 220.3C28.1171 221.085 28.4823 222.009 28.4778 222.741C28.4778 222.86 28.4689 222.974 28.4504 223.082C28.3338 223.755 28.296 224.438 28.296 225.051C28.296 226.277 28.4481 227.225 28.4496 227.237C28.4808 227.433 28.67 227.566 28.8726 227.536C29.0752 227.506 29.214 227.323 29.1828 227.129Z" fill="#17282F"/>
<path d="M43.9179 227.998L43.8919 227.944C43.7665 227.686 43.2589 226.508 43.2641 225.554C43.2641 225.169 43.345 224.836 43.5164 224.606C43.6901 224.378 43.9498 224.205 44.4656 224.142C44.6667 224.119 44.899 224.108 45.1558 224.108C46.7009 224.107 49.0713 224.515 51.0327 224.927C52.0146 225.132 52.8977 225.338 53.5352 225.492C54.172 225.647 54.5601 225.749 54.5608 225.749L54.6588 225.404L54.2922 225.351C54.29 225.364 54.2076 225.899 54.2068 226.728C54.2083 227.973 54.3902 229.887 55.3341 231.709C55.4254 231.885 55.6488 231.957 55.8321 231.868C56.0147 231.78 56.0896 231.565 55.9976 231.388C55.1286 229.717 54.9482 227.905 54.949 226.728C54.949 226.336 54.969 226.015 54.9883 225.794C54.998 225.683 55.0076 225.597 55.015 225.54L55.0254 225.457C55.0536 225.278 54.9378 225.107 54.7568 225.059C54.7523 225.058 53.1745 224.644 51.1901 224.228C49.2026 223.813 46.8219 223.395 45.1558 223.393C44.8768 223.393 44.6178 223.405 44.3795 223.432C43.7124 223.503 43.2077 223.784 42.9123 224.191C42.6147 224.596 42.5227 225.081 42.522 225.554C42.5235 226.225 42.7075 226.903 42.8864 227.422C43.0659 227.94 43.2441 228.299 43.2485 228.308C43.3376 228.486 43.5595 228.561 43.7435 228.475C43.9283 228.39 44.0062 228.176 43.9179 227.998Z" fill="#17282F"/>
<path d="M48.392 214.595C46.3957 213.894 44.8743 213.422 44.8713 213.422L44.7578 213.762L45.1266 213.723C45.1229 213.706 44.9597 212.238 44.4275 211.034C43.8554 209.771 42.5774 208.974 42.5552 208.952C42.3845 208.842 42.1544 208.887 42.0409 209.051C41.9266 209.216 41.9726 209.437 42.1433 209.547L42.1522 209.553C42.268 209.623 43.3381 210.378 43.7455 211.316C43.9815 211.844 44.1455 212.473 44.2472 212.963C44.2984 213.209 44.334 213.42 44.357 213.569C44.3793 213.718 44.389 213.801 44.389 213.801C44.4053 213.942 44.5047 214.06 44.6443 214.102C44.6457 214.102 45.0205 214.219 45.6461 214.423C46.2725 214.627 47.1467 214.918 48.1382 215.267C48.3304 215.335 48.5434 215.239 48.6139 215.054C48.6844 214.868 48.585 214.662 48.392 214.595Z" fill="#F1F1F1"/>
<path d="M61.4914 224.772C61.4751 224.75 59.8676 220.697 57.0742 218.497C56.2149 217.827 54.7989 217.126 53.2122 216.444C51.627 215.766 49.8785 215.116 48.392 214.595C48.1998 214.527 47.9868 214.623 47.9163 214.808C47.8466 214.994 47.946 215.199 48.1382 215.267C49.6136 215.785 51.3502 216.429 52.9101 217.098C54.4694 217.764 55.8601 218.465 56.6067 219.052C57.8891 220.054 58.9496 221.554 59.6762 222.802C60.0406 223.425 60.3226 223.985 60.5125 224.388C60.6083 224.589 60.6803 224.752 60.7285 224.863C60.7767 224.973 60.7997 225.031 60.7997 225.031C60.874 225.215 61.0892 225.307 61.2799 225.235C61.4706 225.164 61.5656 224.956 61.4914 224.772Z" fill="#17282F"/>
<path d="M40.506 213.63L42.6879 213.954C42.8905 213.984 43.0797 213.85 43.1109 213.655C43.142 213.46 43.0033 213.277 42.8007 213.247L40.6188 212.923C40.4162 212.893 40.2269 213.027 40.1958 213.222C40.1646 213.417 40.3034 213.6 40.506 213.63Z" fill="#F1F1F1"/>
<path d="M57.2119 218.775V218.773C57.2156 218.718 57.2512 218.329 57.6386 217.935C58.026 217.543 58.7926 217.104 60.3822 217.029C62.5701 216.928 64.9248 216.527 66.5175 216.529C67.0199 216.528 67.4429 216.57 67.739 216.657C68.041 216.746 68.1873 216.862 68.2555 216.994C68.6978 217.837 69.2448 219.61 69.2396 220.894C69.2426 221.443 69.135 221.891 68.9561 222.124C68.9249 222.174 68.7802 222.283 68.5427 222.376C68.1279 222.544 67.4644 222.686 66.723 222.79C65.6083 222.947 64.3074 223.027 63.2899 223.066C62.7808 223.086 62.3422 223.096 62.0313 223.101C61.7203 223.106 61.54 223.106 61.5392 223.106C61.3344 223.106 61.1682 223.266 61.1682 223.464C61.1682 223.661 61.3344 223.821 61.5392 223.821C61.5452 223.821 63.2714 223.821 65.1141 223.679C66.0358 223.607 66.9865 223.5 67.7769 223.336C68.1724 223.253 68.5286 223.156 68.8292 223.035C69.1283 222.912 69.3821 222.774 69.5602 222.54C69.8838 222.095 69.978 221.519 69.9817 220.894C69.9758 219.431 69.417 217.644 68.919 216.674C68.7275 216.305 68.3609 216.089 67.9535 215.972C67.5416 215.854 67.06 215.814 66.5175 215.814C64.8128 215.816 62.4736 216.219 60.3466 216.315C58.5188 216.396 57.5146 216.957 56.9974 217.554C56.4794 218.15 56.4697 218.726 56.4697 218.775C56.4697 218.972 56.636 219.132 56.8408 219.132C57.0456 219.132 57.2119 218.972 57.2119 218.775Z" fill="#17282F"/>
<path d="M55.6546 210.193C55.6375 210.167 54.7774 208.671 53.0252 207.486C51.3176 206.334 50.2779 205.995 50.2452 205.985C50.0508 205.922 49.8408 206.024 49.7762 206.211C49.7109 206.399 49.8163 206.601 50.0107 206.663L50.0159 206.665C50.1027 206.695 51.0549 207.03 52.6 208.072C53.4015 208.613 54.0078 209.235 54.4108 209.72C54.6127 209.963 54.7633 210.172 54.8628 210.317C54.9125 210.39 54.9489 210.448 54.9726 210.486L54.9993 210.528L55.006 210.54C55.1054 210.713 55.3311 210.775 55.5106 210.679C55.6895 210.583 55.7541 210.365 55.6546 210.193Z" fill="#F1F1F1"/>
<path d="M18.2726 199.118C18.2748 199.104 18.6518 197.29 18.6526 195.095C18.6518 193.997 18.5583 192.803 18.2689 191.685C17.4288 188.448 16.9249 186.667 16.9241 186.665L16.5657 186.759L16.8366 187.003C16.847 186.99 19.3761 184.399 20.7573 181.744C22.1042 179.148 24.2854 174.622 24.2861 174.62L23.9499 174.47L24.0338 174.818C24.036 174.817 31.2495 173.201 34.955 172.228C38.7302 171.232 42.9277 168.634 42.944 168.627L42.7444 168.326L42.3904 168.432C42.3926 168.439 42.6049 169.094 42.9678 169.938C43.3322 170.782 43.8405 171.812 44.4647 172.587C44.5908 172.743 44.8239 172.771 44.9856 172.65C45.1474 172.529 45.1764 172.304 45.0509 172.148C44.5003 171.468 44.0023 170.477 43.6535 169.664C43.4784 169.257 43.3388 168.894 43.2439 168.634C43.1964 168.504 43.1593 168.398 43.1348 168.327C43.1103 168.255 43.0984 168.219 43.0984 168.219C43.0643 168.112 42.9797 168.027 42.8713 167.989C42.763 167.951 42.6412 167.964 42.544 168.024C42.544 168.024 42.4817 168.063 42.3615 168.135C41.5243 168.636 37.9153 170.711 34.7598 171.538C32.9215 172.02 30.1957 172.668 27.9322 173.192C26.8004 173.455 25.7837 173.687 25.0497 173.854C24.3158 174.021 23.8668 174.121 23.8653 174.121C23.7547 174.146 23.6612 174.219 23.613 174.319C23.6115 174.322 23.0683 175.45 22.3558 176.905C21.6426 178.358 20.7624 180.136 20.0938 181.425C19.4422 182.682 18.4893 183.961 17.7011 184.92C17.3071 185.399 16.9546 185.8 16.7008 186.079C16.5738 186.219 16.4722 186.328 16.4017 186.402C16.3319 186.477 16.2956 186.514 16.2956 186.514C16.2072 186.605 16.1738 186.733 16.208 186.853C16.208 186.854 16.3334 187.296 16.5635 188.143C16.7943 188.99 17.129 190.243 17.5483 191.858C17.8177 192.896 17.9104 194.037 17.9104 195.095C17.9104 196.154 17.8184 197.128 17.7264 197.835C17.6811 198.189 17.6351 198.477 17.601 198.674C17.5668 198.872 17.5446 198.977 17.5446 198.977C17.5045 199.171 17.6351 199.36 17.8355 199.399C18.0366 199.437 18.2325 199.311 18.2726 199.118Z" fill="#17282F"/>
<path d="M28.9795 186.715C29.8656 187.287 30.8994 187.78 32.0794 188.075C32.2775 188.124 32.4801 188.009 32.5313 187.818C32.5825 187.627 32.4638 187.432 32.2656 187.383C31.1792 187.112 30.2211 186.656 29.3928 186.121C29.2222 186.011 28.9921 186.055 28.8778 186.219C28.7635 186.382 28.8095 186.605 28.9795 186.715Z" fill="#17282F"/>
<path d="M24.9654 182.562C24.978 182.582 25.7364 183.94 27.2333 185.345C27.3803 185.482 27.6155 185.479 27.758 185.338C27.9012 185.196 27.8983 184.97 27.7513 184.832C27.0433 184.168 26.5068 183.511 26.1498 183.023C25.9709 182.778 25.8366 182.576 25.7483 182.436C25.7038 182.366 25.6711 182.311 25.6496 182.275L25.6192 182.223C25.522 182.05 25.2971 181.985 25.1167 182.078C24.9364 182.172 24.8689 182.389 24.9654 182.562Z" fill="#17282F"/>
<path d="M43.0586 162.087C43.0452 161.772 43.0371 161.451 43.0371 161.127C43.0356 159.404 43.256 157.578 43.9209 156.185C44.0063 156.006 43.9239 155.794 43.7376 155.711C43.5514 155.629 43.3317 155.708 43.2463 155.887C42.5109 157.438 42.2964 159.347 42.2949 161.127C42.2949 161.462 42.3031 161.793 42.3172 162.116C42.3254 162.314 42.4983 162.467 42.7031 162.459C42.9079 162.451 43.0667 162.284 43.0586 162.087Z" fill="#17282F"/>
<path d="M43.6097 166.47C43.6097 166.47 43.6008 166.431 43.5845 166.352C43.5348 166.114 43.419 165.534 43.3077 164.746C43.2795 164.55 43.0925 164.413 42.8899 164.44C42.6865 164.467 42.5448 164.647 42.5722 164.842C42.7251 165.918 42.8832 166.616 42.8854 166.624C42.9292 166.817 43.1266 166.938 43.327 166.896C43.5274 166.854 43.6543 166.663 43.6097 166.47Z" fill="#17282F"/>
<path d="M17.5006 166.496C17.5006 166.496 17.5941 166.573 17.7626 166.716C18.3526 167.218 19.8354 168.52 21.1601 169.991C21.8221 170.727 22.444 171.504 22.8922 172.236C23.3434 172.967 23.6091 173.653 23.6054 174.161C23.6054 174.249 23.598 174.33 23.5839 174.407C23.5483 174.602 23.6833 174.788 23.8852 174.822C24.0871 174.856 24.2793 174.726 24.3149 174.532C24.3372 174.41 24.3476 174.287 24.3476 174.161C24.3416 173.328 23.9141 172.439 23.3145 171.533C21.5081 168.832 17.9927 165.964 17.9808 165.951C17.8249 165.823 17.5904 165.841 17.4576 165.991C17.3255 166.142 17.344 166.368 17.5006 166.496Z" fill="#17282F"/>
<path d="M11.2209 183.073L11.2127 182.951L11.2187 183.074L11.2209 183.073L11.2127 182.951L11.2187 183.074L11.2558 183.072C11.4079 183.072 11.9935 183.099 12.6948 183.464C13.3961 183.83 14.2265 184.53 14.8848 185.936C14.9694 186.115 15.1891 186.196 15.3754 186.114C15.5624 186.033 15.6462 185.822 15.5616 185.642C14.8477 184.108 13.8889 183.27 13.0473 182.835C12.2057 182.398 11.494 182.358 11.2558 182.357L11.1712 182.36C10.9671 182.373 10.812 182.544 10.8261 182.74C10.8394 182.937 11.0161 183.087 11.2209 183.073Z" fill="#17282F"/>
<path d="M77.5651 164.343L72.578 159.538L67.5908 154.733L35.6495 185.282L7.74902 215.147L11.3076 218.576L14.8661 222.005L45.8612 195.122L77.5651 164.343Z" fill="url(#paint1_linear_416_1064)"/>
<path d="M77.5653 164.343L77.8273 164.091L72.8409 159.285L67.853 154.48C67.7083 154.34 67.4753 154.34 67.3298 154.479L35.3885 185.028L35.3744 185.042L7.47317 214.908C7.34181 215.049 7.34775 215.266 7.48652 215.4L11.0458 218.829L14.6043 222.258C14.7438 222.393 14.968 222.398 15.1149 222.271L46.1093 195.387L46.1249 195.373L77.8288 164.596C77.9728 164.455 77.972 164.23 77.8273 164.091L77.5653 164.343L77.3019 164.091L45.6054 194.862L14.8797 221.512L11.5705 218.324L8.26057 215.134L35.9184 185.529L67.5896 155.238L72.3155 159.791L77.3026 164.596L77.5653 164.343Z" fill="#17282F"/>
<path d="M94.0274 148.837C107.365 135.461 118.07 124.27 118.07 124.27L113.625 119.987L109.179 115.703C109.179 115.703 97.5659 126.019 83.6843 138.871C69.8027 151.722 64.4497 157.055 64.4497 157.055L69.8027 162.213L75.1557 167.371C75.1557 167.371 80.6905 162.213 94.0274 148.837Z" fill="url(#paint2_linear_416_1064)"/>
<path d="M94.0271 148.837L94.2942 149.085C107.635 135.706 118.342 124.514 118.343 124.513C118.478 124.372 118.474 124.153 118.333 124.018L113.887 119.734L109.441 115.45C109.3 115.315 109.074 115.31 108.927 115.44C108.926 115.441 97.311 125.759 83.4264 138.612C69.5426 151.466 64.1867 156.802 64.1822 156.806C64.042 156.946 64.0434 157.169 64.1867 157.307L69.5397 162.465L74.8934 167.624C75.0366 167.762 75.2675 167.763 75.4136 167.628C75.4174 167.624 80.9551 162.463 94.2942 149.085L94.0271 148.837L93.7592 148.59C87.0918 155.276 82.3756 159.908 79.3262 162.868C77.8018 164.348 76.6938 165.41 75.968 166.102C75.2415 166.794 74.8986 167.113 74.8971 167.114L75.1554 167.371L75.4181 167.118L70.0644 161.96L64.7114 156.802L64.4494 157.055L64.7158 157.303C64.7173 157.302 65.0483 156.972 65.7667 156.272C67.9203 154.172 73.5316 148.765 83.9407 139.128C90.8804 132.704 97.2531 126.913 101.891 122.728C104.209 120.636 106.094 118.945 107.4 117.777C108.705 116.61 109.428 115.968 109.43 115.966L109.178 115.703L108.916 115.956L113.362 120.24L117.808 124.524L118.07 124.271L117.798 124.028C117.795 124.03 117.129 124.727 115.917 125.985C112.282 129.758 103.76 138.56 93.7592 148.59L94.0271 148.837Z" fill="#17282F"/>
<path d="M79.0103 159.206L76.1635 162.013C76.0203 162.153 76.0225 162.379 76.1694 162.518C76.3156 162.656 76.5509 162.653 76.6941 162.512L79.5409 159.706C79.6842 159.564 79.6819 159.337 79.535 159.199C79.3888 159.061 79.1535 159.064 79.0103 159.206Z" fill="#17282F"/>
<path d="M114.713 124.012L81.4166 156.833C81.2734 156.975 81.2764 157.201 81.4226 157.339C81.5695 157.477 81.804 157.475 81.9473 157.333L115.244 124.512C115.387 124.371 115.385 124.145 115.238 124.007C115.092 123.869 114.856 123.871 114.713 124.012Z" fill="#17282F"/>
<path d="M71.2883 166.283L56.4442 181.013C56.3017 181.155 56.3047 181.381 56.4516 181.518C56.5986 181.656 56.8338 181.653 56.9763 181.511L71.8204 166.781C71.9637 166.639 71.96 166.413 71.813 166.275C71.6661 166.138 71.4308 166.141 71.2883 166.283Z" fill="#17282F"/>
<path d="M65.98 155.557C64.9343 156.572 64.4497 157.055 64.4497 157.055L75.1557 167.371C75.1557 167.371 75.6566 166.904 76.7105 165.896L65.98 155.557Z" fill="#17282F"/>
<path d="M65.9797 155.557L65.7162 155.305C64.6691 156.321 64.1837 156.805 64.1822 156.806C64.042 156.946 64.0434 157.169 64.1867 157.307L74.8934 167.624C75.0366 167.762 75.2682 167.763 75.4136 167.628C75.4144 167.627 75.9168 167.158 76.9714 166.15C77.0419 166.083 77.0812 165.993 77.0812 165.897C77.0812 165.801 77.0426 165.711 76.9721 165.643L66.2416 155.304C66.1719 155.236 66.0776 155.199 65.9789 155.199C65.8795 155.199 65.786 155.237 65.7162 155.305L65.9797 155.557L65.7169 155.809L76.4474 166.149L76.7102 165.896L76.4489 165.642C75.922 166.146 75.5339 166.514 75.2778 166.756C75.0211 166.998 74.8979 167.113 74.8971 167.114L75.1554 167.371L75.4181 167.118L64.7114 156.802L64.4494 157.055L64.7158 157.303C64.7166 157.303 64.836 157.184 65.0869 156.937C65.3385 156.689 65.7207 156.316 66.2431 155.808L65.9797 155.557Z" fill="#17282F"/>
<path d="M10.9681 224.173L5.08154 218.501L8.1933 215.503L14.0799 221.175L10.9681 224.173Z" fill="#CDCECC"/>
<path d="M10.9681 224.173L11.2308 223.92L5.6062 218.501L8.19327 216.008L13.5552 221.175L10.7061 223.92L10.9681 224.173L11.2308 224.426L14.3418 221.427C14.4873 221.288 14.4873 221.061 14.3418 220.922L8.45599 215.249C8.38697 215.183 8.29123 215.145 8.19327 215.145C8.09531 215.145 8.00032 215.183 7.9313 215.249L4.81954 218.248C4.75052 218.314 4.71045 218.407 4.71045 218.501C4.71045 218.595 4.75052 218.687 4.81954 218.753L10.7061 224.426C10.7751 224.492 10.8709 224.531 10.9681 224.531C11.0661 224.531 11.1618 224.492 11.2308 224.426L10.9681 224.173Z" fill="#17282F"/>
<path d="M5.08138 218.501L1.04492 225.794L2.89505 227.576L10.968 224.173L5.08138 218.501Z" fill="#CDCECC"/>
<path d="M5.08136 218.501L4.75408 218.332L0.717622 225.625C0.64044 225.764 0.667157 225.934 0.78293 226.046L2.63233 227.829C2.74068 227.933 2.90394 227.962 3.04346 227.904L11.1171 224.501C11.2292 224.453 11.3101 224.356 11.3331 224.239C11.3553 224.123 11.3175 224.004 11.2307 223.92L5.34407 218.248C5.26095 218.168 5.1437 218.131 5.02719 218.147C4.91067 218.164 4.80974 218.232 4.75408 218.332L5.08136 218.501L4.81939 218.753L10.3216 224.055L2.97815 227.151L1.50206 225.728L5.40864 218.669L5.08136 218.501Z" fill="#17282F"/>
<path d="M1.42269 226.3L0.371094 228.325L2.39859 227.24L1.42269 226.3Z" fill="#F1F1F1"/>
<path d="M1.42254 226.3L1.09007 226.14L0.0392041 228.166C-0.0335248 228.305 -0.00309668 228.475 0.11416 228.583C0.231417 228.692 0.408788 228.714 0.551277 228.638L2.57804 227.553C2.68046 227.498 2.74947 227.401 2.7658 227.29C2.78138 227.179 2.7428 227.067 2.66042 226.988L1.68451 226.047C1.60065 225.966 1.48043 225.929 1.36317 225.947C1.24518 225.965 1.1435 226.037 1.09007 226.14L1.42254 226.3L1.15982 226.553L1.78767 227.158L1.23924 227.451L1.75427 226.46L1.42254 226.3Z" fill="#17282F"/>
<path d="M117.957 119.365L114.57 116.1C113.541 115.11 111.873 115.11 110.845 116.1L110.187 116.736L117.298 123.588L117.957 122.953C118.985 121.962 118.985 120.356 117.957 119.365Z" fill="#F1F1F1"/>
<path d="M117.957 119.365L118.219 119.112L114.832 115.848H114.831C114.246 115.283 113.475 114.999 112.708 115C111.939 114.999 111.168 115.283 110.583 115.848L109.925 116.482C109.779 116.622 109.779 116.849 109.925 116.988L117.036 123.841C117.105 123.907 117.2 123.945 117.298 123.945C117.396 123.945 117.491 123.907 117.56 123.841L118.219 123.206H118.219C118.805 122.642 119.099 121.899 119.099 121.159C119.099 120.42 118.805 119.676 118.219 119.112H118.219L117.957 119.365L117.694 119.617C118.137 120.044 118.357 120.6 118.357 121.159C118.357 121.718 118.137 122.274 117.694 122.7V122.701L117.298 123.082L110.711 116.736L111.107 116.354C111.55 115.927 112.127 115.715 112.708 115.715C113.287 115.715 113.865 115.927 114.307 116.354L117.694 119.617L117.957 119.365Z" fill="#17282F"/>
<path d="M108.477 116.475L106.496 115.608L68.6865 148.743C68.6865 148.743 69.4969 149.524 69.9467 149.437C70.3971 149.35 73.9074 147.876 75.5282 145.968C77.1483 144.059 76.8782 142.932 78.2289 141.803C79.5795 140.676 108.477 116.475 108.477 116.475Z" fill="#F1F1F1"/>
<path d="M108.477 116.475L108.63 116.149L106.649 115.282C106.515 115.223 106.355 115.247 106.246 115.343L68.4365 148.479C68.3615 148.545 68.3177 148.637 68.3155 148.735C68.3133 148.833 68.3519 148.927 68.4239 148.996C68.4313 149.003 68.622 149.187 68.8833 149.378C69.0146 149.474 69.163 149.573 69.3241 149.653C69.4866 149.731 69.6603 149.799 69.8733 149.802L70.0195 149.788C70.1226 149.767 70.228 149.731 70.3816 149.676C71.4251 149.285 74.3008 147.961 75.8155 146.194C76.6556 145.207 77.017 144.396 77.3191 143.738C77.6248 143.075 77.8564 142.591 78.4716 142.074C79.823 140.946 108.719 116.745 108.72 116.745C108.815 116.665 108.862 116.544 108.843 116.424C108.826 116.303 108.745 116.2 108.63 116.149L108.477 116.475L108.233 116.205C108.233 116.205 106.427 117.717 103.697 120.004C95.5065 126.863 78.9978 140.688 77.9855 141.534C77.2508 142.144 76.9421 142.788 76.6408 143.448C76.335 144.112 76.0218 144.82 75.2411 145.741C74.4849 146.635 73.2307 147.47 72.116 148.074C71.5594 148.377 71.0362 148.625 70.6295 148.8C70.4254 148.888 70.251 148.959 70.1167 149.007C69.9861 149.056 69.8836 149.086 69.874 149.087H69.8733C69.8562 149.089 69.7664 149.069 69.6632 149.016C69.5066 148.939 69.3189 148.805 69.1794 148.692C69.1096 148.635 69.0502 148.583 69.0094 148.547L68.9627 148.504L68.9486 148.491L68.6866 148.743L68.9359 149.008L106.564 116.03L108.323 116.801L108.477 116.475Z" fill="#17282F"/>
<path d="M69.4997 178.392C69.4997 178.392 53.2559 185.324 41.8849 187.783C30.514 190.243 25.8727 191.138 24.2489 192.479C22.6244 193.821 15.4309 201.2 11.9496 205.001C8.46897 208.802 6.14832 213.498 12.1819 217.746C18.2154 221.995 21.696 219.759 30.514 216.852C39.3328 213.945 42.3495 209.249 42.3495 209.249C42.3495 209.249 47.9185 204.33 58.1287 205.225C68.3397 206.119 72.0519 208.355 87.368 212.156C102.683 215.957 114.054 209.92 118.928 206.343" fill="#F1F1F1"/>
<path d="M69.3497 178.065C69.349 178.066 69.0974 178.173 68.6321 178.367C65.3786 179.724 51.6981 185.296 41.804 187.435C36.1193 188.664 32.1162 189.502 29.3184 190.205C26.5198 190.912 24.9257 191.46 24.0069 192.208C23.5802 192.561 22.8277 193.273 21.8666 194.217C18.9879 197.043 14.2894 201.906 11.6712 204.764C9.72756 206.893 8.09191 209.321 8.08449 211.898C8.08003 213.985 9.20214 216.099 11.9629 218.035C14.406 219.76 16.504 220.464 18.6844 220.462C21.9705 220.453 25.3502 218.926 30.6342 217.19C39.5464 214.253 42.6337 209.489 42.6649 209.438L42.3495 209.249L42.5996 209.513L42.6092 209.504C42.8526 209.296 47.4227 205.473 55.673 205.473C56.4478 205.473 57.2552 205.507 58.0953 205.581C63.1767 206.026 66.6216 206.801 70.7308 207.944C74.8393 209.087 79.6075 210.599 87.2752 212.503C90.7476 213.364 94.0226 213.726 97.0676 213.726C107.575 213.724 115.329 209.433 119.153 206.627C119.315 206.507 119.347 206.283 119.222 206.126C119.099 205.969 118.866 205.938 118.703 206.058C114.969 208.799 107.358 213.012 97.0676 213.01C94.0835 213.01 90.8723 212.657 87.46 211.81C79.8123 209.912 75.0664 208.406 70.9371 207.257C66.8087 206.108 63.291 205.317 58.1628 204.868C57.3005 204.793 56.47 204.758 55.673 204.758C46.9002 204.76 42.1372 208.952 42.0986 208.986L42.0333 209.061L42.0281 209.07C41.8745 209.298 38.8459 213.726 30.3937 216.514C25.0771 218.271 21.713 219.755 18.6844 219.747C16.6747 219.744 14.7704 219.122 12.4007 217.458C9.76468 215.593 8.83181 213.728 8.82662 211.898C8.8192 209.632 10.3235 207.311 12.2278 205.237C13.9637 203.342 16.6309 200.548 19.0651 198.063C20.2822 196.821 21.4414 195.655 22.3958 194.718C23.3494 193.782 24.1049 193.069 24.4901 192.75C25.1966 192.158 26.735 191.587 29.5054 190.897C32.2765 190.201 36.2803 189.362 41.9665 188.132C53.3983 185.657 69.6384 178.723 69.6495 178.719C69.8373 178.639 69.9219 178.428 69.8388 178.247C69.7557 178.067 69.5367 177.986 69.3497 178.065Z" fill="#17282F"/>
<path d="M18.4123 200.179C18.4123 200.179 19.0832 207.779 20.5935 209.881C22.1037 211.984 23.7824 212.63 23.7824 212.63C23.7824 212.63 21.6005 216.511 18.4123 217.481C15.2234 218.451 11.532 216.511 10.525 214.408C9.51789 212.307 9.85333 209.72 10.1895 208.911C10.525 208.103 18.4123 200.179 18.4123 200.179Z" fill="#F1F1F1"/>
<path d="M18.4123 200.179L18.0419 200.209C18.0427 200.215 18.2111 202.121 18.5696 204.298C18.7492 205.387 18.9763 206.544 19.2568 207.569C19.5395 208.597 19.8631 209.488 20.2884 210.085C21.8535 212.262 23.599 212.945 23.6443 212.962L23.7823 212.63L23.4558 212.46L23.4335 212.498C23.3163 212.699 22.7374 213.656 21.8305 214.663C20.9251 215.672 19.6895 216.72 18.3002 217.14C17.7577 217.305 17.1981 217.38 16.6371 217.38C15.3799 217.381 14.1153 216.999 13.0763 216.409C12.0358 215.823 11.2269 215.027 10.8618 214.259C10.3883 213.273 10.2243 212.148 10.225 211.175C10.2221 210.207 10.3935 209.374 10.5338 209.044C10.5397 209.03 10.5894 208.952 10.6644 208.854C10.9501 208.477 11.6062 207.745 12.4143 206.881C13.6277 205.582 15.1951 203.967 16.4582 202.679C17.0898 202.034 17.6449 201.471 18.0427 201.069C18.4405 200.667 18.6794 200.428 18.6802 200.427L18.4123 200.179L18.1443 199.932C18.1436 199.933 16.171 201.914 14.1554 203.998C13.1468 205.041 12.1286 206.108 11.3382 206.969C10.9427 207.399 10.6043 207.777 10.3512 208.078C10.2243 208.229 10.1189 208.36 10.0358 208.472C9.95194 208.586 9.89257 208.668 9.84507 208.779C9.64915 209.257 9.48514 210.122 9.48291 211.175C9.48291 212.223 9.65434 213.442 10.1879 214.559C10.6458 215.509 11.5579 216.378 12.7001 217.026C13.8437 217.672 15.224 218.095 16.6371 218.096C17.2671 218.096 17.9031 218.011 18.5236 217.822C20.2305 217.299 21.6086 216.037 22.5778 214.92C23.5456 213.801 24.1007 212.814 24.1081 212.8C24.1586 212.711 24.1667 212.604 24.1311 212.508C24.0948 212.413 24.0183 212.336 23.9196 212.298L23.9092 212.294C23.7638 212.233 22.2639 211.578 20.8984 209.678C20.5681 209.223 20.2423 208.376 19.9744 207.388C19.5685 205.902 19.2679 204.087 19.072 202.648C18.9733 201.929 18.9013 201.303 18.8531 200.857C18.8048 200.413 18.7818 200.149 18.7818 200.149C18.7692 200.009 18.6727 199.889 18.5354 199.842C18.3989 199.795 18.2453 199.831 18.1443 199.932L18.4123 200.179Z" fill="#17282F"/>
<path d="M26.8644 201.588C25.4351 198.015 24.9854 194.658 24.9854 194.658L26.8644 201.588Z" fill="#F1F1F1"/>
<path d="M27.211 201.459C26.5053 199.696 26.0392 197.98 25.7513 196.707C25.6073 196.071 25.5079 195.545 25.444 195.18C25.4121 194.996 25.3891 194.853 25.375 194.757C25.3602 194.66 25.3535 194.612 25.3535 194.612C25.3275 194.417 25.1412 194.278 24.9379 194.304C24.7346 194.329 24.5913 194.508 24.6173 194.704C24.6203 194.72 25.0707 198.098 26.5186 201.716C26.5921 201.901 26.8073 201.992 26.9981 201.921C27.1895 201.85 27.2845 201.643 27.211 201.459Z" fill="#17282F"/>
<path d="M29.6763 206.553C28.9883 205.713 28.3939 204.775 27.8818 203.804L29.6763 206.553Z" fill="#F1F1F1"/>
<path d="M29.9672 206.331C29.2978 205.515 28.716 204.596 28.2128 203.641C28.12 203.465 27.8966 203.395 27.7141 203.485C27.5315 203.574 27.4588 203.789 27.5516 203.965C28.0718 204.953 28.6781 205.912 29.3846 206.775C29.5115 206.93 29.7453 206.956 29.9063 206.833C30.0666 206.711 30.0941 206.487 29.9672 206.331Z" fill="#17282F"/>
<path d="M28.6885 199.178C28.6885 199.178 30.1698 201.558 30.664 203.936L28.6885 199.178Z" fill="#F1F1F1"/>
<path d="M28.3708 199.362C28.3708 199.362 28.3915 199.395 28.4316 199.463C28.7129 199.933 29.8862 201.999 30.3003 204.006C30.3404 204.2 30.5356 204.326 30.7367 204.287C30.9378 204.248 31.0677 204.06 31.0276 203.866C30.5126 201.403 29.0157 199.012 29.0068 198.994C28.9014 198.824 28.6736 198.77 28.4977 198.872C28.3218 198.973 28.2646 199.193 28.3708 199.362Z" fill="#17282F"/>
<defs>
<linearGradient id="paint0_linear_416_1064" x1="20" y1="-18" x2="105.192" y2="266.513" gradientUnits="userSpaceOnUse">
<stop stop-color="#DE1F1F" stop-opacity="0.5"/>
<stop offset="0.361528" stop-color="#671FDE" stop-opacity="0.5"/>
<stop offset="0.663293" stop-color="#221FDE" stop-opacity="0.5"/>
<stop offset="1" stop-color="#00A3FF" stop-opacity="0.5"/>
</linearGradient>
<linearGradient id="paint1_linear_416_1064" x1="7.7375" y1="218.505" x2="77.4632" y2="157.237" gradientUnits="userSpaceOnUse">
<stop offset="0.0001" stop-color="#D29DC3"/>
<stop offset="0.984627" stop-color="#BA9DE9"/>
</linearGradient>
<linearGradient id="paint2_linear_416_1064" x1="70.6065" y1="160.133" x2="119.769" y2="111.368" gradientUnits="userSpaceOnUse">
<stop offset="0.0677083" stop-color="#A79DE9"/>
<stop offset="1" stop-color="#98B4EF"/>
</linearGradient>
</defs>
</svg>
