<svg width="642" height="489" viewBox="0 0 642 489" fill="none" xmlns="http://www.w3.org/2000/svg">
<path d="M753.5 259.962C753.5 259.962 502.728 229.868 480.932 221.647C459.138 213.427 262.033 113.887 249.714 109.32C237.394 104.752 218.44 109.32 211.806 112.97C205.172 116.623 173.899 126.666 158.736 133.97C143.574 141.273 67.7591 170.49 52.5967 178.708C37.4343 186.926 30.8002 202.45 29.8516 211.578C28.903 220.71 8.05208 292.846 11.8404 307.456C15.6318 322.066 22.2598 369.55 27.9453 382.334C33.6308 395.119 40.265 392.38 46.8991 391.466C53.5332 390.555 75.3297 379.598 75.3297 379.598C75.3297 379.598 83.8579 410.643 93.3318 425.253C102.806 439.866 114.177 464.519 125.551 464.522C136.922 464.522 146.399 454.477 146.399 454.477C146.399 454.477 206.1 474.571 221.262 477.31C236.424 480.049 246.847 477.313 250.638 470.92C254.429 464.528 249.693 449.004 249.693 449.004C249.693 449.004 295.18 449.007 293.286 428.004C291.391 407.002 280.969 399.695 274.335 396.956C267.701 394.217 247.801 391.478 247.801 391.478L291.394 391.481C291.394 391.481 328.35 402.438 373.837 419.79C419.322 437.142 458.178 442.623 510.299 434.409C562.417 426.194 570.948 418.887 580.425 418.89C589.902 418.89 902.969 486.961 902.969 486.961" fill="white"/>
<path d="M717.179 254.188C717.173 254.188 671.348 248.061 666.626 247.498C650.106 245.532 608.504 240.507 568.657 235.075C548.733 232.359 529.249 229.541 513.572 226.957C505.731 225.663 498.846 224.428 493.339 223.298C487.841 222.17 483.693 221.125 481.483 220.29C478.862 219.303 473.388 216.847 465.909 213.337C439.69 201.039 388.496 175.703 342.527 152.952C319.54 141.574 297.856 130.839 281.241 122.701C272.934 118.63 265.894 115.207 260.588 112.675C255.266 110.138 251.747 108.514 250.256 107.956C246.328 106.505 241.873 105.947 237.376 105.944C232.108 105.947 226.774 106.715 222.138 107.81C217.498 108.911 213.582 110.319 211.054 111.703C209.56 112.532 206.363 113.852 202.287 115.409C190.016 120.107 169.586 127.116 158.057 132.664C150.599 136.259 127.811 145.414 105.078 154.651C93.7043 159.274 82.3272 163.929 72.8352 167.941C63.3371 171.962 55.7635 175.321 51.8539 177.435C43.9954 181.696 38.3675 187.834 34.5853 194.063C30.803 200.303 28.8482 206.623 28.3451 211.435C28.1572 213.302 26.8934 218.774 25.1235 226.005C22.4687 236.888 18.6591 251.974 15.5133 266.363C12.3705 280.768 9.87325 294.406 9.86719 302.688C9.86719 304.7 10.0096 306.405 10.3703 307.81C12.2341 314.985 14.8496 330.538 17.6923 345.837C19.1137 353.494 20.5957 361.099 22.0838 367.611C23.5779 374.132 25.0508 379.522 26.554 382.91C28.4421 387.153 30.4848 389.884 32.7608 391.58C35.0338 393.28 37.5159 393.823 39.8252 393.814C42.4043 393.805 44.838 393.218 47.114 392.912C49.0476 392.637 51.6721 391.753 54.7058 390.581C63.7493 387.068 76.0083 380.901 76.0295 380.892L75.3294 379.598L73.8656 379.972C73.8687 379.99 76.0083 387.775 79.339 397.409C82.6787 407.052 87.1793 418.508 92.0465 426.028C96.7319 433.252 101.951 443.082 107.464 451.168C110.224 455.215 113.055 458.831 116.016 461.506C118.965 464.163 122.111 465.965 125.55 465.982C131.709 465.971 137.164 463.302 141.098 460.703C145.032 458.095 147.465 455.513 147.52 455.461L146.398 454.477L145.898 455.855C145.901 455.858 160.833 460.884 177.669 466.251C186.085 468.938 194.977 471.709 202.726 473.984C210.482 476.259 217.058 478.034 220.983 478.747C225.026 479.477 228.757 479.827 232.148 479.827C236.936 479.827 241.055 479.129 244.413 477.76C247.765 476.393 250.368 474.323 251.953 471.645C253.25 469.425 253.614 466.651 253.623 463.778C253.614 456.617 251.159 448.66 251.147 448.592L249.692 449.004V450.464C249.768 450.461 260.751 450.47 271.874 447.959C277.438 446.694 283.048 444.817 287.4 441.87C291.74 438.956 294.876 434.756 294.858 429.263C294.858 428.811 294.837 428.349 294.795 427.879C293.831 417.165 290.667 409.8 286.806 404.765C282.951 399.728 278.432 397.059 274.932 395.616C273.113 394.868 270.583 394.179 267.74 393.525C259.239 391.574 248.038 390.035 248.013 390.033L247.801 391.478V392.938H291.394V391.481L290.946 392.874C290.955 392.877 293.243 393.557 297.413 394.854C309.918 398.741 339.206 408.15 373.28 421.148C404.953 433.235 433.553 439.618 465.587 439.616C479.722 439.616 494.518 438.374 510.544 435.851C536.653 431.734 551.901 427.835 561.786 424.967C566.727 423.534 570.321 422.36 573.212 421.562C576.109 420.765 578.261 420.351 580.422 420.351V418.905L580.286 420.345L580.422 420.351V418.905L580.286 420.345L580.425 420.351C580.519 420.345 581.122 420.403 581.953 420.529C588.581 421.507 612.05 426.255 643.366 432.803C690.368 442.626 755.188 456.524 808.255 467.962C834.788 473.683 858.382 478.788 875.345 482.464C883.827 484.304 890.649 485.785 895.353 486.804C900.053 487.826 902.636 488.387 902.636 488.387C903.454 488.565 904.263 488.071 904.448 487.283C904.633 486.497 904.121 485.715 903.302 485.539C903.302 485.537 825.036 468.52 745.581 451.501C705.852 442.991 665.829 434.482 635.141 428.098C619.796 424.906 606.786 422.249 597.306 420.383C592.569 419.451 588.714 418.721 585.883 418.219C584.465 417.968 583.307 417.775 582.413 417.641C581.504 417.509 580.922 417.433 580.425 417.43V418.89L580.561 417.436L580.422 417.43C577.843 417.43 575.376 417.93 572.379 418.756C567.878 420 562.084 422.003 552.498 424.477C542.915 426.953 529.555 429.894 510.053 432.969C494.166 435.472 479.537 436.695 465.587 436.695C433.978 436.692 405.841 430.425 374.395 418.432C328.85 401.059 291.864 390.091 291.84 390.085L291.394 390.021L247.801 390.018C247.004 390.018 246.346 390.611 246.289 391.376C246.231 392.138 246.798 392.815 247.586 392.924C247.589 392.924 248.816 393.093 250.777 393.391C253.717 393.838 258.287 394.574 262.721 395.45C267.14 396.32 271.48 397.359 273.738 398.3C276.871 399.596 280.878 401.95 284.369 406.5C287.851 411.052 290.846 417.842 291.776 428.133C291.809 428.519 291.828 428.895 291.828 429.263C291.809 433.641 289.494 436.844 285.654 439.481C279.911 443.403 270.861 445.506 263.303 446.516C259.524 447.03 256.111 447.287 253.647 447.416C252.417 447.48 251.423 447.512 250.741 447.529C250.059 447.544 249.695 447.544 249.692 447.544C249.216 447.544 248.765 447.763 248.48 448.131C248.195 448.496 248.104 448.978 248.241 449.416L248.338 449.749C248.786 451.291 250.602 458.054 250.592 463.778C250.605 466.388 250.192 468.76 249.323 470.194C248.11 472.238 246.104 473.891 243.228 475.07C240.358 476.244 236.63 476.91 232.148 476.907C228.975 476.907 225.426 476.577 221.541 475.876C217.886 475.216 211.312 473.453 203.608 471.189C192.043 467.793 177.857 463.27 166.573 459.596C160.927 457.759 156.009 456.135 152.502 454.97C148.993 453.805 146.901 453.101 146.898 453.098C146.323 452.906 145.686 453.06 145.277 453.496L145.186 453.586C144.701 454.085 142.252 456.498 138.679 458.749C135.109 461.006 130.436 463.071 125.55 463.062C123.305 463.077 120.762 461.798 118.086 459.374C114.076 455.765 109.949 449.787 105.994 443.353C102.03 436.917 98.2109 430.025 94.6165 424.48C90.0099 417.392 85.5064 406.021 82.2151 396.486C80.5634 391.715 79.2087 387.396 78.2661 384.268C77.3206 381.143 76.7962 379.228 76.7932 379.225C76.678 378.795 76.3629 378.442 75.9416 378.261C75.5203 378.083 75.0355 378.097 74.6293 378.302C74.6263 378.305 73.2777 378.982 71.138 380.019C67.9316 381.575 62.9613 383.932 58.1941 385.976C55.812 386.998 53.4784 387.942 51.4599 388.663C49.4476 389.387 47.7141 389.884 46.6867 390.021C44.2136 390.368 41.9012 390.9 39.8252 390.894C37.9523 390.882 36.3188 390.52 34.6125 389.267C32.9063 388.006 31.103 385.728 29.3392 381.759C27.9966 378.754 26.5116 373.419 25.0447 366.983C22.8354 357.314 20.6169 345.107 18.5955 333.949C16.574 322.779 14.7587 312.69 13.31 307.103C13.0433 306.078 12.8948 304.557 12.8978 302.688C12.8918 297.519 13.9768 289.707 15.6376 280.859C18.1227 267.577 21.8807 251.907 25.0993 238.778C26.7116 232.213 28.1845 226.282 29.3028 221.589C30.4181 216.879 31.1727 213.483 31.3606 211.725C31.8031 207.406 33.6397 201.399 37.2007 195.541C40.7648 189.671 46.0351 183.938 53.339 179.981C57.0121 177.987 64.6009 174.614 74.0535 170.616C88.2522 164.609 106.727 157.154 123.077 150.516C139.437 143.87 153.623 138.064 159.415 135.278C166.88 131.677 178.478 127.341 189.009 123.466C194.28 121.527 199.286 119.699 203.405 118.122C207.536 116.542 210.733 115.236 212.558 114.241C214.679 113.067 218.434 111.688 222.859 110.646C227.29 109.597 232.418 108.864 237.376 108.864C241.613 108.864 245.722 109.405 249.168 110.684C250.55 111.192 255.032 113.265 261.615 116.428C284.733 127.528 334.63 152.367 381.123 175.321C404.371 186.8 426.768 197.807 444.552 206.401C462.354 214.998 475.464 221.148 480.38 223.008C483.298 224.104 488.369 225.304 495.176 226.65C542.675 236.001 716.788 257.082 716.815 257.088C717.645 257.184 718.4 256.615 718.5 255.815C718.6 255.014 718.009 254.287 717.179 254.188Z" fill="#17282F"/>
<path d="M203.305 412.215L203.806 412.431C204.169 412.591 204.593 412.603 204.966 412.469C205.339 412.331 205.648 412.054 205.812 411.704C205.975 411.353 205.991 410.947 205.851 410.585C205.709 410.226 205.421 409.931 205.057 409.77L204.557 409.554C203.793 409.221 202.896 409.546 202.551 410.281C202.205 411.014 202.545 411.882 203.305 412.215L203.806 412.431C204.169 412.591 204.593 412.603 204.966 412.469C205.339 412.331 205.648 412.054 205.812 411.704C205.975 411.353 205.991 410.947 205.851 410.585C205.709 410.226 205.421 409.931 205.057 409.77L204.557 409.554C203.793 409.221 202.896 409.546 202.551 410.281C202.205 411.014 202.545 411.882 203.305 412.215Z" fill="#17282F"/>
<path d="M203.187 412.159L203.302 412.212C203.666 412.372 204.087 412.384 204.463 412.25C204.836 412.115 205.145 411.838 205.312 411.488C205.475 411.14 205.491 410.731 205.351 410.372C205.212 410.013 204.924 409.715 204.56 409.554L204.442 409.502C203.681 409.169 202.784 409.493 202.436 410.226C202.09 410.959 202.423 411.826 203.187 412.159L203.302 412.212C203.666 412.372 204.087 412.384 204.463 412.25C204.836 412.115 205.145 411.838 205.312 411.488C205.475 411.14 205.491 410.731 205.351 410.372C205.212 410.013 204.924 409.715 204.56 409.554L204.442 409.502C203.681 409.169 202.784 409.493 202.436 410.226C202.09 410.959 202.423 411.826 203.187 412.159Z" fill="#17282F"/>
<path d="M202.888 412.028L202.948 412.054C203.315 412.209 203.736 412.218 204.109 412.077C204.479 411.937 204.785 411.657 204.945 411.304C205.106 410.953 205.115 410.544 204.97 410.188C204.824 409.829 204.533 409.534 204.166 409.382L204.106 409.356C203.339 409.032 202.445 409.367 202.109 410.106C201.772 410.842 202.121 411.704 202.888 412.028L202.948 412.054C203.315 412.209 203.736 412.218 204.109 412.077C204.479 411.937 204.785 411.657 204.945 411.304C205.106 410.953 205.115 410.544 204.97 410.188C204.824 409.829 204.533 409.534 204.166 409.382L204.106 409.356C203.339 409.032 202.445 409.367 202.109 410.106C201.772 410.842 202.121 411.704 202.888 412.028Z" fill="#17282F"/>
<path d="M204.433 411.102C204.711 411.225 205.039 411.368 205.402 411.528C205.096 411.391 204.769 411.251 204.433 411.102Z" fill="#17282F"/>
<path d="M204.433 411.102L203.802 412.428C204.087 412.556 204.414 412.696 204.775 412.857C205.539 413.19 206.436 412.866 206.781 412.133C207.13 411.4 206.793 410.536 206.033 410.2C205.724 410.062 205.396 409.919 205.06 409.773C204.299 409.437 203.402 409.762 203.054 410.495C202.705 411.228 203.038 412.092 203.802 412.428L204.433 411.102L203.802 412.431C204.142 412.58 204.469 412.723 204.775 412.857C205.142 413.018 205.554 413.032 205.933 412.895C206.312 412.758 206.615 412.489 206.781 412.133C206.951 411.78 206.966 411.382 206.824 411.017C206.681 410.649 206.399 410.36 206.033 410.2C205.666 410.039 205.339 409.896 205.063 409.773C204.693 409.613 204.281 409.598 203.902 409.732C203.523 409.87 203.22 410.138 203.054 410.495C202.884 410.848 202.872 411.245 203.011 411.613C203.154 411.978 203.436 412.267 203.802 412.431L204.433 411.102Z" fill="#17282F"/>
<path d="M202.924 412.045L203.181 412.159C203.545 412.32 203.966 412.334 204.342 412.2C204.715 412.069 205.024 411.791 205.19 411.441C205.357 411.093 205.375 410.685 205.236 410.325C205.097 409.963 204.812 409.665 204.448 409.505L204.19 409.391C203.43 409.055 202.53 409.376 202.181 410.109C201.829 410.839 202.163 411.707 202.924 412.045L203.181 412.159C203.545 412.32 203.966 412.334 204.342 412.2C204.715 412.069 205.024 411.791 205.19 411.441C205.357 411.093 205.375 410.685 205.236 410.325C205.097 409.963 204.812 409.665 204.448 409.505L204.19 409.391C203.43 409.055 202.53 409.376 202.181 410.109C201.829 410.839 202.163 411.707 202.924 412.045Z" fill="#17282F"/>
<path d="M205.402 411.529C206.06 411.815 206.651 412.075 207.178 412.305C206.56 412.034 205.948 411.765 205.402 411.529Z" fill="#17282F"/>
<path d="M204.778 412.857C205.433 413.143 206.024 413.403 206.554 413.634C207.315 413.967 208.212 413.643 208.56 412.91C208.906 412.174 208.569 411.309 207.806 410.977C207.187 410.705 206.575 410.436 206.03 410.197C205.666 410.039 205.245 410.025 204.872 410.162C204.496 410.296 204.19 410.574 204.023 410.924C203.86 411.274 203.845 411.68 203.984 412.042C204.126 412.402 204.414 412.699 204.778 412.857C205.321 413.097 205.936 413.362 206.554 413.634C206.921 413.795 207.333 413.809 207.712 413.672C208.091 413.535 208.391 413.263 208.56 412.91C208.727 412.553 208.739 412.156 208.6 411.791C208.457 411.426 208.175 411.137 207.806 410.977C207.278 410.746 206.687 410.486 206.03 410.197C205.269 409.864 204.369 410.191 204.023 410.924C203.678 411.66 204.014 412.524 204.778 412.857Z" fill="#17282F"/>
<path d="M210.767 413.876C211.212 414.072 211.3 414.11 210.767 413.876V413.876Z" fill="#17282F"/>
<path d="M210.139 415.205L210.412 415.325L210.485 415.357L210.503 415.366L210.509 415.369H210.515L210.521 415.372L210.536 415.377L210.56 415.389L210.606 415.407L210.679 415.43L210.779 415.456L211.133 415.497C211.748 415.497 212.3 415.141 212.533 414.595C212.77 414.052 212.639 413.424 212.206 413.006L211.133 414.037L212.394 413.228L212.206 413.006L211.133 414.037H212.648C212.63 413.543 212.47 413.354 212.394 413.228L211.133 414.037H212.648C212.648 413.465 212.303 412.945 211.764 412.708L211.394 412.548C210.63 412.215 209.733 412.539 209.388 413.272C209.042 414.005 209.378 414.872 210.139 415.205L210.506 415.366L211.133 414.037H209.618C209.636 414.531 209.8 414.72 209.872 414.846L210.063 415.071L211.133 414.037L211.491 412.618L211.133 412.577V414.037L211.491 412.618L211.682 412.676L211.136 414.037L211.748 412.702L211.682 412.676L211.136 414.037L211.748 412.702L211.588 413.053L211.751 412.705L211.748 412.702L211.588 413.053L211.751 412.705L211.394 412.548C211.024 412.387 210.615 412.372 210.236 412.51C209.854 412.647 209.554 412.916 209.388 413.272C209.221 413.628 209.206 414.025 209.348 414.39C209.491 414.755 209.772 415.045 210.139 415.205Z" fill="#17282F"/>
<path d="M209.509 414.928L210.139 415.205C210.503 415.366 210.924 415.377 211.3 415.243C211.673 415.109 211.982 414.831 212.146 414.481C212.312 414.13 212.325 413.724 212.185 413.362C212.046 413.003 211.758 412.705 211.394 412.548L210.761 412.27C210 411.937 209.103 412.261 208.754 412.994C208.409 413.73 208.745 414.595 209.509 414.928L210.139 415.205C210.503 415.366 210.924 415.377 211.3 415.243C211.673 415.109 211.982 414.831 212.146 414.481C212.312 414.13 212.325 413.724 212.185 413.362C212.046 413.003 211.758 412.705 211.394 412.548L210.761 412.27C210 411.937 209.103 412.261 208.754 412.994C208.409 413.73 208.745 414.595 209.509 414.928Z" fill="#17282F"/>
<path d="M208.997 414.703L209.506 414.928C209.869 415.088 210.291 415.103 210.663 414.968C211.039 414.834 211.348 414.557 211.512 414.206C211.679 413.856 211.694 413.45 211.554 413.088C211.415 412.729 211.127 412.431 210.763 412.27L210.254 412.048C209.494 411.712 208.593 412.037 208.248 412.769C207.899 413.502 208.236 414.37 208.997 414.703L209.506 414.928C209.869 415.088 210.291 415.103 210.663 414.968C211.039 414.834 211.348 414.557 211.512 414.206C211.679 413.856 211.694 413.45 211.554 413.088C211.415 412.729 211.127 412.431 210.763 412.27L210.254 412.048C209.494 411.712 208.593 412.037 208.248 412.769C207.899 413.502 208.236 414.37 208.997 414.703Z" fill="#17282F"/>
<path d="M207.178 412.306C207.557 412.472 207.936 412.638 208.306 412.799C207.969 412.65 207.587 412.484 207.178 412.306Z" fill="#17282F"/>
<path d="M206.551 413.634C206.933 413.801 207.312 413.967 207.679 414.128C208.443 414.46 209.34 414.136 209.685 413.403C210.031 412.67 209.697 411.803 208.934 411.47C208.594 411.321 208.215 411.155 207.809 410.977C207.048 410.641 206.148 410.965 205.803 411.698C205.454 412.431 205.788 413.298 206.551 413.634C206.964 413.815 207.345 413.982 207.679 414.128C208.046 414.288 208.458 414.303 208.837 414.166C209.215 414.028 209.518 413.757 209.685 413.403C209.852 413.047 209.867 412.65 209.725 412.285C209.582 411.92 209.3 411.631 208.934 411.467C208.564 411.307 208.185 411.143 207.809 410.977C207.445 410.816 207.024 410.801 206.651 410.936C206.276 411.07 205.967 411.347 205.803 411.698C205.633 412.054 205.618 412.448 205.76 412.816C205.903 413.181 206.182 413.471 206.551 413.634Z" fill="#17282F"/>
<path d="M208.306 412.799C208.827 413.027 209.26 413.216 209.627 413.377C209.227 413.202 208.778 413.006 208.306 412.799Z" fill="#17282F"/>
<path d="M207.679 414.128C208.203 414.358 208.636 414.545 209 414.706C209.764 415.039 210.661 414.715 211.006 413.979C211.352 413.246 211.015 412.378 210.252 412.045C209.855 411.873 209.406 411.675 208.933 411.47C208.173 411.134 207.273 411.458 206.927 412.194C206.582 412.927 206.915 413.792 207.679 414.128C208.151 414.335 208.603 414.531 209 414.706C209.364 414.863 209.785 414.878 210.161 414.744C210.534 414.606 210.843 414.329 211.006 413.979C211.17 413.628 211.185 413.222 211.046 412.863C210.903 412.501 210.615 412.206 210.252 412.045C209.885 411.885 209.455 411.698 208.933 411.47C208.567 411.307 208.154 411.295 207.776 411.429C207.397 411.567 207.094 411.838 206.927 412.194C206.76 412.548 206.745 412.945 206.888 413.31C207.03 413.675 207.312 413.967 207.679 414.128Z" fill="#17282F"/>
<path d="M306.372 375.986C296.343 373.837 287.151 373.597 279.178 374.286C277.456 368.446 268.443 362.416 265.258 360.222C259.785 356.455 169.88 368.507 157.373 377.548C144.865 386.587 133.136 395.625 137.828 410.693L155.027 420.485C155.027 420.485 186.297 403.159 203.496 410.693C203.496 410.693 219.131 394.121 236.33 391.107L291.394 391.481C291.394 391.481 330.229 401.845 348.119 409.747C366.012 417.649 403.286 401.126 408.508 396.819C413.727 392.509 333.211 381.733 306.372 375.986Z" fill="#17282F"/>
<path d="M306.372 375.986L306.7 374.561C299.744 373.072 293.18 372.482 287.137 372.485C284.321 372.482 281.621 372.61 279.045 372.832L279.178 374.286L280.636 373.889C279.596 370.464 276.732 367.412 273.787 364.807C270.832 362.22 267.725 360.129 266.137 359.034C265.301 358.5 264.489 358.389 263.367 358.237C262.261 358.108 260.897 358.053 259.273 358.053C248.378 358.059 225.645 360.605 204.133 364.139C193.383 365.905 182.964 367.917 174.508 369.994C170.281 371.03 166.547 372.082 163.492 373.136C160.431 374.199 158.067 375.23 156.464 376.377C151.163 380.212 145.935 384.078 141.959 388.52C137.986 392.944 135.252 398.049 135.258 404.132C135.258 406.342 135.616 408.667 136.377 411.111C136.486 411.464 136.728 411.762 137.059 411.949L154.258 421.744C154.727 422.009 155.309 422.012 155.782 421.752C155.782 421.749 156.091 421.58 156.691 421.265C158.785 420.17 164.307 417.398 171.12 414.916C177.927 412.428 186.04 410.247 193.195 410.255C196.753 410.252 200.057 410.787 202.869 412.022C203.469 412.285 204.175 412.145 204.618 411.675L204.782 411.502C205.63 410.629 209.713 406.538 215.531 402.347C221.35 398.151 228.915 393.881 236.604 392.544L236.331 391.107L236.322 392.567L291.383 392.938L291.395 391.481L290.989 392.886C290.995 392.889 293.407 393.531 297.32 394.626C309.045 397.897 334.26 405.227 347.489 411.076C351.138 412.682 355.402 413.316 359.951 413.319C369.746 413.31 380.939 410.372 390.282 407.017C394.956 405.338 399.156 403.547 402.478 401.95C405.814 400.335 408.209 398.974 409.494 397.926C409.857 397.643 410.269 397.082 410.266 396.396C410.257 395.739 409.936 395.269 409.648 394.968C409.069 394.381 408.403 394.054 407.53 393.668C404.314 392.31 398.053 390.838 389.87 389.197C365.41 384.318 324.302 378.331 306.7 374.561L306.372 375.986L306.042 377.411C319.134 380.212 344.71 384.172 367.046 388.006C378.205 389.924 388.552 391.808 396.068 393.49C399.82 394.328 402.875 395.12 404.911 395.815C405.927 396.159 406.696 396.489 407.105 396.729L407.412 396.936L408.027 396.396H407.236C407.242 396.767 407.412 396.936 407.412 396.936L408.027 396.396H407.236H408.133L407.521 395.709C407.481 395.727 407.23 396.004 407.236 396.396H408.133L407.521 395.709C406.687 396.41 404.326 397.803 401.123 399.336C391.482 403.997 373.72 410.422 359.951 410.398C355.696 410.401 351.844 409.791 348.753 408.421C339.67 404.412 325.475 399.848 313.497 396.256C301.529 392.67 291.807 390.076 291.798 390.073L291.404 390.021L236.343 389.647L236.061 389.67C227.06 391.259 218.704 396.285 212.537 400.875C206.376 405.472 202.415 409.668 202.375 409.709L203.497 410.693L204.124 409.362C200.796 407.907 197.06 407.335 193.195 407.335C184.31 407.344 174.645 410.334 167.138 413.289C159.634 416.248 154.312 419.197 154.273 419.22L155.027 420.485L155.797 419.229L138.601 409.435L137.828 410.693L139.28 410.273C138.595 408.071 138.289 406.038 138.289 404.132C138.292 398.922 140.568 394.556 144.253 390.424C147.933 386.309 153.003 382.527 158.282 378.714C159.401 377.896 161.598 376.886 164.513 375.887C174.76 372.345 193.892 368.583 212.698 365.748C231.503 362.906 250.099 360.97 259.273 360.973C260.819 360.973 262.094 361.029 263.01 361.137C263.464 361.186 263.831 361.253 264.08 361.318L264.346 361.399L264.395 361.423L264.473 361.28L264.377 361.411L264.395 361.423L264.473 361.28L264.377 361.411C265.977 362.512 268.968 364.53 271.747 366.968C274.535 369.386 277.039 372.269 277.721 374.687C277.921 375.361 278.59 375.805 279.315 375.741C281.806 375.528 284.415 375.405 287.137 375.402C292.977 375.405 299.317 375.972 306.042 377.411L306.372 375.986Z" fill="#17282F"/>
<path d="M150.481 408.535C150.481 408.535 150.527 408.693 150.615 409.014C151.221 411.257 153.672 421.063 153.666 431.147C153.669 435.591 153.191 440.086 151.918 443.976C150.642 447.874 148.602 451.13 145.511 453.312C144.838 453.791 144.693 454.705 145.187 455.353C145.681 456.004 146.629 456.144 147.305 455.668C151.06 453.014 153.406 449.144 154.806 444.852C156.209 440.553 156.697 435.793 156.697 431.147C156.691 419.121 153.418 407.82 153.403 407.753C153.178 406.973 152.342 406.52 151.536 406.736C150.73 406.953 150.257 407.758 150.481 408.535Z" fill="#17282F"/>
<path d="M119.174 458.106C119.174 458.104 119.141 457.89 119.086 457.47C118.92 456.211 118.583 453.203 118.583 449.62C118.583 447.234 118.735 444.594 119.171 442.06C119.28 441.444 119.326 440.819 119.326 440.188C119.301 435.784 117.089 431.123 114.952 427.447C112.804 423.782 110.676 421.151 110.649 421.113C110.134 420.476 109.182 420.362 108.521 420.856C107.861 421.352 107.743 422.269 108.258 422.906C108.258 422.906 108.373 423.049 108.594 423.338C109.364 424.343 111.325 427.012 113.07 430.221C114.822 433.424 116.313 437.197 116.295 440.188C116.295 440.676 116.259 441.14 116.183 441.581C115.707 444.329 115.552 447.118 115.552 449.62C115.552 454.629 116.174 458.501 116.18 458.55C116.307 459.348 117.08 459.894 117.907 459.771C118.735 459.648 119.301 458.901 119.174 458.106Z" fill="#17282F"/>
<path d="M179.348 461.657L179.242 461.436C178.73 460.381 176.657 455.572 176.678 451.676C176.678 450.102 177.008 448.744 177.709 447.804C178.418 446.872 179.478 446.165 181.585 445.911C182.406 445.818 183.355 445.771 184.403 445.771C190.713 445.765 200.393 447.433 208.403 449.115C212.413 449.953 216.019 450.794 218.622 451.425C221.223 452.056 222.808 452.47 222.811 452.473L223.211 451.063L221.714 450.847C221.705 450.902 221.368 453.084 221.365 456.471C221.371 461.555 222.114 469.37 225.969 476.811C226.342 477.532 227.254 477.824 228.002 477.462C228.748 477.103 229.054 476.224 228.678 475.502C225.129 468.678 224.393 461.278 224.396 456.471C224.396 454.871 224.478 453.56 224.556 452.654C224.596 452.202 224.635 451.851 224.666 451.618L224.708 451.279C224.823 450.549 224.35 449.851 223.611 449.655C223.593 449.649 217.15 447.959 209.046 446.262C200.929 444.565 191.207 442.86 184.403 442.851C183.264 442.851 182.206 442.901 181.233 443.012C178.509 443.301 176.448 444.448 175.242 446.11C174.026 447.766 173.65 449.743 173.647 451.676C173.654 454.418 174.405 457.184 175.135 459.304C175.869 461.421 176.596 462.884 176.614 462.922C176.978 463.649 177.884 463.956 178.636 463.605C179.391 463.258 179.709 462.385 179.348 461.657Z" fill="#17282F"/>
<path d="M197.62 406.923C189.468 404.058 183.255 402.134 183.243 402.131L182.779 403.521L184.285 403.361C184.27 403.29 183.603 397.295 181.43 392.38C179.094 387.223 173.875 383.967 173.784 383.879C173.087 383.43 172.148 383.611 171.684 384.283C171.217 384.954 171.405 385.859 172.102 386.306L172.138 386.332C172.611 386.619 176.981 389.702 178.645 393.531C179.609 395.689 180.279 398.256 180.694 400.259C180.903 401.261 181.049 402.125 181.143 402.733C181.233 403.343 181.273 403.682 181.273 403.682C181.339 404.257 181.746 404.736 182.315 404.911C182.321 404.911 183.852 405.387 186.407 406.219C188.965 407.055 192.535 408.243 196.584 409.665C197.369 409.943 198.238 409.551 198.526 408.795C198.814 408.036 198.408 407.198 197.62 406.923Z" fill="white"/>
<path d="M251.114 448.484C251.048 448.391 244.483 431.842 233.076 422.859C229.566 420.12 223.784 417.258 217.304 414.475C210.831 411.704 203.691 409.052 197.62 406.923C196.835 406.646 195.965 407.037 195.677 407.794C195.393 408.553 195.799 409.391 196.584 409.665C202.609 411.783 209.7 414.414 216.071 417.144C222.438 419.863 228.118 422.728 231.166 425.125C236.403 429.216 240.734 435.343 243.701 440.436C245.189 442.983 246.341 445.269 247.117 446.916C247.508 447.737 247.802 448.4 247.999 448.852C248.196 449.305 248.29 449.539 248.29 449.541C248.593 450.292 249.472 450.666 250.251 450.374C251.029 450.082 251.417 449.235 251.114 448.484Z" fill="#17282F"/>
<path d="M165.416 402.984L174.326 404.304C175.154 404.426 175.926 403.88 176.054 403.083C176.181 402.286 175.614 401.541 174.787 401.418L165.877 400.096C165.049 399.973 164.276 400.519 164.149 401.316C164.022 402.113 164.589 402.858 165.416 402.984Z" fill="white"/>
<path d="M233.636 423.992V423.986C233.651 423.761 233.797 422.17 235.379 420.564C236.961 418.96 240.091 417.17 246.583 416.864C255.517 416.449 265.134 414.811 271.638 414.819C273.689 414.817 275.417 414.986 276.626 415.342C277.859 415.707 278.457 416.18 278.735 416.721C280.542 420.164 282.775 427.403 282.754 432.648C282.766 434.887 282.327 436.718 281.596 437.67C281.469 437.872 280.878 438.319 279.908 438.698C278.214 439.385 275.505 439.966 272.477 440.389C267.925 441.029 262.612 441.356 258.457 441.516C256.378 441.598 254.587 441.639 253.317 441.66C252.047 441.68 251.311 441.68 251.308 441.68C250.471 441.68 249.793 442.334 249.793 443.14C249.793 443.946 250.471 444.6 251.308 444.6C251.332 444.6 258.381 444.6 265.907 444.019C269.671 443.724 273.553 443.289 276.781 442.617C278.396 442.279 279.851 441.884 281.078 441.391C282.299 440.886 283.336 440.322 284.063 439.367C285.385 437.551 285.77 435.197 285.785 432.648C285.76 426.67 283.478 419.372 281.445 415.412C280.663 413.905 279.166 413.023 277.502 412.547C275.82 412.063 273.853 411.902 271.638 411.899C264.676 411.908 255.123 413.555 246.438 413.946C238.973 414.276 234.873 416.569 232.76 419.007C230.645 421.44 230.605 423.793 230.605 423.992C230.605 424.798 231.284 425.452 232.121 425.452C232.957 425.452 233.636 424.798 233.636 423.992Z" fill="#17282F"/>
<path d="M227.277 388.946C227.208 388.838 223.695 382.729 216.54 377.893C209.566 373.188 205.32 371.804 205.187 371.76C204.393 371.506 203.535 371.921 203.271 372.686C203.005 373.451 203.435 374.278 204.229 374.532L204.25 374.54C204.605 374.66 208.493 376.03 214.803 380.285C218.076 382.492 220.552 385.033 222.198 387.016C223.022 388.009 223.637 388.858 224.044 389.454C224.247 389.752 224.395 389.986 224.492 390.143L224.601 390.316L224.628 390.362C225.035 391.069 225.956 391.323 226.689 390.932C227.42 390.538 227.683 389.65 227.277 388.946Z" fill="white"/>
<path d="M74.6208 343.717C74.6299 343.662 76.1694 336.253 76.1725 327.291C76.1694 322.808 75.7876 317.931 74.6056 313.364C71.1749 300.147 69.1171 292.873 69.114 292.864L67.6503 293.246L68.7565 294.245C68.7989 294.19 79.1274 283.61 84.7674 272.77C90.2681 262.169 99.1752 243.684 99.1782 243.678L97.8053 243.062L98.1478 244.484C98.1569 244.481 127.615 237.881 142.747 233.907C158.164 229.839 175.305 219.23 175.372 219.2L174.557 217.971L173.111 218.406C173.12 218.435 173.987 221.11 175.469 224.556C176.957 228.002 179.033 232.21 181.582 235.376C182.097 236.012 183.049 236.126 183.709 235.63C184.37 235.136 184.488 234.219 183.976 233.583C181.727 230.805 179.694 226.758 178.269 223.438C177.554 221.776 176.984 220.293 176.596 219.23C176.402 218.698 176.251 218.269 176.151 217.977C176.051 217.685 176.002 217.536 176.002 217.536C175.863 217.101 175.517 216.753 175.075 216.598C174.632 216.444 174.135 216.496 173.738 216.741C173.738 216.741 173.484 216.899 172.993 217.191C169.574 219.238 154.836 227.713 141.95 231.089C134.443 233.06 123.311 235.703 114.068 237.846C109.446 238.918 105.294 239.867 102.297 240.547C99.2994 241.228 97.4659 241.64 97.4598 241.64C97.0082 241.742 96.6264 242.04 96.4294 242.449C96.4233 242.457 94.2049 247.065 91.2955 253.005C88.383 258.942 84.7886 266.202 82.058 271.464C79.3971 276.598 75.5057 281.822 72.2871 285.738C70.6779 287.695 69.2383 289.33 68.2018 290.469C67.6836 291.042 67.2684 291.488 66.9805 291.792C66.6956 292.096 66.5471 292.248 66.5471 292.248C66.1864 292.619 66.05 293.141 66.1895 293.632C66.1895 293.638 66.7016 295.439 67.6412 298.9C68.5837 302.36 69.9505 307.474 71.6628 314.071C72.763 318.308 73.1418 322.969 73.1418 327.291C73.1418 331.613 72.766 335.593 72.3902 338.481C72.2053 339.927 72.0174 341.101 71.878 341.907C71.7386 342.716 71.6477 343.145 71.6477 343.145C71.484 343.936 72.0174 344.707 72.8357 344.865C73.657 345.022 74.4571 344.509 74.6208 343.717Z" fill="#17282F"/>
<path d="M118.344 293.068C121.962 295.404 126.184 297.419 131.003 298.623C131.812 298.824 132.639 298.354 132.849 297.574C133.058 296.794 132.573 295.997 131.764 295.796C127.327 294.689 123.414 292.826 120.032 290.641C119.335 290.192 118.395 290.373 117.929 291.042C117.462 291.71 117.65 292.619 118.344 293.068Z" fill="#17282F"/>
<path d="M101.952 276.11C102.003 276.192 105.1 281.738 111.213 287.473C111.813 288.034 112.774 288.022 113.356 287.444C113.941 286.865 113.929 285.943 113.329 285.379C110.437 282.669 108.246 279.985 106.788 277.991C106.058 276.992 105.51 276.166 105.149 275.593C104.967 275.307 104.834 275.085 104.746 274.936L104.622 274.726C104.225 274.016 103.306 273.751 102.57 274.13C101.833 274.516 101.558 275.401 101.952 276.11Z" fill="#17282F"/>
<path d="M175.838 192.495C175.784 191.21 175.75 189.899 175.75 188.573C175.744 181.538 176.644 174.08 179.36 168.394C179.708 167.661 179.372 166.796 178.611 166.458C177.851 166.122 176.954 166.446 176.605 167.176C173.602 173.51 172.726 181.304 172.72 188.573C172.72 189.942 172.753 191.294 172.811 192.614C172.844 193.42 173.55 194.048 174.387 194.013C175.223 193.981 175.872 193.301 175.838 192.495Z" fill="#17282F"/>
<path d="M178.091 210.396C178.091 210.393 178.054 210.235 177.988 209.911C177.785 208.938 177.312 206.57 176.857 203.352C176.742 202.552 175.978 201.994 175.151 202.102C174.32 202.213 173.742 202.949 173.854 203.746C174.478 208.141 175.124 210.991 175.133 211.021C175.312 211.809 176.118 212.306 176.936 212.133C177.754 211.961 178.272 211.181 178.091 210.396Z" fill="#17282F"/>
<path d="M71.4686 210.498C71.4686 210.498 71.8505 210.813 72.5384 211.398C74.9478 213.448 81.003 218.765 86.4128 224.772C89.1161 227.777 91.6558 230.952 93.4863 233.942C95.329 236.923 96.414 239.727 96.3988 241.803C96.3988 242.159 96.3685 242.492 96.3109 242.808C96.1654 243.602 96.717 244.361 97.5414 244.502C98.3657 244.642 99.1506 244.11 99.2961 243.316C99.387 242.819 99.4295 242.314 99.4295 241.803C99.4052 238.398 97.6595 234.771 95.2108 231.071C87.8341 220.039 73.4779 208.325 73.4294 208.273C72.793 207.75 71.8353 207.826 71.2928 208.439C70.7534 209.055 70.8291 209.975 71.4686 210.498Z" fill="#17282F"/>
<path d="M45.823 278.195L45.7897 277.699L45.8139 278.198L45.823 278.195L45.7897 277.699L45.8139 278.198L45.9654 278.193C46.5867 278.193 48.9779 278.304 51.8419 279.793C54.7059 281.288 58.0972 284.144 60.7854 289.885C61.1309 290.618 62.0279 290.948 62.7886 290.615C63.5523 290.285 63.8948 289.421 63.5493 288.685C60.6338 282.421 56.7182 279.001 53.2814 277.223C49.8447 275.439 46.9383 275.275 45.9654 275.272L45.6199 275.284C44.7865 275.337 44.1531 276.034 44.2107 276.838C44.2652 277.641 44.9865 278.251 45.823 278.195Z" fill="#17282F"/>
<path d="M316.755 201.708L296.389 182.087L276.023 162.463L145.583 287.216L31.6455 409.178L46.1775 423.18L60.7095 437.183L187.285 327.399L316.755 201.708Z" fill="url(#paint0_linear_79_931)"/>
<path d="M316.755 201.708L317.825 200.677L297.462 181.053L277.093 161.429C276.502 160.859 275.551 160.859 274.957 161.426L144.517 286.179L144.459 286.238L30.5188 408.202C29.9824 408.778 30.0066 409.662 30.5733 410.211L45.1084 424.214L59.6404 438.217C60.2101 438.766 61.1254 438.789 61.7255 438.269L188.298 328.482L188.362 328.427L317.831 202.739C318.419 202.166 318.416 201.247 317.825 200.677L316.755 201.708L315.68 200.68L186.24 326.339L60.7648 435.171L47.251 422.149L33.7343 409.125L146.681 288.223L276.017 164.524L295.317 183.118L315.683 202.742L316.755 201.708Z" fill="#17282F"/>
<path d="M383.981 138.385C438.448 83.7618 482.165 38.0627 482.165 38.0627L464.011 20.5704L445.855 3.07521C445.855 3.07521 398.431 45.2028 341.742 97.6857C285.054 150.166 263.194 171.945 263.194 171.945L285.054 193.009L306.914 214.072C306.914 214.072 329.517 193.009 383.981 138.385Z" fill="url(#paint1_linear_79_931)"/>
<path d="M383.981 138.385L385.072 139.399C439.551 84.7635 483.274 39.0556 483.28 39.0527C483.832 38.4774 483.814 37.5838 483.238 37.0319L465.084 19.5366L446.928 2.04143C446.352 1.4895 445.427 1.46901 444.827 2.0005C444.824 2.00635 397.391 44.1397 340.691 96.6313C283.993 149.123 262.121 170.914 262.103 170.929C261.53 171.501 261.536 172.412 262.121 172.976L283.981 194.039L305.844 215.106C306.429 215.67 307.372 215.676 307.969 215.121C307.984 215.106 330.599 194.031 385.072 139.399L383.981 138.385L382.887 137.375C355.659 164.679 336.399 183.597 323.946 195.684C317.721 201.728 313.197 206.065 310.233 208.889C307.266 211.716 305.866 213.018 305.859 213.024L306.914 214.072L307.987 213.039L286.124 191.975L264.264 170.911L263.194 171.945L264.282 172.958C264.288 172.955 265.64 171.606 268.573 168.747C277.368 160.173 300.283 138.09 342.791 98.7368C371.131 72.5013 397.155 48.8531 416.094 31.7637C425.561 23.222 433.259 16.3156 438.59 11.5468C443.921 6.78094 446.873 4.15561 446.882 4.14977L445.855 3.07521L444.785 4.10884L462.939 21.6013L481.095 39.0965L482.165 38.0627L481.053 37.0728C481.044 37.0816 478.322 39.9259 473.373 45.0626C458.529 60.4728 423.728 96.4153 382.887 137.375L383.981 138.385Z" fill="#17282F"/>
<path d="M322.656 180.729L311.03 192.191C310.445 192.766 310.454 193.689 311.054 194.255C311.651 194.819 312.612 194.807 313.197 194.229L324.823 182.77C325.407 182.192 325.398 181.266 324.798 180.702C324.201 180.139 323.24 180.151 322.656 180.729Z" fill="#17282F"/>
<path d="M468.457 37.0085L332.483 171.04C331.899 171.618 331.911 172.541 332.508 173.104C333.108 173.668 334.065 173.659 334.65 173.081L470.624 39.0498C471.209 38.4716 471.2 37.5487 470.6 36.9851C470.003 36.4215 469.042 36.4303 468.457 37.0085Z" fill="#17282F"/>
<path d="M291.122 209.631L230.502 269.782C229.921 270.363 229.933 271.286 230.533 271.847C231.133 272.41 232.094 272.396 232.675 271.818L293.295 211.663C293.88 211.085 293.864 210.159 293.264 209.599C292.664 209.038 291.704 209.05 291.122 209.631Z" fill="#17282F"/>
<path d="M269.443 165.827C265.173 169.974 263.194 171.945 263.194 171.945L306.914 214.072C306.914 214.072 308.96 212.165 313.263 208.051L269.443 165.827Z" fill="#17282F"/>
<path d="M269.443 165.827L268.367 164.799C264.091 168.949 262.109 170.926 262.103 170.929C261.53 171.501 261.536 172.412 262.121 172.976L305.844 215.106C306.429 215.67 307.375 215.676 307.969 215.121C307.972 215.118 310.024 213.205 314.33 209.088C314.618 208.813 314.779 208.445 314.779 208.054C314.779 207.662 314.621 207.295 314.333 207.017L270.513 164.793C270.228 164.519 269.843 164.367 269.44 164.367C269.034 164.367 268.652 164.522 268.367 164.799L269.443 165.827L268.37 166.858L312.191 209.082L313.263 208.051L312.197 207.014C310.045 209.07 308.46 210.574 307.414 211.561C306.366 212.551 305.863 213.021 305.859 213.024L306.914 214.072L307.987 213.039L264.264 170.911L263.194 171.945L264.282 172.958C264.285 172.958 264.773 172.47 265.797 171.463C266.825 170.453 268.385 168.928 270.519 166.855L269.443 165.827Z" fill="#17282F"/>
<path d="M44.7901 446.037L20.751 422.874L33.4585 410.629L57.4977 433.792L44.7901 446.037Z" fill="#CDCECC"/>
<path d="M44.7899 446.037L45.8627 445.003L22.8933 422.874L33.4582 412.694L55.3547 433.792L43.72 445.003L44.7899 446.037L45.8627 447.068L58.5673 434.823C59.1613 434.254 59.1613 433.328 58.5673 432.759L34.5311 409.595C34.2492 409.324 33.8583 409.169 33.4582 409.169C33.0582 409.169 32.6703 409.324 32.3884 409.595L19.6808 421.84C19.399 422.111 19.2354 422.488 19.2354 422.874C19.2354 423.256 19.399 423.633 19.6808 423.905L43.72 447.068C44.0019 447.34 44.3928 447.497 44.7899 447.497C45.1899 447.497 45.5809 447.34 45.8627 447.068L44.7899 446.037Z" fill="#17282F"/>
<path d="M20.7504 422.874L4.2666 452.654L11.822 459.934L44.7895 446.037L20.7504 422.874Z" fill="#CDCECC"/>
<path d="M20.7501 422.874L19.4136 422.184L2.92982 451.965C2.61463 452.535 2.72373 453.23 3.19652 453.685L10.7489 460.965C11.1914 461.392 11.8581 461.512 12.4279 461.272L45.3984 447.375C45.8561 447.179 46.1864 446.782 46.2804 446.306C46.3713 445.833 46.2167 445.345 45.8621 445.003L21.8229 421.84C21.4835 421.513 21.0047 421.361 20.5289 421.428C20.0531 421.495 19.6409 421.776 19.4136 422.184L20.7501 422.874L19.6803 423.904L42.1496 445.555L12.1612 458.197L6.13325 452.386L22.0866 423.56L20.7501 422.874Z" fill="#17282F"/>
<path d="M5.80956 454.722L1.51514 462.992L9.79488 458.562L5.80956 454.722Z" fill="white"/>
<path d="M5.80925 454.722L4.45152 454.071L0.160099 462.341C-0.136906 462.91 -0.012646 463.605 0.466198 464.046C0.945042 464.49 1.66937 464.581 2.25126 464.268L10.528 459.838C10.9462 459.616 11.2281 459.219 11.2947 458.767C11.3584 458.311 11.2008 457.855 10.8644 457.531L6.87908 453.691C6.53662 453.358 6.04566 453.206 5.56682 453.282C5.08495 453.355 4.66973 453.65 4.45152 454.071L5.80925 454.722L4.73639 455.756L7.30035 458.226L5.06069 459.424L7.16395 455.376L5.80925 454.722Z" fill="#17282F"/>
<path d="M481.702 18.0297L467.87 4.69863C463.669 0.654079 456.859 0.654079 452.659 4.69863L449.971 7.29193L479.014 35.2738L481.702 32.6835C485.902 28.636 485.902 22.0772 481.702 18.0297Z" fill="white"/>
<path d="M481.701 18.0298L482.774 16.996L468.942 3.66793H468.939C466.548 1.36092 463.399 0.201622 460.266 0.20454C457.129 0.201622 453.98 1.36092 451.589 3.66793L448.901 6.25823C448.307 6.82768 448.307 7.75335 448.901 8.3228L477.94 36.3076C478.222 36.5792 478.613 36.734 479.013 36.734C479.41 36.734 479.801 36.5792 480.083 36.3076L482.774 33.7173H482.771C485.165 31.4132 486.369 28.3762 486.369 25.3567C486.369 22.3371 485.165 19.3001 482.771 16.996H482.774L481.701 18.0298L480.629 19.0606C482.438 20.804 483.335 23.073 483.338 25.3567C483.335 27.6403 482.438 29.9093 480.629 31.6498V31.6528L479.013 33.2093L452.113 7.29201L453.731 5.7325C455.538 3.99202 457.896 3.1248 460.266 3.1248C462.632 3.1248 464.99 3.99202 466.797 5.7325L480.629 19.0606L481.701 18.0298Z" fill="#17282F"/>
<path d="M442.988 6.22887L434.9 2.68663L280.497 138.003C280.497 138.003 283.806 141.191 285.643 140.835C287.482 140.482 301.817 134.46 308.436 126.669C315.052 118.875 313.949 114.27 319.465 109.661C324.981 105.059 442.988 6.22887 442.988 6.22887Z" fill="white"/>
<path d="M442.988 6.22908L443.613 4.89742L435.524 1.35803C434.975 1.11565 434.324 1.21497 433.878 1.60628L279.475 136.922C279.169 137.194 278.99 137.568 278.981 137.968C278.972 138.371 279.13 138.753 279.424 139.036C279.454 139.063 280.233 139.813 281.3 140.596C281.836 140.987 282.442 141.39 283.1 141.717C283.764 142.036 284.473 142.313 285.343 142.325L285.94 142.269C286.361 142.182 286.791 142.036 287.419 141.811C291.68 140.213 303.424 134.808 309.609 127.592C313.04 123.562 314.516 120.25 315.749 117.561C316.998 114.854 317.943 112.877 320.456 110.766C325.975 106.16 443.98 7.33002 443.983 7.33002C444.37 7.00294 444.561 6.50935 444.486 6.01875C444.413 5.52522 444.086 5.10475 443.613 4.89742L442.988 6.22908L441.994 5.12527C441.994 5.12527 434.618 11.3016 423.468 20.6406C390.022 48.6517 322.605 105.109 318.471 108.561C315.47 111.055 314.21 113.683 312.979 116.378C311.731 119.091 310.452 121.979 307.263 125.743C304.175 129.394 299.053 132.802 294.501 135.269C292.228 136.508 290.092 137.521 288.431 138.236C287.598 138.596 286.885 138.882 286.337 139.08C285.803 139.282 285.385 139.402 285.346 139.404H285.343C285.273 139.413 284.906 139.334 284.485 139.118C283.846 138.803 283.079 138.254 282.509 137.792C282.224 137.559 281.982 137.349 281.815 137.2L281.624 137.024L281.566 136.972L280.497 138.003L281.515 139.083L435.178 4.41261L442.361 7.55774L442.988 6.22908Z" fill="#17282F"/>
<path d="M283.818 259.079C283.818 259.079 217.483 287.388 171.047 297.431C124.611 307.477 105.657 311.13 99.0264 316.609C92.3923 322.087 63.016 352.221 48.7992 367.742C34.5854 383.266 25.1086 402.441 49.7478 419.79C74.3871 437.142 88.6009 428.01 124.611 416.14C160.624 404.269 172.944 385.091 172.944 385.091C172.944 385.091 195.686 365.003 237.382 368.656C279.081 372.309 294.24 381.441 356.787 396.962C419.331 412.486 465.766 387.831 485.669 373.223" fill="white"/>
<path d="M283.205 257.745C283.202 257.748 282.175 258.186 280.275 258.977C266.988 264.52 211.121 287.274 170.716 296.009C147.501 301.029 131.154 304.451 119.728 307.319C108.3 310.207 101.79 312.444 98.038 315.499C96.2954 316.941 93.2223 319.85 89.2975 323.705C77.5416 335.245 58.3545 355.103 47.6624 366.775C39.7251 375.469 33.0455 385.386 33.0152 395.908C32.997 404.432 37.5794 413.064 48.8534 420.97C58.8303 428.013 67.398 430.89 76.3021 430.881C89.7218 430.846 103.523 424.611 125.102 417.521C161.497 405.527 174.104 386.07 174.232 385.862L172.944 385.091L173.965 386.169L174.004 386.134C174.999 385.284 193.661 369.669 227.353 369.672C230.517 369.672 233.815 369.81 237.245 370.11C257.996 371.93 272.064 375.092 288.845 379.762C305.623 384.428 325.095 390.605 356.408 398.378C370.588 401.897 383.962 403.372 396.397 403.372C439.305 403.366 470.973 385.842 486.587 374.383C487.25 373.895 487.381 372.978 486.872 372.338C486.365 371.696 485.414 371.57 484.75 372.061C469.503 383.254 438.42 400.458 396.397 400.452C384.211 400.452 371.097 399.006 357.162 395.549C325.931 387.798 306.55 381.648 289.688 376.955C272.828 372.263 258.463 369.033 237.521 367.202C233.999 366.892 230.608 366.752 227.353 366.752C191.528 366.758 172.077 383.876 171.919 384.017L171.653 384.323L171.631 384.358C171.004 385.29 158.636 403.375 124.12 414.758C102.408 421.936 88.6702 427.993 76.3021 427.961C68.0951 427.949 60.3184 425.411 50.6415 418.613C39.8766 411 36.0671 403.381 36.0458 395.908C36.0155 386.654 42.1587 377.177 49.9353 368.709C57.0241 360.967 67.9162 349.558 77.8568 339.41C82.8271 334.337 87.561 329.577 91.4584 325.749C95.3528 321.926 98.438 319.015 100.011 317.715C102.896 315.294 109.179 312.964 120.492 310.146C131.809 307.304 148.159 303.879 171.38 298.856C218.064 288.749 284.384 260.431 284.43 260.417C285.196 260.09 285.542 259.225 285.202 258.489C284.863 257.753 283.969 257.421 283.205 257.745Z" fill="#17282F"/>
<path d="M75.1901 348.054C75.1901 348.054 77.9298 379.087 84.0972 387.673C90.2646 396.258 97.12 398.898 97.12 398.898C97.12 398.898 88.2098 414.746 75.1901 418.709C62.1674 422.669 47.0929 414.746 42.9803 406.161C38.8677 397.578 40.2375 387.013 41.6104 383.71C42.9803 380.41 75.1901 348.054 75.1901 348.054Z" fill="white"/>
<path d="M75.19 348.054L73.6777 348.176C73.6807 348.2 74.3687 355.982 75.8325 364.874C76.5659 369.319 77.4933 374.044 78.6389 378.232C79.7936 382.428 81.1149 386.067 82.8515 388.505C89.2431 397.397 96.3713 400.183 96.5562 400.253L97.1199 398.898L95.7864 398.203L95.6954 398.361C95.2166 399.181 92.8527 403.089 89.1492 407.201C85.4518 411.321 80.4058 415.602 74.7324 417.316C72.517 417.991 70.2318 418.297 67.9407 418.297C62.8067 418.3 57.6425 416.738 53.3996 414.332C49.1506 411.937 45.8472 408.687 44.3561 405.551C42.4225 401.523 41.7527 396.93 41.7558 392.955C41.7436 389.001 42.4437 385.602 43.0165 384.253C43.0408 384.195 43.2438 383.876 43.5499 383.479C44.7167 381.94 47.3958 378.95 50.6962 375.422C55.6513 370.116 62.0521 363.522 67.2103 358.26C69.7893 355.629 72.0563 353.328 73.6807 351.686C75.3052 350.045 76.281 349.067 76.2841 349.064L75.19 348.054L74.0959 347.043C74.0929 347.046 66.0374 355.138 57.8062 363.648C53.6875 367.905 49.5294 372.265 46.3017 375.779C44.6864 377.537 43.3044 379.081 42.271 380.311C41.7527 380.927 41.3224 381.461 40.983 381.917C40.6405 382.384 40.398 382.72 40.2041 383.17C39.404 385.123 38.7342 388.657 38.7251 392.955C38.7251 397.237 39.4252 402.216 41.6042 406.774C43.4741 410.655 47.1988 414.203 51.863 416.852C56.5332 419.489 62.1703 421.215 67.9407 421.218C70.5137 421.218 73.111 420.873 75.6446 420.102C82.6151 417.965 88.2431 412.813 92.2011 408.252C96.1531 403.682 98.42 399.649 98.4503 399.593C98.6564 399.228 98.6897 398.793 98.5442 398.402C98.3957 398.01 98.0836 397.698 97.6805 397.543L97.6381 397.526C97.0441 397.277 90.9191 394.602 85.3427 386.843C83.9941 384.986 82.6636 381.526 81.5695 377.49C79.9118 371.422 78.6844 364.01 77.8843 358.134C77.4812 355.197 77.1872 352.641 76.9902 350.822C76.7932 349.006 76.6993 347.931 76.6993 347.931C76.6477 347.359 76.2537 346.868 75.6931 346.675C75.1354 346.485 74.5081 346.629 74.0959 347.043L75.19 348.054Z" fill="#17282F"/>
<path d="M109.706 353.804C103.869 339.214 102.033 325.507 102.033 325.507L109.706 353.804Z" fill="white"/>
<path d="M111.122 353.278C108.239 346.08 106.336 339.071 105.16 333.873C104.572 331.274 104.166 329.128 103.906 327.635C103.775 326.888 103.681 326.304 103.624 325.909C103.563 325.515 103.536 325.32 103.536 325.32C103.43 324.519 102.669 323.953 101.839 324.058C101.008 324.16 100.423 324.893 100.53 325.693C100.542 325.761 102.381 339.553 108.294 354.329C108.594 355.083 109.473 355.457 110.252 355.167C111.034 354.875 111.422 354.031 111.122 353.278Z" fill="#17282F"/>
<path d="M121.189 374.082C118.38 370.651 115.952 366.819 113.861 362.854L121.189 374.082Z" fill="white"/>
<path d="M122.378 373.177C119.644 369.842 117.268 366.089 115.213 362.191C114.834 361.472 113.922 361.186 113.177 361.551C112.431 361.916 112.134 362.795 112.513 363.513C114.637 367.549 117.113 371.462 119.999 374.987C120.517 375.621 121.471 375.729 122.129 375.227C122.784 374.727 122.896 373.81 122.378 373.177Z" fill="#17282F"/>
<path d="M117.156 343.965C117.156 343.965 123.205 353.681 125.224 363.394L117.156 343.965Z" fill="white"/>
<path d="M115.859 344.716C115.859 344.716 115.943 344.85 116.107 345.128C117.256 347.046 122.047 355.486 123.738 363.68C123.902 364.472 124.699 364.985 125.52 364.828C126.342 364.667 126.872 363.899 126.708 363.108C124.605 353.05 118.492 343.288 118.456 343.212C118.026 342.52 117.095 342.298 116.377 342.713C115.659 343.127 115.425 344.024 115.859 344.716Z" fill="#17282F"/>
<defs>
<linearGradient id="paint0_linear_79_931" x1="31.5985" y1="422.89" x2="316.339" y2="172.689" gradientUnits="userSpaceOnUse">
<stop offset="0.0001" stop-color="#D29DC3"/>
<stop offset="0.984627" stop-color="#BA9DE9"/>
</linearGradient>
<linearGradient id="paint1_linear_79_931" x1="288.337" y1="184.515" x2="489.103" y2="-14.6281" gradientUnits="userSpaceOnUse">
<stop offset="0.0677083" stop-color="#A79DE9"/>
<stop offset="1" stop-color="#98B4EF"/>
</linearGradient>
</defs>
</svg>
