<svg width="615" height="748" viewBox="0 0 615 748" fill="none" xmlns="http://www.w3.org/2000/svg">
<path d="M0 16C0 7.16345 7.16344 0 16 0H599C607.837 0 615 7.16344 615 16V636C615 644.837 607.837 652 599 652H16C7.16343 652 0 644.837 0 636V16Z" fill="url(#paint0_linear_1895_1002)" fill-opacity="0.8"/>
<path fill-rule="evenodd" clip-rule="evenodd" d="M412.707 406.501C411.304 406.753 410.166 407.51 409.295 408.773C407.671 424.134 408.808 439.278 412.707 454.201C433.678 452.052 452.636 444.859 469.583 432.622C480.113 431.737 488.456 427.194 494.608 418.994C502.745 415.285 510.328 415.664 517.358 420.13C519.5 421.5 520.131 424.275 519.633 426.944C511.738 451.414 496.571 469.962 474.133 482.594C460.872 488.043 447.222 492.206 433.182 495.086C437.118 504.247 440.908 513.333 444.557 522.343C443.199 522.877 442.442 524.013 442.283 525.75C444.03 530.602 445.545 535.524 446.832 540.515C445.87 560.444 443.215 580.13 438.87 599.571C435.087 608.648 430.159 616.977 424.082 624.557C425.959 626.569 428.234 627.326 430.907 626.828C430.409 629.497 431.167 631.769 433.182 633.643C437.225 628.895 441.395 624.352 445.695 620.014C446.794 617.861 447.171 615.589 446.832 613.2C449.107 613.2 451.383 613.2 453.658 613.2C453.658 613.956 453.658 614.715 453.658 615.471C447.176 628.023 438.076 638.624 426.357 647.271C426.219 642.519 423.944 639.112 419.532 637.05C421.846 634.667 422.226 632.016 420.67 629.1C405.591 640.164 388.529 645.842 369.482 646.135C335.551 647.723 301.803 645.831 268.245 640.457C255.491 642.099 245.254 648.155 237.532 658.628C205.575 677.853 174.483 676.341 144.257 654.085C140.301 647.855 134.991 643.312 128.332 640.457C105.043 602.147 96.3205 560.505 102.17 515.529C104.351 493.569 108.521 471.991 114.682 450.794C103.38 432.472 90.1098 415.437 74.8695 399.687C56.5717 369.166 53.1592 337.366 64.632 304.287C70.613 303.856 77.0581 304.613 83.9695 306.559C94.6689 341.546 110.214 374.104 130.607 404.23C134.766 392.893 138.936 381.536 143.12 370.159C143.395 375.217 145.29 379.38 148.807 382.651C144.762 387.501 143.245 393.179 144.257 399.687C146.532 399.687 148.807 399.687 151.082 399.687C150.386 393.134 151.144 387.076 153.357 381.516C147.076 427.012 147.456 472.44 154.495 517.8C167.435 571.603 201.18 603.78 255.732 614.336C281.699 617.977 306.724 614.949 330.807 605.25C355 591.41 363.342 571.347 355.832 545.057C348.27 525.053 341.825 504.61 336.495 483.729C334.977 464.802 334.977 445.872 336.495 426.944C337.657 421.542 339.175 416.241 341.045 411.044C351.48 393.999 361.338 376.584 370.62 358.801C376.046 330.866 369.598 306.258 351.282 284.98C331.44 275.359 313.62 278.009 297.82 292.93C290.94 306.708 282.978 319.58 273.932 331.544C266.411 326.816 259.586 321.138 253.457 314.509C249.74 313.388 245.947 313.009 242.082 313.373C242.706 298.085 241.568 282.943 238.67 267.945C234.814 258.035 227.609 254.249 217.057 256.588C198.834 258.435 184.047 266.763 172.695 281.573C164.571 292.481 159.643 304.595 157.907 317.916C157.15 317.916 158.544 318.147 157.787 318.147C155.901 336.674 152.609 355.372 152.22 374.701C151.724 368.055 150.586 361.618 148.807 355.394C151.824 340.405 151.824 325.642 148.807 311.102C151.621 292.606 158.824 275.949 170.42 261.131C201.694 228.684 239.992 213.541 285.307 215.702C287.808 200.355 296.908 193.541 312.607 195.26C311.891 199.18 311.513 202.965 311.47 206.617C323.307 195.848 335.439 195.091 347.87 204.345C349.487 208.586 348.35 211.993 344.457 214.567C338.515 216.019 333.205 218.669 328.532 222.517C394.828 242.9 427.816 287.571 427.495 356.53C423.828 372.439 418.14 387.583 410.432 401.958C411.258 403.51 412.016 405.025 412.707 406.501Z" fill="#322F2F"/>
<path fill-rule="evenodd" clip-rule="evenodd" d="M242.083 313.373C236.607 316.313 231.677 320.099 227.296 324.73C225.721 326.858 226.101 328.372 228.433 329.273C229.951 331.544 231.466 333.816 232.983 336.087C229.775 353.268 236.601 358.947 253.458 353.123C259.137 350.67 264.447 347.64 269.383 344.037C273.148 340.757 274.666 336.592 273.933 331.544C282.979 319.579 290.941 306.708 297.821 292.93C313.621 278.009 331.441 275.359 351.283 284.98C369.599 306.258 376.047 330.865 370.621 358.801C361.339 376.584 351.481 393.999 341.046 411.044C339.176 416.241 337.658 421.542 336.496 426.944C334.978 445.871 334.978 464.801 336.496 483.729C341.826 504.61 348.271 525.053 355.833 545.057C356.106 550.132 355.349 555.054 353.558 559.821C348.321 566.118 343.771 572.555 339.908 579.128C279.295 595.633 228.866 579.733 188.621 531.429C169.925 497.746 169.167 463.675 186.346 429.215C192.033 423.537 197.721 417.858 203.408 412.18C210.372 407.557 217.957 404.909 226.158 404.23C226.158 401.958 226.158 399.687 226.158 397.415C203.188 392.196 183.85 380.839 168.146 363.344C164.592 357.763 162.317 351.705 161.321 345.173C160.563 358.045 159.803 370.915 159.046 383.787C157.908 361.843 157.53 339.885 157.908 317.916C159.644 304.595 164.572 292.481 172.696 281.573C184.048 266.763 198.835 258.435 217.058 256.588C227.61 254.249 234.815 258.035 238.671 267.945C241.569 282.942 242.707 298.085 242.083 313.373Z" fill="#FCFBFB"/>
<path fill-rule="evenodd" clip-rule="evenodd" d="M185.208 290.659C197.773 289.926 208.011 294.469 215.921 304.287C217.438 305.801 217.438 307.316 215.921 308.83C205.936 300.075 194.181 295.532 180.658 295.201C182.349 293.653 183.864 292.138 185.208 290.659Z" fill="#232323"/>
<path fill-rule="evenodd" clip-rule="evenodd" d="M148.807 311.102C151.824 325.642 151.824 340.405 148.807 355.394C150.586 361.618 151.723 368.055 152.219 374.701C152.608 355.372 153.746 336.443 155.632 317.916C158.215 337.817 155.618 360.728 153.357 381.516C151.5 387.5 150.386 393.134 151.082 399.687C148.807 399.687 146.532 399.687 144.257 399.687C143.245 393.179 144.762 387.501 148.807 382.651C143.226 378.438 143.395 375.217 143.119 370.158C138.936 381.536 134.766 392.893 130.607 404.23C110.214 374.104 94.6687 341.545 83.9694 306.559C77.0579 304.613 70.6128 303.856 64.6318 304.287C67.2617 292.911 74.0867 287.232 85.1069 287.252C91.3836 301.364 97.831 315.371 104.444 329.273C115.576 341.532 128.848 350.618 144.257 356.53C145.831 355.338 146.969 353.822 147.669 351.987C148.805 338.379 149.185 324.751 148.807 311.102Z" fill="#242223"/>
<path fill-rule="evenodd" clip-rule="evenodd" d="M317.157 308.83C326.673 307.344 333.118 311.129 336.494 320.187C342.475 344.505 333.753 353.214 310.332 346.308C296.095 330.912 298.75 323.719 318.294 324.73C319.559 319.313 319.181 314.013 317.157 308.83Z" fill="#322E2F"/>
<path fill-rule="evenodd" clip-rule="evenodd" d="M242.083 313.373C245.948 313.009 249.74 313.388 253.458 314.509C259.586 321.138 266.411 326.817 273.933 331.545C274.665 336.592 273.148 340.757 269.383 344.037C264.446 347.64 259.136 350.67 253.458 353.123C236.6 358.947 229.775 353.268 232.983 336.087C234.079 341.87 236.354 347.17 239.808 351.987C248.221 347.787 256.561 343.624 264.833 339.494C255.733 335.709 246.633 331.923 237.533 328.137C233.97 326.4 230.937 326.778 228.433 329.273C226.101 328.372 225.721 326.858 227.295 324.73C231.677 320.099 236.607 316.314 242.083 313.373Z" fill="#EC9853"/>
<path fill-rule="evenodd" clip-rule="evenodd" d="M232.982 336.087C231.464 333.816 229.949 331.544 228.432 329.273C230.936 326.778 233.969 326.399 237.532 328.137C246.632 331.923 255.732 335.708 264.832 339.494C256.56 343.624 248.22 347.787 239.807 351.987C236.353 347.169 234.078 341.87 232.982 336.087Z" fill="#DF6A39"/>
<path fill-rule="evenodd" clip-rule="evenodd" d="M156.5 329C156.5 329 157.242 317.5 158 317.5C157.622 339.469 157.908 361.843 159.045 383.787C159.803 370.915 160.562 358.045 161.32 345.173C162.317 351.705 164.592 357.763 168.145 363.344C183.849 380.839 203.187 392.196 226.158 397.415C226.158 399.687 226.158 401.958 226.158 404.23C217.956 404.909 210.371 407.557 203.408 412.18C197.72 417.858 192.033 423.537 186.345 429.215C169.167 463.675 169.924 497.746 188.62 531.429C228.865 579.733 279.295 595.633 339.908 579.129C343.771 572.555 348.321 566.118 353.558 559.822C355.348 555.054 356.106 550.132 355.833 545.057C363.343 571.347 355 591.41 330.808 605.25C306.725 614.949 281.7 617.977 255.733 614.336C201.18 603.78 167.435 571.603 154.495 517.8C147.456 472.44 147.076 427.012 153.358 381.516C155.5 360.5 157 350.5 156.5 329Z" fill="#F0EFF1"/>
<path fill-rule="evenodd" clip-rule="evenodd" d="M519.632 426.944C520 424.5 519.5 423.5 518.357 421.13C511.328 416.664 502.745 415.285 494.607 418.994C488.456 427.194 480.113 431.736 469.582 432.622C452.636 444.858 433.678 452.052 412.707 454.201C408.808 439.278 407.67 424.134 409.295 408.772C410.166 407.51 411.303 406.753 412.707 406.501C434.718 419.971 458.225 423.378 483.232 416.722C493.572 410.426 504.187 404.748 515.082 399.687C518.561 399.753 521.216 401.268 523.045 404.23C524.578 412.434 523.441 420.007 519.632 426.944Z" fill="#252223"/>
<path fill-rule="evenodd" clip-rule="evenodd" d="M444.557 522.343C456.567 551.849 459.602 582.134 453.657 613.2C451.382 613.2 449.107 613.2 446.832 613.2C447.171 615.589 446.793 617.861 445.695 620.014C441.395 624.352 437.225 628.895 433.182 633.643C431.166 631.769 430.409 629.497 430.907 626.828C428.234 627.326 425.959 626.569 424.082 624.557C430 616.5 435.086 608.648 438.87 599.571C443.215 580.13 445.87 560.444 446.832 540.515C445.544 535.524 444.029 530.602 442.282 525.75C442.441 524.013 443.199 522.877 444.557 522.343Z" fill="#252222"/>
<path fill-rule="evenodd" clip-rule="evenodd" d="M426.358 647.271C424.083 648.027 422.566 649.542 421.808 651.814C404.25 664.602 384.532 671.793 362.658 673.392C327.721 673.76 292.838 673.004 258.008 671.121C251.076 672.293 245.769 675.7 242.083 681.342C230.781 685.46 219.406 689.624 207.958 693.835C195.455 695.763 183.322 694.628 171.558 690.428C152.261 677.976 137.854 661.32 128.333 640.457C135.5 643 140.5 647.5 144.258 654.085C174.484 676.341 205.576 677.853 237.533 658.628C245.255 648.155 255.492 642.099 268.246 640.457C301.804 645.831 335.552 647.723 369.483 646.135C388.53 645.842 405.592 640.164 420.671 629.1C422.5 632 421.847 634.667 419.533 637.05C424 639 426.358 642.5 426.358 647.271Z" fill="#262222"/>
<path fill-rule="evenodd" clip-rule="evenodd" d="M453.658 615.471C455.061 615.723 456.199 616.48 457.07 617.743C460.005 644.902 475.172 660.043 502.57 663.171C502.95 664.686 503.328 666.199 503.708 667.714C501.38 671.128 499.105 674.535 496.883 677.935C500.803 689.726 496.253 695.025 483.233 693.835C486.327 698.237 485.569 702.021 480.958 705.192C444.603 706.396 424.888 688.602 421.808 651.814C422.565 649.542 424.083 648.027 426.358 647.271C438.076 638.624 447.176 628.023 453.658 615.471Z" fill="#E39DA7"/>
<path fill-rule="evenodd" clip-rule="evenodd" d="M242.082 681.342C238.012 691.137 231.565 699.466 222.745 706.328C216.004 720.94 207.282 734.189 196.582 746.078C190.92 748.215 186.37 747.079 182.932 742.67C189.145 741.473 195.213 739.581 201.132 736.992C204.907 730.337 205.664 723.522 203.407 716.549C192.212 712.581 182.354 706.523 173.832 698.378C162.985 700.006 154.263 705.685 147.67 715.413C146.571 717.567 146.193 719.838 146.532 722.228C144.034 719.727 143.654 716.699 145.395 713.142C153.216 704.19 161.936 696.617 171.557 690.428C183.321 694.628 195.454 695.763 207.957 693.835C219.405 689.624 230.78 685.46 242.082 681.342Z" fill="#E39DA7"/>
<path fill-rule="evenodd" clip-rule="evenodd" d="M182.931 742.67C181.339 732.874 177.546 731.738 171.556 739.263C158.291 743.047 152.223 738.125 153.356 724.499C150.419 725.037 148.144 724.281 146.531 722.228C146.192 719.838 146.57 717.567 147.669 715.413C154.262 705.685 162.984 700.006 173.831 698.378C182.354 706.523 192.211 712.581 203.406 716.549C205.663 723.522 204.906 730.337 201.131 736.992C195.212 739.581 189.144 741.473 182.931 742.67Z" fill="#DA969F"/>
<defs>
<linearGradient id="paint0_linear_1895_1002" x1="0" y1="0" x2="118.392" y2="732.288" gradientUnits="userSpaceOnUse">
<stop stop-color="#DE1F1F" stop-opacity="0.5"/>
<stop offset="0.361528" stop-color="#671FDE" stop-opacity="0.5"/>
<stop offset="0.663293" stop-color="#221FDE" stop-opacity="0.5"/>
<stop offset="1" stop-color="#00A3FF" stop-opacity="0.5"/>
</linearGradient>
</defs>
</svg>
