<svg width="20" height="21" viewBox="0 0 20 21" fill="none" xmlns="http://www.w3.org/2000/svg">
<circle cx="10" cy="10.5" r="10" fill="white"/>
<path d="M6.10012 13.16C6.10012 13.5067 6.22012 13.8 6.46012 14.04C6.70012 14.28 7.00012 14.4067 7.36012 14.42C7.72012 14.4333 8.01345 14.3067 8.24012 14.04L10.0001 12.28L11.7601 14.04C12.0001 14.2933 12.2935 14.42 12.6401 14.42C12.9868 14.42 13.2868 14.2933 13.5401 14.04C13.7935 13.7867 13.9135 13.4933 13.9001 13.16C13.8868 12.8267 13.7668 12.5333 13.5401 12.28L11.7601 10.5L13.5401 8.74001C13.7801 8.50001 13.9001 8.20668 13.9001 7.86001C13.9001 7.51335 13.7801 7.22001 13.5401 6.98001C13.3001 6.74001 13.0001 6.61335 12.6401 6.60001C12.2801 6.58668 11.9868 6.71335 11.7601 6.98001L10.0001 8.74001L8.24012 6.98001C8.00012 6.72668 7.70679 6.60001 7.36012 6.60001C7.01345 6.60001 6.71345 6.72668 6.46012 6.98001C6.20679 7.23335 6.08679 7.52668 6.10012 7.86001C6.11345 8.19335 6.23345 8.48668 6.46012 8.74001L8.24012 10.5L6.46012 12.28C6.22012 12.52 6.10012 12.8133 6.10012 13.16Z" fill="#020202"/>
</svg>
