<svg width="88" height="50" viewBox="0 0 88 50" fill="none" xmlns="http://www.w3.org/2000/svg">
<path d="M9.63509 0.170278C9.0315 0.304409 7.06424 0.34912 4.82872 0.259699C1.81077 0.170278 0.916563 0.192634 0.491814 0.438541C-0.0223552 0.751513 -0.0223552 0.773869 1.16247 1.04213C4.7393 1.89163 6.12532 2.98703 7.80196 6.36267L8.85266 8.48641V11.0796V13.6728L7.57841 16.4896C6.0359 19.9546 5.09698 22.5925 4.58281 24.8951C4.06864 27.2424 4.06864 32.9877 4.58281 37.0563C5.05227 40.6555 4.89579 41.9074 3.71096 44.3218C3.15208 45.4619 2.52614 46.3114 1.47544 47.295L0 48.6587H0.871852C2.10139 48.6587 4.24749 48.0551 5.16405 47.4515C5.90177 46.9597 5.96884 46.8479 5.90177 45.9537L5.85706 44.9701L6.14768 45.8866C6.84069 47.988 7.5337 48.927 8.80795 49.5753C9.54567 49.9553 10.0598 50 13.0331 49.9553L16.4311 49.8882L15.671 49.0387C15.2686 48.5693 14.5085 47.988 14.0167 47.7198C13.5025 47.4739 13.0778 47.228 13.0331 47.2056C12.9884 47.1832 13.1449 46.7361 13.346 46.222C13.8826 44.8807 15.0227 43.9641 16.1404 43.9641C17.9065 43.9641 18.6889 44.7242 19.2255 46.982C19.8514 49.5529 20.7456 49.9776 25.239 50C27.3851 50 28.4134 49.9106 28.4134 49.7541C28.4134 49.2399 25.9544 47.1385 24.7696 46.6467L23.54 46.1326L24.2777 45.1042C25.5743 43.2711 26.5803 41.2144 27.3851 38.8224C28.3464 35.9162 28.6817 33.5689 28.5923 30.5957C28.5476 29.3438 28.5923 28.3155 28.6594 28.3155C28.9053 28.3155 30.6043 31.5793 30.9843 32.7641L31.3867 33.9937L32.0126 33.2783C32.7727 32.4288 33.108 31.3111 33.108 29.545C33.108 25.9235 30.9843 21.6089 26.2226 15.5059C25.0602 14.0081 24.166 12.9798 24.2554 13.2257C26.7368 19.6864 27.3404 26.5047 25.9991 33.0324C25.2167 36.8551 23.9424 38.6883 21.1257 40.0967C19.5831 40.8344 19.2702 40.9238 17.6159 40.9238C13.3908 40.9014 10.7081 38.7553 9.07621 34.016C8.11493 31.1769 7.77961 28.5614 8.07022 26.1917C8.33849 24.135 8.87501 22.056 9.16563 22.056C9.52331 22.056 11.6023 24.4704 12.273 25.6999C13.4355 27.7342 13.972 29.7238 13.972 32.1158C13.972 33.2783 13.9273 34.6643 13.8826 35.1785C13.8379 35.715 13.9049 36.2516 14.0391 36.3857C14.4638 36.8104 15.4698 36.408 16.3416 35.4915C19.2031 32.4735 19.449 26.9294 17.1017 17.585C16.1628 13.8964 15.9616 12.1303 16.3416 10.9678C16.8558 9.35826 18.1077 8.41934 19.6949 8.41934C20.7009 8.41934 21.3045 8.66525 22.1093 9.40297L22.6458 9.87243L22.0646 8.55348C21.1257 6.42973 19.9185 4.61896 18.3313 2.94232C16.3193 0.818579 14.8886 0.125568 12.4518 0.013792C11.4459 -0.0309184 10.194 0.0361472 9.63509 0.170278Z" fill="#020202"/>
<path d="M41.7084 9H46.4284C48.1884 9 49.5884 10.68 49.5884 12.72V20.6C49.5884 22.68 48.1884 24.32 46.4284 24.32H44.8684V37H41.7084V9ZM44.8684 11.8V21.52H45.6684C46.1084 21.52 46.4284 21.12 46.4284 20.6V12.72C46.4284 12.2 46.1084 11.8 45.6684 11.8H44.8684ZM50.5365 9H56.8565V11.8H53.6965V21.52H56.0565V24.32H53.6965V34.2H56.8565V37H50.5365V9ZM57.685 9H60.805L62.565 20.8L62.405 9H65.565V37H62.445L60.725 25.2L60.845 37H57.685V9ZM69.8275 9H71.3875C73.1475 9 74.5475 10.68 74.5475 12.72V20.2H71.3875V12.72C71.3875 12.2 71.0275 11.8 70.5875 11.8C70.1875 11.8 69.8275 12.2 69.8275 12.72V33.28C69.8275 33.8 70.1875 34.2 70.5875 34.2C71.0275 34.2 71.3875 33.8 71.3875 33.28V25.8H70.4275V23H74.5475V33.28C74.5475 35.32 73.1475 37 71.3875 37H69.8275C68.0675 37 66.6675 35.32 66.6675 33.28V12.72C66.6675 10.68 68.0675 9 69.8275 9ZM75.6146 9H78.7746V34.2H81.9346V37H75.6146V9ZM82.724 9H85.884V37H82.724V9Z" fill="#020202"/>
</svg>
