<svg width="21" height="21" viewBox="0 0 21 21" fill="none" xmlns="http://www.w3.org/2000/svg">
<g id="facebook-round-svgrepo-com 1" clip-path="url(#clip0_305_408)">
<circle id="Ellipse 9" cx="10.1079" cy="10.3496" r="10" fill="white"/>
<path id="Vector" d="M10.1079 0.349609C4.58447 0.349609 0.10791 4.82617 0.10791 10.3496C0.10791 15.873 4.58447 20.3496 10.1079 20.3496C15.6313 20.3496 20.1079 15.873 20.1079 10.3496C20.1079 4.82617 15.6313 0.349609 10.1079 0.349609ZM12.3149 8.6543L12.2017 10.1504H10.6665V15.3457H8.729V10.1504H7.69385V8.6543H8.729V7.65039C8.729 7.20898 8.74072 6.52539 9.06104 6.09961C9.40088 5.65039 9.86572 5.3457 10.6665 5.3457C11.9712 5.3457 12.5181 5.5332 12.5181 5.5332L12.2603 7.06445C12.2603 7.06445 11.8306 6.93945 11.4282 6.93945C11.0259 6.93945 10.6665 7.08398 10.6665 7.48633V8.6543H12.3149Z" fill="#020202"/>
</g>
<defs>
<clipPath id="clip0_305_408">
<rect width="20" height="20" fill="white" transform="translate(0.10791 0.349609)"/>
</clipPath>
</defs>
</svg>
