<svg width="21" height="21" viewBox="0 0 21 21" fill="none" xmlns="http://www.w3.org/2000/svg">
<g id="insta">
<circle id="Ellipse 8" cx="10.1079" cy="10.3496" r="10" fill="#020202"/>
<path id="insta_2" d="M13.1753 5.34961H7.0405C5.97486 5.34961 5.10791 6.21638 5.10791 7.28204V9.32339V13.4172C5.10791 14.4828 5.97486 15.3496 7.0405 15.3496H13.1755C14.2412 15.3496 15.1079 14.4828 15.1079 13.4172V9.32319V7.28183C15.1077 6.21618 14.241 5.34961 13.1753 5.34961ZM13.7296 6.502L13.9507 6.5012V6.72127V8.19621L12.2614 8.20165L12.2555 6.50685L13.7296 6.502ZM8.68061 9.32319C9.00092 8.88002 9.52053 8.58935 10.1079 8.58935C10.6953 8.58935 11.2149 8.88002 11.5348 9.32319C11.7432 9.61244 11.868 9.96625 11.868 10.3495C11.868 11.32 11.0777 12.1095 10.1077 12.1095C9.13708 12.1095 8.34758 11.32 8.34758 10.3495C8.34778 9.96625 8.47224 9.61244 8.68061 9.32319ZM14.1334 13.417C14.1334 13.9457 13.7036 14.3751 13.1753 14.3751H7.0405C6.51202 14.3751 6.08217 13.9457 6.08217 13.417V9.32319H7.57483C7.44594 9.64028 7.37352 9.98662 7.37352 10.3495C7.37352 11.8569 8.59992 13.0842 10.1079 13.0842C11.6157 13.0842 12.8421 11.8569 12.8421 10.3495C12.8421 9.98662 12.7693 9.64028 12.6404 9.32319H14.1334V13.417Z" fill="white"/>
</g>
</svg>
