<svg width="21" height="21" viewBox="0 0 21 21" fill="none" xmlns="http://www.w3.org/2000/svg">
<g id="Frame 177">
<circle id="Ellipse 7" cx="10.1079" cy="10.3496" r="10" fill="white"/>
<path id="Vector" fill-rule="evenodd" clip-rule="evenodd" d="M20.1079 10.3496C20.1079 15.8724 15.6307 20.3496 10.1079 20.3496C4.58506 20.3496 0.10791 15.8724 0.10791 10.3496C0.10791 4.82676 4.58506 0.349609 10.1079 0.349609C15.6307 0.349609 20.1079 4.82676 20.1079 10.3496ZM5.11291 7.34961C5.11291 6.79961 5.55791 6.34961 6.10791 6.34961H14.1079C14.6579 6.34961 15.1079 6.79961 15.1079 7.34961V13.3496C15.1079 13.8996 14.6579 14.3496 14.1079 14.3496H6.10791C5.55791 14.3496 5.10791 13.8996 5.10791 13.3496L5.11291 7.34961ZM10.6379 10.5184C10.3136 10.721 9.90218 10.721 9.57791 10.5184L6.10792 8.34958V13.3496H14.1079V8.34958L10.6379 10.5184ZM10.6379 9.51836C10.3136 9.72103 9.90218 9.72103 9.57791 9.51836L6.10792 7.34962H14.1079L10.6379 9.51836Z" fill="#020202"/>
</g>
</svg>
