<svg width="21" height="21" viewBox="0 0 21 21" fill="none" xmlns="http://www.w3.org/2000/svg">
<g id="Frame 178">
<circle id="Ellipse 7" cx="10.1079" cy="10.3496" r="10" fill="white"/>
<path id="Vector" fill-rule="evenodd" clip-rule="evenodd" d="M20.1079 10.3496C20.1079 15.8724 15.6307 20.3496 10.1079 20.3496C4.58506 20.3496 0.10791 15.8724 0.10791 10.3496C0.10791 4.82676 4.58506 0.349609 10.1079 0.349609C15.6307 0.349609 20.1079 4.82676 20.1079 10.3496ZM7.10791 6.34961C7.10791 5.79733 7.55563 5.34961 8.10791 5.34961H12.1079C12.6602 5.34961 13.1079 5.79733 13.1079 6.34961V14.3496C13.1079 14.9019 12.6602 15.3496 12.1079 15.3496H8.10791C7.55563 15.3496 7.10791 14.9019 7.10791 14.3496V6.34961ZM8.10791 7.34961H12.1079V13.3496H8.10791V7.34961Z" fill="#020202"/>
</g>
</svg>
