<svg width="21" height="21" viewBox="0 0 21 21" fill="none" xmlns="http://www.w3.org/2000/svg">
<g id="Frame 180">
<circle id="Ellipse 7" cx="10.1079" cy="10.3496" r="10" fill="white"/>
<path id="Vector" d="M14.1962 6.33567C14.2002 6.33567 14.2055 6.33567 14.2108 6.33567C14.3496 6.33567 14.4784 6.37883 14.584 6.4532L14.582 6.45187C14.659 6.51893 14.7108 6.61322 14.7234 6.71946V6.72146C14.7367 6.80246 14.744 6.89543 14.744 6.99038C14.744 7.03354 14.7427 7.07604 14.7394 7.11853V7.11256C14.59 8.6856 13.9419 12.5003 13.6126 14.2613C13.4731 15.007 13.1989 15.2566 12.9333 15.2806C12.3562 15.3343 11.918 14.8994 11.3589 14.5329C10.4837 13.9585 9.98905 13.6013 9.13978 13.0415C8.15771 12.3954 8.7945 12.0389 9.35359 11.4585C9.50034 11.3058 12.0442 8.99171 12.094 8.78188C12.0966 8.76926 12.0979 8.75532 12.0979 8.74071C12.0979 8.68892 12.0787 8.64177 12.0475 8.60592C12.013 8.58334 11.9698 8.57072 11.9246 8.57072C11.8948 8.57072 11.8662 8.5767 11.8397 8.58666L11.841 8.586C11.7533 8.60592 10.3554 9.52978 7.64709 11.3576C7.3516 11.5906 6.97843 11.7381 6.57205 11.7553H6.56807C5.99237 11.6856 5.4698 11.5574 4.97378 11.3748L5.02292 11.3908C4.40008 11.1876 3.90539 11.0807 3.94788 10.7367C3.97046 10.5579 4.21703 10.3748 4.68759 10.1876C7.58622 8.92464 9.51915 8.09219 10.4864 7.69025C11.5535 7.12385 12.7905 6.65771 14.0913 6.35559L14.1962 6.33567ZM10.0847 0.349609C4.57205 0.36289 0.10791 4.835 0.10791 10.3496C0.10791 15.8722 4.58467 20.3496 10.1079 20.3496C15.6312 20.3496 20.1079 15.8728 20.1079 10.3496C20.1079 4.835 15.6438 0.36289 10.1325 0.349609H10.1312C10.1157 0.349609 10.1002 0.349609 10.0847 0.349609Z" fill="#020202"/>
</g>
</svg>
