<svg width="21" height="21" viewBox="0 0 21 21" fill="none" xmlns="http://www.w3.org/2000/svg">
<g id="Page-1">
<circle id="Ellipse 7" cx="10.1079" cy="10.3496" r="10" fill="white"/>
<path id="whatsapp-[#128]" fill-rule="evenodd" clip-rule="evenodd" d="M15.9289 14.4707C15.6879 15.1529 14.7299 15.7173 13.9659 15.8823C13.4429 15.9934 12.7609 16.0812 10.4629 15.1289C7.88191 14.0596 4.29791 10.2506 4.29791 7.71582C4.29791 6.42543 5.04191 4.92285 6.34291 4.92285C6.96891 4.92285 7.10691 4.93506 7.31291 5.4292C7.55391 6.01138 8.14191 7.44573 8.21191 7.59277C8.50091 8.19595 7.9179 8.54906 7.4949 9.07422C7.3599 9.23226 7.20691 9.40319 7.37791 9.69727C7.54791 9.98536 8.13591 10.9437 8.99991 11.7129C10.1159 12.7072 11.0209 13.0246 11.3449 13.1597C11.5859 13.2597 11.8739 13.2364 12.0499 13.0483C12.2729 12.8073 12.5499 12.4073 12.8319 12.0132C13.0309 11.7311 13.2839 11.6959 13.5489 11.7959C13.7279 11.8579 16.0029 12.9144 16.0989 13.0835C16.1699 13.2065 16.1699 13.7885 15.9289 14.4707ZM10.1099 0.349609H10.1049C4.5919 0.349609 0.10791 4.83496 0.10791 10.3496C0.10791 12.5363 0.812917 14.5649 2.01192 16.2104L0.765915 19.9263L4.60892 18.6982C6.18992 19.7446 8.07691 20.3496 10.1099 20.3496C15.6229 20.3496 20.1079 15.8643 20.1079 10.3496C20.1079 4.83496 15.6229 0.349609 10.1099 0.349609Z" fill="#020202"/>
</g>
</svg>
