<svg width="24" height="14" viewBox="0 0 24 14" fill="none" xmlns="http://www.w3.org/2000/svg">
<path d="M1.66585 13.0371L12.0011 2.9625L22.3363 13.0371C22.5209 13.2175 22.7688 13.3185 23.0269 13.3185C23.2851 13.3185 23.5329 13.2175 23.7176 13.0371C23.807 12.9495 23.878 12.845 23.9265 12.7296C23.975 12.6142 24 12.4903 24 12.3651C24 12.2399 23.975 12.116 23.9265 12.0006C23.878 11.8852 23.807 11.7806 23.7176 11.693L12.7227 0.973208C12.5297 0.785004 12.2707 0.679671 12.0011 0.679671C11.7314 0.679671 11.4725 0.785004 11.2794 0.973208L0.284517 11.691C0.194475 11.7786 0.12291 11.8835 0.0740414 11.9992C0.0251751 12.115 0 12.2394 0 12.3651C0 12.4908 0.0251751 12.6152 0.0740414 12.7309C0.12291 12.8467 0.194475 12.9515 0.284517 13.0392C0.469173 13.2196 0.71706 13.3206 0.975187 13.3206C1.23331 13.3206 1.4812 13.2196 1.66585 13.0392V13.0371Z" fill="#020202"/>
</svg>
