<svg width="24" height="14" viewBox="0 0 24 14" fill="none" xmlns="http://www.w3.org/2000/svg">
<path d="M22.3341 0.962851L11.9989 11.0375L1.66374 0.962851C1.47908 0.782487 1.2312 0.681511 0.973069 0.681511C0.714943 0.681511 0.467057 0.782487 0.282401 0.962851C0.192991 1.05045 0.12196 1.15502 0.0734686 1.27042C0.0249771 1.38582 0 1.50973 0 1.63491C0 1.76008 0.0249771 1.884 0.0734686 1.9994C0.12196 2.1148 0.192991 2.21936 0.282401 2.30696L11.2773 13.0268C11.4703 13.215 11.7293 13.3203 11.9989 13.3203C12.2686 13.3203 12.5275 13.215 12.7206 13.0268L23.7155 2.30903C23.8055 2.22136 23.8771 2.11654 23.926 2.00076C23.9748 1.88498 24 1.76058 24 1.63491C24 1.50924 23.9748 1.38484 23.926 1.26905C23.8771 1.15327 23.8055 1.04845 23.7155 0.960782C23.5308 0.780418 23.2829 0.679443 23.0248 0.679443C22.7667 0.679443 22.5188 0.780418 22.3341 0.960782V0.962851Z" fill="#020202"/>
</svg>
